<svg version="1.1" viewBox="0.0 0.0 960.0 540.0" fill="none" stroke="none" stroke-linecap="square" stroke-miterlimit="10" xmlns:xlink="http://www.w3.org/1999/xlink" xmlns="http://www.w3.org/2000/svg"><clipPath id="g8c1e35bd59_0_19.0"><path d="m0 0l960.0 0l0 540.0l-960.0 0l0 -540.0z" clip-rule="nonzero"/></clipPath><g clip-path="url(#g8c1e35bd59_0_19.0)"><path fill="#ffffff" d="m0 0l960.0 0l0 540.0l-960.0 0z" fill-rule="evenodd"/><path fill="#c9daf8" d="m30.475065 191.10272l0 0c0 -9.961624 8.075487 -18.03711 18.037107 -18.03711l248.27225 0c4.783722 0 9.3715515 1.9003296 12.75415 5.2829437c3.3826294 3.3826141 5.282959 7.9704285 5.282959 12.754166l0 72.14627c0 9.961609 -8.0755005 18.03711 -18.03711 18.03711l-248.27225 0l0 0c-9.96162 0 -18.037107 -8.0755005 -18.037107 -18.03711z" fill-rule="evenodd"/><path stroke="#000000" stroke-width="4.0" stroke-linejoin="round" stroke-linecap="butt" d="m30.475065 191.10272l0 0c0 -9.961624 8.075487 -18.03711 18.037107 -18.03711l248.27225 0c4.783722 0 9.3715515 1.9003296 12.75415 5.2829437c3.3826294 3.3826141 5.282959 7.9704285 5.282959 12.754166l0 72.14627c0 9.961609 -8.0755005 18.03711 -18.03711 18.03711l-248.27225 0l0 0c-9.96162 0 -18.037107 -8.0755005 -18.037107 -18.03711z" fill-rule="evenodd"/><path fill="#000000" d="m105.055664 218.4671l0 -2.71875l7.0625 0l0 6.453125q-1.03125 1.0 -2.984375 1.765625q-1.953125 0.75 -3.953125 0.75q-2.546875 0 -4.4375 -1.0625q-1.890625 -1.078125 -2.84375 -3.0625q-0.953125 -1.984375 -0.953125 -4.328125q0 -2.53125 1.0625 -4.5q1.0625 -1.96875 3.109375 -3.015625q1.5625 -0.8125 3.890625 -0.8125q3.015625 0 4.703125 1.265625q1.703125 1.265625 2.203125 3.515625l-3.265625 0.59375q-0.328125 -1.1875 -1.28125 -1.875q-0.953125 -0.703125 -2.359375 -0.703125q-2.15625 0 -3.421875 1.375q-1.265625 1.359375 -1.265625 4.03125q0 2.890625 1.28125 4.34375q1.296875 1.4375 3.375 1.4375q1.03125 0 2.0625 -0.40625q1.03125 -0.40625 1.765625 -0.984375l0 -2.0625l-3.75 0zm16.872757 2.234375l3.09375 0.515625q-0.59375 1.703125 -1.890625 2.59375q-1.28125 0.890625 -3.21875 0.890625q-3.0625 0 -4.546875 -2.0q-1.15625 -1.609375 -1.15625 -4.046875q0 -2.921875 1.515625 -4.578125q1.53125 -1.65625 3.875 -1.65625q2.625 0 4.140625 1.734375q1.515625 1.734375 1.4375 5.296875l-7.78125 0q0.03125 1.390625 0.75 2.15625q0.71875 0.765625 1.796875 0.765625q0.71875 0 1.21875 -0.390625q0.5 -0.40625 0.765625 -1.28125zm0.171875 -3.140625q-0.03125 -1.359375 -0.703125 -2.0625q-0.65625 -0.703125 -1.609375 -0.703125q-1.015625 0 -1.6875 0.75q-0.65625 0.734375 -0.65625 2.015625l4.65625 0zm11.006577 -4.875l0 2.484375l-2.125 0l0 4.734375q0 1.4375 0.0625 1.671875q0.0625 0.234375 0.265625 0.390625q0.21875 0.15625 0.53125 0.15625q0.4375 0 1.25 -0.296875l0.265625 2.40625q-1.078125 0.46875 -2.453125 0.46875q-0.84375 0 -1.515625 -0.28125q-0.671875 -0.28125 -1.0 -0.71875q-0.3125 -0.453125 -0.421875 -1.21875q-0.109375 -0.546875 -0.109375 -2.203125l0 -5.109375l-1.421875 0l0 -2.484375l1.421875 0l0 -2.328125l3.125 -1.8125l0 4.140625l2.125 0zm7.5447083 0l0 2.484375l-2.125 0l0 4.734375q0 1.4375 0.0625 1.671875q0.0625 0.234375 0.265625 0.390625q0.21875 0.15625 0.53125 0.15625q0.4375 0 1.25 -0.296875l0.265625 2.40625q-1.078125 0.46875 -2.453125 0.46875q-0.84375 0 -1.515625 -0.28125q-0.671875 -0.28125 -1.0 -0.71875q-0.3125 -0.453125 -0.421875 -1.21875q-0.109375 -0.546875 -0.109375 -2.203125l0 -5.109375l-1.421875 0l0 -2.484375l1.421875 0l0 -2.328125l3.125 -1.8125l0 4.140625l2.125 0zm8.966583 8.015625l3.09375 0.515625q-0.59375 1.703125 -1.890625 2.59375q-1.28125 0.890625 -3.21875 0.890625q-3.0625 0 -4.546875 -2.0q-1.15625 -1.609375 -1.15625 -4.046875q0 -2.921875 1.515625 -4.578125q1.53125 -1.65625 3.875 -1.65625q2.625 0 4.140625 1.734375q1.515625 1.734375 1.4375 5.296875l-7.78125 0q0.03125 1.390625 0.75 2.15625q0.71875 0.765625 1.796875 0.765625q0.71875 0 1.21875 -0.390625q0.5 -0.40625 0.765625 -1.28125zm0.171875 -3.140625q-0.03125 -1.359375 -0.703125 -2.0625q-0.65625 -0.703125 -1.609375 -0.703125q-1.015625 0 -1.6875 0.75q-0.65625 0.734375 -0.65625 2.015625l4.65625 0zm8.600327 6.875l-3.109375 0l0 -11.75l2.875 0l0 1.671875q0.75 -1.1875 1.34375 -1.5625q0.59375 -0.375 1.34375 -0.375q1.0625 0 2.046875 0.59375l-0.96875 2.703125q-0.78125 -0.5 -1.453125 -0.5q-0.65625 0 -1.109375 0.359375q-0.453125 0.359375 -0.71875 1.296875q-0.25 0.9375 -0.25 3.9375l0 3.625zm12.111542 0l0 -16.21875l4.890625 0l2.953125 11.0625l2.90625 -11.0625l4.90625 0l0 16.21875l-3.046875 0l0 -12.765625l-3.21875 12.765625l-3.140625 0l-3.21875 -12.765625l0 12.765625l-3.03125 0zm25.700958 -3.734375l3.09375 0.515625q-0.59375 1.703125 -1.890625 2.59375q-1.28125 0.890625 -3.21875 0.890625q-3.0625 0 -4.546875 -2.0q-1.15625 -1.609375 -1.15625 -4.046875q0 -2.921875 1.515625 -4.578125q1.53125 -1.65625 3.875 -1.65625q2.625 0 4.140625 1.734375q1.515625 1.734375 1.4375 5.296875l-7.78125 0q0.03125 1.390625 0.75 2.15625q0.71875 0.765625 1.796875 0.765625q0.71875 0 1.21875 -0.390625q0.5 -0.40625 0.765625 -1.28125zm0.171875 -3.140625q-0.03125 -1.359375 -0.703125 -2.0625q-0.65625 -0.703125 -1.609375 -0.703125q-1.015625 0 -1.6875 0.75q-0.65625 0.734375 -0.65625 2.015625l4.65625 0zm11.006577 -4.875l0 2.484375l-2.125 0l0 4.734375q0 1.4375 0.0625 1.671875q0.0625 0.234375 0.265625 0.390625q0.21875 0.15625 0.53125 0.15625q0.4375 0 1.25 -0.296875l0.265625 2.40625q-1.078125 0.46875 -2.453125 0.46875q-0.84375 0 -1.515625 -0.28125q-0.671875 -0.28125 -1.0 -0.71875q-0.3125 -0.453125 -0.421875 -1.21875q-0.109375 -0.546875 -0.109375 -2.203125l0 -5.109375l-1.421875 0l0 -2.484375l1.421875 0l0 -2.328125l3.125 -1.8125l0 4.140625l2.125 0zm5.2478333 -4.46875l0 5.96875q1.515625 -1.765625 3.59375 -1.765625q1.078125 0 1.9375 0.40625q0.875 0.390625 1.296875 1.015625q0.4375 0.609375 0.59375 1.375q0.171875 0.75 0.171875 2.328125l0 6.890625l-3.109375 0l0 -6.203125q0 -1.84375 -0.1875 -2.34375q-0.171875 -0.5 -0.625 -0.796875q-0.4375 -0.296875 -1.109375 -0.296875q-0.78125 0 -1.390625 0.375q-0.609375 0.375 -0.890625 1.140625q-0.28125 0.75 -0.28125 2.234375l0 5.890625l-3.109375 0l0 -16.21875l3.109375 0zm10.02684 10.171875q0 -1.546875 0.765625 -2.984375q0.765625 -1.453125 2.15625 -2.21875q1.40625 -0.765625 3.125 -0.765625q2.671875 0 4.375 1.734375q1.703125 1.734375 1.703125 4.375q0 2.671875 -1.71875 4.421875q-1.71875 1.75 -4.328125 1.75q-1.625 0 -3.09375 -0.71875q-1.453125 -0.734375 -2.21875 -2.140625q-0.765625 -1.421875 -0.765625 -3.453125zm3.1875 0.171875q0 1.75 0.828125 2.6875q0.828125 0.921875 2.046875 0.921875q1.21875 0 2.03125 -0.921875q0.828125 -0.9375 0.828125 -2.703125q0 -1.734375 -0.828125 -2.65625q-0.8125 -0.9375 -2.03125 -0.9375q-1.21875 0 -2.046875 0.9375q-0.828125 0.921875 -0.828125 2.671875zm22.15184 5.875l-2.890625 0l0 -1.71875q-0.71875 1.0 -1.703125 1.5q-0.96875 0.484375 -1.96875 0.484375q-2.03125 0 -3.484375 -1.625q-1.4375 -1.640625 -1.4375 -4.5625q0 -2.984375 1.40625 -4.53125q1.40625 -1.5625 3.5625 -1.5625q1.96875 0 3.40625 1.640625l0 -5.84375l3.109375 0l0 16.21875zm-8.296875 -6.125q0 1.875 0.515625 2.71875q0.75 1.21875 2.09375 1.21875q1.078125 0 1.828125 -0.90625q0.75 -0.921875 0.75 -2.734375q0 -2.03125 -0.734375 -2.921875q-0.71875 -0.890625 -1.859375 -0.890625q-1.109375 0 -1.859375 0.890625q-0.734375 0.875 -0.734375 2.625z" fill-rule="nonzero"/><path fill="#000000" d="m54.05483 242.06085l0 -0.671875l2.65625 0q0.8125 0 1.15625 0.3125q0.359375 0.3125 0.359375 0.828125q0 0.5 -0.359375 0.8125q-0.34375 0.3125 -1.15625 0.3125l-0.390625 0l0 8.25q0 1.203125 -0.515625 2.09375q-0.5 0.890625 -1.546875 1.53125q-1.03125 0.640625 -2.328125 0.640625l-2.5625 0q-0.828125 0 -1.171875 -0.3125q-0.34375 -0.3125 -0.34375 -0.8125q0 -0.515625 0.34375 -0.828125q0.34375 -0.3125 1.171875 -0.3125l2.5 0q1.03125 0 1.609375 -0.5625q0.578125 -0.5625 0.578125 -1.4375l0 -1.09375q-0.75 0.484375 -1.53125 0.71875q-0.78125 0.25 -1.609375 0.25q-2.3125 0 -3.875 -1.546875q-1.546875 -1.546875 -1.546875 -3.8125q0 -2.28125 1.546875 -3.8125q1.5625 -1.546875 3.875 -1.546875q0.875 0 1.640625 0.25q0.78125 0.25 1.5 0.75zm-0.015625 4.359375q0 -1.25 -0.921875 -2.171875q-0.921875 -0.921875 -2.21875 -0.921875q-1.296875 0 -2.21875 0.921875q-0.921875 0.921875 -0.921875 2.171875q0 1.25 0.921875 2.171875q0.921875 0.90625 2.21875 0.90625q1.296875 0 2.21875 -0.90625q0.921875 -0.921875 0.921875 -2.171875zm16.799084 1.140625l-9.296871 0q0.359375 0.890625 1.25 1.4375q0.90625 0.53125 2.4374962 0.53125q1.265625 0 3.359375 -0.53125q0.859375 -0.234375 1.1875 -0.234375q0.453125 0 0.765625 0.328125q0.3125 0.3125 0.3125 0.8125q0 0.4375 -0.328125 0.75q-0.453125 0.40625 -2.171875 0.78125q-1.703125 0.359375 -3.28125 0.359375q-2.7187462 0 -4.359371 -1.53125q-1.625 -1.53125 -1.625 -3.78125q0 -2.390625 1.765625 -3.890625q1.765625 -1.5 4.062496 -1.5q1.375 0 2.53125 0.484375q1.15625 0.484375 1.71875 1.046875q0.796875 0.828125 1.328125 2.03125q0.34375 0.84375 0.34375 1.953125l0 0.953125zm-2.5 -2.265625q-0.53125 -0.96875 -1.375 -1.453125q-0.828125 -0.484375 -2.0 -0.484375q-1.1406212 0 -1.9843712 0.484375q-0.84375 0.484375 -1.375 1.453125l6.734371 0zm9.845963 -1.640625l0 4.546875q0 0.734375 0.296875 0.96875q0.46875 0.359375 1.671875 0.359375q1.734375 0 3.203125 -0.734375q0.5625 -0.296875 0.890625 -0.296875q0.4375 0 0.765625 0.34375q0.328125 0.328125 0.328125 0.796875q0 0.453125 -0.359375 0.765625q-0.546875 0.515625 -2.140625 0.953125q-1.59375 0.4375 -2.6875 0.4375q-2.125 0 -3.1875 -0.90625q-1.046875 -0.90625 -1.046875 -2.234375l0 -5.0l-0.8125 0q-0.828125 0 -1.171875 -0.3125q-0.34375 -0.3125 -0.34375 -0.828125q0 -0.5 0.34375 -0.8125q0.34375 -0.3125 1.171875 -0.3125l0.8125 0l0 -2.046875q0 -0.8125 0.3125 -1.15625q0.328125 -0.359375 0.828125 -0.359375q0.5 0 0.8125 0.359375q0.3125 0.34375 0.3125 1.15625l0 2.046875l4.203125 0q0.8125 0 1.15625 0.3125q0.359375 0.3125 0.359375 0.828125q0 0.5 -0.359375 0.8125q-0.34375 0.3125 -1.15625 0.3125l-4.203125 0zm15.299088 -3.359375l0 8.875l2.28125 0q0.828125 0 1.171875 0.3125q0.34375 0.3125 0.34375 0.828125q0 0.5 -0.34375 0.8125q-0.34375 0.3125 -1.171875 0.3125l-6.84375 0q-0.8125 0 -1.171875 -0.3125q-0.34375 -0.3125 -0.34375 -0.828125q0 -0.5 0.34375 -0.8125q0.359375 -0.3125 1.171875 -0.3125l2.296875 0l0 -8.875l-2.296875 0q-0.8125 0 -1.171875 -0.3125q-0.34375 -0.3125 -0.34375 -0.828125q0 -0.5 0.34375 -0.8125q0.359375 -0.328125 1.171875 -0.328125l6.84375 0.015625q0.828125 0 1.171875 0.3125q0.34375 0.3125 0.34375 0.8125q0 0.515625 -0.34375 0.828125q-0.34375 0.3125 -1.171875 0.3125l-2.28125 0zm14.908463 3.75q-0.5625 -0.34375 -1.171875 -0.515625q-0.59375 -0.171875 -1.265625 -0.171875q-1.3125 0 -2.09375 0.4375q-0.34375 0.1875 -0.34375 0.40625q0 0.25 0.46875 0.5q0.359375 0.171875 1.578125 0.34375q2.265625 0.3125 3.140625 0.609375q1.171875 0.421875 1.796875 1.234375q0.625 0.796875 0.625 1.6875q0 1.21875 -1.0625 2.046875q-1.546875 1.171875 -4.0 1.171875q-0.984375 0 -1.828125 -0.171875q-0.828125 -0.171875 -1.515625 -0.5q-0.171875 0.140625 -0.359375 0.21875q-0.1875 0.078125 -0.390625 0.078125q-0.53125 0 -0.84375 -0.34375q-0.3125 -0.34375 -0.3125 -1.171875l0 -0.765625q0 -0.8125 0.3125 -1.15625q0.3125 -0.359375 0.828125 -0.359375q0.40625 0 0.671875 0.234375q0.28125 0.21875 0.4375 0.78125q0.53125 0.4375 1.25 0.671875q0.734375 0.21875 1.6875 0.21875q1.5625 0 2.421875 -0.484375q0.40625 -0.25 0.40625 -0.5q0 -0.453125 -0.578125 -0.734375q-0.59375 -0.296875 -2.421875 -0.484375q-2.734375 -0.296875 -3.65625 -1.109375q-0.921875 -0.8125 -0.921875 -2.0q0 -1.21875 1.03125 -2.015625q1.390625 -1.109375 3.65625 -1.109375q0.78125 0 1.5 0.15625q0.734375 0.140625 1.390625 0.453125q0.21875 -0.15625 0.390625 -0.234375q0.1875 -0.078125 0.34375 -0.078125q0.46875 0 0.765625 0.359375q0.3125 0.34375 0.3125 1.15625l0 0.5625q0 0.734375 -0.171875 1.0q-0.359375 0.515625 -0.96875 0.515625q-0.40625 0 -0.71875 -0.25q-0.296875 -0.265625 -0.390625 -0.6875zm13.595963 0q-0.5625 -0.34375 -1.171875 -0.515625q-0.59375 -0.171875 -1.265625 -0.171875q-1.3125 0 -2.09375 0.4375q-0.34375 0.1875 -0.34375 0.40625q0 0.25 0.46875 0.5q0.359375 0.171875 1.578125 0.34375q2.265625 0.3125 3.140625 0.609375q1.171875 0.421875 1.796875 1.234375q0.625 0.796875 0.625 1.6875q0 1.21875 -1.0625 2.046875q-1.546875 1.171875 -4.0 1.171875q-0.984375 0 -1.828125 -0.171875q-0.828125 -0.171875 -1.515625 -0.5q-0.171875 0.140625 -0.359375 0.21875q-0.1875 0.078125 -0.390625 0.078125q-0.53125 0 -0.84375 -0.34375q-0.3125 -0.34375 -0.3125 -1.171875l0 -0.765625q0 -0.8125 0.3125 -1.15625q0.3125 -0.359375 0.828125 -0.359375q0.40625 0 0.671875 0.234375q0.28125 0.21875 0.4375 0.78125q0.53125 0.4375 1.25 0.671875q0.734375 0.21875 1.6875 0.21875q1.5625 0 2.421875 -0.484375q0.40625 -0.25 0.40625 -0.5q0 -0.453125 -0.578125 -0.734375q-0.59375 -0.296875 -2.421875 -0.484375q-2.734375 -0.296875 -3.65625 -1.109375q-0.921875 -0.8125 -0.921875 -2.0q0 -1.21875 1.03125 -2.015625q1.390625 -1.109375 3.65625 -1.109375q0.78125 0 1.5 0.15625q0.734375 0.140625 1.390625 0.453125q0.21875 -0.15625 0.390625 -0.234375q0.1875 -0.078125 0.34375 -0.078125q0.46875 0 0.765625 0.359375q0.3125 0.34375 0.3125 1.15625l0 0.5625q0 0.734375 -0.171875 1.0q-0.359375 0.515625 -0.96875 0.515625q-0.40625 0 -0.71875 -0.25q-0.296875 -0.265625 -0.390625 -0.6875zm15.955338 -2.65625l0 7.78125q0.71875 0 1.0625 0.328125q0.34375 0.3125 0.34375 0.8125q0 0.5 -0.34375 0.8125q-0.34375 0.3125 -1.171875 0.3125l-2.15625 0l0 -0.515625q-0.96875 0.4375 -1.859375 0.65625q-0.875 0.21875 -1.671875 0.21875q-1.125 0 -1.953125 -0.46875q-0.8125 -0.46875 -1.28125 -1.296875q-0.34375 -0.59375 -0.34375 -1.484375l0 -4.890625l-0.390625 0q-0.8125 0 -1.171875 -0.3125q-0.34375 -0.3125 -0.34375 -0.828125q0 -0.5 0.34375 -0.8125q0.359375 -0.3125 1.171875 -0.3125l2.65625 0l0 6.75q0 0.71875 0.34375 1.0625q0.359375 0.328125 1.078125 0.328125q0.6875 0 1.46875 -0.265625q0.796875 -0.265625 1.953125 -0.984375l0 -4.625l-0.8125 0q-0.828125 0 -1.171875 -0.3125q-0.34375 -0.3125 -0.34375 -0.828125q0 -0.5 0.34375 -0.8125q0.34375 -0.3125 1.171875 -0.3125l3.078125 0zm14.470963 6.171875l-9.296875 0q0.359375 0.890625 1.25 1.4375q0.90625 0.53125 2.4375 0.53125q1.265625 0 3.359375 -0.53125q0.859375 -0.234375 1.1875 -0.234375q0.453125 0 0.765625 0.328125q0.3125 0.3125 0.3125 0.8125q0 0.4375 -0.328125 0.75q-0.453125 0.40625 -2.171875 0.78125q-1.703125 0.359375 -3.28125 0.359375q-2.71875 0 -4.359375 -1.53125q-1.625 -1.53125 -1.625 -3.78125q0 -2.390625 1.765625 -3.890625q1.765625 -1.5 4.0625 -1.5q1.375 0 2.53125 0.484375q1.15625 0.484375 1.71875 1.046875q0.796875 0.828125 1.328125 2.03125q0.34375 0.84375 0.34375 1.953125l0 0.953125zm-2.5 -2.265625q-0.53125 -0.96875 -1.375 -1.453125q-0.828125 -0.484375 -2.0 -0.484375q-1.140625 0 -1.984375 0.484375q-0.84375 0.484375 -1.375 1.453125l6.734375 0zm9.939713 -3.90625l0 1.421875q1.421875 -1.03125 2.25 -1.375q0.828125 -0.34375 1.546875 -0.34375q1.109375 0 2.140625 0.8125q0.703125 0.5625 0.703125 1.140625q0 0.484375 -0.34375 0.828125q-0.328125 0.328125 -0.796875 0.328125q-0.421875 0 -0.890625 -0.421875q-0.46875 -0.421875 -0.828125 -0.421875q-0.46875 0 -1.421875 0.609375q-0.9375 0.59375 -2.359375 1.78125l0 3.421875l3.234375 0q0.8125 0 1.15625 0.3125q0.359375 0.3125 0.359375 0.828125q0 0.5 -0.359375 0.8125q-0.34375 0.3125 -1.15625 0.3125l-6.859375 0q-0.8125 0 -1.171875 -0.3125q-0.34375 -0.3125 -0.34375 -0.828125q0 -0.5 0.34375 -0.8125q0.359375 -0.3125 1.171875 -0.3125l1.359375 0l0 -5.515625l-0.828125 0q-0.8125 0 -1.171875 -0.3125q-0.34375 -0.3125 -0.34375 -0.828125q0 -0.5 0.34375 -0.8125q0.359375 -0.3125 1.171875 -0.3125l3.09375 0zm13.252213 4.53125q0 -1.921875 0.640625 -3.90625q0.484375 -1.46875 1.46875 -3.25q0.71875 -1.296875 1.0625 -1.578125q0.34375 -0.296875 0.765625 -0.296875q0.484375 0 0.8125 0.328125q0.34375 0.328125 0.34375 0.796875q0 0.328125 -0.265625 0.765625q-1.203125 1.953125 -1.75 3.671875q-0.546875 1.71875 -0.546875 3.46875q0 1.78125 0.546875 3.5q0.546875 1.703125 1.75 3.65625q0.265625 0.4375 0.265625 0.765625q0 0.46875 -0.34375 0.796875q-0.328125 0.34375 -0.8125 0.34375q-0.40625 0 -0.71875 -0.265625q-0.4375 -0.390625 -1.171875 -1.75q-1.046875 -1.953125 -1.4375 -3.21875q-0.609375 -1.953125 -0.609375 -3.828125zm15.377213 0q0 1.9375 -0.640625 3.9375q-0.46875 1.453125 -1.46875 3.234375q-0.71875 1.28125 -1.0625 1.578125q-0.34375 0.3125 -0.765625 0.3125q-0.484375 0 -0.828125 -0.34375q-0.328125 -0.328125 -0.328125 -0.796875q0 -0.328125 0.265625 -0.765625q1.203125 -1.953125 1.75 -3.65625q0.546875 -1.71875 0.546875 -3.5q0 -1.75 -0.546875 -3.46875q-0.546875 -1.71875 -1.75 -3.671875q-0.265625 -0.4375 -0.265625 -0.765625q0 -0.46875 0.328125 -0.796875q0.34375 -0.328125 0.828125 -0.328125q0.40625 0 0.71875 0.265625q0.4375 0.375 1.171875 1.734375q1.046875 1.953125 1.4375 3.21875q0.609375 1.953125 0.609375 3.8125z" fill-rule="nonzero"/><path fill="#f4cccc" d="m251.74147 48.475346l0 0c0 -7.7176476 6.2563934 -13.974033 13.974045 -13.974033l192.11493 0c3.7061157 0 7.2604675 1.4722595 9.8811035 4.0928993c2.6206665 2.6206398 4.092926 6.174988 4.092926 9.881134l0 55.89445c0 7.7176514 -6.2564087 13.974037 -13.97403 13.974037l-192.11493 0l0 0c-7.7176514 0 -13.974045 -6.256386 -13.974045 -13.974037z" fill-rule="evenodd"/><path stroke="#000000" stroke-width="4.0" stroke-linejoin="round" stroke-linecap="butt" d="m251.74147 48.475346l0 0c0 -7.7176476 6.2563934 -13.974033 13.974045 -13.974033l192.11493 0c3.7061157 0 7.2604675 1.4722595 9.8811035 4.0928993c2.6206665 2.6206398 4.092926 6.174988 4.092926 9.881134l0 55.89445c0 7.7176514 -6.2564087 13.974037 -13.97403 13.974037l-192.11493 0l0 0c-7.7176514 0 -13.974045 -6.256386 -13.974045 -13.974037z" fill-rule="evenodd"/><path fill="#000000" d="m329.43262 73.76882l0 0.875q0.75 -0.734375 1.359375 -1.015625q0.609375 -0.28125 1.40625 -0.28125q0.671875 0 1.328125 0.328125q0.65625 0.328125 1.28125 1.0q0.796875 -0.671875 1.609375 -0.984375q0.828125 -0.328125 1.671875 -0.328125q1.703125 0 2.765625 0.921875q1.40625 1.1875 1.40625 3.140625l0 6.875q0.96875 0 1.421875 0.4375q0.46875 0.421875 0.46875 1.09375q0 0.671875 -0.46875 1.109375q-0.453125 0.421875 -1.5625 0.421875l-2.921875 0l0 -9.6875q0 -0.703125 -0.25 -0.96875q-0.25 -0.265625 -0.78125 -0.265625q-0.515625 0 -0.9375 0.265625q-0.5625 0.375 -1.359375 1.40625l0 6.1875q0.96875 0 1.421875 0.4375q0.46875 0.421875 0.46875 1.09375q0 0.671875 -0.46875 1.109375q-0.453125 0.421875 -1.5625 0.421875l-2.921875 0l0 -9.6875q0 -0.6875 -0.265625 -0.953125q-0.25 -0.28125 -0.78125 -0.28125q-0.546875 0 -1.078125 0.34375q-0.515625 0.328125 -1.25 1.328125l0 6.1875q0.96875 0 1.4375 0.4375q0.46875 0.421875 0.46875 1.09375q0 0.671875 -0.46875 1.109375q-0.46875 0.421875 -1.578125 0.421875l-2.765625 0q-1.109375 0 -1.578125 -0.421875q-0.484375 -0.4375 -0.484375 -1.125q0 -0.671875 0.46875 -1.09375q0.46875 -0.421875 1.4375 -0.421875l0 -7.453125q-0.96875 0 -1.4375 -0.4375q-0.46875 -0.4375 -0.46875 -1.109375q0 -0.671875 0.484375 -1.09375q0.46875 -0.4375 1.578125 -0.4375l2.90625 0zm24.240479 -5.828125l0 3.25l-3.65625 0l0 -3.25l3.65625 0zm0.421875 5.828125l0 10.53125l3.6875 0q1.09375 0 1.5625 0.421875q0.484375 0.421875 0.484375 1.109375q0 0.671875 -0.484375 1.109375q-0.46875 0.421875 -1.5625 0.421875l-10.4375 0q-1.109375 0 -1.578125 -0.421875q-0.46875 -0.4375 -0.46875 -1.125q0 -0.671875 0.46875 -1.09375q0.46875 -0.421875 1.578125 -0.421875l3.6875 0l0 -7.453125l-2.484375 0q-1.078125 0 -1.5625 -0.421875q-0.484375 -0.4375 -0.484375 -1.125q0 -0.671875 0.46875 -1.09375q0.484375 -0.4375 1.578125 -0.4375l5.546875 0zm13.771759 0l0 1.03125q0.84375 -0.71875 1.84375 -1.078125q1.015625 -0.359375 2.203125 -0.359375q2.71875 0 4.296875 1.703125q1.265625 1.34375 1.265625 3.53125l0 5.703125q0.96875 0 1.4375 0.421875q0.46875 0.421875 0.46875 1.109375q0 0.671875 -0.484375 1.109375q-0.46875 0.421875 -1.578125 0.421875l-2.765625 0q-1.109375 0 -1.578125 -0.421875q-0.46875 -0.4375 -0.46875 -1.125q0 -0.671875 0.453125 -1.09375q0.46875 -0.421875 1.453125 -0.421875l0 -5.796875q0 -1.0 -0.546875 -1.46875q-0.703125 -0.59375 -2.109375 -0.59375q-1.0625 0 -1.875 0.40625q-0.796875 0.40625 -2.015625 1.75l0 5.703125q1.1875 0 1.53125 0.21875q0.734375 0.453125 0.734375 1.3125q0 0.671875 -0.484375 1.109375q-0.46875 0.421875 -1.578125 0.421875l-3.484375 0q-1.109375 0 -1.578125 -0.421875q-0.46875 -0.4375 -0.46875 -1.125q0 -0.828125 0.71875 -1.296875q0.359375 -0.21875 1.546875 -0.21875l0 -7.453125q-0.984375 0 -1.453125 -0.4375q-0.453125 -0.4375 -0.453125 -1.109375q0 -0.671875 0.46875 -1.09375q0.46875 -0.4375 1.578125 -0.4375l2.921875 0zm20.740479 3.078125l0 6.140625q0 0.984375 0.40625 1.3125q0.625 0.484375 2.25 0.484375q2.34375 0 4.34375 -1.0q0.765625 -0.390625 1.1875 -0.390625q0.609375 0 1.046875 0.453125q0.4375 0.453125 0.4375 1.09375q0 0.59375 -0.46875 1.03125q-0.734375 0.703125 -2.90625 1.296875q-2.15625 0.59375 -3.640625 0.59375q-2.859375 0 -4.296875 -1.234375q-1.421875 -1.234375 -1.421875 -3.03125l0 -6.75l-1.109375 0q-1.109375 0 -1.578125 -0.421875q-0.46875 -0.4375 -0.46875 -1.125q0 -0.671875 0.46875 -1.09375q0.46875 -0.4375 1.578125 -0.4375l1.109375 0l0 -2.765625q0 -1.109375 0.421875 -1.578125q0.4375 -0.46875 1.125 -0.46875q0.671875 0 1.09375 0.46875q0.421875 0.46875 0.421875 1.578125l0 2.765625l5.671875 0q1.109375 0 1.578125 0.4375q0.484375 0.421875 0.484375 1.109375q0 0.671875 -0.484375 1.109375q-0.46875 0.421875 -1.578125 0.421875l-5.671875 0z" fill-rule="nonzero"/><path fill="#000000" fill-opacity="0.0" d="m153.67455 229.58267l87.27559 0l0 35.93701l-87.27559 0z" fill-rule="evenodd"/><path fill="#fff2cc" d="m545.7402 53.55671l0 0c0 -7.7176437 6.2563477 -13.974033 13.973999 -13.974033l120.71338 0c3.7061157 0 7.260498 1.4722595 9.8811035 4.0928993c2.6206665 2.6206398 4.0928955 6.1749916 4.0928955 9.881134l0 55.894455c0 7.7176437 -6.2563477 13.97403 -13.973999 13.97403l-120.71338 0c-7.7176514 0 -13.973999 -6.256386 -13.973999 -13.97403z" fill-rule="evenodd"/><path stroke="#000000" stroke-width="4.0" stroke-linejoin="round" stroke-linecap="butt" d="m545.7402 53.55671l0 0c0 -7.7176437 6.2563477 -13.974033 13.973999 -13.974033l120.71338 0c3.7061157 0 7.260498 1.4722595 9.8811035 4.0928993c2.6206665 2.6206398 4.0928955 6.1749916 4.0928955 9.881134l0 55.894455c0 7.7176437 -6.2563477 13.97403 -13.973999 13.97403l-120.71338 0c-7.7176514 0 -13.973999 -6.256386 -13.973999 -13.97403z" fill-rule="evenodd"/><path fill="#000000" d="m575.1775 73.02206l0 3.25l-3.65625 0l0 -3.25l3.65625 0zm0.421875 5.828125l0 10.53125l3.6875 0q1.09375 0 1.5625 0.421875q0.484375 0.421875 0.484375 1.109375q0 0.671875 -0.484375 1.109375q-0.46875 0.421875 -1.5625 0.421875l-10.4375 0q-1.109375 0 -1.578125 -0.421875q-0.46875 -0.4375 -0.46875 -1.125q0 -0.671875 0.46875 -1.09375q0.46875 -0.421875 1.578125 -0.421875l3.6875 0l0 -7.453125l-2.484375 0q-1.078125 0 -1.5625 -0.421875q-0.484375 -0.4375 -0.484375 -1.125q0 -0.671875 0.46875 -1.09375q0.484375 -0.4375 1.578125 -0.4375l5.546875 0zm20.193665 3.59375q-0.75 -0.46875 -1.578125 -0.6875q-0.8125 -0.234375 -1.71875 -0.234375q-1.78125 0 -2.828125 0.578125q-0.46875 0.25 -0.46875 0.546875q0 0.34375 0.640625 0.6875q0.46875 0.234375 2.140625 0.453125q3.046875 0.421875 4.25 0.84375q1.5625 0.546875 2.40625 1.640625q0.859375 1.09375 0.859375 2.3125q0 1.640625 -1.4375 2.75q-2.09375 1.609375 -5.40625 1.609375q-1.34375 0 -2.46875 -0.234375q-1.125 -0.234375 -2.078125 -0.6875q-0.21875 0.203125 -0.484375 0.3125q-0.25 0.09375 -0.515625 0.09375q-0.71875 0 -1.140625 -0.46875q-0.421875 -0.46875 -0.421875 -1.578125l0 -1.03125q0 -1.109375 0.421875 -1.578125q0.421875 -0.484375 1.109375 -0.484375q0.5625 0 0.9375 0.3125q0.375 0.3125 0.578125 1.0625q0.703125 0.59375 1.6875 0.90625q1.0 0.296875 2.28125 0.296875q2.109375 0 3.28125 -0.65625q0.546875 -0.328125 0.546875 -0.6875q0 -0.59375 -0.796875 -0.984375q-0.78125 -0.390625 -3.265625 -0.65625q-3.703125 -0.390625 -4.953125 -1.5q-1.234375 -1.09375 -1.234375 -2.703125q0 -1.640625 1.390625 -2.734375q1.890625 -1.5 4.9375 -1.5q1.0625 0 2.046875 0.203125q0.984375 0.203125 1.875 0.625q0.28125 -0.203125 0.53125 -0.3125q0.25 -0.109375 0.453125 -0.109375q0.640625 0 1.046875 0.46875q0.421875 0.46875 0.421875 1.578125l0 0.75q0 1.0 -0.234375 1.359375q-0.484375 0.703125 -1.296875 0.703125q-0.5625 0 -0.984375 -0.34375q-0.40625 -0.359375 -0.53125 -0.921875zm18.396729 0q-0.75 -0.46875 -1.578125 -0.6875q-0.8125 -0.234375 -1.71875 -0.234375q-1.78125 0 -2.828125 0.578125q-0.46875 0.25 -0.46875 0.546875q0 0.34375 0.640625 0.6875q0.46875 0.234375 2.140625 0.453125q3.046875 0.421875 4.25 0.84375q1.5625 0.546875 2.40625 1.640625q0.859375 1.09375 0.859375 2.3125q0 1.640625 -1.4375 2.75q-2.09375 1.609375 -5.40625 1.609375q-1.34375 0 -2.46875 -0.234375q-1.125 -0.234375 -2.078125 -0.6875q-0.21875 0.203125 -0.484375 0.3125q-0.25 0.09375 -0.515625 0.09375q-0.71875 0 -1.140625 -0.46875q-0.421875 -0.46875 -0.421875 -1.578125l0 -1.03125q0 -1.109375 0.421875 -1.578125q0.421875 -0.484375 1.109375 -0.484375q0.5625 0 0.9375 0.3125q0.375 0.3125 0.578125 1.0625q0.703125 0.59375 1.6875 0.90625q1.0 0.296875 2.28125 0.296875q2.109375 0 3.28125 -0.65625q0.546875 -0.328125 0.546875 -0.6875q0 -0.59375 -0.796875 -0.984375q-0.78125 -0.390625 -3.265625 -0.65625q-3.703125 -0.390625 -4.953125 -1.5q-1.234375 -1.09375 -1.234375 -2.703125q0 -1.640625 1.390625 -2.734375q1.890625 -1.5 4.9375 -1.5q1.0625 0 2.046875 0.203125q0.984375 0.203125 1.875 0.625q0.28125 -0.203125 0.53125 -0.3125q0.25 -0.109375 0.453125 -0.109375q0.640625 0 1.046875 0.46875q0.421875 0.46875 0.421875 1.578125l0 0.75q0 1.0 -0.234375 1.359375q-0.484375 0.703125 -1.296875 0.703125q-0.5625 0 -0.984375 -0.34375q-0.40625 -0.359375 -0.53125 -0.921875zm21.599854 -3.59375l0 10.53125q0.96875 0 1.4375 0.4375q0.46875 0.421875 0.46875 1.09375q0 0.671875 -0.484375 1.109375q-0.46875 0.421875 -1.578125 0.421875l-2.90625 0l0 -0.703125q-1.328125 0.59375 -2.53125 0.890625q-1.1875 0.3125 -2.265625 0.3125q-1.515625 0 -2.625 -0.640625q-1.109375 -0.640625 -1.75 -1.765625q-0.453125 -0.796875 -0.453125 -2.015625l0 -6.59375l-0.53125 0q-1.109375 0 -1.578125 -0.421875q-0.46875 -0.4375 -0.46875 -1.125q0 -0.671875 0.46875 -1.09375q0.46875 -0.4375 1.578125 -0.4375l3.59375 0l0 9.140625q0 0.96875 0.46875 1.421875q0.46875 0.453125 1.453125 0.453125q0.921875 0 1.984375 -0.359375q1.078125 -0.375 2.65625 -1.328125l0 -6.25l-1.109375 0q-1.109375 0 -1.59375 -0.421875q-0.46875 -0.4375 -0.46875 -1.125q0 -0.671875 0.46875 -1.09375q0.484375 -0.4375 1.59375 -0.4375l4.171875 0zm19.584229 8.359375l-12.59375 0q0.484375 1.1875 1.703125 1.921875q1.21875 0.734375 3.296875 0.734375q1.703125 0 4.53125 -0.734375q1.171875 -0.296875 1.625 -0.296875q0.609375 0 1.03125 0.4375q0.421875 0.4375 0.421875 1.09375q0 0.59375 -0.453125 1.015625q-0.609375 0.546875 -2.921875 1.0625q-2.3125 0.5 -4.453125 0.5q-3.6875 0 -5.90625 -2.078125q-2.203125 -2.09375 -2.203125 -5.125q0 -3.234375 2.390625 -5.265625q2.390625 -2.03125 5.5 -2.03125q1.875 0 3.4375 0.671875q1.5625 0.65625 2.328125 1.40625q1.078125 1.109375 1.78125 2.75q0.484375 1.140625 0.484375 2.625l0 1.3125zm-3.40625 -3.078125q-0.703125 -1.3125 -1.84375 -1.953125q-1.140625 -0.65625 -2.703125 -0.65625q-1.5625 0 -2.703125 0.65625q-1.125 0.640625 -1.84375 1.953125l9.09375 0zm13.45929 -5.28125l0 1.921875q1.9375 -1.390625 3.046875 -1.859375q1.109375 -0.46875 2.09375 -0.46875q1.484375 0 2.890625 1.109375q0.96875 0.75 0.96875 1.53125q0 0.65625 -0.46875 1.109375q-0.453125 0.453125 -1.09375 0.453125q-0.5625 0 -1.203125 -0.5625q-0.625 -0.5625 -1.109375 -0.5625q-0.65625 0 -1.9375 0.8125q-1.265625 0.796875 -3.1875 2.421875l0 4.625l4.375 0q1.109375 0 1.578125 0.421875q0.46875 0.421875 0.46875 1.109375q0 0.671875 -0.46875 1.109375q-0.46875 0.421875 -1.578125 0.421875l-9.265625 0q-1.109375 0 -1.59375 -0.421875q-0.46875 -0.4375 -0.46875 -1.125q0 -0.671875 0.46875 -1.09375q0.484375 -0.421875 1.59375 -0.421875l1.828125 0l0 -7.453125l-1.109375 0q-1.109375 0 -1.59375 -0.421875q-0.46875 -0.4375 -0.46875 -1.125q0 -0.671875 0.46875 -1.09375q0.484375 -0.4375 1.59375 -0.4375l4.171875 0z" fill-rule="nonzero"/><path fill="#000000" fill-opacity="0.0" d="m471.8058 39.582676l137.19684 0l0 55.52756l-137.19684 0z" fill-rule="evenodd"/><path fill="#000000" d="m489.1964 69.062675l-2.921875 0l0 -11.03125q-1.609375 1.5 -3.78125 2.21875l0 -2.65625q1.140625 -0.375 2.484375 -1.421875q1.34375 -1.046875 1.84375 -2.4375l2.375 0l0 15.328125zm4.6585693 -4.078125l0 -2.921875l5.75 0l0 2.921875l-5.75 0zm12.524292 -6.984375l0 2.328125l-2.0 0l0 4.46875q0 1.34375 0.046875 1.578125q0.0625 0.21875 0.265625 0.375q0.203125 0.140625 0.5 0.140625q0.40625 0 1.171875 -0.28125l0.25 2.265625q-1.015625 0.4375 -2.3125 0.4375q-0.796875 0 -1.4375 -0.265625q-0.625 -0.265625 -0.921875 -0.6875q-0.296875 -0.421875 -0.40625 -1.140625q-0.09375 -0.515625 -0.09375 -2.0625l0 -4.828125l-1.34375 0l0 -2.328125l1.34375 0l0 -2.1875l2.9375 -1.71875l0 3.90625l2.0 0zm1.3524475 5.375q0 -1.453125 0.71875 -2.8125q0.71875 -1.375 2.03125 -2.09375q1.3125 -0.71875 2.9374695 -0.71875q2.515625 0 4.109375 1.640625q1.609375 1.625 1.609375 4.109375q0 2.515625 -1.625 4.171875q-1.609375 1.640625 -4.0625 1.640625q-1.5312195 0 -2.9062195 -0.6875q-1.375 -0.6875 -2.09375 -2.015625q-0.71875 -1.328125 -0.71875 -3.234375zm3.0 0.15625q0 1.640625 0.78125 2.515625q0.7812195 0.875 1.9218445 0.875q1.140625 0 1.921875 -0.875q0.78125 -0.875 0.78125 -2.53125q0 -1.625 -0.78125 -2.5q-0.78125 -0.875 -1.921875 -0.875q-1.140625 0 -1.9218445 0.875q-0.78125 0.875 -0.78125 2.515625zm10.356171 1.453125l0 -2.921875l5.75 0l0 2.921875l-5.75 0zm14.305603 4.078125l-2.921875 0l0 -11.03125q-1.609375 1.5 -3.78125 2.21875l0 -2.65625q1.140625 -0.375 2.484375 -1.421875q1.34375 -1.046875 1.84375 -2.4375l2.375 0l0 15.328125z" fill-rule="nonzero"/><path fill="#c9daf8" d="m410.2021 191.10272l0 0c0 -9.961624 8.0755005 -18.03711 18.03711 -18.03711l376.02026 0c4.7837524 0 9.371582 1.9003296 12.754211 5.2829437c3.3825684 3.3826141 5.282898 7.9704285 5.282898 12.754166l0 72.14627c0 9.961609 -8.075439 18.03711 -18.03711 18.03711l-376.02026 0c-9.961609 0 -18.03711 -8.0755005 -18.03711 -18.03711z" fill-rule="evenodd"/><path stroke="#000000" stroke-width="4.0" stroke-linejoin="round" stroke-linecap="butt" d="m410.2021 191.10272l0 0c0 -9.961624 8.0755005 -18.03711 18.03711 -18.03711l376.02026 0c4.7837524 0 9.371582 1.9003296 12.754211 5.2829437c3.3825684 3.3826141 5.282898 7.9704285 5.282898 12.754166l0 72.14627c0 9.961609 -8.075439 18.03711 -18.03711 18.03711l-376.02026 0c-9.961609 0 -18.03711 -8.0755005 -18.03711 -18.03711z" fill-rule="evenodd"/><path fill="#000000" d="m509.15015 221.93585l-3.546875 0l-1.421875 -3.6875l-6.484375 0l-1.34375 3.6875l-3.46875 0l6.3125 -16.21875l3.46875 0l6.484375 16.21875zm-6.015625 -6.421875l-2.234375 -6.015625l-2.203125 6.015625l4.4375 0zm6.642853 3.0625l3.1250305 -0.46875q0.1875 0.90625 0.796875 1.375q0.609375 0.46875 1.703125 0.46875q1.21875 0 1.8125 -0.4375q0.421875 -0.3125 0.421875 -0.828125q0 -0.359375 -0.21875 -0.59375q-0.234375 -0.21875 -1.046875 -0.40625q-3.765625 -0.828125 -4.7656555 -1.515625q-1.390625 -0.953125 -1.390625 -2.640625q0 -1.53125 1.203125 -2.5625q1.2031555 -1.046875 3.7344055 -1.046875q2.40625 0 3.578125 0.796875q1.1875 0.78125 1.625 2.3125l-2.9375 0.546875q-0.1875 -0.6875 -0.71875 -1.046875q-0.515625 -0.375 -1.484375 -0.375q-1.234375 0 -1.765625 0.34375q-0.359375 0.25 -0.359375 0.625q0 0.34375 0.3125 0.578125q0.421875 0.296875 2.90625 0.875q2.484375 0.5625 3.46875 1.375q0.96875 0.828125 0.96875 2.3125q0 1.609375 -1.34375 2.78125q-1.34375 1.15625 -4.0 1.15625q-2.390625 0 -3.7969055 -0.96875q-1.390625 -0.984375 -1.828125 -2.65625zm12.600311 0l3.125 -0.46875q0.1875 0.90625 0.796875 1.375q0.609375 0.46875 1.703125 0.46875q1.21875 0 1.8125 -0.4375q0.421875 -0.3125 0.421875 -0.828125q0 -0.359375 -0.21875 -0.59375q-0.234375 -0.21875 -1.046875 -0.40625q-3.765625 -0.828125 -4.765625 -1.515625q-1.390625 -0.953125 -1.390625 -2.640625q0 -1.53125 1.203125 -2.5625q1.203125 -1.046875 3.734375 -1.046875q2.40625 0 3.578125 0.796875q1.1875 0.78125 1.625 2.3125l-2.9375 0.546875q-0.1875 -0.6875 -0.71875 -1.046875q-0.515625 -0.375 -1.484375 -0.375q-1.234375 0 -1.765625 0.34375q-0.359375 0.25 -0.359375 0.625q0 0.34375 0.3125 0.578125q0.421875 0.296875 2.90625 0.875q2.484375 0.5625 3.46875 1.375q0.96875 0.828125 0.96875 2.3125q0 1.609375 -1.34375 2.78125q-1.34375 1.15625 -4.0 1.15625q-2.390625 0 -3.796875 -0.96875q-1.390625 -0.984375 -1.828125 -2.65625zm20.506592 -0.375l3.09375 0.515625q-0.59375 1.703125 -1.890625 2.59375q-1.28125 0.890625 -3.21875 0.890625q-3.0625 0 -4.546875 -2.0q-1.15625 -1.609375 -1.15625 -4.046875q0 -2.921875 1.515625 -4.578125q1.53125 -1.65625 3.875 -1.65625q2.625 0 4.140625 1.734375q1.515625 1.734375 1.4375 5.296875l-7.78125 0q0.03125 1.390625 0.75 2.15625q0.71875 0.765625 1.796875 0.765625q0.71875 0 1.21875 -0.390625q0.5 -0.40625 0.765625 -1.28125zm0.171875 -3.140625q-0.03125 -1.359375 -0.703125 -2.0625q-0.65625 -0.703125 -1.609375 -0.703125q-1.015625 0 -1.6875 0.75q-0.65625 0.734375 -0.65625 2.015625l4.65625 0zm11.006592 -4.875l0 2.484375l-2.125 0l0 4.734375q0 1.4375 0.0625 1.671875q0.0625 0.234375 0.265625 0.390625q0.21875 0.15625 0.53125 0.15625q0.4375 0 1.25 -0.296875l0.265625 2.40625q-1.078125 0.46875 -2.453125 0.46875q-0.84375 0 -1.515625 -0.28125q-0.671875 -0.28125 -1.0 -0.71875q-0.3125 -0.453125 -0.421875 -1.21875q-0.109375 -0.546875 -0.109375 -2.203125l0 -5.109375l-1.421875 0l0 -2.484375l1.421875 0l0 -2.328125l3.125 -1.8125l0 4.140625l2.125 0zm18.85498 5.78125l3.171875 1.015625q-0.734375 2.65625 -2.4375 3.953125q-1.6875 1.28125 -4.296875 1.28125q-3.234375 0 -5.3125 -2.203125q-2.078125 -2.21875 -2.078125 -6.046875q0 -4.046875 2.078125 -6.28125q2.09375 -2.25 5.5 -2.25q2.984375 0 4.84375 1.765625q1.109375 1.03125 1.65625 2.984375l-3.234375 0.78125q-0.296875 -1.265625 -1.21875 -2.0q-0.90625 -0.734375 -2.203125 -0.734375q-1.8125 0 -2.9375 1.296875q-1.109375 1.296875 -1.109375 4.203125q0 3.0625 1.09375 4.375q1.109375 1.3125 2.890625 1.3125q1.296875 0 2.234375 -0.828125q0.9375 -0.84375 1.359375 -2.625zm8.939758 5.96875l-3.109375 0l0 -11.75l2.875 0l0 1.671875q0.75 -1.1875 1.34375 -1.5625q0.59375 -0.375 1.34375 -0.375q1.0625 0 2.046875 0.59375l-0.96875 2.703125q-0.78125 -0.5 -1.453125 -0.5q-0.65625 0 -1.109375 0.359375q-0.453125 0.359375 -0.71875 1.296875q-0.25 0.9375 -0.25 3.9375l0 3.625zm12.64502 -3.734375l3.09375 0.515625q-0.59375 1.703125 -1.890625 2.59375q-1.28125 0.890625 -3.21875 0.890625q-3.0625 0 -4.546875 -2.0q-1.15625 -1.609375 -1.15625 -4.046875q0 -2.921875 1.515625 -4.578125q1.53125 -1.65625 3.875 -1.65625q2.625 0 4.140625 1.734375q1.515625 1.734375 1.4375 5.296875l-7.78125 0q0.03125 1.390625 0.75 2.15625q0.71875 0.765625 1.796875 0.765625q0.71875 0 1.21875 -0.390625q0.5 -0.40625 0.765625 -1.28125zm0.171875 -3.140625q-0.03125 -1.359375 -0.703125 -2.0625q-0.65625 -0.703125 -1.609375 -0.703125q-1.015625 0 -1.6875 0.75q-0.65625 0.734375 -0.65625 2.015625l4.65625 0zm7.944092 -1.296875l-2.828125 -0.5q0.484375 -1.703125 1.640625 -2.515625q1.15625 -0.828125 3.453125 -0.828125q2.078125 0 3.09375 0.5q1.015625 0.484375 1.421875 1.25q0.421875 0.75 0.421875 2.78125l-0.03125 3.625q0 1.546875 0.140625 2.28125q0.15625 0.734375 0.578125 1.578125l-3.078125 0q-0.125 -0.3125 -0.296875 -0.921875q-0.078125 -0.265625 -0.109375 -0.359375q-0.796875 0.765625 -1.71875 1.15625q-0.90625 0.390625 -1.921875 0.390625q-1.828125 0 -2.875 -0.984375q-1.03125 -0.984375 -1.03125 -2.484375q0 -1.0 0.46875 -1.78125q0.484375 -0.78125 1.328125 -1.1875q0.859375 -0.421875 2.484375 -0.734375q2.171875 -0.40625 3.015625 -0.765625l0 -0.296875q0 -0.90625 -0.453125 -1.28125q-0.4375 -0.390625 -1.65625 -0.390625q-0.828125 0 -1.296875 0.328125q-0.46875 0.328125 -0.75 1.140625zm4.15625 2.53125q-0.59375 0.203125 -1.890625 0.484375q-1.296875 0.265625 -1.6875 0.53125q-0.609375 0.4375 -0.609375 1.09375q0 0.65625 0.484375 1.140625q0.484375 0.46875 1.234375 0.46875q0.84375 0 1.609375 -0.5625q0.5625 -0.40625 0.734375 -1.015625q0.125 -0.40625 0.125 -1.515625l0 -0.625zm11.506531 -6.109375l0 2.484375l-2.125 0l0 4.734375q0 1.4375 0.0625 1.671875q0.0625 0.234375 0.265625 0.390625q0.21875 0.15625 0.53125 0.15625q0.4375 0 1.25 -0.296875l0.265625 2.40625q-1.078125 0.46875 -2.453125 0.46875q-0.84375 0 -1.515625 -0.28125q-0.671875 -0.28125 -1.0 -0.71875q-0.3125 -0.453125 -0.421875 -1.21875q-0.109375 -0.546875 -0.109375 -2.203125l0 -5.109375l-1.421875 0l0 -2.484375l1.421875 0l0 -2.328125l3.125 -1.8125l0 4.140625l2.125 0zm2.1541138 -1.59375l0 -2.875l3.109375 0l0 2.875l-3.109375 0zm0 13.34375l0 -11.75l3.109375 0l0 11.75l-3.109375 0zm5.5758667 -6.046875q0 -1.546875 0.765625 -2.984375q0.765625 -1.453125 2.15625 -2.21875q1.40625 -0.765625 3.125 -0.765625q2.671875 0 4.375 1.734375q1.703125 1.734375 1.703125 4.375q0 2.671875 -1.71875 4.421875q-1.71875 1.75 -4.328125 1.75q-1.625 0 -3.09375 -0.71875q-1.453125 -0.734375 -2.21875 -2.140625q-0.765625 -1.421875 -0.765625 -3.453125zm3.1875 0.171875q0 1.75 0.828125 2.6875q0.828125 0.921875 2.046875 0.921875q1.21875 0 2.03125 -0.921875q0.828125 -0.9375 0.828125 -2.703125q0 -1.734375 -0.828125 -2.65625q-0.8125 -0.9375 -2.03125 -0.9375q-1.21875 0 -2.046875 0.9375q-0.828125 0.921875 -0.828125 2.671875zm22.058105 5.875l-3.109375 0l0 -6.0q0 -1.90625 -0.203125 -2.453125q-0.1875 -0.5625 -0.640625 -0.875q-0.453125 -0.3125 -1.078125 -0.3125q-0.8125 0 -1.453125 0.453125q-0.640625 0.4375 -0.875 1.171875q-0.234375 0.71875 -0.234375 2.6875l0 5.328125l-3.109375 0l0 -11.75l2.875 0l0 1.734375q1.546875 -2.0 3.875 -2.0q1.03125 0 1.875 0.375q0.859375 0.375 1.296875 0.953125q0.4375 0.5625 0.609375 1.296875q0.171875 0.734375 0.171875 2.09375l0 7.296875zm9.430847 0l0 -16.21875l4.890625 0l2.953125 11.0625l2.90625 -11.0625l4.90625 0l0 16.21875l-3.046875 0l0 -12.765625l-3.21875 12.765625l-3.140625 0l-3.21875 -12.765625l0 12.765625l-3.03125 0zm25.700928 -3.734375l3.09375 0.515625q-0.59375 1.703125 -1.890625 2.59375q-1.28125 0.890625 -3.21875 0.890625q-3.0625 0 -4.546875 -2.0q-1.15625 -1.609375 -1.15625 -4.046875q0 -2.921875 1.515625 -4.578125q1.53125 -1.65625 3.875 -1.65625q2.625 0 4.140625 1.734375q1.515625 1.734375 1.4375 5.296875l-7.78125 0q0.03125 1.390625 0.75 2.15625q0.71875 0.765625 1.796875 0.765625q0.71875 0 1.21875 -0.390625q0.5 -0.40625 0.765625 -1.28125zm0.171875 -3.140625q-0.03125 -1.359375 -0.703125 -2.0625q-0.65625 -0.703125 -1.609375 -0.703125q-1.015625 0 -1.6875 0.75q-0.65625 0.734375 -0.65625 2.015625l4.65625 0zm11.006592 -4.875l0 2.484375l-2.125 0l0 4.734375q0 1.4375 0.0625 1.671875q0.0625 0.234375 0.265625 0.390625q0.21875 0.15625 0.53125 0.15625q0.4375 0 1.25 -0.296875l0.265625 2.40625q-1.078125 0.46875 -2.453125 0.46875q-0.84375 0 -1.515625 -0.28125q-0.671875 -0.28125 -1.0 -0.71875q-0.3125 -0.453125 -0.421875 -1.21875q-0.109375 -0.546875 -0.109375 -2.203125l0 -5.109375l-1.421875 0l0 -2.484375l1.421875 0l0 -2.328125l3.125 -1.8125l0 4.140625l2.125 0zm5.247864 -4.46875l0 5.96875q1.515625 -1.765625 3.59375 -1.765625q1.078125 0 1.9375 0.40625q0.875 0.390625 1.296875 1.015625q0.4375 0.609375 0.59375 1.375q0.171875 0.75 0.171875 2.328125l0 6.890625l-3.109375 0l0 -6.203125q0 -1.84375 -0.1875 -2.34375q-0.171875 -0.5 -0.625 -0.796875q-0.4375 -0.296875 -1.109375 -0.296875q-0.78125 0 -1.390625 0.375q-0.609375 0.375 -0.890625 1.140625q-0.28125 0.75 -0.28125 2.234375l0 5.890625l-3.109375 0l0 -16.21875l3.109375 0zm10.026794 10.171875q0 -1.546875 0.765625 -2.984375q0.765625 -1.453125 2.15625 -2.21875q1.40625 -0.765625 3.125 -0.765625q2.671875 0 4.375 1.734375q1.703125 1.734375 1.703125 4.375q0 2.671875 -1.71875 4.421875q-1.71875 1.75 -4.328125 1.75q-1.625 0 -3.09375 -0.71875q-1.453125 -0.734375 -2.21875 -2.140625q-0.765625 -1.421875 -0.765625 -3.453125zm3.1875 0.171875q0 1.75 0.828125 2.6875q0.828125 0.921875 2.046875 0.921875q1.21875 0 2.03125 -0.921875q0.828125 -0.9375 0.828125 -2.703125q0 -1.734375 -0.828125 -2.65625q-0.8125 -0.9375 -2.03125 -0.9375q-1.21875 0 -2.046875 0.9375q-0.828125 0.921875 -0.828125 2.671875zm22.151855 5.875l-2.890625 0l0 -1.71875q-0.71875 1.0 -1.703125 1.5q-0.96875 0.484375 -1.96875 0.484375q-2.03125 0 -3.484375 -1.625q-1.4375 -1.640625 -1.4375 -4.5625q0 -2.984375 1.40625 -4.53125q1.40625 -1.5625 3.5625 -1.5625q1.96875 0 3.40625 1.640625l0 -5.84375l3.109375 0l0 16.21875zm-8.296875 -6.125q0 1.875 0.515625 2.71875q0.75 1.21875 2.09375 1.21875q1.078125 0 1.828125 -0.90625q0.75 -0.921875 0.75 -2.734375q0 -2.03125 -0.734375 -2.921875q-0.71875 -0.890625 -1.859375 -0.890625q-1.109375 0 -1.859375 0.890625q-0.734375 0.875 -0.734375 2.625z" fill-rule="nonzero"/><path fill="#000000" d="m427.78186 238.88898l0 0.640625q0.546875 -0.53125 1.0 -0.734375q0.453125 -0.21875 1.03125 -0.21875q0.5 0 0.984375 0.25q0.484375 0.234375 0.953125 0.734375q0.59375 -0.5 1.1875 -0.734375q0.609375 -0.234375 1.234375 -0.234375q1.265625 0 2.046875 0.671875q1.046875 0.890625 1.046875 2.328125l0 5.078125q0.703125 0 1.046875 0.328125q0.34375 0.3125 0.34375 0.8125q0 0.5 -0.34375 0.8125q-0.34375 0.3125 -1.15625 0.3125l-2.15625 0l0 -7.15625q0 -0.515625 -0.1875 -0.71875q-0.1875 -0.203125 -0.578125 -0.203125q-0.375 0 -0.703125 0.203125q-0.40625 0.28125 -1.0 1.03125l0 4.578125q0.71875 0 1.0625 0.328125q0.34375 0.3125 0.34375 0.8125q0 0.5 -0.34375 0.8125q-0.34375 0.3125 -1.171875 0.3125l-2.15625 0l0 -7.15625q0 -0.515625 -0.1875 -0.71875q-0.1875 -0.203125 -0.578125 -0.203125q-0.40625 0 -0.796875 0.25q-0.375 0.25 -0.921875 0.984375l0 4.578125q0.703125 0 1.046875 0.328125q0.359375 0.3125 0.359375 0.8125q0 0.5 -0.359375 0.8125q-0.34375 0.3125 -1.15625 0.3125l-2.046875 0q-0.8125 0 -1.15625 -0.3125q-0.359375 -0.3125 -0.359375 -0.828125q0 -0.5 0.34375 -0.8125q0.34375 -0.3125 1.0625 -0.3125l0 -5.515625q-0.71875 0 -1.0625 -0.3125q-0.34375 -0.328125 -0.34375 -0.828125q0 -0.5 0.359375 -0.8125q0.34375 -0.3125 1.15625 -0.3125l2.15625 0zm17.908478 -4.296875l0 2.390625l-2.703125 0l0 -2.390625l2.703125 0zm0.3125 4.296875l0 7.78125l2.71875 0q0.8125 0 1.15625 0.3125q0.359375 0.3125 0.359375 0.828125q0 0.5 -0.359375 0.8125q-0.34375 0.3125 -1.15625 0.3125l-7.703125 0q-0.828125 0 -1.171875 -0.3125q-0.34375 -0.3125 -0.34375 -0.828125q0 -0.5 0.34375 -0.8125q0.34375 -0.3125 1.171875 -0.3125l2.71875 0l0 -5.515625l-1.828125 0q-0.8125 0 -1.171875 -0.3125q-0.34375 -0.3125 -0.34375 -0.828125q0 -0.5 0.34375 -0.8125q0.359375 -0.3125 1.171875 -0.3125l4.09375 0zm10.174072 0l0 0.765625q0.625 -0.53125 1.359375 -0.796875q0.75 -0.265625 1.625 -0.265625q2.015625 0 3.1875 1.25q0.9375 1.0 0.9375 2.609375l0 4.21875q0.71875 0 1.0625 0.3125q0.34375 0.3125 0.34375 0.828125q0 0.5 -0.359375 0.8125q-0.34375 0.3125 -1.15625 0.3125l-2.046875 0q-0.828125 0 -1.171875 -0.3125q-0.34375 -0.3125 -0.34375 -0.828125q0 -0.5 0.34375 -0.8125q0.34375 -0.3125 1.0625 -0.3125l0 -4.28125q0 -0.75 -0.40625 -1.09375q-0.515625 -0.4375 -1.5625 -0.4375q-0.78125 0 -1.375 0.3125q-0.59375 0.296875 -1.5 1.28125l0 4.21875q0.875 0 1.125 0.15625q0.546875 0.34375 0.546875 0.984375q0 0.5 -0.359375 0.8125q-0.34375 0.3125 -1.15625 0.3125l-2.578125 0q-0.8125 0 -1.171875 -0.3125q-0.34375 -0.3125 -0.34375 -0.828125q0 -0.625 0.53125 -0.96875q0.265625 -0.15625 1.140625 -0.15625l0 -5.515625q-0.71875 0 -1.0625 -0.3125q-0.34375 -0.328125 -0.34375 -0.828125q0 -0.5 0.34375 -0.8125q0.359375 -0.3125 1.171875 -0.3125l2.15625 0zm15.330353 2.265625l0 4.546875q0 0.734375 0.296875 0.96875q0.46875 0.359375 1.671875 0.359375q1.734375 0 3.203125 -0.734375q0.5625 -0.296875 0.890625 -0.296875q0.4375 0 0.765625 0.34375q0.328125 0.328125 0.328125 0.796875q0 0.453125 -0.359375 0.765625q-0.546875 0.515625 -2.140625 0.953125q-1.59375 0.4375 -2.6875 0.4375q-2.125 0 -3.1875 -0.90625q-1.046875 -0.90625 -1.046875 -2.234375l0 -5.0l-0.8125 0q-0.828125 0 -1.171875 -0.3125q-0.34375 -0.3125 -0.34375 -0.828125q0 -0.5 0.34375 -0.8125q0.34375 -0.3125 1.171875 -0.3125l0.8125 0l0 -2.046875q0 -0.8125 0.3125 -1.15625q0.328125 -0.359375 0.828125 -0.359375q0.5 0 0.8125 0.359375q0.3125 0.34375 0.3125 1.15625l0 2.046875l4.203125 0q0.8125 0 1.15625 0.3125q0.359375 0.3125 0.359375 0.828125q0 0.5 -0.359375 0.8125q-0.34375 0.3125 -1.15625 0.3125l-4.203125 0zm12.845947 3.171875l0 2.34375l2.296875 0q0.8125 0 1.15625 0.3125q0.359375 0.3125 0.359375 0.828125q0 0.5 -0.359375 0.8125q-0.34375 0.3125 -1.15625 0.3125l-4.921875 0q-0.8125 0 -1.171875 -0.3125q-0.34375 -0.3125 -0.34375 -0.828125q0 -0.5 0.359375 -0.8125q0.359375 -0.3125 1.15625 -0.3125l0.359375 0l0 -8.875l-0.359375 0q-0.8125 0 -1.171875 -0.3125q-0.34375 -0.3125 -0.34375 -0.828125q0 -0.5 0.34375 -0.8125q0.359375 -0.328125 1.171875 -0.328125l5.234375 0.015625q2.296875 0 3.640625 1.265625q1.34375 1.25 1.34375 3.046875q0 1.0 -0.453125 1.875q-0.34375 0.671875 -1.15625 1.328125q-0.796875 0.640625 -1.640625 0.96875q-0.828125 0.3125 -2.1875 0.3125l-2.15625 0zm0 -2.265625l2.109375 0q1.484375 0 2.34375 -0.65625q0.875 -0.671875 0.875 -1.625q0 -0.78125 -0.703125 -1.375q-0.703125 -0.609375 -2.015625 -0.609375l-2.609375 0l0 4.265625zm16.955353 6.875l0 -0.53125q-0.859375 0.453125 -1.890625 0.671875q-1.03125 0.234375 -1.859375 0.234375q-1.828125 0 -2.96875 -0.96875q-1.140625 -0.96875 -1.140625 -2.140625q0 -1.421875 1.453125 -2.640625q1.453125 -1.234375 4.015625 -1.234375q1.03125 0 2.390625 0.21875l0 -0.53125q0 -0.515625 -0.4375 -0.828125q-0.4375 -0.328125 -1.671875 -0.328125q-1.0 0 -2.609375 0.40625q-0.59375 0.140625 -0.921875 0.140625q-0.453125 0 -0.78125 -0.328125q-0.3125 -0.328125 -0.3125 -0.828125q0 -0.296875 0.109375 -0.5q0.109375 -0.21875 0.3125 -0.34375q0.203125 -0.125 0.828125 -0.296875q0.84375 -0.234375 1.71875 -0.375q0.875 -0.140625 1.578125 -0.140625q2.109375 0 3.28125 0.921875q1.171875 0.90625 1.171875 2.484375l0 4.671875l0.390625 0q0.8125 0 1.15625 0.3125q0.359375 0.3125 0.359375 0.828125q0 0.5 -0.359375 0.8125q-0.34375 0.3125 -1.15625 0.3125l-2.65625 0zm0 -4.0625q-1.359375 -0.265625 -2.515625 -0.265625q-1.390625 0 -2.375 0.671875q-0.625 0.4375 -0.625 0.875q0 0.328125 0.296875 0.53125q0.5625 0.359375 1.515625 0.359375q0.828125 0 1.859375 -0.3125q1.03125 -0.328125 1.84375 -0.890625l0 -0.96875zm10.283447 3.984375l-3.921875 -7.703125q-0.5625 -0.0625 -0.859375 -0.375q-0.28125 -0.3125 -0.28125 -0.75q0 -0.515625 0.34375 -0.828125q0.359375 -0.3125 1.171875 -0.3125l2.078125 0q0.8125 0 1.15625 0.3125q0.359375 0.3125 0.359375 0.828125q0 0.5 -0.359375 0.8125q-0.34375 0.3125 -1.09375 0.3125l2.6719055 5.21875l2.65625 -5.21875q-0.71875 0 -1.078125 -0.3125q-0.34375 -0.3125 -0.34375 -0.828125q0 -0.5 0.34375 -0.8125q0.359375 -0.3125 1.171875 -0.3125l2.140625 0q0.796875 0 1.140625 0.3125q0.359375 0.3125 0.359375 0.828125q0 0.453125 -0.296875 0.765625q-0.296875 0.3125 -0.890625 0.359375l-5.203125 10.25q0.859375 0 1.125 0.171875q0.53125 0.328125 0.53125 0.96875q0 0.5 -0.359375 0.8125q-0.34375 0.3125 -1.15625 0.3125l-4.9531555 0q-0.8125 0 -1.171875 -0.3125q-0.34375 -0.3125 -0.34375 -0.8125q0 -0.515625 0.34375 -0.828125q0.359375 -0.3125 1.171875 -0.3125l2.265625 0l1.28125 -2.546875zm11.361603 -9.96875l0 0.640625q0.546875 -0.53125 1.0 -0.734375q0.453125 -0.21875 1.03125 -0.21875q0.5 0 0.984375 0.25q0.484375 0.234375 0.953125 0.734375q0.59375 -0.5 1.1875 -0.734375q0.609375 -0.234375 1.234375 -0.234375q1.265625 0 2.046875 0.671875q1.046875 0.890625 1.046875 2.328125l0 5.078125q0.703125 0 1.046875 0.328125q0.34375 0.3125 0.34375 0.8125q0 0.5 -0.34375 0.8125q-0.34375 0.3125 -1.15625 0.3125l-2.15625 0l0 -7.15625q0 -0.515625 -0.1875 -0.71875q-0.1875 -0.203125 -0.578125 -0.203125q-0.375 0 -0.703125 0.203125q-0.40625 0.28125 -1.0 1.03125l0 4.578125q0.71875 0 1.0625 0.328125q0.34375 0.3125 0.34375 0.8125q0 0.5 -0.34375 0.8125q-0.34375 0.3125 -1.171875 0.3125l-2.15625 0l0 -7.15625q0 -0.515625 -0.1875 -0.71875q-0.1875 -0.203125 -0.578125 -0.203125q-0.40625 0 -0.796875 0.25q-0.375 0.25 -0.921875 0.984375l0 4.578125q0.703125 0 1.046875 0.328125q0.359375 0.3125 0.359375 0.8125q0 0.5 -0.359375 0.8125q-0.34375 0.3125 -1.15625 0.3125l-2.046875 0q-0.8125 0 -1.15625 -0.3125q-0.359375 -0.3125 -0.359375 -0.828125q0 -0.5 0.34375 -0.8125q0.34375 -0.3125 1.0625 -0.3125l0 -5.515625q-0.71875 0 -1.0625 -0.3125q-0.34375 -0.328125 -0.34375 -0.828125q0 -0.5 0.359375 -0.8125q0.34375 -0.3125 1.15625 -0.3125l2.15625 0zm22.783447 6.171875l-9.296875 0q0.359375 0.890625 1.25 1.4375q0.90625 0.53125 2.4375 0.53125q1.265625 0 3.359375 -0.53125q0.859375 -0.234375 1.1875 -0.234375q0.453125 0 0.765625 0.328125q0.3125 0.3125 0.3125 0.8125q0 0.4375 -0.328125 0.75q-0.453125 0.40625 -2.171875 0.78125q-1.703125 0.359375 -3.28125 0.359375q-2.71875 0 -4.359375 -1.53125q-1.625 -1.53125 -1.625 -3.78125q0 -2.390625 1.765625 -3.890625q1.765625 -1.5 4.0625 -1.5q1.375 0 2.53125 0.484375q1.15625 0.484375 1.71875 1.046875q0.796875 0.828125 1.328125 2.03125q0.34375 0.84375 0.34375 1.953125l0 0.953125zm-2.5 -2.265625q-0.53125 -0.96875 -1.375 -1.453125q-0.828125 -0.484375 -2.0 -0.484375q-1.140625 0 -1.984375 0.484375q-0.84375 0.484375 -1.375 1.453125l6.734375 0zm8.111572 -3.90625l0 0.765625q0.625 -0.53125 1.359375 -0.796875q0.75 -0.265625 1.625 -0.265625q2.015625 0 3.1875 1.25q0.9375 1.0 0.9375 2.609375l0 4.21875q0.71875 0 1.0625 0.3125q0.34375 0.3125 0.34375 0.828125q0 0.5 -0.359375 0.8125q-0.34375 0.3125 -1.15625 0.3125l-2.046875 0q-0.828125 0 -1.171875 -0.3125q-0.34375 -0.3125 -0.34375 -0.828125q0 -0.5 0.34375 -0.8125q0.34375 -0.3125 1.0625 -0.3125l0 -4.28125q0 -0.75 -0.40625 -1.09375q-0.515625 -0.4375 -1.5625 -0.4375q-0.78125 0 -1.375 0.3125q-0.59375 0.296875 -1.5 1.28125l0 4.21875q0.875 0 1.125 0.15625q0.546875 0.34375 0.546875 0.984375q0 0.5 -0.359375 0.8125q-0.34375 0.3125 -1.15625 0.3125l-2.578125 0q-0.8125 0 -1.171875 -0.3125q-0.34375 -0.3125 -0.34375 -0.828125q0 -0.625 0.53125 -0.96875q0.265625 -0.15625 1.140625 -0.15625l0 -5.515625q-0.71875 0 -1.0625 -0.3125q-0.34375 -0.328125 -0.34375 -0.828125q0 -0.5 0.34375 -0.8125q0.359375 -0.3125 1.171875 -0.3125l2.15625 0zm15.330383 2.265625l0 4.546875q0 0.734375 0.296875 0.96875q0.46875 0.359375 1.671875 0.359375q1.734375 0 3.203125 -0.734375q0.5625 -0.296875 0.890625 -0.296875q0.4375 0 0.765625 0.34375q0.328125 0.328125 0.328125 0.796875q0 0.453125 -0.359375 0.765625q-0.546875 0.515625 -2.140625 0.953125q-1.59375 0.4375 -2.6875 0.4375q-2.125 0 -3.1875 -0.90625q-1.046875 -0.90625 -1.046875 -2.234375l0 -5.0l-0.8125 0q-0.828125 0 -1.171875 -0.3125q-0.34375 -0.3125 -0.34375 -0.828125q0 -0.5 0.34375 -0.8125q0.34375 -0.3125 1.171875 -0.3125l0.8125 0l0 -2.046875q0 -0.8125 0.3125 -1.15625q0.328125 -0.359375 0.828125 -0.359375q0.5 0 0.8125 0.359375q0.3125 0.34375 0.3125 1.15625l0 2.046875l4.203125 0q0.8125 0 1.15625 0.3125q0.359375 0.3125 0.359375 0.828125q0 0.5 -0.359375 0.8125q-0.34375 0.3125 -1.15625 0.3125l-4.203125 0zm13.345947 2.265625q0 -1.921875 0.640625 -3.90625q0.484375 -1.46875 1.46875 -3.25q0.71875 -1.296875 1.0625 -1.578125q0.34375 -0.296875 0.765625 -0.296875q0.484375 0 0.8125 0.328125q0.34375 0.328125 0.34375 0.796875q0 0.328125 -0.265625 0.765625q-1.203125 1.953125 -1.75 3.671875q-0.546875 1.71875 -0.546875 3.46875q0 1.78125 0.546875 3.5q0.546875 1.703125 1.75 3.65625q0.265625 0.4375 0.265625 0.765625q0 0.46875 -0.34375 0.796875q-0.328125 0.34375 -0.8125 0.34375q-0.40625 0 -0.71875 -0.265625q-0.4375 -0.390625 -1.171875 -1.75q-1.046875 -1.953125 -1.4375 -3.21875q-0.609375 -1.953125 -0.609375 -3.828125zm12.111572 -4.53125l0 0.765625q0.625 -0.53125 1.359375 -0.796875q0.75 -0.265625 1.625 -0.265625q2.015625 0 3.1875 1.25q0.9375 1.0 0.9375 2.609375l0 4.21875q0.71875 0 1.0625 0.3125q0.34375 0.3125 0.34375 0.828125q0 0.5 -0.359375 0.8125q-0.34375 0.3125 -1.15625 0.3125l-2.046875 0q-0.828125 0 -1.171875 -0.3125q-0.34375 -0.3125 -0.34375 -0.828125q0 -0.5 0.34375 -0.8125q0.34375 -0.3125 1.0625 -0.3125l0 -4.28125q0 -0.75 -0.40625 -1.09375q-0.515625 -0.4375 -1.5625 -0.4375q-0.78125 0 -1.375 0.3125q-0.59375 0.296875 -1.5 1.28125l0 4.21875q0.875 0 1.125 0.15625q0.546875 0.34375 0.546875 0.984375q0 0.5 -0.359375 0.8125q-0.34375 0.3125 -1.15625 0.3125l-2.578125 0q-0.8125 0 -1.171875 -0.3125q-0.34375 -0.3125 -0.34375 -0.828125q0 -0.625 0.53125 -0.96875q0.265625 -0.15625 1.140625 -0.15625l0 -5.515625q-0.71875 0 -1.0625 -0.3125q-0.34375 -0.328125 -0.34375 -0.828125q0 -0.5 0.34375 -0.8125q0.359375 -0.3125 1.171875 -0.3125l2.15625 0zm21.580322 6.171875l-9.296875 0q0.359375 0.890625 1.25 1.4375q0.90625 0.53125 2.4375 0.53125q1.265625 0 3.359375 -0.53125q0.859375 -0.234375 1.1875 -0.234375q0.453125 0 0.765625 0.328125q0.3125 0.3125 0.3125 0.8125q0 0.4375 -0.328125 0.75q-0.453125 0.40625 -2.171875 0.78125q-1.703125 0.359375 -3.28125 0.359375q-2.71875 0 -4.359375 -1.53125q-1.625 -1.53125 -1.625 -3.78125q0 -2.390625 1.765625 -3.890625q1.765625 -1.5 4.0625 -1.5q1.375 0 2.53125 0.484375q1.15625 0.484375 1.71875 1.046875q0.796875 0.828125 1.328125 2.03125q0.34375 0.84375 0.34375 1.953125l0 0.953125zm-2.5 -2.265625q-0.53125 -0.96875 -1.375 -1.453125q-0.828125 -0.484375 -2.0 -0.484375q-1.140625 0 -1.984375 0.484375q-0.84375 0.484375 -1.375 1.453125l6.734375 0zm10.424133 1.953125l-1.5625 4.1875l-2.140625 0l-1.90625 -7.78125q-0.609375 -0.03125 -0.9375 -0.34375q-0.3125 -0.3125 -0.3125 -0.796875q0 -0.5 0.34375 -0.8125q0.359375 -0.3125 1.171875 -0.3125l2.109375 0q0.828125 0 1.171875 0.3125q0.34375 0.3125 0.34375 0.828125q0 0.515625 -0.390625 0.859375q-0.296875 0.265625 -1.171875 0.265625l0.859375 3.59375l1.40625 -3.671875l2.015625 0l1.40625 3.671875l0.890625 -3.59375q-0.84375 0 -1.109375 -0.15625q-0.53125 -0.34375 -0.53125 -0.984375q0 -0.5 0.34375 -0.8125q0.359375 -0.3125 1.171875 -0.3125l2.140625 0q0.8125 0 1.15625 0.3125q0.359375 0.3125 0.359375 0.828125q0 0.453125 -0.3125 0.765625q-0.296875 0.3125 -0.890625 0.359375l-1.859375 7.78125l-2.109375 0l-1.65625 -4.1875zm16.345947 0.53125l-5.5 0l-0.5625 1.390625l0.5625 0q0.8125 0 1.15625 0.3125q0.359375 0.3125 0.359375 0.828125q0 0.5 -0.359375 0.8125q-0.34375 0.3125 -1.15625 0.3125l-3.0625 0q-0.8125 0 -1.15625 -0.3125q-0.359375 -0.3125 -0.359375 -0.828125q0 -0.5 0.375 -0.828125q0.359375 -0.328125 1.203125 -0.296875l3.5625 -8.875l-1.484375 0q-0.8125 0 -1.171875 -0.3125q-0.34375 -0.3125 -0.34375 -0.828125q0 -0.5 0.34375 -0.8125q0.359375 -0.328125 1.171875 -0.328125l4.90625 0.015625l4.515625 11.140625q0.796875 0 1.046875 0.171875q0.5 0.375 0.5 0.96875q0 0.5 -0.34375 0.8125q-0.328125 0.3125 -1.15625 0.3125l-3.046875 0q-0.828125 0 -1.171875 -0.3125q-0.34375 -0.3125 -0.34375 -0.828125q0 -0.5 0.34375 -0.8125q0.34375 -0.3125 1.171875 -0.3125l0.546875 0l-0.546875 -1.390625zm-0.9375 -2.265625l-1.828125 -4.484375l-1.828125 4.484375l3.65625 0zm8.267822 -4.125l0 0.640625q0.546875 -0.53125 1.0 -0.734375q0.453125 -0.21875 1.03125 -0.21875q0.5 0 0.984375 0.25q0.484375 0.234375 0.953125 0.734375q0.59375 -0.5 1.1875 -0.734375q0.609375 -0.234375 1.234375 -0.234375q1.265625 0 2.046875 0.671875q1.046875 0.890625 1.046875 2.328125l0 5.078125q0.703125 0 1.046875 0.328125q0.34375 0.3125 0.34375 0.8125q0 0.5 -0.34375 0.8125q-0.34375 0.3125 -1.15625 0.3125l-2.15625 0l0 -7.15625q0 -0.515625 -0.1875 -0.71875q-0.1875 -0.203125 -0.578125 -0.203125q-0.375 0 -0.703125 0.203125q-0.40625 0.28125 -1.0 1.03125l0 4.578125q0.71875 0 1.0625 0.328125q0.34375 0.3125 0.34375 0.8125q0 0.5 -0.34375 0.8125q-0.34375 0.3125 -1.171875 0.3125l-2.15625 0l0 -7.15625q0 -0.515625 -0.1875 -0.71875q-0.1875 -0.203125 -0.578125 -0.203125q-0.40625 0 -0.796875 0.25q-0.375 0.25 -0.921875 0.984375l0 4.578125q0.703125 0 1.046875 0.328125q0.359375 0.3125 0.359375 0.8125q0 0.5 -0.359375 0.8125q-0.34375 0.3125 -1.15625 0.3125l-2.046875 0q-0.8125 0 -1.15625 -0.3125q-0.359375 -0.3125 -0.359375 -0.828125q0 -0.5 0.34375 -0.8125q0.34375 -0.3125 1.0625 -0.3125l0 -5.515625q-0.71875 0 -1.0625 -0.3125q-0.34375 -0.328125 -0.34375 -0.828125q0 -0.5 0.359375 -0.8125q0.34375 -0.3125 1.15625 -0.3125l2.15625 0zm22.986572 5.21875q0 1.296875 -0.734375 2.53125q-0.71875 1.21875 -2.15625 1.9375q-1.421875 0.71875 -2.984375 0.71875q-1.546875 0 -2.96875 -0.703125q-1.40625 -0.71875 -2.15625 -1.9375q-0.734375 -1.234375 -0.734375 -2.578125q0 -1.359375 0.75 -2.671875q0.75 -1.3125 2.15625 -2.0625q1.421875 -0.75 2.953125 -0.75q1.546875 0 2.984375 0.765625q1.4375 0.765625 2.15625 2.078125q0.734375 1.296875 0.734375 2.671875zm-2.265625 0q0 -1.09375 -0.78125 -2.015625q-1.078125 -1.234375 -2.828125 -1.234375q-1.53125 0 -2.5625 0.984375q-1.03125 0.984375 -1.03125 2.28125q0 1.0625 1.03125 1.984375q1.046875 0.921875 2.5625 0.921875q1.53125 0 2.5625 -0.921875q1.046875 -0.921875 1.046875 -2.0zm14.783508 -5.21875l0 7.78125q0.71875 0 1.0625 0.328125q0.34375 0.3125 0.34375 0.8125q0 0.5 -0.34375 0.8125q-0.34375 0.3125 -1.171875 0.3125l-2.15625 0l0 -0.515625q-0.96875 0.4375 -1.859375 0.65625q-0.875 0.21875 -1.671875 0.21875q-1.125 0 -1.953125 -0.46875q-0.8125 -0.46875 -1.28125 -1.296875q-0.34375 -0.59375 -0.34375 -1.484375l0 -4.890625l-0.390625 0q-0.8125 0 -1.171875 -0.3125q-0.34375 -0.3125 -0.34375 -0.828125q0 -0.5 0.34375 -0.8125q0.359375 -0.3125 1.171875 -0.3125l2.65625 0l0 6.75q0 0.71875 0.34375 1.0625q0.359375 0.328125 1.078125 0.328125q0.6875 0 1.46875 -0.265625q0.796875 -0.265625 1.953125 -0.984375l0 -4.625l-0.8125 0q-0.828125 0 -1.171875 -0.3125q-0.34375 -0.3125 -0.34375 -0.828125q0 -0.5 0.34375 -0.8125q0.34375 -0.3125 1.171875 -0.3125l3.078125 0zm6.4865723 0l0 0.765625q0.625 -0.53125 1.359375 -0.796875q0.75 -0.265625 1.625 -0.265625q2.015625 0 3.1875 1.25q0.9375 1.0 0.9375 2.609375l0 4.21875q0.71875 0 1.0625 0.3125q0.34375 0.3125 0.34375 0.828125q0 0.5 -0.359375 0.8125q-0.34375 0.3125 -1.15625 0.3125l-2.046875 0q-0.828125 0 -1.171875 -0.3125q-0.34375 -0.3125 -0.34375 -0.828125q0 -0.5 0.34375 -0.8125q0.34375 -0.3125 1.0625 -0.3125l0 -4.28125q0 -0.75 -0.40625 -1.09375q-0.515625 -0.4375 -1.5625 -0.4375q-0.78125 0 -1.375 0.3125q-0.59375 0.296875 -1.5 1.28125l0 4.21875q0.875 0 1.125 0.15625q0.546875 0.34375 0.546875 0.984375q0 0.5 -0.359375 0.8125q-0.34375 0.3125 -1.15625 0.3125l-2.578125 0q-0.8125 0 -1.171875 -0.3125q-0.34375 -0.3125 -0.34375 -0.828125q0 -0.625 0.53125 -0.96875q0.265625 -0.15625 1.140625 -0.15625l0 -5.515625q-0.71875 0 -1.0625 -0.3125q-0.34375 -0.328125 -0.34375 -0.828125q0 -0.5 0.34375 -0.8125q0.359375 -0.3125 1.171875 -0.3125l2.15625 0zm15.330322 2.265625l0 4.546875q0 0.734375 0.296875 0.96875q0.46875 0.359375 1.671875 0.359375q1.734375 0 3.203125 -0.734375q0.5625 -0.296875 0.890625 -0.296875q0.4375 0 0.765625 0.34375q0.328125 0.328125 0.328125 0.796875q0 0.453125 -0.359375 0.765625q-0.546875 0.515625 -2.140625 0.953125q-1.59375 0.4375 -2.6875 0.4375q-2.125 0 -3.1875 -0.90625q-1.046875 -0.90625 -1.046875 -2.234375l0 -5.0l-0.8125 0q-0.828125 0 -1.171875 -0.3125q-0.34375 -0.3125 -0.34375 -0.828125q0 -0.5 0.34375 -0.8125q0.34375 -0.3125 1.171875 -0.3125l0.8125 0l0 -2.046875q0 -0.8125 0.3125 -1.15625q0.328125 -0.359375 0.828125 -0.359375q0.5 0 0.8125 0.359375q0.3125 0.34375 0.3125 1.15625l0 2.046875l4.203125 0q0.8125 0 1.15625 0.3125q0.359375 0.3125 0.359375 0.828125q0 0.5 -0.359375 0.8125q-0.34375 0.3125 -1.15625 0.3125l-4.203125 0zm15.127197 2.265625q0 1.9375 -0.640625 3.9375q-0.46875 1.453125 -1.46875 3.234375q-0.71875 1.28125 -1.0625 1.578125q-0.34375 0.3125 -0.765625 0.3125q-0.484375 0 -0.828125 -0.34375q-0.328125 -0.328125 -0.328125 -0.796875q0 -0.328125 0.265625 -0.765625q1.203125 -1.953125 1.75 -3.65625q0.546875 -1.71875 0.546875 -3.5q0 -1.75 -0.546875 -3.46875q-0.546875 -1.71875 -1.75 -3.671875q-0.265625 -0.4375 -0.265625 -0.765625q0 -0.46875 0.328125 -0.796875q0.34375 -0.328125 0.828125 -0.328125q0.40625 0 0.71875 0.265625q0.4375 0.375 1.171875 1.734375q1.046875 1.953125 1.4375 3.21875q0.609375 1.953125 0.609375 3.8125z" fill-rule="nonzero"/><path fill="#000000" fill-opacity="0.0" d="m360.46326 121.020996l2.330719 104.97638" fill-rule="evenodd"/><path stroke="#595959" stroke-width="3.0" stroke-linejoin="round" stroke-linecap="butt" d="m360.46326 121.020996l2.330719 104.97638" fill-rule="evenodd"/><path fill="#000000" fill-opacity="0.0" d="m314.83203 227.17586l95.370056 0" fill-rule="evenodd"/><path stroke="#595959" stroke-width="3.0" stroke-linejoin="round" stroke-linecap="butt" d="m314.83203 227.17586l95.370056 0" fill-rule="evenodd"/><path fill="#000000" fill-opacity="0.0" d="m470.29398 81.50394l74.70865 0.50393677" fill-rule="evenodd"/><path stroke="#000000" stroke-width="3.0" stroke-linejoin="round" stroke-linecap="butt" d="m470.29398 81.50394l74.70865 0.50393677" fill-rule="evenodd"/><path fill="#b6d7a8" d="m768.33594 53.55671l0 0c0 -7.7176437 6.2564087 -13.974033 13.97406 -13.974033l120.71332 0c3.7061768 0 7.260498 1.4722595 9.881165 4.0928993c2.6206055 2.6206398 4.0928955 6.1749916 4.0928955 9.881134l0 55.894455c0 7.7176437 -6.2564087 13.97403 -13.97406 13.97403l-120.71332 0c-7.7176514 0 -13.97406 -6.256386 -13.97406 -13.97403z" fill-rule="evenodd"/><path stroke="#000000" stroke-width="4.0" stroke-linejoin="round" stroke-linecap="butt" d="m768.33594 53.55671l0 0c0 -7.7176437 6.2564087 -13.974033 13.97406 -13.974033l120.71332 0c3.7061768 0 7.260498 1.4722595 9.881165 4.0928993c2.6206055 2.6206398 4.0928955 6.1749916 4.0928955 9.881134l0 55.894455c0 7.7176437 -6.2564087 13.97403 -13.97406 13.97403l-120.71332 0c-7.7176514 0 -13.97406 -6.256386 -13.97406 -13.97403z" fill-rule="evenodd"/><path fill="#000000" d="m802.0029 73.02206l0 6.890625q1.125 -0.734375 2.28125 -1.09375q1.15625 -0.375 2.34375 -0.375q3.1875 0 5.40625 2.203125q2.21875 2.203125 2.21875 5.3125q0 2.984375 -2.109375 4.984375q-2.109375 2.0 -5.578125 2.0q-1.21875 0 -2.359375 -0.328125q-1.140625 -0.3125 -2.203125 -0.921875l0 0.75l-3.59375 0q-1.109375 0 -1.578125 -0.421875q-0.46875 -0.4375 -0.46875 -1.125q0 -0.671875 0.46875 -1.09375q0.484375 -0.421875 1.578125 -0.421875l0.53125 0l0 -13.28125l-0.53125 0q-1.109375 0 -1.578125 -0.421875q-0.46875 -0.4375 -0.46875 -1.125q0 -0.671875 0.46875 -1.09375q0.46875 -0.4375 1.578125 -0.4375l3.59375 0zm9.171875 13.03125q0 -1.90625 -1.328125 -3.21875q-1.328125 -1.3125 -3.265625 -1.3125q-1.90625 0 -3.25 1.3125q-1.328125 1.3125 -1.328125 3.171875q0 1.6875 1.1875 2.78125q1.203125 1.078125 3.390625 1.078125q2.1875 0 3.390625 -1.078125q1.203125 -1.09375 1.203125 -2.734375zm12.4592285 -7.203125l0 1.921875q1.9375 -1.390625 3.046875 -1.859375q1.109375 -0.46875 2.09375 -0.46875q1.484375 0 2.890625 1.109375q0.96875 0.75 0.96875 1.53125q0 0.65625 -0.46875 1.109375q-0.453125 0.453125 -1.09375 0.453125q-0.5625 0 -1.203125 -0.5625q-0.625 -0.5625 -1.109375 -0.5625q-0.65625 0 -1.9375 0.8125q-1.265625 0.796875 -3.1875 2.421875l0 4.625l4.375 0q1.109375 0 1.578125 0.421875q0.46875 0.421875 0.46875 1.109375q0 0.671875 -0.46875 1.109375q-0.46875 0.421875 -1.578125 0.421875l-9.265625 0q-1.109375 0 -1.59375 -0.421875q-0.46875 -0.4375 -0.46875 -1.125q0 -0.671875 0.46875 -1.09375q0.484375 -0.421875 1.59375 -0.421875l1.828125 0l0 -7.453125l-1.109375 0q-1.109375 0 -1.59375 -0.421875q-0.46875 -0.4375 -0.46875 -1.125q0 -0.671875 0.46875 -1.09375q0.484375 -0.4375 1.59375 -0.4375l4.171875 0zm21.787415 13.59375l0 -0.71875q-1.140625 0.609375 -2.546875 0.921875q-1.390625 0.3125 -2.515625 0.3125q-2.46875 0 -4.015625 -1.3125q-1.546875 -1.3125 -1.546875 -2.90625q0 -1.921875 1.96875 -3.578125q1.96875 -1.65625 5.4375 -1.65625q1.40625 0 3.21875 0.296875l0 -0.734375q0 -0.6875 -0.59375 -1.109375q-0.578125 -0.4375 -2.25 -0.4375q-1.359375 0 -3.53125 0.53125q-0.796875 0.203125 -1.25 0.203125q-0.609375 0 -1.046875 -0.4375q-0.421875 -0.453125 -0.421875 -1.140625q0 -0.390625 0.140625 -0.671875q0.15625 -0.28125 0.421875 -0.453125q0.28125 -0.171875 1.125 -0.421875q1.140625 -0.3125 2.3125 -0.5q1.1875 -0.1875 2.15625 -0.1875q2.859375 0 4.4375 1.234375q1.578125 1.234375 1.578125 3.375l0 6.328125l0.515625 0q1.109375 0 1.578125 0.421875q0.484375 0.421875 0.484375 1.109375q0 0.671875 -0.484375 1.109375q-0.46875 0.421875 -1.578125 0.421875l-3.59375 0zm0 -5.5q-1.828125 -0.359375 -3.390625 -0.359375q-1.875 0 -3.21875 0.921875q-0.84375 0.578125 -0.84375 1.1875q0 0.421875 0.40625 0.703125q0.75 0.484375 2.046875 0.484375q1.109375 0 2.515625 -0.421875q1.40625 -0.4375 2.484375 -1.1875l0 -1.328125zm12.5373535 -8.09375l0 1.03125q0.84375 -0.71875 1.84375 -1.078125q1.015625 -0.359375 2.203125 -0.359375q2.71875 0 4.296875 1.703125q1.265625 1.34375 1.265625 3.53125l0 5.703125q0.96875 0 1.4375 0.421875q0.46875 0.421875 0.46875 1.109375q0 0.671875 -0.484375 1.109375q-0.46875 0.421875 -1.578125 0.421875l-2.765625 0q-1.109375 0 -1.578125 -0.421875q-0.46875 -0.4375 -0.46875 -1.125q0 -0.671875 0.453125 -1.09375q0.46875 -0.421875 1.453125 -0.421875l0 -5.796875q0 -1.0 -0.546875 -1.46875q-0.703125 -0.59375 -2.109375 -0.59375q-1.0625 0 -1.875 0.40625q-0.796875 0.40625 -2.015625 1.75l0 5.703125q1.1875 0 1.53125 0.21875q0.734375 0.453125 0.734375 1.3125q0 0.671875 -0.484375 1.109375q-0.46875 0.421875 -1.578125 0.421875l-3.484375 0q-1.109375 0 -1.578125 -0.421875q-0.46875 -0.4375 -0.46875 -1.125q0 -0.828125 0.71875 -1.296875q0.359375 -0.21875 1.546875 -0.21875l0 -7.453125q-0.984375 0 -1.453125 -0.4375q-0.453125 -0.4375 -0.453125 -1.109375q0 -0.671875 0.46875 -1.09375q0.46875 -0.4375 1.578125 -0.4375l2.921875 0zm28.537354 -5.828125l0 16.359375l0.53125 0q1.09375 0 1.5625 0.421875q0.484375 0.421875 0.484375 1.109375q0 0.671875 -0.46875 1.109375q-0.46875 0.421875 -1.578125 0.421875l-3.59375 0l0 -0.75q-1.046875 0.609375 -2.203125 0.921875q-1.140625 0.328125 -2.359375 0.328125q-3.453125 0 -5.578125 -2.0q-2.109375 -2.0 -2.109375 -4.984375q0 -3.109375 2.21875 -5.3125q2.21875 -2.203125 5.40625 -2.203125q1.203125 0 2.34375 0.375q1.15625 0.359375 2.28125 1.09375l0 -3.8125l-0.515625 0q-1.109375 0 -1.59375 -0.421875q-0.46875 -0.4375 -0.46875 -1.109375q0 -0.6875 0.46875 -1.109375q0.484375 -0.4375 1.59375 -0.4375l3.578125 0zm-3.0625 13.03125q0 -1.90625 -1.328125 -3.21875q-1.328125 -1.3125 -3.265625 -1.3125q-1.921875 0 -3.25 1.3125q-1.328125 1.3125 -1.328125 3.171875q0 1.6875 1.1875 2.78125q1.203125 1.078125 3.390625 1.078125q2.171875 0 3.375 -1.078125q1.21875 -1.09375 1.21875 -2.734375z" fill-rule="nonzero"/><path fill="#000000" fill-opacity="0.0" d="m694.40155 39.582676l89.35437 0l0 55.52756l-89.35437 0z" fill-rule="evenodd"/><path fill="#000000" d="m711.7922 69.062675l-2.921875 0l0 -11.03125q-1.609375 1.5 -3.78125 2.21875l0 -2.65625q1.140625 -0.375 2.484375 -1.421875q1.34375 -1.046875 1.84375 -2.4375l2.375 0l0 15.328125zm4.6585693 -4.078125l0 -2.921875l5.75 0l0 2.921875l-5.75 0zm12.524353 -6.984375l0 2.328125l-2.0 0l0 4.46875q0 1.34375 0.046875 1.578125q0.0625 0.21875 0.265625 0.375q0.203125 0.140625 0.5 0.140625q0.40625 0 1.171875 -0.28125l0.25 2.265625q-1.015625 0.4375 -2.3125 0.4375q-0.796875 0 -1.4375 -0.265625q-0.625 -0.265625 -0.921875 -0.6875q-0.296875 -0.421875 -0.40625 -1.140625q-0.09375 -0.515625 -0.09375 -2.0625l0 -4.828125l-1.34375 0l0 -2.328125l1.34375 0l0 -2.1875l2.9375 -1.71875l0 3.90625l2.0 0zm1.352417 5.375q0 -1.453125 0.71875 -2.8125q0.71875 -1.375 2.03125 -2.09375q1.3125 -0.71875 2.9375 -0.71875q2.515625 0 4.109375 1.640625q1.609375 1.625 1.609375 4.109375q0 2.515625 -1.625 4.171875q-1.609375 1.640625 -4.0625 1.640625q-1.53125 0 -2.90625 -0.6875q-1.375 -0.6875 -2.09375 -2.015625q-0.71875 -1.328125 -0.71875 -3.234375zm3.0 0.15625q0 1.640625 0.78125 2.515625q0.78125 0.875 1.921875 0.875q1.140625 0 1.921875 -0.875q0.78125 -0.875 0.78125 -2.53125q0 -1.625 -0.78125 -2.5q-0.78125 -0.875 -1.921875 -0.875q-1.140625 0 -1.921875 0.875q-0.78125 0.875 -0.78125 2.515625zm10.356201 1.453125l0 -2.921875l5.75 0l0 2.921875l-5.75 0zm14.305542 4.078125l-2.921875 0l0 -11.03125q-1.609375 1.5 -3.78125 2.21875l0 -2.65625q1.140625 -0.375 2.484375 -1.421875q1.34375 -1.046875 1.84375 -2.4375l2.375 0l0 15.328125z" fill-rule="nonzero"/><path fill="#000000" fill-opacity="0.0" d="m694.40155 81.25197l74.70868 0.50393677" fill-rule="evenodd"/><path stroke="#000000" stroke-width="3.0" stroke-linejoin="round" stroke-linecap="butt" d="m694.40155 81.25197l74.70868 0.50393677" fill-rule="evenodd"/></g></svg>