<svg version="1.1" viewBox="0.0 0.0 960.0 540.0" fill="none" stroke="none" stroke-linecap="square" stroke-miterlimit="10" xmlns:xlink="http://www.w3.org/1999/xlink" xmlns="http://www.w3.org/2000/svg"><clipPath id="g86665698dc_0_43.0"><path d="m0 0l960.0 0l0 540.0l-960.0 0l0 -540.0z" clip-rule="nonzero"/></clipPath><g clip-path="url(#g86665698dc_0_43.0)"><path fill="#ffffff" d="m0 0l960.0 0l0 540.0l-960.0 0z" fill-rule="evenodd"/><path fill="#c9daf8" d="m382.99475 234.94765l0 0c0 -3.7921448 3.0741272 -6.866287 6.866272 -6.866287l151.49579 0c1.8210449 0 3.567505 0.7234192 4.8552246 2.0110931c1.2876587 1.287674 2.0110474 3.034134 2.0110474 4.855194l0 27.46428c0 3.7921448 -3.0740967 6.8663025 -6.866272 6.8663025l-151.49579 0c-3.7921448 0 -6.866272 -3.0741577 -6.866272 -6.8663025z" fill-rule="evenodd"/><path stroke="#000000" stroke-width="4.0" stroke-linejoin="round" stroke-linecap="butt" d="m382.99475 234.94765l0 0c0 -3.7921448 3.0741272 -6.866287 6.866272 -6.866287l151.49579 0c1.8210449 0 3.567505 0.7234192 4.8552246 2.0110931c1.2876587 1.287674 2.0110474 3.034134 2.0110474 4.855194l0 27.46428c0 3.7921448 -3.0740967 6.8663025 -6.866272 6.8663025l-151.49579 0c-3.7921448 0 -6.866272 -3.0741577 -6.866272 -6.8663025z" fill-rule="evenodd"/><path fill="#000000" d="m431.76126 257.2198l0 -0.5625q-0.890625 0.484375 -1.984375 0.71875q-1.09375 0.25 -1.984375 0.25q-1.9375 0 -3.140625 -1.03125q-1.203125 -1.03125 -1.203125 -2.265625q0 -1.515625 1.53125 -2.8125q1.546875 -1.296875 4.265625 -1.296875q1.09375 0 2.515625 0.234375l0 -0.578125q0 -0.53125 -0.46875 -0.875q-0.453125 -0.34375 -1.75 -0.34375q-1.0625 0 -2.765625 0.421875q-0.640625 0.15625 -0.984375 0.15625q-0.484375 0 -0.828125 -0.34375q-0.328125 -0.34375 -0.328125 -0.890625q0 -0.296875 0.109375 -0.515625q0.125 -0.234375 0.328125 -0.359375q0.21875 -0.140625 0.890625 -0.328125q0.890625 -0.25 1.8125 -0.390625q0.9375 -0.140625 1.6875 -0.140625q2.234375 0 3.46875 0.96875q1.234375 0.953125 1.234375 2.640625l0 4.9375l0.40625 0q0.875 0 1.234375 0.34375q0.375 0.328125 0.375 0.859375q0 0.53125 -0.375 0.875q-0.359375 0.328125 -1.234375 0.328125l-2.8125 0zm0 -4.296875q-1.4375 -0.28125 -2.65625 -0.28125q-1.46875 0 -2.515625 0.703125q-0.65625 0.46875 -0.65625 0.9375q0 0.328125 0.3125 0.546875q0.59375 0.390625 1.609375 0.390625q0.859375 0 1.953125 -0.34375q1.109375 -0.34375 1.953125 -0.921875l0 -1.03125zm8.542969 -6.34375l0 0.671875q0.578125 -0.5625 1.046875 -0.78125q0.484375 -0.21875 1.109375 -0.21875q0.515625 0 1.03125 0.265625q0.515625 0.25 1.015625 0.765625q0.625 -0.515625 1.25 -0.765625q0.640625 -0.25 1.3125 -0.25q1.34375 0 2.171875 0.703125q1.09375 0.9375 1.09375 2.46875l0 5.375q0.75 0 1.109375 0.34375q0.375 0.34375 0.375 0.859375q0 0.53125 -0.375 0.875q-0.359375 0.328125 -1.21875 0.328125l-2.28125 0l0 -7.578125q0 -0.5625 -0.203125 -0.765625q-0.203125 -0.21875 -0.609375 -0.21875q-0.40625 0 -0.734375 0.21875q-0.4375 0.296875 -1.0625 1.09375l0 4.84375q0.75 0 1.109375 0.34375q0.375 0.34375 0.375 0.859375q0 0.53125 -0.375 0.875q-0.359375 0.328125 -1.21875 0.328125l-2.296875 0l0 -7.578125q0 -0.546875 -0.203125 -0.765625q-0.203125 -0.21875 -0.609375 -0.21875q-0.421875 0 -0.84375 0.265625q-0.40625 0.265625 -0.96875 1.046875l0 4.84375q0.75 0 1.109375 0.34375q0.375 0.34375 0.375 0.859375q0 0.53125 -0.375 0.875q-0.359375 0.328125 -1.234375 0.328125l-2.171875 0q-0.859375 0 -1.234375 -0.328125q-0.375 -0.34375 -0.375 -0.875q0 -0.53125 0.375 -0.859375q0.359375 -0.34375 1.125 -0.34375l0 -5.828125q-0.765625 0 -1.125 -0.34375q-0.375 -0.34375 -0.375 -0.875q0 -0.515625 0.375 -0.84375q0.375 -0.34375 1.234375 -0.34375l2.296875 0zm24.339844 5.515625q0 1.390625 -0.765625 2.6875q-0.765625 1.28125 -2.28125 2.0625q-1.515625 0.765625 -3.171875 0.765625q-1.640625 0 -3.140625 -0.75q-1.5 -0.765625 -2.28125 -2.0625q-0.78125 -1.3125 -0.78125 -2.71875q0 -1.453125 0.796875 -2.828125q0.796875 -1.390625 2.28125 -2.1875q1.5 -0.796875 3.125 -0.796875q1.640625 0 3.15625 0.8125q1.515625 0.8125 2.28125 2.1875q0.78125 1.375 0.78125 2.828125zm-2.390625 0.015625q0 -1.15625 -0.84375 -2.140625q-1.125 -1.3125 -2.984375 -1.3125q-1.625 0 -2.71875 1.046875q-1.09375 1.046875 -1.09375 2.421875q0 1.125 1.09375 2.109375q1.109375 0.96875 2.71875 0.96875q1.625 0 2.71875 -0.96875q1.109375 -0.984375 1.109375 -2.125zm15.667969 -5.53125l0 8.234375q0.75 0 1.109375 0.34375q0.375 0.34375 0.375 0.859375q0 0.53125 -0.375 0.875q-0.359375 0.328125 -1.234375 0.328125l-2.28125 0l0 -0.546875q-1.03125 0.46875 -1.96875 0.703125q-0.9375 0.234375 -1.78125 0.234375q-1.1875 0 -2.0625 -0.5q-0.859375 -0.5 -1.359375 -1.375q-0.359375 -0.640625 -0.359375 -1.59375l0 -5.15625l-0.421875 0q-0.859375 0 -1.234375 -0.328125q-0.359375 -0.34375 -0.359375 -0.890625q0 -0.515625 0.359375 -0.84375q0.375 -0.34375 1.234375 -0.34375l2.8125 0l0 7.140625q0 0.765625 0.375 1.125q0.375 0.359375 1.125 0.359375q0.734375 0 1.5625 -0.28125q0.84375 -0.296875 2.078125 -1.046875l0 -4.890625l-0.875 0q-0.859375 0 -1.234375 -0.328125q-0.359375 -0.34375 -0.359375 -0.890625q0 -0.515625 0.359375 -0.84375q0.375 -0.34375 1.234375 -0.34375l3.28125 0zm6.8554688 0l0 0.8125q0.65625 -0.5625 1.453125 -0.84375q0.796875 -0.28125 1.71875 -0.28125q2.125 0 3.375 1.3125q0.984375 1.0625 0.984375 2.765625l0 4.46875q0.765625 0 1.125 0.34375q0.359375 0.328125 0.359375 0.859375q0 0.53125 -0.375 0.875q-0.359375 0.328125 -1.234375 0.328125l-2.15625 0q-0.875 0 -1.25 -0.328125q-0.359375 -0.34375 -0.359375 -0.875q0 -0.53125 0.359375 -0.859375q0.359375 -0.34375 1.125 -0.34375l0 -4.53125q0 -0.78125 -0.421875 -1.15625q-0.546875 -0.46875 -1.65625 -0.46875q-0.828125 0 -1.453125 0.328125q-0.625 0.328125 -1.59375 1.359375l0 4.46875q0.9375 0 1.203125 0.171875q0.578125 0.359375 0.578125 1.03125q0 0.53125 -0.375 0.875q-0.375 0.328125 -1.234375 0.328125l-2.734375 0q-0.859375 0 -1.234375 -0.328125q-0.375 -0.34375 -0.375 -0.875q0 -0.65625 0.5625 -1.03125q0.28125 -0.171875 1.21875 -0.171875l0 -5.828125q-0.765625 0 -1.140625 -0.34375q-0.359375 -0.34375 -0.359375 -0.875q0 -0.515625 0.375 -0.84375q0.375 -0.34375 1.234375 -0.34375l2.28125 0zm16.246094 2.40625l0 4.8125q0 0.765625 0.3125 1.015625q0.5 0.390625 1.765625 0.390625q1.84375 0 3.390625 -0.78125q0.609375 -0.3125 0.9375 -0.3125q0.46875 0 0.8125 0.359375q0.359375 0.34375 0.359375 0.84375q0 0.46875 -0.375 0.8125q-0.578125 0.546875 -2.28125 1.015625q-1.6875 0.46875 -2.84375 0.46875q-2.234375 0 -3.359375 -0.96875q-1.125 -0.96875 -1.125 -2.375l0 -5.28125l-0.859375 0q-0.875 0 -1.25 -0.328125q-0.359375 -0.34375 -0.359375 -0.890625q0 -0.515625 0.359375 -0.84375q0.375 -0.34375 1.25 -0.34375l0.859375 0l0 -2.171875q0 -0.859375 0.328125 -1.234375q0.34375 -0.375 0.890625 -0.375q0.515625 0 0.84375 0.375q0.34375 0.375 0.34375 1.234375l0 2.171875l4.4375 0q0.875 0 1.234375 0.34375q0.375 0.328125 0.375 0.859375q0 0.53125 -0.375 0.875q-0.359375 0.328125 -1.234375 0.328125l-4.4375 0z" fill-rule="nonzero"/><path fill="#c9daf8" d="m381.8924 52.91615l0 0c0 -3.792141 3.0741272 -6.8662796 6.866272 -6.8662796l161.25958 0c1.8210449 0 3.567505 0.72340775 4.8551636 2.0110855c1.2877197 1.2876778 2.0111084 3.0341415 2.0111084 4.855194l0 27.46429c0 3.7921448 -3.0741577 6.8662796 -6.866272 6.8662796l-161.25958 0c-3.7921448 0 -6.866272 -3.0741348 -6.866272 -6.8662796z" fill-rule="evenodd"/><path stroke="#000000" stroke-width="4.0" stroke-linejoin="round" stroke-linecap="butt" d="m381.8924 52.91615l0 0c0 -3.792141 3.0741272 -6.8662796 6.866272 -6.8662796l161.25958 0c1.8210449 0 3.567505 0.72340775 4.8551636 2.0110855c1.2877197 1.2876778 2.0111084 3.0341415 2.0111084 4.855194l0 27.46429c0 3.7921448 -3.0741577 6.8662796 -6.866272 6.8662796l-161.25958 0c-3.7921448 0 -6.866272 -3.0741348 -6.866272 -6.8662796z" fill-rule="evenodd"/><path fill="#000000" d="m434.24393 59.98517l0 2.546875l-2.859375 0l0 -2.546875l2.859375 0zm0.328125 4.5625l0 8.234375l2.890625 0q0.859375 0 1.21875 0.34375q0.375 0.328125 0.375 0.859375q0 0.53125 -0.375 0.875q-0.359375 0.328125 -1.21875 0.328125l-8.171875 0q-0.875 0 -1.25 -0.328125q-0.359375 -0.34375 -0.359375 -0.875q0 -0.53125 0.359375 -0.859375q0.375 -0.34375 1.25 -0.34375l2.875 0l0 -5.828125l-1.921875 0q-0.859375 0 -1.234375 -0.328125q-0.375 -0.34375 -0.375 -0.890625q0 -0.515625 0.359375 -0.84375q0.375 -0.34375 1.25 -0.34375l4.328125 0zm15.808594 2.8125q-0.578125 -0.359375 -1.234375 -0.546875q-0.640625 -0.1875 -1.34375 -0.1875q-1.390625 0 -2.21875 0.46875q-0.359375 0.1875 -0.359375 0.421875q0 0.28125 0.5 0.53125q0.375 0.1875 1.671875 0.359375q2.390625 0.328125 3.328125 0.65625q1.234375 0.4375 1.890625 1.296875q0.671875 0.859375 0.671875 1.796875q0 1.296875 -1.140625 2.15625q-1.625 1.265625 -4.21875 1.265625q-1.046875 0 -1.9375 -0.1875q-0.875 -0.171875 -1.625 -0.53125q-0.171875 0.15625 -0.375 0.234375q-0.1875 0.078125 -0.40625 0.078125q-0.5625 0 -0.90625 -0.359375q-0.328125 -0.375 -0.328125 -1.25l0 -0.796875q0 -0.875 0.328125 -1.234375q0.34375 -0.375 0.890625 -0.375q0.421875 0 0.71875 0.25q0.296875 0.234375 0.453125 0.8125q0.5625 0.46875 1.328125 0.71875q0.78125 0.234375 1.78125 0.234375q1.65625 0 2.5625 -0.515625q0.4375 -0.265625 0.4375 -0.546875q0 -0.46875 -0.625 -0.765625q-0.609375 -0.3125 -2.5625 -0.515625q-2.890625 -0.3125 -3.859375 -1.171875q-0.984375 -0.859375 -0.984375 -2.109375q0 -1.296875 1.09375 -2.140625q1.484375 -1.171875 3.875 -1.171875q0.828125 0 1.59375 0.15625q0.765625 0.15625 1.46875 0.484375q0.21875 -0.171875 0.40625 -0.25q0.203125 -0.078125 0.375 -0.078125q0.484375 0 0.8125 0.375q0.328125 0.359375 0.328125 1.234375l0 0.578125q0 0.78125 -0.1875 1.0625q-0.375 0.546875 -1.015625 0.546875q-0.4375 0 -0.765625 -0.265625q-0.328125 -0.28125 -0.421875 -0.71875zm14.402344 0q-0.578125 -0.359375 -1.234375 -0.546875q-0.640625 -0.1875 -1.34375 -0.1875q-1.390625 0 -2.21875 0.46875q-0.359375 0.1875 -0.359375 0.421875q0 0.28125 0.5 0.53125q0.375 0.1875 1.671875 0.359375q2.390625 0.328125 3.328125 0.65625q1.234375 0.4375 1.890625 1.296875q0.671875 0.859375 0.671875 1.796875q0 1.296875 -1.140625 2.15625q-1.625 1.265625 -4.21875 1.265625q-1.046875 0 -1.9375 -0.1875q-0.875 -0.171875 -1.625 -0.53125q-0.171875 0.15625 -0.375 0.234375q-0.1875 0.078125 -0.40625 0.078125q-0.5625 0 -0.90625 -0.359375q-0.328125 -0.375 -0.328125 -1.25l0 -0.796875q0 -0.875 0.328125 -1.234375q0.34375 -0.375 0.890625 -0.375q0.421875 0 0.71875 0.25q0.296875 0.234375 0.453125 0.8125q0.5625 0.46875 1.328125 0.71875q0.78125 0.234375 1.78125 0.234375q1.65625 0 2.5625 -0.515625q0.4375 -0.265625 0.4375 -0.546875q0 -0.46875 -0.625 -0.765625q-0.609375 -0.3125 -2.5625 -0.515625q-2.890625 -0.3125 -3.859375 -1.171875q-0.984375 -0.859375 -0.984375 -2.109375q0 -1.296875 1.09375 -2.140625q1.484375 -1.171875 3.875 -1.171875q0.828125 0 1.59375 0.15625q0.765625 0.15625 1.46875 0.484375q0.21875 -0.171875 0.40625 -0.25q0.203125 -0.078125 0.375 -0.078125q0.484375 0 0.8125 0.375q0.328125 0.359375 0.328125 1.234375l0 0.578125q0 0.78125 -0.1875 1.0625q-0.375 0.546875 -1.015625 0.546875q-0.4375 0 -0.765625 -0.265625q-0.328125 -0.28125 -0.421875 -0.71875zm16.917969 -2.8125l0 8.234375q0.75 0 1.109375 0.34375q0.375 0.34375 0.375 0.859375q0 0.53125 -0.375 0.875q-0.359375 0.328125 -1.234375 0.328125l-2.28125 0l0 -0.546875q-1.03125 0.46875 -1.96875 0.703125q-0.9375 0.234375 -1.78125 0.234375q-1.1875 0 -2.0625 -0.5q-0.859375 -0.5 -1.359375 -1.375q-0.359375 -0.640625 -0.359375 -1.59375l0 -5.15625l-0.421875 0q-0.859375 0 -1.234375 -0.328125q-0.359375 -0.34375 -0.359375 -0.890625q0 -0.515625 0.359375 -0.84375q0.375 -0.34375 1.234375 -0.34375l2.8125 0l0 7.140625q0 0.765625 0.375 1.125q0.375 0.359375 1.125 0.359375q0.734375 0 1.5625 -0.28125q0.84375 -0.296875 2.078125 -1.046875l0 -4.890625l-0.875 0q-0.859375 0 -1.234375 -0.328125q-0.359375 -0.34375 -0.359375 -0.890625q0 -0.515625 0.359375 -0.84375q0.375 -0.34375 1.234375 -0.34375l3.28125 0zm15.324219 6.53125l-9.859375 0q0.375 0.9375 1.328125 1.515625q0.953125 0.578125 2.59375 0.578125q1.328125 0 3.546875 -0.578125q0.90625 -0.234375 1.265625 -0.234375q0.484375 0 0.8125 0.34375q0.328125 0.34375 0.328125 0.859375q0 0.46875 -0.359375 0.796875q-0.46875 0.421875 -2.28125 0.828125q-1.8125 0.390625 -3.5 0.390625q-2.875 0 -4.609375 -1.625q-1.71875 -1.640625 -1.71875 -4.015625q0 -2.53125 1.859375 -4.109375q1.875 -1.59375 4.3125 -1.59375q1.46875 0 2.6875 0.515625q1.21875 0.515625 1.828125 1.109375q0.84375 0.859375 1.390625 2.140625q0.375 0.890625 0.375 2.0625l0 1.015625zm-2.65625 -2.390625q-0.5625 -1.03125 -1.453125 -1.546875q-0.890625 -0.515625 -2.109375 -0.515625q-1.21875 0 -2.109375 0.515625q-0.890625 0.515625 -1.453125 1.546875l7.125 0zm10.527344 -4.140625l0 1.5q1.515625 -1.09375 2.390625 -1.453125q0.875 -0.359375 1.625 -0.359375q1.171875 0 2.28125 0.859375q0.75 0.59375 0.75 1.203125q0 0.515625 -0.359375 0.875q-0.359375 0.34375 -0.859375 0.34375q-0.453125 0 -0.953125 -0.4375q-0.484375 -0.453125 -0.859375 -0.453125q-0.515625 0 -1.515625 0.640625q-1.0 0.625 -2.5 1.890625l0 3.625l3.421875 0q0.875 0 1.234375 0.34375q0.375 0.328125 0.375 0.859375q0 0.53125 -0.375 0.875q-0.359375 0.328125 -1.234375 0.328125l-7.25 0q-0.875 0 -1.25 -0.328125q-0.359375 -0.34375 -0.359375 -0.875q0 -0.53125 0.359375 -0.859375q0.375 -0.34375 1.25 -0.34375l1.421875 0l0 -5.828125l-0.859375 0q-0.875 0 -1.25 -0.328125q-0.359375 -0.34375 -0.359375 -0.890625q0 -0.515625 0.359375 -0.84375q0.375 -0.34375 1.25 -0.34375l3.265625 0z" fill-rule="nonzero"/><path fill="#b6d7a8" d="m711.1916 239.33083l0 0c0 -3.3079681 2.6816406 -5.989624 5.989624 -5.989624l144.02075 0c1.588562 0 3.1120605 0.63105774 4.2352905 1.7543182c1.123291 1.1232758 1.7543335 2.646759 1.7543335 4.235306l0 23.957779c0 3.307953 -2.6816406 5.989624 -5.989624 5.989624l-144.02075 0c-3.3079834 0 -5.989624 -2.6816711 -5.989624 -5.989624z" fill-rule="evenodd"/><path stroke="#000000" stroke-width="4.0" stroke-linejoin="round" stroke-linecap="butt" d="m711.1916 239.33083l0 0c0 -3.3079681 2.6816406 -5.989624 5.989624 -5.989624l144.02075 0c1.588562 0 3.1120605 0.63105774 4.2352905 1.7543182c1.123291 1.1232758 1.7543335 2.646759 1.7543335 4.235306l0 23.957779c0 3.307953 -2.6816406 5.989624 -5.989624 5.989624l-144.02075 0c-3.3079834 0 -5.989624 -2.6816711 -5.989624 -5.989624z" fill-rule="evenodd"/><path fill="#000000" d="m733.5249 258.7897l0 -0.5q-0.8125 0.421875 -1.78125 0.640625q-0.96875 0.21875 -1.75 0.21875q-1.71875 0 -2.796875 -0.90625q-1.078125 -0.921875 -1.078125 -2.03125q0 -1.34375 1.375 -2.484375q1.375 -1.15625 3.78125 -1.15625q0.96875 0 2.25 0.203125l0 -0.5q0 -0.484375 -0.421875 -0.78125q-0.40625 -0.3125 -1.5625 -0.3125q-0.953125 0 -2.453125 0.375q-0.5625 0.140625 -0.875 0.140625q-0.4375 0 -0.734375 -0.296875q-0.296875 -0.3125 -0.296875 -0.796875q0 -0.265625 0.109375 -0.46875q0.109375 -0.203125 0.296875 -0.3125q0.1875 -0.125 0.78125 -0.296875q0.78125 -0.21875 1.609375 -0.34375q0.828125 -0.125 1.484375 -0.125q2.0 0 3.09375 0.859375q1.09375 0.859375 1.09375 2.34375l0 4.390625l0.359375 0q0.78125 0 1.109375 0.296875q0.328125 0.296875 0.328125 0.78125q0 0.46875 -0.328125 0.765625q-0.328125 0.296875 -1.109375 0.296875l-2.484375 0zm0 -3.828125q-1.28125 -0.25 -2.375 -0.25q-1.296875 0 -2.234375 0.640625q-0.578125 0.40625 -0.578125 0.828125q0 0.296875 0.28125 0.484375q0.515625 0.34375 1.421875 0.34375q0.765625 0 1.734375 -0.296875q0.984375 -0.3125 1.75 -0.828125l0 -0.921875zm7.5802 -5.625l0 0.59375q0.515625 -0.5 0.9375 -0.6875q0.421875 -0.203125 0.96875 -0.203125q0.46875 0 0.921875 0.234375q0.46875 0.21875 0.90625 0.6875q0.546875 -0.46875 1.109375 -0.6875q0.578125 -0.21875 1.171875 -0.21875q1.1875 0 1.921875 0.625q0.984375 0.84375 0.984375 2.1875l0 4.78125q0.65625 0 0.984375 0.3125q0.328125 0.296875 0.328125 0.765625q0 0.46875 -0.328125 0.765625q-0.328125 0.296875 -1.09375 0.296875l-2.03125 0l0 -6.734375q0 -0.5 -0.171875 -0.6875q-0.171875 -0.1875 -0.546875 -0.1875q-0.34375 0 -0.65625 0.1875q-0.375 0.265625 -0.9375 0.984375l0 4.296875q0.671875 0 0.984375 0.3125q0.328125 0.296875 0.328125 0.765625q0 0.46875 -0.328125 0.765625q-0.3125 0.296875 -1.078125 0.296875l-2.03125 0l0 -6.734375q0 -0.484375 -0.1875 -0.671875q-0.1875 -0.203125 -0.546875 -0.203125q-0.375 0 -0.75 0.234375q-0.359375 0.234375 -0.859375 0.9375l0 4.296875q0.65625 0 0.984375 0.3125q0.328125 0.296875 0.328125 0.765625q0 0.46875 -0.328125 0.765625q-0.328125 0.296875 -1.09375 0.296875l-1.921875 0q-0.78125 0 -1.109375 -0.296875q-0.328125 -0.296875 -0.328125 -0.78125q0 -0.46875 0.328125 -0.765625q0.328125 -0.296875 1.0 -0.296875l0 -5.1875q-0.671875 0 -1.0 -0.296875q-0.328125 -0.296875 -0.328125 -0.765625q0 -0.46875 0.328125 -0.765625q0.328125 -0.296875 1.109375 -0.296875l2.03125 0zm21.627075 4.90625q0 1.21875 -0.6875 2.375q-0.671875 1.15625 -2.015625 1.84375q-1.34375 0.671875 -2.8125 0.671875q-1.46875 0 -2.796875 -0.671875q-1.328125 -0.671875 -2.03125 -1.828125q-0.703125 -1.15625 -0.703125 -2.421875q0 -1.28125 0.703125 -2.515625q0.71875 -1.234375 2.046875 -1.9375q1.328125 -0.703125 2.78125 -0.703125q1.453125 0 2.796875 0.71875q1.359375 0.71875 2.03125 1.953125q0.6875 1.21875 0.6875 2.515625zm-2.125 0q0 -1.03125 -0.734375 -1.890625q-1.015625 -1.171875 -2.65625 -1.171875q-1.453125 0 -2.421875 0.9375q-0.96875 0.921875 -0.96875 2.140625q0 1.0 0.96875 1.875q0.984375 0.859375 2.421875 0.859375q1.4375 0 2.40625 -0.859375q0.984375 -0.875 0.984375 -1.890625zm13.924011 -4.90625l0 7.3125q0.671875 0 0.984375 0.3125q0.328125 0.296875 0.328125 0.765625q0 0.46875 -0.328125 0.765625q-0.328125 0.296875 -1.09375 0.296875l-2.03125 0l0 -0.484375q-0.90625 0.40625 -1.75 0.609375q-0.828125 0.21875 -1.578125 0.21875q-1.046875 0 -1.828125 -0.4375q-0.765625 -0.453125 -1.21875 -1.234375q-0.3125 -0.5625 -0.3125 -1.40625l0 -4.59375l-0.375 0q-0.765625 0 -1.09375 -0.296875q-0.328125 -0.296875 -0.328125 -0.765625q0 -0.46875 0.328125 -0.765625q0.328125 -0.296875 1.09375 -0.296875l2.5 0l0 6.34375q0 0.6875 0.328125 1.0q0.328125 0.3125 1.015625 0.3125q0.640625 0 1.375 -0.25q0.75 -0.25 1.84375 -0.921875l0 -4.359375l-0.765625 0q-0.765625 0 -1.09375 -0.296875q-0.328125 -0.296875 -0.328125 -0.765625q0 -0.46875 0.328125 -0.765625q0.328125 -0.296875 1.09375 -0.296875l2.90625 0zm6.095825 0l0 0.71875q0.59375 -0.5 1.296875 -0.75q0.703125 -0.25 1.515625 -0.25q1.90625 0 3.0 1.171875q0.875 0.9375 0.875 2.453125l0 3.96875q0.671875 0 1.0 0.296875q0.328125 0.296875 0.328125 0.78125q0 0.46875 -0.328125 0.765625q-0.328125 0.296875 -1.109375 0.296875l-1.921875 0q-0.765625 0 -1.09375 -0.296875q-0.328125 -0.296875 -0.328125 -0.78125q0 -0.46875 0.3125 -0.765625q0.328125 -0.296875 1.015625 -0.296875l0 -4.03125q0 -0.6875 -0.375 -1.015625q-0.5 -0.421875 -1.46875 -0.421875q-0.75 0 -1.3125 0.296875q-0.546875 0.28125 -1.40625 1.203125l0 3.96875q0.828125 0 1.0625 0.15625q0.515625 0.3125 0.515625 0.921875q0 0.46875 -0.328125 0.765625q-0.328125 0.296875 -1.09375 0.296875l-2.4375 0q-0.765625 0 -1.09375 -0.296875q-0.328125 -0.296875 -0.328125 -0.78125q0 -0.578125 0.5 -0.90625q0.25 -0.15625 1.078125 -0.15625l0 -5.1875q-0.6875 0 -1.015625 -0.296875q-0.3125 -0.296875 -0.3125 -0.765625q0 -0.46875 0.328125 -0.765625q0.328125 -0.296875 1.09375 -0.296875l2.03125 0zm14.439575 2.125l0 4.28125q0 0.6875 0.28125 0.90625q0.4375 0.34375 1.5625 0.34375q1.640625 0 3.015625 -0.6875q0.53125 -0.28125 0.828125 -0.28125q0.421875 0 0.71875 0.3125q0.3125 0.3125 0.3125 0.765625q0 0.421875 -0.328125 0.71875q-0.515625 0.484375 -2.015625 0.90625q-1.5 0.40625 -2.53125 0.40625q-1.984375 0 -2.984375 -0.859375q-1.0 -0.859375 -1.0 -2.109375l0 -4.703125l-0.765625 0q-0.765625 0 -1.09375 -0.296875q-0.328125 -0.296875 -0.328125 -0.765625q0 -0.46875 0.328125 -0.765625q0.328125 -0.296875 1.09375 -0.296875l0.765625 0l0 -1.921875q0 -0.78125 0.296875 -1.109375q0.296875 -0.328125 0.78125 -0.328125q0.46875 0 0.765625 0.328125q0.296875 0.328125 0.296875 1.109375l0 1.921875l3.953125 0q0.765625 0 1.09375 0.296875q0.328125 0.296875 0.328125 0.765625q0 0.46875 -0.328125 0.765625q-0.328125 0.296875 -1.09375 0.296875l-3.953125 0zm9.98645 -1.171875l0 6.359375l0.765625 0q0.78125 0 1.109375 0.296875q0.328125 0.296875 0.328125 0.78125q0 0.46875 -0.328125 0.765625q-0.328125 0.296875 -1.109375 0.296875l-2.796875 0q-0.765625 0 -1.09375 -0.296875q-0.328125 -0.296875 -0.328125 -0.78125q0 -0.46875 0.328125 -0.765625q0.3125 -0.296875 0.984375 -0.296875l0 -8.34375q-0.5625 -0.0625 -0.84375 -0.34375q-0.28125 -0.296875 -0.28125 -0.734375q0 -0.46875 0.328125 -0.765625q0.328125 -0.296875 1.09375 -0.296875l2.34375 0l2.90625 6.421875l2.859375 -6.421875l2.359375 0q0.765625 0 1.09375 0.296875q0.328125 0.296875 0.328125 0.765625q0 0.4375 -0.296875 0.734375q-0.28125 0.28125 -0.84375 0.34375l0 8.34375q0.6875 0 1.0 0.3125q0.328125 0.296875 0.328125 0.765625q0 0.46875 -0.328125 0.765625q-0.328125 0.296875 -1.09375 0.296875l-2.8125 0q-0.765625 0 -1.09375 -0.296875q-0.328125 -0.296875 -0.328125 -0.78125q0 -0.46875 0.328125 -0.765625q0.328125 -0.296875 1.09375 -0.296875l0.78125 0l0 -6.359375l-2.453125 5.5l-1.84375 0l-2.484375 -5.5zm18.064636 8.5l0 -0.5q-0.8125 0.421875 -1.78125 0.640625q-0.96875 0.21875 -1.75 0.21875q-1.71875 0 -2.796875 -0.90625q-1.078125 -0.921875 -1.078125 -2.03125q0 -1.34375 1.375 -2.484375q1.375 -1.15625 3.78125 -1.15625q0.96875 0 2.25 0.203125l0 -0.5q0 -0.484375 -0.421875 -0.78125q-0.40625 -0.3125 -1.5625 -0.3125q-0.953125 0 -2.453125 0.375q-0.5625 0.140625 -0.875 0.140625q-0.4375 0 -0.734375 -0.296875q-0.296875 -0.3125 -0.296875 -0.796875q0 -0.265625 0.109375 -0.46875q0.109375 -0.203125 0.296875 -0.3125q0.1875 -0.125 0.78125 -0.296875q0.78125 -0.21875 1.609375 -0.34375q0.828125 -0.125 1.484375 -0.125q2.0 0 3.09375 0.859375q1.09375 0.859375 1.09375 2.34375l0 4.390625l0.359375 0q0.78125 0 1.109375 0.296875q0.328125 0.296875 0.328125 0.78125q0 0.46875 -0.328125 0.765625q-0.328125 0.296875 -1.109375 0.296875l-2.484375 0zm0 -3.828125q-1.28125 -0.25 -2.375 -0.25q-1.296875 0 -2.234375 0.640625q-0.578125 0.40625 -0.578125 0.828125q0 0.296875 0.28125 0.484375q0.515625 0.34375 1.421875 0.34375q0.765625 0 1.734375 -0.296875q0.984375 -0.3125 1.75 -0.828125l0 -0.921875zm10.345825 -3.5l0 4.28125q0 0.6875 0.28125 0.90625q0.4375 0.34375 1.5625 0.34375q1.640625 0 3.015625 -0.6875q0.53125 -0.28125 0.828125 -0.28125q0.421875 0 0.71875 0.3125q0.3125 0.3125 0.3125 0.765625q0 0.421875 -0.328125 0.71875q-0.515625 0.484375 -2.015625 0.90625q-1.5 0.40625 -2.53125 0.40625q-1.984375 0 -2.984375 -0.859375q-1.0 -0.859375 -1.0 -2.109375l0 -4.703125l-0.765625 0q-0.765625 0 -1.09375 -0.296875q-0.328125 -0.296875 -0.328125 -0.765625q0 -0.46875 0.328125 -0.765625q0.328125 -0.296875 1.09375 -0.296875l0.765625 0l0 -1.921875q0 -0.78125 0.296875 -1.109375q0.296875 -0.328125 0.78125 -0.328125q0.46875 0 0.765625 0.328125q0.296875 0.328125 0.296875 1.109375l0 1.921875l3.953125 0q0.765625 0 1.09375 0.296875q0.328125 0.296875 0.328125 0.765625q0 0.46875 -0.328125 0.765625q-0.328125 0.296875 -1.09375 0.296875l-3.953125 0zm11.127075 -6.171875l0 4.546875q0.65625 -0.40625 1.34375 -0.59375q0.6875 -0.1875 1.375 -0.1875q1.109375 0 1.96875 0.375q0.875 0.375 1.4375 1.1875q0.5625 0.796875 0.5625 2.03125l0 4.0q0.8125 0 1.0625 0.15625q0.5 0.328125 0.5 0.921875q0 0.46875 -0.328125 0.765625q-0.3125 0.296875 -1.09375 0.296875l-2.421875 0q-0.765625 0 -1.09375 -0.296875q-0.328125 -0.296875 -0.328125 -0.78125q0 -0.578125 0.5 -0.90625q0.265625 -0.15625 1.0625 -0.15625l0 -3.859375q0 -0.828125 -0.375 -1.15625q-0.484375 -0.453125 -1.453125 -0.453125q-0.703125 0 -1.25 0.28125q-0.546875 0.28125 -1.46875 1.1875l0 4.0q0.8125 0 1.0625 0.15625q0.5 0.328125 0.5 0.921875q0 0.46875 -0.328125 0.765625q-0.328125 0.296875 -1.09375 0.296875l-2.421875 0q-0.78125 0 -1.109375 -0.296875q-0.328125 -0.296875 -0.328125 -0.78125q0 -0.578125 0.515625 -0.90625q0.25 -0.15625 1.0625 -0.15625l0 -9.234375l-0.359375 0q-0.78125 0 -1.109375 -0.296875q-0.328125 -0.296875 -0.328125 -0.765625q0 -0.46875 0.328125 -0.765625q0.328125 -0.296875 1.109375 -0.296875l2.5 0z" fill-rule="nonzero"/><path fill="#b6d7a8" d="m82.50394 234.06836l0 0c0 -3.3079681 2.6816483 -5.989624 5.989624 -5.989624l144.02075 0c1.5885468 0 3.11203 0.63105774 4.235306 1.7543182c1.1232758 1.1232758 1.7543182 2.646759 1.7543182 4.235306l0 23.957764c0 3.3079834 -2.6816406 5.989624 -5.989624 5.989624l-144.02075 0c-3.3079758 0 -5.989624 -2.6816406 -5.989624 -5.989624z" fill-rule="evenodd"/><path stroke="#000000" stroke-width="4.0" stroke-linejoin="round" stroke-linecap="butt" d="m82.50394 234.06836l0 0c0 -3.3079681 2.6816483 -5.989624 5.989624 -5.989624l144.02075 0c1.5885468 0 3.11203 0.63105774 4.235306 1.7543182c1.1232758 1.1232758 1.7543182 2.646759 1.7543182 4.235306l0 23.957764c0 3.3079834 -2.6816406 5.989624 -5.989624 5.989624l-144.02075 0c-3.3079758 0 -5.989624 -2.6816406 -5.989624 -5.989624z" fill-rule="evenodd"/><path fill="#000000" d="m138.01538 244.07411l0 0.59375q0.515625 -0.5 0.9375 -0.6875q0.421875 -0.203125 0.96875 -0.203125q0.46875 0 0.921875 0.234375q0.46875 0.21875 0.90625 0.6875q0.546875 -0.46875 1.109375 -0.6875q0.578125 -0.21875 1.171875 -0.21875q1.1875 0 1.921875 0.625q0.984375 0.84375 0.984375 2.1875l0 4.78125q0.65625 0 0.984375 0.3125q0.328125 0.296875 0.328125 0.765625q0 0.46875 -0.328125 0.765625q-0.328125 0.296875 -1.09375 0.296875l-2.03125 0l0 -6.734375q0 -0.5 -0.171875 -0.6875q-0.171875 -0.1875 -0.546875 -0.1875q-0.34375 0 -0.65625 0.1875q-0.375 0.265625 -0.9375 0.984375l0 4.296875q0.671875 0 0.984375 0.3125q0.328125 0.296875 0.328125 0.765625q0 0.46875 -0.328125 0.765625q-0.3125 0.296875 -1.078125 0.296875l-2.03125 0l0 -6.734375q0 -0.484375 -0.1875 -0.671875q-0.1875 -0.203125 -0.546875 -0.203125q-0.375 0 -0.75 0.234375q-0.359375 0.234375 -0.859375 0.9375l0 4.296875q0.65625 0 0.984375 0.3125q0.328125 0.296875 0.328125 0.765625q0 0.46875 -0.328125 0.765625q-0.328125 0.296875 -1.09375 0.296875l-1.921875 0q-0.78125 0 -1.109375 -0.296875q-0.328125 -0.296875 -0.328125 -0.78125q0 -0.46875 0.328125 -0.765625q0.328125 -0.296875 1.0 -0.296875l0 -5.1875q-0.671875 0 -1.0 -0.296875q-0.328125 -0.296875 -0.328125 -0.765625q0 -0.46875 0.328125 -0.765625q0.328125 -0.296875 1.109375 -0.296875l2.03125 0zm16.861465 -4.046875l0 2.25l-2.546875 0l0 -2.25l2.546875 0zm0.28125 4.046875l0 7.3125l2.5625 0q0.765625 0 1.09375 0.296875q0.328125 0.296875 0.328125 0.78125q0 0.46875 -0.328125 0.765625q-0.328125 0.296875 -1.09375 0.296875l-7.25 0q-0.78125 0 -1.109375 -0.296875q-0.328125 -0.296875 -0.328125 -0.78125q0 -0.46875 0.328125 -0.765625q0.328125 -0.296875 1.109375 -0.296875l2.5625 0l0 -5.1875l-1.71875 0q-0.765625 0 -1.109375 -0.296875q-0.328125 -0.296875 -0.328125 -0.765625q0 -0.46875 0.328125 -0.765625q0.328125 -0.296875 1.109375 -0.296875l3.84375 0zm9.580215 0l0 0.71875q0.59375 -0.5 1.296875 -0.75q0.703125 -0.25 1.515625 -0.25q1.90625 0 3.0 1.171875q0.875 0.9375 0.875 2.453125l0 3.96875q0.671875 0 1.0 0.296875q0.328125 0.296875 0.328125 0.78125q0 0.46875 -0.328125 0.765625q-0.328125 0.296875 -1.109375 0.296875l-1.921875 0q-0.765625 0 -1.09375 -0.296875q-0.328125 -0.296875 -0.328125 -0.78125q0 -0.46875 0.3125 -0.765625q0.328125 -0.296875 1.015625 -0.296875l0 -4.03125q0 -0.6875 -0.375 -1.015625q-0.5 -0.421875 -1.46875 -0.421875q-0.75 0 -1.3125 0.296875q-0.546875 0.28125 -1.40625 1.203125l0 3.96875q0.828125 0 1.0625 0.15625q0.515625 0.3125 0.515625 0.921875q0 0.46875 -0.328125 0.765625q-0.328125 0.296875 -1.09375 0.296875l-2.4375 0q-0.765625 0 -1.09375 -0.296875q-0.328125 -0.296875 -0.328125 -0.78125q0 -0.578125 0.5 -0.90625q0.25 -0.15625 1.078125 -0.15625l0 -5.1875q-0.6875 0 -1.015625 -0.296875q-0.3125 -0.296875 -0.3125 -0.765625q0 -0.46875 0.328125 -0.765625q0.328125 -0.296875 1.09375 -0.296875l2.03125 0zm14.43959 2.125l0 4.28125q0 0.6875 0.28125 0.90625q0.4375 0.34375 1.5625 0.34375q1.640625 0 3.015625 -0.6875q0.53125 -0.28125 0.828125 -0.28125q0.421875 0 0.71875 0.3125q0.3125 0.3125 0.3125 0.765625q0 0.421875 -0.328125 0.71875q-0.515625 0.484375 -2.015625 0.90625q-1.5 0.40625 -2.53125 0.40625q-1.984375 0 -2.984375 -0.859375q-1.0 -0.859375 -1.0 -2.109375l0 -4.703125l-0.765625 0q-0.765625 0 -1.09375 -0.296875q-0.328125 -0.296875 -0.328125 -0.765625q0 -0.46875 0.328125 -0.765625q0.328125 -0.296875 1.09375 -0.296875l0.765625 0l0 -1.921875q0 -0.78125 0.296875 -1.109375q0.296875 -0.328125 0.78125 -0.328125q0.46875 0 0.765625 0.328125q0.296875 0.328125 0.296875 1.109375l0 1.921875l3.953125 0q0.765625 0 1.09375 0.296875q0.328125 0.296875 0.328125 0.765625q0 0.46875 -0.328125 0.765625q-0.328125 0.296875 -1.09375 0.296875l-3.953125 0z" fill-rule="nonzero"/><path fill="#c9daf8" d="m523.0945 143.93059l0 0c0 -3.7921448 3.0741577 -6.866287 6.866272 -6.866287l151.49579 0c1.8210449 0 3.567505 0.7234192 4.8552246 2.0110931c1.2876587 1.287674 2.0110474 3.034134 2.0110474 4.855194l0 27.464294c0 3.7921295 -3.0740967 6.866272 -6.866272 6.866272l-151.49579 0c-3.7921143 0 -6.866272 -3.0741425 -6.866272 -6.866272z" fill-rule="evenodd"/><path stroke="#000000" stroke-width="4.0" stroke-linejoin="round" stroke-linecap="butt" d="m523.0945 143.93059l0 0c0 -3.7921448 3.0741577 -6.866287 6.866272 -6.866287l151.49579 0c1.8210449 0 3.567505 0.7234192 4.8552246 2.0110931c1.2876587 1.287674 2.0110474 3.034134 2.0110474 4.855194l0 27.464294c0 3.7921295 -3.0740967 6.866272 -6.866272 6.866272l-151.49579 0c-3.7921143 0 -6.866272 -3.0741425 -6.866272 -6.866272z" fill-rule="evenodd"/><path fill="#000000" d="m573.9216 164.8746l0 3.9375l1.4375 0q0.875 0 1.234375 0.328125q0.375 0.34375 0.375 0.890625q0 0.515625 -0.375 0.84375q-0.359375 0.34375 -1.234375 0.34375l-4.25 0q-0.859375 0 -1.234375 -0.34375q-0.375 -0.328125 -0.375 -0.84375q0 -0.546875 0.375 -0.890625q0.375 -0.328125 1.234375 -0.328125l0.40625 0l0 -10.84375l-0.40625 0q-0.859375 0 -1.234375 -0.328125q-0.375 -0.34375 -0.375 -0.890625q0 -0.515625 0.375 -0.84375q0.375 -0.34375 1.234375 -0.34375l2.8125 0l0 0.8125q0.84375 -0.5625 1.75 -0.84375q0.90625 -0.28125 1.84375 -0.28125q2.46875 0 4.203125 1.671875q1.734375 1.65625 1.734375 3.8125q0 2.390625 -2.046875 3.9375q-1.71875 1.28125 -3.859375 1.28125q-0.921875 0 -1.828125 -0.265625q-0.90625 -0.265625 -1.796875 -0.8125zm7.125 -4.125q0 -0.5 -0.40625 -1.28125q-0.390625 -0.78125 -1.21875 -1.296875q-0.828125 -0.53125 -1.9375 -0.53125q-1.796875 0 -2.84375 1.359375q-0.71875 0.921875 -0.71875 1.78125q0 0.953125 1.015625 1.859375q1.03125 0.90625 2.546875 0.90625q1.53125 0 2.546875 -0.890625q1.015625 -0.90625 1.015625 -1.90625zm15.371094 -5.1875l0 8.234375q0.75 0 1.109375 0.34375q0.375 0.34375 0.375 0.859375q0 0.53125 -0.375 0.875q-0.359375 0.328125 -1.234375 0.328125l-2.28125 0l0 -0.546875q-1.03125 0.46875 -1.96875 0.703125q-0.9375 0.234375 -1.78125 0.234375q-1.1875 0 -2.0625 -0.5q-0.859375 -0.5 -1.359375 -1.375q-0.359375 -0.640625 -0.359375 -1.59375l0 -5.15625l-0.421875 0q-0.859375 0 -1.234375 -0.328125q-0.359375 -0.34375 -0.359375 -0.890625q0 -0.515625 0.359375 -0.84375q0.375 -0.34375 1.234375 -0.34375l2.8125 0l0 7.140625q0 0.765625 0.375 1.125q0.375 0.359375 1.125 0.359375q0.734375 0 1.5625 -0.28125q0.84375 -0.296875 2.078125 -1.046875l0 -4.890625l-0.875 0q-0.859375 0 -1.234375 -0.328125q-0.359375 -0.34375 -0.359375 -0.890625q0 -0.515625 0.359375 -0.84375q0.375 -0.34375 1.234375 -0.34375l3.28125 0zm8.792969 0l0 1.5q1.515625 -1.09375 2.390625 -1.453125q0.875 -0.359375 1.625 -0.359375q1.171875 0 2.28125 0.859375q0.75 0.59375 0.75 1.203125q0 0.515625 -0.359375 0.875q-0.359375 0.34375 -0.859375 0.34375q-0.453125 0 -0.953125 -0.4375q-0.484375 -0.453125 -0.859375 -0.453125q-0.515625 0 -1.515625 0.640625q-1.0 0.625 -2.5 1.890625l0 3.625l3.421875 0q0.875 0 1.234375 0.34375q0.375 0.328125 0.375 0.859375q0 0.53125 -0.375 0.875q-0.359375 0.328125 -1.234375 0.328125l-7.25 0q-0.875 0 -1.25 -0.328125q-0.359375 -0.34375 -0.359375 -0.875q0 -0.53125 0.359375 -0.859375q0.375 -0.34375 1.25 -0.34375l1.421875 0l0 -5.828125l-0.859375 0q-0.875 0 -1.25 -0.328125q-0.359375 -0.34375 -0.359375 -0.890625q0 -0.515625 0.359375 -0.84375q0.375 -0.34375 1.25 -0.34375l3.265625 0zm17.496094 2.8125q-0.578125 -0.359375 -1.234375 -0.546875q-0.640625 -0.1875 -1.34375 -0.1875q-1.390625 0 -2.21875 0.46875q-0.359375 0.1875 -0.359375 0.421875q0 0.28125 0.5 0.53125q0.375 0.1875 1.671875 0.359375q2.390625 0.328125 3.328125 0.65625q1.234375 0.4375 1.890625 1.296875q0.671875 0.859375 0.671875 1.796875q0 1.296875 -1.140625 2.15625q-1.625 1.265625 -4.21875 1.265625q-1.046875 0 -1.9375 -0.1875q-0.875 -0.171875 -1.625 -0.53125q-0.171875 0.15625 -0.375 0.234375q-0.1875 0.078125 -0.40625 0.078125q-0.5625 0 -0.90625 -0.359375q-0.328125 -0.375 -0.328125 -1.25l0 -0.796875q0 -0.875 0.328125 -1.234375q0.34375 -0.375 0.890625 -0.375q0.421875 0 0.71875 0.25q0.296875 0.234375 0.453125 0.8125q0.5625 0.46875 1.328125 0.71875q0.78125 0.234375 1.78125 0.234375q1.65625 0 2.5625 -0.515625q0.4375 -0.265625 0.4375 -0.546875q0 -0.46875 -0.625 -0.765625q-0.609375 -0.3125 -2.5625 -0.515625q-2.890625 -0.3125 -3.859375 -1.171875q-0.984375 -0.859375 -0.984375 -2.109375q0 -1.296875 1.09375 -2.140625q1.484375 -1.171875 3.875 -1.171875q0.828125 0 1.59375 0.15625q0.765625 0.15625 1.46875 0.484375q0.21875 -0.171875 0.40625 -0.25q0.203125 -0.078125 0.375 -0.078125q0.484375 0 0.8125 0.375q0.328125 0.359375 0.328125 1.234375l0 0.578125q0 0.78125 -0.1875 1.0625q-0.375 0.546875 -1.015625 0.546875q-0.4375 0 -0.765625 -0.265625q-0.328125 -0.28125 -0.421875 -0.71875zm17.839844 3.71875l-9.859375 0q0.375 0.9375 1.328125 1.515625q0.953125 0.578125 2.59375 0.578125q1.328125 0 3.546875 -0.578125q0.90625 -0.234375 1.265625 -0.234375q0.484375 0 0.8125 0.34375q0.328125 0.34375 0.328125 0.859375q0 0.46875 -0.359375 0.796875q-0.46875 0.421875 -2.28125 0.828125q-1.8125 0.390625 -3.5 0.390625q-2.875 0 -4.609375 -1.625q-1.71875 -1.640625 -1.71875 -4.015625q0 -2.53125 1.859375 -4.109375q1.875 -1.59375 4.3125 -1.59375q1.46875 0 2.6875 0.515625q1.21875 0.515625 1.828125 1.109375q0.84375 0.859375 1.390625 2.140625q0.375 0.890625 0.375 2.0625l0 1.015625zm-2.65625 -2.390625q-0.5625 -1.03125 -1.453125 -1.546875q-0.890625 -0.515625 -2.109375 -0.515625q-1.21875 0 -2.109375 0.515625q-0.890625 0.515625 -1.453125 1.546875l7.125 0z" fill-rule="nonzero"/><path fill="#c9daf8" d="m238.50394 143.93059l0 0c0 -3.7921448 3.0741425 -6.866287 6.866272 -6.866287l151.49579 0c1.8210449 0 3.5675354 0.7234192 4.855194 2.0110931c1.2876892 1.287674 2.011078 3.034134 2.011078 4.855194l0 27.464294c0 3.7921295 -3.0741272 6.866272 -6.866272 6.866272l-151.49579 0c-3.7921295 0 -6.866272 -3.0741425 -6.866272 -6.866272z" fill-rule="evenodd"/><path stroke="#000000" stroke-width="4.0" stroke-linejoin="round" stroke-linecap="butt" d="m238.50394 143.93059l0 0c0 -3.7921448 3.0741425 -6.866287 6.866272 -6.866287l151.49579 0c1.8210449 0 3.5675354 0.7234192 4.855194 2.0110931c1.2876892 1.287674 2.011078 3.034134 2.011078 4.855194l0 27.464294c0 3.7921295 -3.0741272 6.866272 -6.866272 6.866272l-151.49579 0c-3.7921295 0 -6.866272 -3.0741425 -6.866272 -6.866272z" fill-rule="evenodd"/><path fill="#000000" d="m274.92865 164.8746l0 3.9375l1.4375 0q0.875 0 1.234375 0.328125q0.375 0.34375 0.375 0.890625q0 0.515625 -0.375 0.84375q-0.359375 0.34375 -1.234375 0.34375l-4.25 0q-0.859375 0 -1.234375 -0.34375q-0.375 -0.328125 -0.375 -0.84375q0 -0.546875 0.375 -0.890625q0.375 -0.328125 1.234375 -0.328125l0.40625 0l0 -10.84375l-0.40625 0q-0.859375 0 -1.234375 -0.328125q-0.375 -0.34375 -0.375 -0.890625q0 -0.515625 0.375 -0.84375q0.375 -0.34375 1.234375 -0.34375l2.8125 0l0 0.8125q0.84375 -0.5625 1.75 -0.84375q0.90625 -0.28125 1.84375 -0.28125q2.46875 0 4.203125 1.671875q1.734375 1.65625 1.734375 3.8125q0 2.390625 -2.046875 3.9375q-1.71875 1.28125 -3.859375 1.28125q-0.921875 0 -1.828125 -0.265625q-0.90625 -0.265625 -1.796875 -0.8125zm7.125 -4.125q0 -0.5 -0.40625 -1.28125q-0.390625 -0.78125 -1.21875 -1.296875q-0.828125 -0.53125 -1.9375 -0.53125q-1.796875 0 -2.84375 1.359375q-0.71875 0.921875 -0.71875 1.78125q0 0.953125 1.015625 1.859375q1.03125 0.90625 2.546875 0.90625q1.53125 0 2.546875 -0.890625q1.015625 -0.90625 1.015625 -1.90625zm12.417969 5.453125l0 -0.5625q-0.890625 0.484375 -1.984375 0.71875q-1.09375 0.25 -1.984375 0.25q-1.9375 0 -3.140625 -1.03125q-1.203125 -1.03125 -1.203125 -2.265625q0 -1.515625 1.53125 -2.8125q1.546875 -1.296875 4.265625 -1.296875q1.09375 0 2.515625 0.234375l0 -0.578125q0 -0.53125 -0.46875 -0.875q-0.453125 -0.34375 -1.75 -0.34375q-1.0625 0 -2.765625 0.421875q-0.640625 0.15625 -0.984375 0.15625q-0.484375 0 -0.828125 -0.34375q-0.328125 -0.34375 -0.328125 -0.890625q0 -0.296875 0.109375 -0.515625q0.125 -0.234375 0.328125 -0.359375q0.21875 -0.140625 0.890625 -0.328125q0.890625 -0.25 1.8125 -0.390625q0.9375 -0.140625 1.6875 -0.140625q2.234375 0 3.46875 0.96875q1.234375 0.953125 1.234375 2.640625l0 4.9375l0.40625 0q0.875 0 1.234375 0.34375q0.375 0.328125 0.375 0.859375q0 0.53125 -0.375 0.875q-0.359375 0.328125 -1.234375 0.328125l-2.8125 0zm0 -4.296875q-1.4375 -0.28125 -2.65625 -0.28125q-1.46875 0 -2.515625 0.703125q-0.65625 0.46875 -0.65625 0.9375q0 0.328125 0.3125 0.546875q0.59375 0.390625 1.609375 0.390625q0.859375 0 1.953125 -0.34375q1.109375 -0.34375 1.953125 -0.921875l0 -1.03125zm10.902344 4.21875l-4.15625 -8.15625q-0.59375 -0.078125 -0.90625 -0.40625q-0.296875 -0.328125 -0.296875 -0.796875q0 -0.53125 0.375 -0.859375q0.375 -0.34375 1.234375 -0.34375l2.1875 0q0.875 0 1.234375 0.34375q0.375 0.328125 0.375 0.859375q0 0.53125 -0.375 0.875q-0.359375 0.328125 -1.15625 0.328125l2.828125 5.515625l2.8125 -5.515625q-0.765625 0 -1.140625 -0.328125q-0.359375 -0.34375 -0.359375 -0.890625q0 -0.515625 0.359375 -0.84375q0.375 -0.34375 1.234375 -0.34375l2.265625 0q0.859375 0 1.21875 0.34375q0.375 0.328125 0.375 0.859375q0 0.484375 -0.3125 0.828125q-0.3125 0.328125 -0.9375 0.375l-5.515625 10.84375q0.90625 0 1.1875 0.1875q0.5625 0.359375 0.5625 1.03125q0 0.515625 -0.375 0.84375q-0.359375 0.34375 -1.234375 0.34375l-5.234375 0q-0.859375 0 -1.234375 -0.34375q-0.375 -0.328125 -0.375 -0.84375q0 -0.546875 0.375 -0.890625q0.375 -0.328125 1.234375 -0.328125l2.390625 0l1.359375 -2.6875zm12.042969 -10.5625l0 0.671875q0.578125 -0.5625 1.046875 -0.78125q0.484375 -0.21875 1.109375 -0.21875q0.515625 0 1.03125 0.265625q0.515625 0.25 1.015625 0.765625q0.625 -0.515625 1.25 -0.765625q0.640625 -0.25 1.3125 -0.25q1.34375 0 2.171875 0.703125q1.09375 0.9375 1.09375 2.46875l0 5.375q0.75 0 1.109375 0.34375q0.375 0.34375 0.375 0.859375q0 0.53125 -0.375 0.875q-0.359375 0.328125 -1.21875 0.328125l-2.28125 0l0 -7.578125q0 -0.5625 -0.203125 -0.765625q-0.203125 -0.21875 -0.609375 -0.21875q-0.40625 0 -0.734375 0.21875q-0.4375 0.296875 -1.0625 1.09375l0 4.84375q0.75 0 1.109375 0.34375q0.375 0.34375 0.375 0.859375q0 0.53125 -0.375 0.875q-0.359375 0.328125 -1.21875 0.328125l-2.296875 0l0 -7.578125q0 -0.546875 -0.203125 -0.765625q-0.203125 -0.21875 -0.609375 -0.21875q-0.421875 0 -0.84375 0.265625q-0.40625 0.265625 -0.96875 1.046875l0 4.84375q0.75 0 1.109375 0.34375q0.375 0.34375 0.375 0.859375q0 0.53125 -0.375 0.875q-0.359375 0.328125 -1.234375 0.328125l-2.171875 0q-0.859375 0 -1.234375 -0.328125q-0.375 -0.34375 -0.375 -0.875q0 -0.53125 0.375 -0.859375q0.359375 -0.34375 1.125 -0.34375l0 -5.828125q-0.765625 0 -1.125 -0.34375q-0.375 -0.34375 -0.375 -0.875q0 -0.515625 0.375 -0.84375q0.375 -0.34375 1.234375 -0.34375l2.296875 0zm24.136719 6.53125l-9.859375 0q0.375 0.9375 1.328125 1.515625q0.953125 0.578125 2.59375 0.578125q1.328125 0 3.546875 -0.578125q0.90625 -0.234375 1.265625 -0.234375q0.484375 0 0.8125 0.34375q0.328125 0.34375 0.328125 0.859375q0 0.46875 -0.359375 0.796875q-0.46875 0.421875 -2.28125 0.828125q-1.8125 0.390625 -3.5 0.390625q-2.875 0 -4.609375 -1.625q-1.71875 -1.640625 -1.71875 -4.015625q0 -2.53125 1.859375 -4.109375q1.875 -1.59375 4.3125 -1.59375q1.46875 0 2.6875 0.515625q1.21875 0.515625 1.828125 1.109375q0.84375 0.859375 1.390625 2.140625q0.375 0.890625 0.375 2.0625l0 1.015625zm-2.65625 -2.390625q-0.5625 -1.03125 -1.453125 -1.546875q-0.890625 -0.515625 -2.109375 -0.515625q-1.21875 0 -2.109375 0.515625q-0.890625 0.515625 -1.453125 1.546875l7.125 0zm8.589844 -4.140625l0 0.8125q0.65625 -0.5625 1.453125 -0.84375q0.796875 -0.28125 1.71875 -0.28125q2.125 0 3.375 1.3125q0.984375 1.0625 0.984375 2.765625l0 4.46875q0.765625 0 1.125 0.34375q0.359375 0.328125 0.359375 0.859375q0 0.53125 -0.375 0.875q-0.359375 0.328125 -1.234375 0.328125l-2.15625 0q-0.875 0 -1.25 -0.328125q-0.359375 -0.34375 -0.359375 -0.875q0 -0.53125 0.359375 -0.859375q0.359375 -0.34375 1.125 -0.34375l0 -4.53125q0 -0.78125 -0.421875 -1.15625q-0.546875 -0.46875 -1.65625 -0.46875q-0.828125 0 -1.453125 0.328125q-0.625 0.328125 -1.59375 1.359375l0 4.46875q0.9375 0 1.203125 0.171875q0.578125 0.359375 0.578125 1.03125q0 0.53125 -0.375 0.875q-0.375 0.328125 -1.234375 0.328125l-2.734375 0q-0.859375 0 -1.234375 -0.328125q-0.375 -0.34375 -0.375 -0.875q0 -0.65625 0.5625 -1.03125q0.28125 -0.171875 1.21875 -0.171875l0 -5.828125q-0.765625 0 -1.140625 -0.34375q-0.359375 -0.34375 -0.359375 -0.875q0 -0.515625 0.375 -0.84375q0.375 -0.34375 1.234375 -0.34375l2.28125 0zm16.246094 2.40625l0 4.8125q0 0.765625 0.3125 1.015625q0.5 0.390625 1.765625 0.390625q1.84375 0 3.3906555 -0.78125q0.609375 -0.3125 0.9375 -0.3125q0.46875 0 0.8125 0.359375q0.359375 0.34375 0.359375 0.84375q0 0.46875 -0.375 0.8125q-0.578125 0.546875 -2.28125 1.015625q-1.6875305 0.46875 -2.8437805 0.46875q-2.234375 0 -3.359375 -0.96875q-1.125 -0.96875 -1.125 -2.375l0 -5.28125l-0.859375 0q-0.875 0 -1.25 -0.328125q-0.359375 -0.34375 -0.359375 -0.890625q0 -0.515625 0.359375 -0.84375q0.375 -0.34375 1.25 -0.34375l0.859375 0l0 -2.171875q0 -0.859375 0.328125 -1.234375q0.34375 -0.375 0.890625 -0.375q0.515625 0 0.84375 0.375q0.34375 0.375 0.34375 1.234375l0 2.171875l4.4375 0q0.8750305 0 1.2344055 0.34375q0.375 0.328125 0.375 0.859375q0 0.53125 -0.375 0.875q-0.359375 0.328125 -1.2344055 0.328125l-4.4375 0z" fill-rule="nonzero"/><path fill="#000000" fill-opacity="0.0" d="m465.60892 158.99475l57.480316 -1.3228302" fill-rule="evenodd"/><path stroke="#000000" stroke-width="2.0" stroke-linejoin="round" stroke-linecap="butt" d="m465.60892 158.99475l57.480316 -1.3228302" fill-rule="evenodd"/><path fill="#000000" fill-opacity="0.0" d="m469.38846 87.24672l0.12597656 71.74803" fill-rule="evenodd"/><path stroke="#000000" stroke-width="2.0" stroke-linejoin="round" stroke-linecap="butt" d="m469.38846 87.24672l0.12597656 71.74803" fill-rule="evenodd"/><path fill="#000000" fill-opacity="0.0" d="m469.51443 94.48688l298.61417 0l0 23.338585l-298.61417 0z" fill-rule="evenodd"/><path fill="#000000" d="m487.01443 114.62813l2.234375 0.71875q-0.515625 1.875 -1.71875 2.796875q-1.1875 0.90625 -3.03125 0.90625q-2.28125 0 -3.75 -1.5625q-1.46875 -1.5625 -1.46875 -4.265625q0 -2.859375 1.46875 -4.4375q1.484375 -1.59375 3.890625 -1.59375q2.09375 0 3.40625 1.25q0.78125 0.734375 1.171875 2.109375l-2.28125 0.546875q-0.203125 -0.890625 -0.859375 -1.40625q-0.640625 -0.515625 -1.5625 -0.515625q-1.265625 0 -2.0625 0.921875q-0.796875 0.90625 -0.796875 2.953125q0 2.171875 0.78125 3.09375q0.78125 0.921875 2.03125 0.921875q0.921875 0 1.578125 -0.578125q0.671875 -0.59375 0.96875 -1.859375zm6.3046875 4.21875l-2.1875 0l0 -8.296875l2.03125 0l0 1.171875q0.53125 -0.828125 0.9375 -1.09375q0.421875 -0.265625 0.953125 -0.265625q0.75 0 1.453125 0.40625l-0.6875 1.921875q-0.546875 -0.359375 -1.03125 -0.359375q-0.453125 0 -0.78125 0.25q-0.3125 0.25 -0.5 0.921875q-0.1875 0.65625 -0.1875 2.78125l0 2.5625zm8.9296875 -2.640625l2.1875 0.359375q-0.421875 1.203125 -1.328125 1.84375q-0.90625 0.625 -2.28125 0.625q-2.15625 0 -3.203125 -1.421875q-0.8125 -1.125 -0.8125 -2.859375q0 -2.0625 1.078125 -3.21875q1.078125 -1.171875 2.71875 -1.171875q1.859375 0 2.921875 1.21875q1.078125 1.21875 1.03125 3.75l-5.5 0q0.015625 0.96875 0.515625 1.515625q0.515625 0.546875 1.28125 0.546875q0.515625 0 0.859375 -0.28125q0.359375 -0.28125 0.53125 -0.90625zm0.125 -2.21875q-0.015625 -0.953125 -0.484375 -1.453125q-0.46875 -0.5 -1.140625 -0.5q-0.71875 0 -1.1875 0.53125q-0.46875 0.515625 -0.46875 1.421875l3.28125 0zm5.6171875 -0.90625l-2.0 -0.359375q0.34375 -1.203125 1.15625 -1.78125q0.828125 -0.578125 2.4375 -0.578125q1.46875 0 2.1875 0.34375q0.7187805 0.34375 1.0156555 0.890625q0.296875 0.53125 0.296875 1.953125l-0.03125 2.5625q0 1.09375 0.109375 1.625q0.109375 0.515625 0.390625 1.109375l-2.1719055 0q-0.078125 -0.21875 -0.203125 -0.65625q-0.0625 -0.1875 -0.078125 -0.25q-0.5625 0.546875 -1.203125 0.828125q-0.640625 0.265625 -1.375 0.265625q-1.28125 0 -2.015625 -0.6875q-0.734375 -0.703125 -0.734375 -1.765625q0 -0.703125 0.328125 -1.25q0.34375 -0.5625 0.9375 -0.84375q0.609375 -0.296875 1.75 -0.515625q1.546875 -0.296875 2.140625 -0.546875l0 -0.21875q0 -0.625 -0.3125 -0.890625q-0.3125 -0.28125 -1.1875 -0.28125q-0.578125 0 -0.90625 0.234375q-0.328125 0.234375 -0.53125 0.8125zm2.9375 1.78125q-0.421875 0.140625 -1.34375 0.34375q-0.90625 0.1875 -1.1875 0.375q-0.4375 0.296875 -0.4375 0.765625q0 0.46875 0.34375 0.8125q0.34375 0.328125 0.875 0.328125q0.59375 0 1.140625 -0.390625q0.390625 -0.296875 0.515625 -0.734375q0.09375 -0.28125 0.09375 -1.0625l0 -0.4375zm8.117218 -4.3125l0 1.75l-1.5 0l0 3.34375q0 1.015625 0.046875 1.1875q0.046875 0.15625 0.1875 0.265625q0.15625 0.109375 0.375 0.109375q0.3125 0 0.890625 -0.203125l0.1875 1.703125q-0.765625 0.328125 -1.734375 0.328125q-0.59375 0 -1.078125 -0.203125q-0.46875 -0.203125 -0.703125 -0.515625q-0.21875 -0.3125 -0.296875 -0.859375q-0.078125 -0.375 -0.078125 -1.546875l0 -3.609375l-1.0 0l0 -1.75l1.0 0l0 -1.65625l2.203125 -1.28125l0 2.9375l1.5 0zm6.328125 5.65625l2.1875 0.359375q-0.421875 1.203125 -1.328125 1.84375q-0.90625 0.625 -2.28125 0.625q-2.15625 0 -3.203125 -1.421875q-0.8125 -1.125 -0.8125 -2.859375q0 -2.0625 1.078125 -3.21875q1.078125 -1.171875 2.71875 -1.171875q1.859375 0 2.921875 1.21875q1.078125 1.21875 1.03125 3.75l-5.5 0q0.015625 0.96875 0.515625 1.515625q0.515625 0.546875 1.28125 0.546875q0.515625 0 0.859375 -0.28125q0.359375 -0.28125 0.53125 -0.90625zm0.125 -2.21875q-0.015625 -0.953125 -0.484375 -1.453125q-0.46875 -0.5 -1.140625 -0.5q-0.71875 0 -1.1875 0.53125q-0.46875 0.515625 -0.46875 1.421875l3.28125 0zm15.96875 4.859375l-2.203125 0l0 -4.234375q0 -1.34375 -0.140625 -1.734375q-0.140625 -0.40625 -0.453125 -0.625q-0.3125 -0.21875 -0.765625 -0.21875q-0.5625 0 -1.015625 0.3125q-0.453125 0.3125 -0.625 0.828125q-0.171875 0.515625 -0.171875 1.90625l0 3.765625l-2.1875 0l0 -8.296875l2.03125 0l0 1.21875q1.09375 -1.40625 2.734375 -1.40625q0.734375 0 1.328125 0.265625q0.609375 0.25 0.90625 0.65625q0.3125 0.40625 0.4375 0.921875q0.125 0.515625 0.125 1.484375l0 5.15625zm7.0234375 -2.640625l2.1875 0.359375q-0.421875 1.203125 -1.328125 1.84375q-0.90625 0.625 -2.28125 0.625q-2.15625 0 -3.203125 -1.421875q-0.8125 -1.125 -0.8125 -2.859375q0 -2.0625 1.078125 -3.21875q1.078125 -1.171875 2.71875 -1.171875q1.859375 0 2.921875 1.21875q1.078125 1.21875 1.03125 3.75l-5.5 0q0.015625 0.96875 0.515625 1.515625q0.515625 0.546875 1.28125 0.546875q0.515625 0 0.859375 -0.28125q0.359375 -0.28125 0.53125 -0.90625zm0.125 -2.21875q-0.015625 -0.953125 -0.484375 -1.453125q-0.46875 -0.5 -1.140625 -0.5q-0.71875 0 -1.1875 0.53125q-0.46875 0.515625 -0.46875 1.421875l3.28125 0zm5.5234375 4.859375l-2.625 -8.296875l2.125 0l1.5625 5.4375l1.421875 -5.4375l2.125 0l1.375 5.4375l1.59375 -5.4375l2.15625 0l-2.65625 8.296875l-2.109375 0l-1.4375 -5.34375l-1.40625 5.34375l-2.125 0zm20.140625 -2.640625l2.1875 0.359375q-0.421875 1.203125 -1.328125 1.84375q-0.90625 0.625 -2.28125 0.625q-2.15625 0 -3.203125 -1.421875q-0.8125 -1.125 -0.8125 -2.859375q0 -2.0625 1.078125 -3.21875q1.078125 -1.171875 2.71875 -1.171875q1.859375 0 2.921875 1.21875q1.078125 1.21875 1.03125 3.75l-5.5 0q0.015625 0.96875 0.515625 1.515625q0.515625 0.546875 1.28125 0.546875q0.515625 0 0.859375 -0.28125q0.359375 -0.28125 0.53125 -0.90625zm0.125 -2.21875q-0.015625 -0.953125 -0.484375 -1.453125q-0.46875 -0.5 -1.140625 -0.5q-0.71875 0 -1.1875 0.53125q-0.46875 0.515625 -0.46875 1.421875l3.28125 0zm3.8046875 -3.4375l2.03125 0l0 1.125q1.078125 -1.3125 2.578125 -1.3125q0.796875 0 1.375 0.328125q0.59375 0.328125 0.96875 0.984375q0.546875 -0.65625 1.171875 -0.984375q0.640625 -0.328125 1.359375 -0.328125q0.921875 0 1.546875 0.375q0.640625 0.359375 0.953125 1.078125q0.21875 0.53125 0.21875 1.71875l0 5.3125l-2.1875 0l0 -4.75q0 -1.234375 -0.234375 -1.59375q-0.296875 -0.46875 -0.9375 -0.46875q-0.453125 0 -0.859375 0.28125q-0.40625 0.28125 -0.59375 0.828125q-0.171875 0.546875 -0.171875 1.71875l0 3.984375l-2.203125 0l0 -4.546875q0 -1.21875 -0.125 -1.5625q-0.109375 -0.359375 -0.359375 -0.53125q-0.234375 -0.171875 -0.65625 -0.171875q-0.515625 0 -0.921875 0.28125q-0.40625 0.265625 -0.578125 0.78125q-0.171875 0.515625 -0.171875 1.71875l0 4.03125l-2.203125 0l0 -8.296875zm14.3359375 0l2.046875 0l0 1.21875q0.390625 -0.625 1.0625 -1.015625q0.6875 -0.390625 1.515625 -0.390625q1.453125 0 2.453125 1.140625q1.015625 1.125 1.015625 3.140625q0 2.078125 -1.015625 3.234375q-1.015625 1.15625 -2.46875 1.15625q-0.6875 0 -1.25 -0.265625q-0.546875 -0.28125 -1.171875 -0.953125l0 4.1875l-2.1875 0l0 -11.453125zm2.171875 4.0q0 1.40625 0.546875 2.078125q0.5625 0.65625 1.359375 0.65625q0.765625 0 1.265625 -0.609375q0.515625 -0.609375 0.515625 -2.015625q0 -1.296875 -0.53125 -1.921875q-0.515625 -0.640625 -1.296875 -0.640625q-0.796875 0 -1.328125 0.625q-0.53125 0.609375 -0.53125 1.828125zm11.4609375 -4.0l0 1.75l-1.5 0l0 3.34375q0 1.015625 0.046875 1.1875q0.046875 0.15625 0.1875 0.265625q0.15625 0.109375 0.375 0.109375q0.3125 0 0.890625 -0.203125l0.1875 1.703125q-0.765625 0.328125 -1.734375 0.328125q-0.59375 0 -1.078125 -0.203125q-0.46875 -0.203125 -0.703125 -0.515625q-0.21875 -0.3125 -0.296875 -0.859375q-0.078125 -0.375 -0.078125 -1.546875l0 -3.609375l-1.0 0l0 -1.75l1.0 0l0 -1.65625l2.203125 -1.28125l0 2.9375l1.5 0zm0.484375 0l2.34375 0l1.984375 5.890625l1.9375 -5.890625l2.265625 0l-2.921875 7.984375l-0.53125 1.453125q-0.28125 0.71875 -0.546875 1.09375q-0.265625 0.390625 -0.609375 0.625q-0.328125 0.25 -0.828125 0.375q-0.5 0.140625 -1.125 0.140625q-0.625 0 -1.234375 -0.140625l-0.203125 -1.71875q0.515625 0.109375 0.9375 0.109375q0.765625 0 1.125 -0.453125q0.375 -0.453125 0.5625 -1.140625l-3.15625 -8.328125zm14.390625 -1.125l0 -2.03125l2.1875 0l0 2.03125l-2.1875 0zm0 9.421875l0 -8.296875l2.1875 0l0 8.296875l-2.1875 0zm11.9921875 0l-2.203125 0l0 -4.234375q0 -1.34375 -0.140625 -1.734375q-0.140625 -0.40625 -0.453125 -0.625q-0.3125 -0.21875 -0.765625 -0.21875q-0.5625 0 -1.015625 0.3125q-0.453125 0.3125 -0.625 0.828125q-0.171875 0.515625 -0.171875 1.90625l0 3.765625l-2.1875 0l0 -8.296875l2.03125 0l0 1.21875q1.09375 -1.40625 2.734375 -1.40625q0.734375 0 1.328125 0.265625q0.609375 0.25 0.90625 0.65625q0.3125 0.40625 0.4375 0.921875q0.125 0.515625 0.125 1.484375l0 5.15625zm1.4453125 -2.375l2.203125 -0.328125q0.140625 0.640625 0.5625 0.96875q0.4375 0.328125 1.21875 0.328125q0.84375 0 1.28125 -0.3125q0.28125 -0.21875 0.28125 -0.578125q0 -0.25 -0.15625 -0.421875q-0.15625 -0.15625 -0.734375 -0.28125q-2.65625 -0.59375 -3.359375 -1.078125q-0.984375 -0.671875 -0.984375 -1.859375q0 -1.078125 0.84375 -1.8125q0.859375 -0.734375 2.640625 -0.734375q1.703125 0 2.53125 0.5625q0.828125 0.546875 1.140625 1.625l-2.0625 0.390625q-0.140625 -0.484375 -0.515625 -0.734375q-0.359375 -0.265625 -1.046875 -0.265625q-0.875 0 -1.25 0.234375q-0.25 0.171875 -0.25 0.453125q0 0.234375 0.21875 0.390625q0.296875 0.21875 2.046875 0.625q1.765625 0.390625 2.453125 0.96875q0.6875 0.59375 0.6875 1.640625q0 1.140625 -0.953125 1.96875q-0.953125 0.8125 -2.8125 0.8125q-1.703125 0 -2.6875 -0.6875q-0.984375 -0.6875 -1.296875 -1.875zm13.4765625 -5.921875l0 1.75l-1.5 0l0 3.34375q0 1.015625 0.046875 1.1875q0.046875 0.15625 0.1875 0.265625q0.15625 0.109375 0.375 0.109375q0.3125 0 0.890625 -0.203125l0.1875 1.703125q-0.765625 0.328125 -1.734375 0.328125q-0.59375 0 -1.078125 -0.203125q-0.46875 -0.203125 -0.703125 -0.515625q-0.21875 -0.3125 -0.296875 -0.859375q-0.078125 -0.375 -0.078125 -1.546875l0 -3.609375l-1.0 0l0 -1.75l1.0 0l0 -1.65625l2.203125 -1.28125l0 2.9375l1.5 0zm3.171875 2.53125l-2.0 -0.359375q0.34375 -1.203125 1.15625 -1.78125q0.828125 -0.578125 2.4375 -0.578125q1.46875 0 2.1875 0.34375q0.71875 0.34375 1.015625 0.890625q0.296875 0.53125 0.296875 1.953125l-0.03125 2.5625q0 1.09375 0.109375 1.625q0.109375 0.515625 0.390625 1.109375l-2.171875 0q-0.078125 -0.21875 -0.203125 -0.65625q-0.0625 -0.1875 -0.078125 -0.25q-0.5625 0.546875 -1.203125 0.828125q-0.640625 0.265625 -1.375 0.265625q-1.28125 0 -2.015625 -0.6875q-0.734375 -0.703125 -0.734375 -1.765625q0 -0.703125 0.328125 -1.25q0.34375 -0.5625 0.9375 -0.84375q0.609375 -0.296875 1.75 -0.515625q1.546875 -0.296875 2.140625 -0.546875l0 -0.21875q0 -0.625 -0.3125 -0.890625q-0.3125 -0.28125 -1.1875 -0.28125q-0.578125 0 -0.90625 0.234375q-0.328125 0.234375 -0.53125 0.8125zm2.9375 1.78125q-0.421875 0.140625 -1.34375 0.34375q-0.90625 0.1875 -1.1875 0.375q-0.4375 0.296875 -0.4375 0.765625q0 0.46875 0.34375 0.8125q0.34375 0.328125 0.875 0.328125q0.59375 0 1.140625 -0.390625q0.390625 -0.296875 0.515625 -0.734375q0.09375 -0.28125 0.09375 -1.0625l0 -0.4375zm11.8671875 3.984375l-2.203125 0l0 -4.234375q0 -1.34375 -0.140625 -1.734375q-0.140625 -0.40625 -0.453125 -0.625q-0.3125 -0.21875 -0.765625 -0.21875q-0.5625 0 -1.015625 0.3125q-0.453125 0.3125 -0.625 0.828125q-0.171875 0.515625 -0.171875 1.90625l0 3.765625l-2.1875 0l0 -8.296875l2.03125 0l0 1.21875q1.09375 -1.40625 2.734375 -1.40625q0.734375 0 1.328125 0.265625q0.609375 0.25 0.90625 0.65625q0.3125 0.40625 0.4375 0.921875q0.125 0.515625 0.125 1.484375l0 5.15625zm9.4609375 -5.84375l-2.171875 0.390625q-0.109375 -0.65625 -0.5 -0.984375q-0.375 -0.328125 -1.0 -0.328125q-0.8125 0 -1.3125 0.578125q-0.484375 0.5625 -0.484375 1.890625q0 1.46875 0.5 2.078125q0.5 0.609375 1.328125 0.609375q0.625 0 1.015625 -0.34375q0.40625 -0.359375 0.578125 -1.234375l2.15625 0.375q-0.34375 1.484375 -1.296875 2.25q-0.953125 0.75 -2.546875 0.75q-1.828125 0 -2.90625 -1.140625q-1.078125 -1.15625 -1.078125 -3.1875q0 -2.0625 1.078125 -3.203125q1.09375 -1.140625 2.9375 -1.140625q1.515625 0 2.40625 0.65625q0.90625 0.640625 1.296875 1.984375zm6.4609375 3.203125l2.1875 0.359375q-0.421875 1.203125 -1.328125 1.84375q-0.90625 0.625 -2.28125 0.625q-2.15625 0 -3.203125 -1.421875q-0.8125 -1.125 -0.8125 -2.859375q0 -2.0625 1.078125 -3.21875q1.078125 -1.171875 2.71875 -1.171875q1.859375 0 2.921875 1.21875q1.078125 1.21875 1.03125 3.75l-5.5 0q0.015625 0.96875 0.515625 1.515625q0.515625 0.546875 1.28125 0.546875q0.515625 0 0.859375 -0.28125q0.359375 -0.28125 0.53125 -0.90625zm0.125 -2.21875q-0.015625 -0.953125 -0.484375 -1.453125q-0.46875 -0.5 -1.140625 -0.5q-0.71875 0 -1.1875 0.53125q-0.46875 0.515625 -0.46875 1.421875l3.28125 0zm3.1953125 2.484375l2.203125 -0.328125q0.140625 0.640625 0.5625 0.96875q0.4375 0.328125 1.21875 0.328125q0.84375 0 1.28125 -0.3125q0.28125 -0.21875 0.28125 -0.578125q0 -0.25 -0.15625 -0.421875q-0.15625 -0.15625 -0.734375 -0.28125q-2.65625 -0.59375 -3.359375 -1.078125q-0.984375 -0.671875 -0.984375 -1.859375q0 -1.078125 0.84375 -1.8125q0.859375 -0.734375 2.640625 -0.734375q1.703125 0 2.53125 0.5625q0.828125 0.546875 1.140625 1.625l-2.0625 0.390625q-0.140625 -0.484375 -0.515625 -0.734375q-0.359375 -0.265625 -1.046875 -0.265625q-0.875 0 -1.25 0.234375q-0.25 0.171875 -0.25 0.453125q0 0.234375 0.21875 0.390625q0.296875 0.21875 2.046875 0.625q1.765625 0.390625 2.453125 0.96875q0.6875 0.59375 0.6875 1.640625q0 1.140625 -0.953125 1.96875q-0.953125 0.8125 -2.8125 0.8125q-1.703125 0 -2.6875 -0.6875q-0.984375 -0.6875 -1.296875 -1.875z" fill-rule="nonzero"/><path fill="#000000" fill-opacity="0.0" d="m401.5013 178.0l0 50.015747" fill-rule="evenodd"/><path stroke="#000000" stroke-width="2.0" stroke-linejoin="round" stroke-linecap="butt" d="m401.5013 178.0l0 50.015747" fill-rule="evenodd"/><path fill="#000000" fill-opacity="0.0" d="m527.0 178.0l0 50.015747" fill-rule="evenodd"/><path stroke="#000000" stroke-width="2.0" stroke-linejoin="round" stroke-linecap="butt" d="m527.0 178.0l0 50.015747" fill-rule="evenodd"/><path fill="#000000" fill-opacity="0.0" d="m401.93964 158.99475l127.33856 0l0 32.25197l-127.33856 0z" fill-rule="evenodd"/><path fill="#000000" d="m419.43964 179.136l2.234375 0.71875q-0.515625 1.875 -1.71875 2.796875q-1.1875 0.90625 -3.03125 0.90625q-2.28125 0 -3.75 -1.5625q-1.46875 -1.5625 -1.46875 -4.265625q0 -2.859375 1.46875 -4.4375q1.484375 -1.59375 3.890625 -1.59375q2.09375 0 3.40625 1.25q0.78125 0.734375 1.171875 2.109375l-2.28125 0.546875q-0.203125 -0.890625 -0.859375 -1.40625q-0.640625 -0.515625 -1.5625 -0.515625q-1.265625 0 -2.0625 0.921875q-0.796875 0.90625 -0.796875 2.953125q0 2.171875 0.78125 3.09375q0.78125 0.921875 2.03125 0.921875q0.921875 0 1.578125 -0.578125q0.671875 -0.59375 0.96875 -1.859375zm3.6953125 -0.046875q0 -1.09375 0.53125 -2.109375q0.546875 -1.03125 1.53125 -1.5625q1.0 -0.546875 2.21875 -0.546875q1.875 0 3.078125 1.21875q1.203125 1.21875 1.203125 3.09375q0 1.875 -1.21875 3.125q-1.203125 1.234375 -3.046875 1.234375q-1.140625 0 -2.1875 -0.515625q-1.03125 -0.515625 -1.578125 -1.515625q-0.53125 -1.0 -0.53125 -2.421875zm2.25 0.109375q0 1.234375 0.578125 1.890625q0.59375 0.65625 1.453125 0.65625q0.859375 0 1.4375 -0.65625q0.59375 -0.65625 0.59375 -1.90625q0 -1.21875 -0.59375 -1.875q-0.578125 -0.65625 -1.4375 -0.65625q-0.859375 0 -1.453125 0.65625q-0.578125 0.65625 -0.578125 1.890625zm15.5859375 4.15625l-2.203125 0l0 -4.234375q0 -1.34375 -0.140625 -1.734375q-0.140625 -0.40625 -0.453125 -0.625q-0.3125 -0.21875 -0.765625 -0.21875q-0.5625 0 -1.015625 0.3125q-0.453125 0.3125 -0.625 0.828125q-0.171875 0.515625 -0.171875 1.90625l0 3.765625l-2.1875 0l0 -8.296875l2.03125 0l0 1.21875q1.09375 -1.40625 2.734375 -1.40625q0.734375 0 1.328125 0.265625q0.609375 0.25 0.90625 0.65625q0.3125 0.40625 0.4375 0.921875q0.125 0.515625 0.125 1.484375l0 5.15625zm6.0234375 -8.296875l0 1.75l-1.5 0l0 3.34375q0 1.015625 0.046875 1.1875q0.046875 0.15625 0.1875 0.265625q0.15625 0.109375 0.375 0.109375q0.3125 0 0.890625 -0.203125l0.1875 1.703125q-0.765625 0.328125 -1.734375 0.328125q-0.59375 0 -1.078125 -0.203125q-0.46875 -0.203125 -0.703125 -0.515625q-0.21875 -0.3125 -0.296875 -0.859375q-0.078125 -0.375 -0.078125 -1.546875l0 -3.609375l-1.0 0l0 -1.75l1.0 0l0 -1.65625l2.203125 -1.28125l0 2.9375l1.5 0zm6.328125 5.65625l2.1875 0.359375q-0.421875 1.203125 -1.328125 1.84375q-0.90625 0.625 -2.28125 0.625q-2.15625 0 -3.203125 -1.421875q-0.8125 -1.125 -0.8125 -2.859375q0 -2.0625 1.078125 -3.21875q1.078125 -1.171875 2.71875 -1.171875q1.859375 0 2.921875 1.21875q1.078125 1.21875 1.03125 3.75l-5.5 0q0.015625 0.96875 0.515625 1.515625q0.515625 0.546875 1.28125 0.546875q0.515625 0 0.859375 -0.28125q0.359375 -0.28125 0.53125 -0.90625zm0.125 -2.21875q-0.015625 -0.953125 -0.484375 -1.453125q-0.46875 -0.5 -1.140625 -0.5q-0.71875 0 -1.1875 0.53125q-0.46875 0.515625 -0.46875 1.421875l3.28125 0zm11.5234375 4.859375l-2.203125 0l0 -4.234375q0 -1.34375 -0.140625 -1.734375q-0.140625 -0.40625 -0.453125 -0.625q-0.3125 -0.21875 -0.765625 -0.21875q-0.5625 0 -1.015625 0.3125q-0.453125 0.3125 -0.625 0.828125q-0.171875 0.515625 -0.171875 1.90625l0 3.765625l-2.1875 0l0 -8.296875l2.03125 0l0 1.21875q1.09375 -1.40625 2.734375 -1.40625q0.734375 0 1.328125 0.265625q0.609375 0.25 0.90625 0.65625q0.3125 0.40625 0.4375 0.921875q0.125 0.515625 0.125 1.484375l0 5.15625zm6.0234375 -8.296875l0 1.75l-1.5 0l0 3.34375q0 1.015625 0.046875 1.1875q0.046875 0.15625 0.1875 0.265625q0.15625 0.109375 0.375 0.109375q0.3125 0 0.890625 -0.203125l0.1875 1.703125q-0.765625 0.328125 -1.734375 0.328125q-0.59375 0 -1.078125 -0.203125q-0.46875 -0.203125 -0.703125 -0.515625q-0.21875 -0.3125 -0.296875 -0.859375q-0.078125 -0.375 -0.078125 -1.546875l0 -3.609375l-1.0 0l0 -1.75l1.0 0l0 -1.65625l2.203125 -1.28125l0 2.9375l1.5 0z" fill-rule="nonzero"/><path fill="#000000" d="m419.70526 202.35475l-2.046875 0l0 -1.21875q-0.5 0.703125 -1.203125 1.0625q-0.6875 0.34375 -1.390625 0.34375q-1.421875 0 -2.453125 -1.15625q-1.015625 -1.15625 -1.015625 -3.21875q0 -2.109375 0.984375 -3.203125q1.0 -1.09375 2.515625 -1.09375q1.390625 0 2.40625 1.15625l0 -4.125l2.203125 0l0 11.453125zm-5.859375 -4.328125q0 1.328125 0.359375 1.921875q0.53125 0.859375 1.484375 0.859375q0.765625 0 1.296875 -0.640625q0.53125 -0.65625 0.53125 -1.9375q0 -1.421875 -0.515625 -2.046875q-0.515625 -0.640625 -1.328125 -0.640625q-0.78125 0 -1.3125 0.625q-0.515625 0.625 -0.515625 1.859375zm12.8203125 1.6875l2.1875 0.359375q-0.421875 1.203125 -1.328125 1.84375q-0.90625 0.625 -2.28125 0.625q-2.15625 0 -3.203125 -1.421875q-0.8125 -1.125 -0.8125 -2.859375q0 -2.0625 1.078125 -3.21875q1.078125 -1.171875 2.71875 -1.171875q1.859375 0 2.921875 1.21875q1.078125 1.21875 1.03125 3.75l-5.5 0q0.015625 0.96875 0.515625 1.515625q0.515625 0.546875 1.28125 0.546875q0.515625 0 0.859375 -0.28125q0.359375 -0.28125 0.53125 -0.90625zm0.125 -2.21875q-0.015625 -0.953125 -0.484375 -1.453125q-0.46875 -0.5 -1.140625 -0.5q-0.71875 0 -1.1875 0.53125q-0.46875 0.515625 -0.46875 1.421875l3.28125 0zm3.1953125 2.484375l2.203125 -0.328125q0.140625 0.640625 0.5625 0.96875q0.4375 0.328125 1.21875 0.328125q0.84375 0 1.28125 -0.3125q0.28125 -0.21875 0.28125 -0.578125q0 -0.25 -0.15625 -0.421875q-0.15625 -0.15625 -0.734375 -0.28125q-2.65625 -0.59375 -3.359375 -1.078125q-0.984375 -0.671875 -0.984375 -1.859375q0 -1.078125 0.84375 -1.8125q0.859375 -0.734375 2.640625 -0.734375q1.703125 0 2.53125 0.5625q0.828125 0.546875 1.140625 1.625l-2.0625 0.390625q-0.140625 -0.484375 -0.515625 -0.734375q-0.359375 -0.265625 -1.046875 -0.265625q-0.875 0 -1.25 0.234375q-0.25 0.171875 -0.25 0.453125q0 0.234375 0.21875 0.390625q0.296875 0.21875 2.046875 0.625q1.765625 0.390625 2.453125 0.96875q0.6875 0.59375 0.6875 1.640625q0 1.140625 -0.953125 1.96875q-0.953125 0.8125 -2.8125 0.8125q-1.703125 0 -2.6875 -0.6875q-0.984375 -0.6875 -1.296875 -1.875zm16.914062 -3.46875l-2.171875 0.390625q-0.109375 -0.65625 -0.5 -0.984375q-0.375 -0.328125 -1.0 -0.328125q-0.8125 0 -1.3125 0.578125q-0.484375 0.5625 -0.484375 1.890625q0 1.46875 0.5 2.078125q0.5 0.609375 1.328125 0.609375q0.625 0 1.015625 -0.34375q0.40625 -0.359375 0.578125 -1.234375l2.15625 0.375q-0.34375 1.484375 -1.296875 2.25q-0.953125 0.75 -2.546875 0.75q-1.828125 0 -2.90625 -1.140625q-1.078125 -1.15625 -1.078125 -3.1875q0 -2.0625 1.078125 -3.203125q1.09375 -1.140625 2.9375 -1.140625q1.515625 0 2.40625 0.65625q0.90625 0.640625 1.296875 1.984375zm3.7578125 5.84375l-2.1875 0l0 -8.296875l2.03125 0l0 1.171875q0.53125 -0.828125 0.9375 -1.09375q0.421875 -0.265625 0.953125 -0.265625q0.75 0 1.453125 0.40625l-0.6875 1.921875q-0.546875 -0.359375 -1.03125 -0.359375q-0.453125 0 -0.78125 0.25q-0.3125 0.25 -0.5 0.921875q-0.1875 0.65625 -0.1875 2.78125l0 2.5625zm4.1328125 -9.421875l0 -2.03125l2.1875 0l0 2.03125l-2.1875 0zm0 9.421875l0 -8.296875l2.1875 0l0 8.296875l-2.1875 0zm4.3515625 0l0 -11.453125l2.1875 0l0 4.125q1.015625 -1.15625 2.40625 -1.15625q1.515625 0 2.5 1.09375q1.0 1.09375 1.0 3.15625q0 2.125 -1.015625 3.28125q-1.0 1.140625 -2.453125 1.140625q-0.703125 0 -1.40625 -0.359375q-0.6875 -0.359375 -1.1875 -1.046875l0 1.21875l-2.03125 0zm2.171875 -4.328125q0 1.28125 0.40625 1.90625q0.578125 0.875 1.515625 0.875q0.734375 0 1.234375 -0.625q0.515625 -0.625 0.515625 -1.953125q0 -1.421875 -0.515625 -2.046875q-0.515625 -0.640625 -1.3125 -0.640625q-0.796875 0 -1.328125 0.625q-0.515625 0.609375 -0.515625 1.859375zm12.4921875 1.6875l2.1875 0.359375q-0.421875 1.203125 -1.328125 1.84375q-0.90625 0.625 -2.28125 0.625q-2.15625 0 -3.203125 -1.421875q-0.8125 -1.125 -0.8125 -2.859375q0 -2.0625 1.078125 -3.21875q1.078125 -1.171875 2.71875 -1.171875q1.859375 0 2.921875 1.21875q1.078125 1.21875 1.03125 3.75l-5.5 0q0.015625 0.96875 0.515625 1.515625q0.515625 0.546875 1.28125 0.546875q0.515625 0 0.859375 -0.28125q0.359375 -0.28125 0.53125 -0.90625zm0.125 -2.21875q-0.015625 -0.953125 -0.484375 -1.453125q-0.46875 -0.5 -1.140625 -0.5q-0.71875 0 -1.1875 0.53125q-0.46875 0.515625 -0.46875 1.421875l3.28125 0zm11.5859375 4.859375l-2.046875 0l0 -1.21875q-0.5 0.703125 -1.203125 1.0625q-0.6875 0.34375 -1.390625 0.34375q-1.421875 0 -2.453125 -1.15625q-1.015625 -1.15625 -1.015625 -3.21875q0 -2.109375 0.984375 -3.203125q1.0 -1.09375 2.515625 -1.09375q1.390625 0 2.40625 1.15625l0 -4.125l2.203125 0l0 11.453125zm-5.859375 -4.328125q0 1.328125 0.359375 1.921875q0.53125 0.859375 1.484375 0.859375q0.765625 0 1.296875 -0.640625q0.53125 -0.65625 0.53125 -1.9375q0 -1.421875 -0.515625 -2.046875q-0.515625 -0.640625 -1.328125 -0.640625q-0.78125 0 -1.3125 0.625q-0.515625 0.625 -0.515625 1.859375zm12.375 4.328125l0 -11.453125l2.1875 0l0 4.125q1.015625 -1.15625 2.40625 -1.15625q1.515625 0 2.5 1.09375q1.0 1.09375 1.0 3.15625q0 2.125 -1.015625 3.28125q-1.0 1.140625 -2.453125 1.140625q-0.703125 0 -1.40625 -0.359375q-0.6875 -0.359375 -1.1875 -1.046875l0 1.21875l-2.03125 0zm2.171875 -4.328125q0 1.28125 0.40625 1.90625q0.578125 0.875 1.515625 0.875q0.734375 0 1.234375 -0.625q0.515625 -0.625 0.515625 -1.953125q0 -1.421875 -0.515625 -2.046875q-0.515625 -0.640625 -1.3125 -0.640625q-0.796875 0 -1.328125 0.625q-0.515625 0.609375 -0.515625 1.859375zm6.6484375 -3.96875l2.34375 0l1.984375 5.890625l1.9375 -5.890625l2.265625 0l-2.921875 7.984375l-0.53125 1.453125q-0.28125 0.71875 -0.546875 1.09375q-0.265625 0.390625 -0.609375 0.625q-0.328125 0.25 -0.828125 0.375q-0.5 0.140625 -1.125 0.140625q-0.625 0 -1.234375 -0.140625l-0.203125 -1.71875q0.515625 0.109375 0.9375 0.109375q0.765625 0 1.125 -0.453125q0.375 -0.453125 0.5625 -1.140625l-3.15625 -8.328125z" fill-rule="nonzero"/><path fill="#000000" fill-opacity="0.0" d="m594.126 213.09448l200.0 0l0 23.338593l-200.0 0z" fill-rule="evenodd"/><path fill="#000000" d="m604.2822 226.00136l2.3125 0l0 6.203125q0 1.46875 0.078125 1.90625q0.15625 0.703125 0.703125 1.140625q0.5625 0.421875 1.53125 0.421875q0.984375 0 1.484375 -0.40625q0.5 -0.40625 0.59375 -0.984375q0.109375 -0.59375 0.109375 -1.953125l0 -6.328125l2.3125 0l0 6.015625q0 2.0625 -0.1875 2.921875q-0.1875 0.84375 -0.6875 1.4375q-0.5 0.578125 -1.34375 0.9375q-0.84375 0.34375 -2.203125 0.34375q-1.640625 0 -2.5 -0.375q-0.84375 -0.390625 -1.34375 -1.0q-0.484375 -0.609375 -0.640625 -1.265625q-0.21875 -0.984375 -0.21875 -2.90625l0 -6.109375zm10.7734375 9.078125l2.203125 -0.328125q0.140625 0.640625 0.5625 0.96875q0.4375 0.328125 1.21875 0.328125q0.84375 0 1.28125 -0.3125q0.28125 -0.21875 0.28125 -0.578125q0 -0.25 -0.15625 -0.421875q-0.15625 -0.15625 -0.734375 -0.28125q-2.65625 -0.59375 -3.359375 -1.078125q-0.984375 -0.671875 -0.984375 -1.859375q0 -1.078125 0.84375 -1.8125q0.859375 -0.734375 2.640625 -0.734375q1.703125 0 2.53125 0.5625q0.828125 0.546875 1.140625 1.625l-2.0625 0.390625q-0.140625 -0.484375 -0.515625 -0.734375q-0.359375 -0.265625 -1.046875 -0.265625q-0.875 0 -1.25 0.234375q-0.25 0.171875 -0.25 0.453125q0 0.234375 0.21875 0.390625q0.296875 0.21875 2.046875 0.625q1.765625 0.390625 2.453125 0.96875q0.6875 0.59375 0.6875 1.640625q0 1.140625 -0.953125 1.96875q-0.953125 0.8125 -2.8125 0.8125q-1.703125 0 -2.6875 -0.6875q-0.984375 -0.6875 -1.296875 -1.875zm14.4765625 -0.265625l2.1875 0.359375q-0.421875 1.203125 -1.328125 1.84375q-0.90625 0.625 -2.28125 0.625q-2.15625 0 -3.203125 -1.421875q-0.8125 -1.125 -0.8125 -2.859375q0 -2.0625 1.078125 -3.21875q1.078125 -1.171875 2.71875 -1.171875q1.859375 0 2.921875 1.21875q1.078125 1.21875 1.03125 3.75l-5.5 0q0.015625 0.96875 0.515625 1.515625q0.515625 0.546875 1.28125 0.546875q0.515625 0 0.859375 -0.28125q0.359375 -0.28125 0.53125 -0.90625zm0.125 -2.21875q-0.015625 -0.953125 -0.484375 -1.453125q-0.46875 -0.5 -1.140625 -0.5q-0.71875 0 -1.1875 0.53125q-0.46875 0.515625 -0.46875 1.421875l3.28125 0zm3.1953125 2.484375l2.203125 -0.328125q0.140625 0.640625 0.5625 0.96875q0.4375 0.328125 1.21875 0.328125q0.84375 0 1.28125 -0.3125q0.28125 -0.21875 0.28125 -0.578125q0 -0.25 -0.15625 -0.421875q-0.15625 -0.15625 -0.734375 -0.28125q-2.65625 -0.59375 -3.359375 -1.078125q-0.984375 -0.671875 -0.984375 -1.859375q0 -1.078125 0.84375 -1.8125q0.859375 -0.734375 2.640625 -0.734375q1.703125 0 2.53125 0.5625q0.828125 0.546875 1.140625 1.625l-2.0625 0.390625q-0.140625 -0.484375 -0.515625 -0.734375q-0.359375 -0.265625 -1.046875 -0.265625q-0.875 0 -1.25 0.234375q-0.25 0.171875 -0.25 0.453125q0 0.234375 0.21875 0.390625q0.296875 0.21875 2.046875 0.625q1.765625 0.390625 2.453125 0.96875q0.6875 0.59375 0.6875 1.640625q0 1.140625 -0.953125 1.96875q-0.953125 0.8125 -2.8125 0.8125q-1.703125 0 -2.6875 -0.6875q-0.984375 -0.6875 -1.296875 -1.875z" fill-rule="nonzero"/><path fill="#c9daf8" d="m270.96326 342.92664l0 0c0 -3.7921448 3.0741272 -6.866272 6.866272 -6.866272l151.49579 0c1.8210449 0 3.567505 0.7234192 4.855194 2.011078c1.2876892 1.2876892 2.011078 3.0341492 2.011078 4.855194l0 27.464294c0 3.7921448 -3.0741272 6.8663025 -6.866272 6.8663025l-151.49579 0c-3.7921448 0 -6.866272 -3.0741577 -6.866272 -6.8663025z" fill-rule="evenodd"/><path stroke="#000000" stroke-width="4.0" stroke-linejoin="round" stroke-linecap="butt" d="m270.96326 342.92664l0 0c0 -3.7921448 3.0741272 -6.866272 6.866272 -6.866272l151.49579 0c1.8210449 0 3.567505 0.7234192 4.855194 2.011078c1.2876892 1.2876892 2.011078 3.0341492 2.011078 4.855194l0 27.464294c0 3.7921448 -3.0741272 6.8663025 -6.866272 6.8663025l-151.49579 0c-3.7921448 0 -6.866272 -3.0741577 -6.866272 -6.8663025z" fill-rule="evenodd"/><path fill="#000000" d="m321.74344 349.99567l0 5.390625q0.875 -0.578125 1.78125 -0.859375q0.921875 -0.28125 1.84375 -0.28125q2.5 0 4.234375 1.71875q1.734375 1.71875 1.734375 4.15625q0 2.328125 -1.65625 3.90625q-1.65625 1.5625 -4.359375 1.5625q-0.96875 0 -1.859375 -0.25q-0.890625 -0.25 -1.71875 -0.734375l0 0.59375l-2.8125 0q-0.859375 0 -1.234375 -0.328125q-0.375 -0.34375 -0.375 -0.875q0 -0.53125 0.375 -0.859375q0.375 -0.34375 1.234375 -0.34375l0.40625 0l0 -10.390625l-0.40625 0q-0.859375 0 -1.234375 -0.328125q-0.375 -0.34375 -0.375 -0.875q0 -0.53125 0.375 -0.859375q0.375 -0.34375 1.234375 -0.34375l2.8125 0zm7.1875 10.203125q0 -1.5 -1.046875 -2.53125q-1.046875 -1.03125 -2.546875 -1.03125q-1.5 0 -2.546875 1.03125q-1.046875 1.03125 -1.046875 2.484375q0 1.328125 0.9375 2.1875q0.9375 0.84375 2.65625 0.84375q1.703125 0 2.640625 -0.84375q0.953125 -0.859375 0.953125 -2.140625zm9.746094 -5.640625l0 1.5q1.515625 -1.09375 2.390625 -1.453125q0.875 -0.359375 1.625 -0.359375q1.171875 0 2.28125 0.859375q0.75 0.59375 0.75 1.203125q0 0.515625 -0.359375 0.875q-0.359375 0.34375 -0.859375 0.34375q-0.453125 0 -0.953125 -0.4375q-0.484375 -0.453125 -0.859375 -0.453125q-0.515625 0 -1.515625 0.640625q-1.0 0.625 -2.5 1.890625l0 3.625l3.421875 0q0.875 0 1.234375 0.34375q0.375 0.328125 0.375 0.859375q0 0.53125 -0.375 0.875q-0.359375 0.328125 -1.234375 0.328125l-7.25 0q-0.875 0 -1.25 -0.328125q-0.359375 -0.34375 -0.359375 -0.875q0 -0.53125 0.359375 -0.859375q0.375 -0.34375 1.25 -0.34375l1.421875 0l0 -5.828125l-0.859375 0q-0.875 0 -1.25 -0.328125q-0.359375 -0.34375 -0.359375 -0.890625q0 -0.515625 0.359375 -0.84375q0.375 -0.34375 1.25 -0.34375l3.265625 0zm17.058594 10.640625l0 -0.5625q-0.890625 0.484375 -1.984375 0.71875q-1.09375 0.25 -1.984375 0.25q-1.9375 0 -3.140625 -1.03125q-1.203125 -1.03125 -1.203125 -2.265625q0 -1.515625 1.53125 -2.8125q1.546875 -1.296875 4.265625 -1.296875q1.09375 0 2.515625 0.234375l0 -0.578125q0 -0.53125 -0.46875 -0.875q-0.453125 -0.34375 -1.75 -0.34375q-1.0625 0 -2.765625 0.421875q-0.640625 0.15625 -0.984375 0.15625q-0.484375 0 -0.828125 -0.34375q-0.328125 -0.34375 -0.328125 -0.890625q0 -0.296875 0.109375 -0.515625q0.125 -0.234375 0.328125 -0.359375q0.21875 -0.140625 0.890625 -0.328125q0.890625 -0.25 1.8125 -0.390625q0.9375 -0.140625 1.6875 -0.140625q2.234375 0 3.46875 0.96875q1.234375 0.953125 1.234375 2.640625l0 4.9375l0.40625 0q0.875 0 1.234375 0.34375q0.375 0.328125 0.375 0.859375q0 0.53125 -0.375 0.875q-0.359375 0.328125 -1.234375 0.328125l-2.8125 0zm0 -4.296875q-1.4375 -0.28125 -2.65625 -0.28125q-1.46875 0 -2.515625 0.703125q-0.65625 0.46875 -0.65625 0.9375q0 0.328125 0.3125 0.546875q0.59375 0.390625 1.609375 0.390625q0.859375 0 1.953125 -0.34375q1.109375 -0.34375 1.953125 -0.921875l0 -1.03125zm9.808594 -6.34375l0 0.8125q0.65625 -0.5625 1.453125 -0.84375q0.796875 -0.28125 1.71875 -0.28125q2.125 0 3.375 1.3125q0.984375 1.0625 0.984375 2.765625l0 4.46875q0.765625 0 1.125 0.34375q0.359375 0.328125 0.359375 0.859375q0 0.53125 -0.375 0.875q-0.359375 0.328125 -1.234375 0.328125l-2.15625 0q-0.875 0 -1.25 -0.328125q-0.359375 -0.34375 -0.359375 -0.875q0 -0.53125 0.359375 -0.859375q0.359375 -0.34375 1.125 -0.34375l0 -4.53125q0 -0.78125 -0.421875 -1.15625q-0.546875 -0.46875 -1.65625 -0.46875q-0.828125 0 -1.453125 0.328125q-0.625 0.328125 -1.59375 1.359375l0 4.46875q0.9375 0 1.203125 0.171875q0.578125 0.359375 0.578125 1.03125q0 0.53125 -0.375 0.875q-0.375 0.328125 -1.234375 0.328125l-2.734375 0q-0.859375 0 -1.234375 -0.328125q-0.375 -0.34375 -0.375 -0.875q0 -0.65625 0.5625 -1.03125q0.28125 -0.171875 1.21875 -0.171875l0 -5.828125q-0.765625 0 -1.140625 -0.34375q-0.359375 -0.34375 -0.359375 -0.875q0 -0.515625 0.375 -0.84375q0.375 -0.34375 1.234375 -0.34375l2.28125 0zm22.355469 -4.5625l0 12.796875l0.40625 0q0.859375 0 1.234375 0.34375q0.375 0.328125 0.375 0.859375q0 0.53125 -0.375 0.875q-0.359375 0.328125 -1.234375 0.328125l-2.8125 0l0 -0.59375q-0.8125 0.484375 -1.71875 0.734375q-0.890625 0.25 -1.859375 0.25q-2.703125 0 -4.359375 -1.5625q-1.640625 -1.578125 -1.640625 -3.90625q0 -2.4375 1.734375 -4.15625q1.734375 -1.71875 4.21875 -1.71875q0.9375 0 1.84375 0.28125q0.90625 0.28125 1.78125 0.859375l0 -2.984375l-0.40625 0q-0.875 0 -1.25 -0.328125q-0.359375 -0.34375 -0.359375 -0.875q0 -0.53125 0.359375 -0.859375q0.375 -0.34375 1.25 -0.34375l2.8125 0zm-2.40625 10.203125q0 -1.5 -1.046875 -2.53125q-1.03125 -1.03125 -2.546875 -1.03125q-1.5 0 -2.546875 1.03125q-1.046875 1.03125 -1.046875 2.484375q0 1.328125 0.9375 2.1875q0.9375 0.84375 2.65625 0.84375q1.703125 0 2.640625 -0.84375q0.953125 -0.859375 0.953125 -2.140625z" fill-rule="nonzero"/><path fill="#c9daf8" d="m507.88977 345.96994l0 0c0 -3.7921143 3.0741272 -6.866272 6.866272 -6.866272l151.49579 0c1.8210449 0 3.567505 0.7234192 4.8551636 2.011078c1.2877197 1.2876892 2.0111084 3.0341492 2.0111084 4.855194l0 27.464294c0 3.7921448 -3.0741577 6.8663025 -6.866272 6.8663025l-151.49579 0c-3.7921448 0 -6.866272 -3.0741577 -6.866272 -6.8663025z" fill-rule="evenodd"/><path stroke="#000000" stroke-width="4.0" stroke-linejoin="round" stroke-linecap="butt" d="m507.88977 345.96994l0 0c0 -3.7921143 3.0741272 -6.866272 6.866272 -6.866272l151.49579 0c1.8210449 0 3.567505 0.7234192 4.8551636 2.011078c1.2877197 1.2876892 2.0111084 3.0341492 2.0111084 4.855194l0 27.464294c0 3.7921448 -3.0741577 6.8663025 -6.866272 6.8663025l-151.49579 0c-3.7921448 0 -6.866272 -3.0741577 -6.866272 -6.8663025z" fill-rule="evenodd"/><path fill="#000000" d="m561.71686 365.32022l2.59375 -5.3125q-0.96875 0 -1.234375 -0.171875q-0.578125 -0.359375 -0.578125 -1.046875q0 -0.515625 0.359375 -0.84375q0.375 -0.34375 1.234375 -0.34375l3.296875 0q0.875 0 1.234375 0.34375q0.375 0.328125 0.375 0.859375q0 0.53125 -0.375 0.875q-0.359375 0.328125 -1.234375 0.328125l-0.390625 0l-4.03125 8.234375l-2.5 0l-4.015625 -8.234375l-0.34375 0q-0.875 0 -1.25 -0.328125q-0.359375 -0.34375 -0.359375 -0.890625q0 -0.515625 0.359375 -0.84375q0.375 -0.34375 1.25 -0.34375l3.21875 0q0.859375 0 1.21875 0.34375q0.375 0.328125 0.375 0.859375q0 0.671875 -0.5625 1.015625q-0.28125 0.1875 -1.25 0.1875l2.609375 5.3125zm16.542969 2.921875l0 -0.5625q-0.890625 0.484375 -1.984375 0.71875q-1.09375 0.25 -1.984375 0.25q-1.9375 0 -3.140625 -1.03125q-1.203125 -1.03125 -1.203125 -2.265625q0 -1.515625 1.53125 -2.8125q1.546875 -1.296875 4.265625 -1.296875q1.09375 0 2.515625 0.234375l0 -0.578125q0 -0.53125 -0.46875 -0.875q-0.453125 -0.34375 -1.75 -0.34375q-1.0625 0 -2.765625 0.421875q-0.640625 0.15625 -0.984375 0.15625q-0.484375 0 -0.828125 -0.34375q-0.328125 -0.34375 -0.328125 -0.890625q0 -0.296875 0.109375 -0.515625q0.125 -0.234375 0.328125 -0.359375q0.21875 -0.140625 0.890625 -0.328125q0.890625 -0.25 1.8125 -0.390625q0.9375 -0.140625 1.6875 -0.140625q2.234375 0 3.46875 0.96875q1.234375 0.953125 1.234375 2.640625l0 4.9375l0.40625 0q0.875 0 1.234375 0.34375q0.375 0.328125 0.375 0.859375q0 0.53125 -0.375 0.875q-0.359375 0.328125 -1.234375 0.328125l-2.8125 0zm0 -4.296875q-1.4375 -0.28125 -2.65625 -0.28125q-1.46875 0 -2.515625 0.703125q-0.65625 0.46875 -0.65625 0.9375q0 0.328125 0.3125 0.546875q0.59375 0.390625 1.609375 0.390625q0.859375 0 1.953125 -0.34375q1.109375 -0.34375 1.953125 -0.921875l0 -1.03125zm13.449219 -10.90625l0 12.796875l2.875 0q0.875 0 1.234375 0.34375q0.375 0.328125 0.375 0.859375q0 0.53125 -0.375 0.875q-0.359375 0.328125 -1.234375 0.328125l-8.15625 0q-0.875 0 -1.25 -0.328125q-0.359375 -0.34375 -0.359375 -0.875q0 -0.53125 0.359375 -0.859375q0.375 -0.34375 1.25 -0.34375l2.875 0l0 -10.390625l-1.9375 0q-0.84375 0 -1.21875 -0.328125q-0.375 -0.34375 -0.375 -0.875q0 -0.53125 0.359375 -0.859375q0.375 -0.34375 1.234375 -0.34375l4.34375 0zm18.308594 4.5625l0 8.234375q0.75 0 1.109375 0.34375q0.375 0.34375 0.375 0.859375q0 0.53125 -0.375 0.875q-0.359375 0.328125 -1.234375 0.328125l-2.28125 0l0 -0.546875q-1.03125 0.46875 -1.96875 0.703125q-0.9375 0.234375 -1.78125 0.234375q-1.1875 0 -2.0625 -0.5q-0.859375 -0.5 -1.359375 -1.375q-0.359375 -0.640625 -0.359375 -1.59375l0 -5.15625l-0.421875 0q-0.859375 0 -1.234375 -0.328125q-0.359375 -0.34375 -0.359375 -0.890625q0 -0.515625 0.359375 -0.84375q0.375 -0.34375 1.234375 -0.34375l2.8125 0l0 7.140625q0 0.765625 0.375 1.125q0.375 0.359375 1.125 0.359375q0.734375 0 1.5625 -0.28125q0.84375 -0.296875 2.078125 -1.046875l0 -4.890625l-0.875 0q-0.859375 0 -1.234375 -0.328125q-0.359375 -0.34375 -0.359375 -0.890625q0 -0.515625 0.359375 -0.84375q0.375 -0.34375 1.234375 -0.34375l3.28125 0zm15.324219 6.53125l-9.859375 0q0.375 0.9375 1.328125 1.515625q0.953125 0.578125 2.59375 0.578125q1.328125 0 3.546875 -0.578125q0.90625 -0.234375 1.265625 -0.234375q0.484375 0 0.8125 0.34375q0.328125 0.34375 0.328125 0.859375q0 0.46875 -0.359375 0.796875q-0.46875 0.421875 -2.28125 0.828125q-1.8125 0.390625 -3.5 0.390625q-2.875 0 -4.609375 -1.625q-1.71875 -1.640625 -1.71875 -4.015625q0 -2.53125 1.859375 -4.109375q1.875 -1.59375 4.3125 -1.59375q1.46875 0 2.6875 0.515625q1.21875 0.515625 1.828125 1.109375q0.84375 0.859375 1.390625 2.140625q0.375 0.890625 0.375 2.0625l0 1.015625zm-2.65625 -2.390625q-0.5625 -1.03125 -1.453125 -1.546875q-0.890625 -0.515625 -2.109375 -0.515625q-1.21875 0 -2.109375 0.515625q-0.890625 0.515625 -1.453125 1.546875l7.125 0z" fill-rule="nonzero"/><path fill="#000000" fill-opacity="0.0" d="m270.96194 212.42258l98.078735 0l0 23.338577l-98.078735 0z" fill-rule="evenodd"/><path fill="#000000" fill-opacity="0.0" d="m465.60892 269.27823l0.3779602 86.70865" fill-rule="evenodd"/><path stroke="#000000" stroke-width="2.0" stroke-linejoin="round" stroke-linecap="butt" d="m465.60892 269.27823l0.3779602 86.70865" fill-rule="evenodd"/><path fill="#000000" fill-opacity="0.0" d="m433.56168 356.9895l71.653534 -0.6614075" fill-rule="evenodd"/><path stroke="#000000" stroke-width="2.0" stroke-linejoin="round" stroke-linecap="butt" d="m433.56168 356.9895l71.653534 -0.6614075" fill-rule="evenodd"/><path fill="#000000" fill-opacity="0.0" d="m469.5154 282.3491l151.49606 0l0 23.338562l-151.49606 0z" fill-rule="evenodd"/><path fill="#000000" d="m487.0154 302.49033l2.234375 0.71875q-0.515625 1.875 -1.71875 2.796875q-1.1875 0.90625 -3.03125 0.90625q-2.28125 0 -3.75 -1.5625q-1.46875 -1.5625 -1.46875 -4.265625q0 -2.859375 1.46875 -4.4375q1.484375 -1.59375 3.890625 -1.59375q2.09375 0 3.40625 1.25q0.78125 0.734375 1.171875 2.109375l-2.28125 0.546875q-0.203125 -0.890625 -0.859375 -1.40625q-0.640625 -0.515625 -1.5625 -0.515625q-1.265625 0 -2.0625 0.921875q-0.796875 0.90625 -0.796875 2.953125q0 2.171875 0.78125 3.09375q0.78125 0.921875 2.03125 0.921875q0.921875 0 1.578125 -0.578125q0.671875 -0.59375 0.96875 -1.859375zm3.6953125 -0.046875q0 -1.09375 0.53125 -2.109375q0.546875 -1.03125 1.53125 -1.5625q1.0 -0.546875 2.21875 -0.546875q1.875 0 3.078125 1.21875q1.203125 1.21875 1.203125 3.09375q0 1.875 -1.21875 3.125q-1.203125 1.234375 -3.046875 1.234375q-1.140625 0 -2.1875 -0.515625q-1.03125 -0.515625 -1.578125 -1.515625q-0.53125 -1.0 -0.53125 -2.421875zm2.25 0.109375q0 1.234375 0.578125 1.890625q0.59375 0.65625 1.453125 0.65625q0.859375 0 1.4375 -0.65625q0.59375 -0.65625 0.59375 -1.90625q0 -1.21875 -0.59375 -1.875q-0.578125 -0.65625 -1.4375 -0.65625q-0.859375 0 -1.453125 0.65625q-0.578125 0.65625 -0.578125 1.890625zm15.5859375 4.15625l-2.203125 0l0 -4.234375q0 -1.34375 -0.140625 -1.734375q-0.140625 -0.40625 -0.453125 -0.625q-0.3125 -0.21875 -0.765625 -0.21875q-0.5625 0 -1.015625 0.3125q-0.453125 0.3125 -0.625 0.828125q-0.171875 0.515625 -0.171875 1.90625l0 3.765625l-2.1875 0l0 -8.296875l2.03125 0l0 1.21875q1.09375 -1.40625 2.734375 -1.40625q0.734375 0 1.328125 0.265625q0.609375 0.25 0.90625 0.65625q0.3125 0.40625 0.4375 0.921875q0.125 0.515625 0.125 1.484375l0 5.15625zm1.4453125 -2.375l2.2030945 -0.328125q0.140625 0.640625 0.5625 0.96875q0.4375 0.328125 1.21875 0.328125q0.84375 0 1.28125 -0.3125q0.28125 -0.21875 0.28125 -0.578125q0 -0.25 -0.15625 -0.421875q-0.15625 -0.15625 -0.734375 -0.28125q-2.6562195 -0.59375 -3.3593445 -1.078125q-0.984375 -0.671875 -0.984375 -1.859375q0 -1.078125 0.84375 -1.8125q0.8593445 -0.734375 2.6405945 -0.734375q1.703125 0 2.53125 0.5625q0.828125 0.546875 1.140625 1.625l-2.0625 0.390625q-0.140625 -0.484375 -0.515625 -0.734375q-0.359375 -0.265625 -1.046875 -0.265625q-0.875 0 -1.25 0.234375q-0.25 0.171875 -0.25 0.453125q0 0.234375 0.21875 0.390625q0.296875 0.21875 2.046875 0.625q1.765625 0.390625 2.453125 0.96875q0.6875 0.59375 0.6875 1.640625q0 1.140625 -0.953125 1.96875q-0.953125 0.8125 -2.8125 0.8125q-1.703125 0 -2.6874695 -0.6875q-0.984375 -0.6875 -1.296875 -1.875zm9.679657 -7.046875l0 -2.03125l2.1875 0l0 2.03125l-2.1875 0zm0 9.421875l0 -8.296875l2.1875 0l0 8.296875l-2.1875 0zm3.6640625 -2.375l2.203125 -0.328125q0.140625 0.640625 0.5625 0.96875q0.4375 0.328125 1.21875 0.328125q0.84375 0 1.28125 -0.3125q0.28125 -0.21875 0.28125 -0.578125q0 -0.25 -0.15625 -0.421875q-0.15625 -0.15625 -0.734375 -0.28125q-2.65625 -0.59375 -3.359375 -1.078125q-0.984375 -0.671875 -0.984375 -1.859375q0 -1.078125 0.84375 -1.8125q0.859375 -0.734375 2.640625 -0.734375q1.703125 0 2.53125 0.5625q0.828125 0.546875 1.140625 1.625l-2.0625 0.390625q-0.140625 -0.484375 -0.515625 -0.734375q-0.359375 -0.265625 -1.046875 -0.265625q-0.875 0 -1.25 0.234375q-0.25 0.171875 -0.25 0.453125q0 0.234375 0.21875 0.390625q0.296875 0.21875 2.046875 0.625q1.765625 0.390625 2.453125 0.96875q0.6875 0.59375 0.6875 1.640625q0 1.140625 -0.953125 1.96875q-0.953125 0.8125 -2.8125 0.8125q-1.703125 0 -2.6875 -0.6875q-0.984375 -0.6875 -1.296875 -1.875zm13.4765625 -5.921875l0 1.75l-1.5 0l0 3.34375q0 1.015625 0.046875 1.1875q0.046875 0.15625 0.1875 0.265625q0.15625 0.109375 0.375 0.109375q0.3125 0 0.890625 -0.203125l0.1875 1.703125q-0.765625 0.328125 -1.734375 0.328125q-0.59375 0 -1.078125 -0.203125q-0.46875 -0.203125 -0.703125 -0.515625q-0.21875 -0.3125 -0.296875 -0.859375q-0.078125 -0.375 -0.078125 -1.546875l0 -3.609375l-1.0 0l0 -1.75l1.0 0l0 -1.65625l2.203125 -1.28125l0 2.9375l1.5 0zm0.75 5.921875l2.203125 -0.328125q0.140625 0.640625 0.5625 0.96875q0.4375 0.328125 1.21875 0.328125q0.84375 0 1.28125 -0.3125q0.28125 -0.21875 0.28125 -0.578125q0 -0.25 -0.15625 -0.421875q-0.15625 -0.15625 -0.734375 -0.28125q-2.65625 -0.59375 -3.359375 -1.078125q-0.984375 -0.671875 -0.984375 -1.859375q0 -1.078125 0.84375 -1.8125q0.859375 -0.734375 2.640625 -0.734375q1.703125 0 2.53125 0.5625q0.828125 0.546875 1.140625 1.625l-2.0625 0.390625q-0.140625 -0.484375 -0.515625 -0.734375q-0.359375 -0.265625 -1.046875 -0.265625q-0.875 0 -1.25 0.234375q-0.25 0.171875 -0.25 0.453125q0 0.234375 0.21875 0.390625q0.296875 0.21875 2.046875 0.625q1.765625 0.390625 2.453125 0.96875q0.6875 0.59375 0.6875 1.640625q0 1.140625 -0.953125 1.96875q-0.953125 0.8125 -2.8125 0.8125q-1.703125 0 -2.6875 -0.6875q-0.984375 -0.6875 -1.296875 -1.875zm13.609375 -1.890625q0 -1.09375 0.53125 -2.109375q0.546875 -1.03125 1.53125 -1.5625q1.0 -0.546875 2.21875 -0.546875q1.875 0 3.078125 1.21875q1.203125 1.21875 1.203125 3.09375q0 1.875 -1.21875 3.125q-1.203125 1.234375 -3.046875 1.234375q-1.140625 0 -2.1875 -0.515625q-1.03125 -0.515625 -1.578125 -1.515625q-0.53125 -1.0 -0.53125 -2.421875zm2.25 0.109375q0 1.234375 0.578125 1.890625q0.59375 0.65625 1.453125 0.65625q0.859375 0 1.4375 -0.65625q0.59375 -0.65625 0.59375 -1.90625q0 -1.21875 -0.59375 -1.875q-0.578125 -0.65625 -1.4375 -0.65625q-0.859375 0 -1.453125 0.65625q-0.578125 0.65625 -0.578125 1.890625zm7.0703125 -4.140625l1.21875 0l0 -0.625q0 -1.046875 0.21875 -1.5625q0.234375 -0.515625 0.828125 -0.84375q0.59375 -0.328125 1.515625 -0.328125q0.9375 0 1.828125 0.28125l-0.296875 1.53125q-0.515625 -0.125 -1.0 -0.125q-0.484375 0 -0.6875 0.234375q-0.203125 0.21875 -0.203125 0.84375l0 0.59375l1.640625 0l0 1.71875l-1.640625 0l0 6.578125l-2.203125 0l0 -6.578125l-1.21875 0l0 -1.71875z" fill-rule="nonzero"/><path fill="#000000" fill-opacity="0.0" d="m160.50394 264.01575l0.1889801 91.968506" fill-rule="evenodd"/><path stroke="#000000" stroke-width="2.0" stroke-linejoin="round" stroke-linecap="butt" d="m160.50394 264.01575l0.1889801 91.968506" fill-rule="evenodd"/><path fill="#000000" fill-opacity="0.0" d="m160.50656 354.958l110.456696 1.7007751" fill-rule="evenodd"/><path stroke="#000000" stroke-width="3.0" stroke-linejoin="round" stroke-linecap="butt" d="m160.50656 354.958l110.456696 1.7007751" fill-rule="evenodd"/><path fill="#000000" fill-opacity="0.0" d="m98.55774 290.33072l98.07875 0l0 23.338562l-98.07875 0z" fill-rule="evenodd"/><path fill="#000000" d="m113.854614 314.6907l-2.1875 0l0 -8.28125q-1.203125 1.125 -2.84375 1.671875l0 -2.0q0.859375 -0.28125 1.859375 -1.0625q1.015625 -0.78125 1.390625 -1.828125l1.78125 0l0 11.5zm3.5078125 -3.0625l0 -2.1875l4.3125 0l0 2.1875l-4.3125 0zm9.375 -5.234375l0 1.75l-1.5 0l0 3.34375q0 1.015625 0.046875 1.1875q0.046875 0.15625 0.1875 0.265625q0.15625 0.109375 0.375 0.109375q0.3125 0 0.890625 -0.203125l0.1875 1.703125q-0.765625 0.328125 -1.734375 0.328125q-0.59375 0 -1.078125 -0.203125q-0.46875 -0.203125 -0.703125 -0.515625q-0.21875 -0.3125 -0.296875 -0.859375q-0.078125 -0.375 -0.078125 -1.546875l0 -3.609375l-1.0 0l0 -1.75l1.0 0l0 -1.65625l2.203125 -1.28125l0 2.9375l1.5 0zm1.015625 4.03125q0 -1.09375 0.53125 -2.109375q0.546875 -1.03125 1.53125 -1.5625q1.0 -0.546875 2.21875 -0.546875q1.875 0 3.078125 1.21875q1.203125 1.21875 1.203125 3.09375q0 1.875 -1.21875 3.125q-1.203125 1.234375 -3.046875 1.234375q-1.140625 0 -2.1875 -0.515625q-1.03125 -0.515625 -1.578125 -1.515625q-0.53125 -1.0 -0.53125 -2.421875zm2.25 0.109375q0 1.234375 0.578125 1.890625q0.59375 0.65625 1.453125 0.65625q0.859375 0 1.4375 -0.65625q0.59375 -0.65625 0.59375 -1.90625q0 -1.21875 -0.59375 -1.875q-0.578125 -0.65625 -1.4375 -0.65625q-0.859375 0 -1.453125 0.65625q-0.578125 0.65625 -0.578125 1.890625zm7.7890625 1.09375l0 -2.1875l4.3125 0l0 2.1875l-4.3125 0zm10.71875 3.0625l-2.1875 0l0 -8.28125q-1.203125 1.125 -2.84375 1.671875l0 -2.0q0.859375 -0.28125 1.859375 -1.0625q1.015625 -0.78125 1.390625 -1.828125l1.78125 0l0 11.5z" fill-rule="nonzero"/><path fill="#000000" fill-opacity="0.0" d="m162.01575 64.48819l-1.5118103 163.59055" fill-rule="evenodd"/><path stroke="#000000" stroke-width="2.0" stroke-linejoin="round" stroke-linecap="butt" d="m162.01575 64.48819l-1.5118103 163.59055" fill-rule="evenodd"/><path fill="#000000" fill-opacity="0.0" d="m161.51443 65.48294l220.37796 1.1653519" fill-rule="evenodd"/><path stroke="#000000" stroke-width="2.0" stroke-linejoin="round" stroke-linecap="butt" d="m161.51443 65.48294l220.37796 1.1653519" fill-rule="evenodd"/><path fill="#000000" fill-opacity="0.0" d="m98.55774 113.7979l98.07875 0l0 23.338593l-98.07875 0z" fill-rule="evenodd"/><path fill="#000000" d="m113.854614 138.1579l-2.1875 0l0 -8.28125q-1.203125 1.125 -2.84375 1.671875l0 -2.0q0.859375 -0.28125 1.859375 -1.0625q1.015625 -0.78125 1.390625 -1.828125l1.78125 0l0 11.5zm3.5078125 -3.0625l0 -2.1875l4.3125 0l0 2.1875l-4.3125 0zm9.375 -5.234375l0 1.75l-1.5 0l0 3.34375q0 1.015625 0.046875 1.1875q0.046875 0.15625 0.1875 0.265625q0.15625 0.109375 0.375 0.109375q0.3125 0 0.890625 -0.203125l0.1875 1.703125q-0.765625 0.328125 -1.734375 0.328125q-0.59375 0 -1.078125 -0.203125q-0.46875 -0.203125 -0.703125 -0.515625q-0.21875 -0.3125 -0.296875 -0.859375q-0.078125 -0.375 -0.078125 -1.546875l0 -3.609375l-1.0 0l0 -1.75l1.0 0l0 -1.65625l2.203125 -1.28125l0 2.9375l1.5 0zm1.015625 4.03125q0 -1.09375 0.53125 -2.109375q0.546875 -1.03125 1.53125 -1.5625q1.0 -0.546875 2.21875 -0.546875q1.875 0 3.078125 1.21875q1.203125 1.21875 1.203125 3.09375q0 1.875 -1.21875 3.125q-1.203125 1.234375 -3.046875 1.234375q-1.140625 0 -2.1875 -0.515625q-1.03125 -0.515625 -1.578125 -1.515625q-0.53125 -1.0 -0.53125 -2.421875zm2.25 0.109375q0 1.234375 0.578125 1.890625q0.59375 0.65625 1.453125 0.65625q0.859375 0 1.4375 -0.65625q0.59375 -0.65625 0.59375 -1.90625q0 -1.21875 -0.59375 -1.875q-0.578125 -0.65625 -1.4375 -0.65625q-0.859375 0 -1.453125 0.65625q-0.578125 0.65625 -0.578125 1.890625zm7.7890625 1.09375l0 -2.1875l4.3125 0l0 2.1875l-4.3125 0zm10.71875 3.0625l-2.1875 0l0 -8.28125q-1.203125 1.125 -2.84375 1.671875l0 -2.0q0.859375 -0.28125 1.859375 -1.0625q1.015625 -0.78125 1.390625 -1.828125l1.78125 0l0 11.5z" fill-rule="nonzero"/><path fill="#000000" fill-opacity="0.0" d="m548.23096 248.60104l162.96063 2.708664" fill-rule="evenodd"/><path stroke="#000000" stroke-width="2.0" stroke-linejoin="round" stroke-linecap="butt" d="m548.23096 248.60104l162.96063 2.708664" fill-rule="evenodd"/></g></svg>