<?xml version="1.0" standalone="no"?>
<!DOCTYPE svg PUBLIC "-//W3C//DTD SVG 20010904//EN"
 "http://www.w3.org/TR/2001/REC-SVG-20010904/DTD/svg10.dtd">
<svg version="1.0" xmlns="http://www.w3.org/2000/svg"
 width="1024pt" height="1024pt" viewBox="0 0 1024 1024"
 preserveAspectRatio="xMidYMid meet">
   <style>
    :root {
      --bg-color: #E7E8EC;
      --fg-color: #000000;
    }
    @media (prefers-color-scheme: dark) {
      :root {
        --bg-color: #2B2F36;
        --fg-color: #D3D3D3;
      }
    }
    .background { fill: var(--bg-color); }
    .foreground { fill: var(--fg-color); }
  </style>
 <rect width="100%" height="100%" class="background" rx="120" ry="120"/>


<g transform="translate(0.000000,1024.000000) scale(0.100000,-0.100000)"
class="foreground" stroke="none">
<path d="M3717 9148 c-140 -150 -306 -333 -368 -407 -63 -74 -144 -164 -181
-202 -38 -37 -68 -71 -68 -77 0 -6 -16 -5 -41 2 -34 9 -46 8 -77 -9 -56 -31
-99 -95 -107 -159 -19 -152 68 -287 210 -325 l39 -11 96 93 c52 51 110 103
128 116 17 12 32 30 32 39 0 25 -98 150 -136 175 -19 12 -33 25 -31 29 1 4 25
36 54 70 29 35 110 133 180 218 176 212 325 390 462 549 92 108 112 137 104
150 -6 9 -17 17 -25 19 -9 2 -118 -107 -271 -270z"/>
<path d="M5139 8637 c-146 -41 -268 -174 -303 -327 -20 -86 -20 -120 -1 -195
54 -210 201 -340 397 -352 167 -11 284 42 380 172 79 108 112 207 104 316 -12
174 -110 311 -263 370 -72 27 -243 36 -314 16z"/>
<path d="M7314 8446 c-79 -25 -151 -91 -217 -197 -20 -33 -14 -41 68 -103 33
-25 89 -68 125 -96 93 -74 94 -74 138 -51 48 24 128 112 153 166 42 92 12 228
-59 269 -43 24 -152 31 -208 12z"/>
<path d="M6892 7962 c-45 -81 -118 -201 -163 -267 -44 -66 -97 -145 -117 -176
l-37 -56 -485 1 -484 1 -17 -100 c-9 -55 -22 -118 -27 -140 -6 -22 -20 -94
-31 -160 -11 -66 -30 -172 -41 -235 -12 -63 -38 -216 -59 -340 -22 -124 -55
-310 -74 -415 -19 -104 -42 -244 -52 -310 -22 -162 -24 -170 -37 -157 -15 15
-33 100 -78 377 -23 138 -59 354 -80 480 -21 127 -41 253 -45 280 -3 28 -17
118 -30 200 -62 385 -75 474 -75 500 l0 28 -507 -5 -508 -5 -78 106 c-42 58
-97 138 -121 176 -41 66 -177 273 -211 323 -14 19 -19 20 -38 10 -36 -19 -134
-103 -263 -226 l-121 -115 40 -71 c22 -39 66 -111 99 -160 33 -49 91 -146 130
-215 79 -141 202 -322 260 -382 l38 -39 436 0 436 0 -3 -1017 c-4 -934 -3
-1020 13 -1043 20 -31 34 -141 48 -380 6 -102 17 -291 25 -420 8 -129 19 -316
25 -415 6 -99 17 -274 25 -390 8 -115 19 -291 25 -390 6 -99 20 -256 30 -350
10 -93 22 -222 25 -285 3 -63 8 -124 10 -136 l5 -21 -766 2 -766 3 8 -362 c4
-198 10 -369 13 -379 6 -17 113 -18 2326 -18 1275 0 2322 4 2326 8 3 5 10 173
13 376 l7 367 -26 12 c-14 6 -25 14 -25 17 0 4 -142 151 -315 326 l-315 320 0
1298 0 1297 303 0 c166 0 311 3 322 6 14 4 31 34 60 107 22 56 54 131 73 166
18 35 44 93 58 129 13 36 28 70 33 76 5 6 18 38 30 71 12 33 33 83 46 110 13
28 37 84 53 125 17 41 40 98 52 126 41 92 118 84 -808 84 -644 0 -822 -3 -830
-12 -5 -7 -66 -183 -136 -391 -69 -207 -140 -412 -157 -455 -47 -117 -51 -132
-31 -133 9 0 191 0 405 1 l387 1 0 -1298 0 -1298 -311 -315 c-171 -173 -315
-326 -320 -340 l-9 -25 -356 0 -356 0 7 80 c29 367 56 685 65 762 10 94 13
130 55 713 47 647 56 757 76 975 12 121 25 223 30 226 6 3 9 427 9 1042 l0
1037 262 1 c145 0 336 4 425 7 154 7 163 8 188 32 24 22 135 198 135 213 0 3
21 41 48 85 57 96 77 130 117 202 17 30 56 93 85 140 58 93 119 201 120 212 0
13 -65 73 -172 159 -57 46 -132 109 -167 141 -35 32 -67 58 -70 58 -3 -1 -43
-67 -89 -148z m238 -5691 l0 -239 -232 -4 c-128 -2 -235 -2 -237 -1 -14 8 68
99 215 238 93 88 185 179 204 202 19 23 38 42 43 42 4 1 7 -107 7 -238z m152
220 c3 -10 214 -235 350 -376 38 -38 68 -74 68 -80 0 -7 -73 -10 -221 -10
l-221 0 3 237 c4 209 8 263 21 229z"/>
</g>
</svg>
