<svg version="1.1" viewBox="0.0 0.0 960.0 540.0" fill="none" stroke="none" stroke-linecap="square" stroke-miterlimit="10" xmlns:xlink="http://www.w3.org/1999/xlink" xmlns="http://www.w3.org/2000/svg"><clipPath id="g6c5c475e79_0_337.0"><path d="m0 0l960.0 0l0 540.0l-960.0 0l0 -540.0z" clip-rule="nonzero"/></clipPath><g clip-path="url(#g6c5c475e79_0_337.0)"><path fill="#ffffff" d="m0 0l960.0 0l0 540.0l-960.0 0z" fill-rule="evenodd"/><path fill="#1c1f2a" d="m74.28609 232.893l0 0c0 -17.113922 13.873573 -30.987488 30.987495 -30.987488l123.946266 0l0 0c8.218399 0 16.10019 3.26474 21.911469 9.076019c5.8112793 5.8112793 9.076019 13.693069 9.076019 21.911469l0 171.91476c0 17.113922 -13.873566 30.987518 -30.987488 30.987518l-123.946266 0c-17.113922 0 -30.987495 -13.873596 -30.987495 -30.987518z" fill-rule="evenodd"/><path fill="#1c1f2a" d="m58.28609 216.893l0 0c0 -17.113922 13.8735695 -30.987488 30.987492 -30.987488l123.946266 0l0 0c8.218399 0 16.10019 3.26474 21.911469 9.076019c5.8112946 5.8112793 9.076035 13.693069 9.076035 21.911469l0 171.91476c0 17.113922 -13.873581 30.987518 -30.987503 30.987518l-123.946266 0c-17.113922 0 -30.987492 -13.873596 -30.987492 -30.987518z" fill-rule="evenodd"/><path stroke="#ffffff" stroke-width="1.0" stroke-linejoin="round" stroke-linecap="butt" d="m58.28609 216.893l0 0c0 -17.113922 13.8735695 -30.987488 30.987492 -30.987488l123.946266 0l0 0c8.218399 0 16.10019 3.26474 21.911469 9.076019c5.8112946 5.8112793 9.076035 13.693069 9.076035 21.911469l0 171.91476c0 17.113922 -13.873581 30.987518 -30.987503 30.987518l-123.946266 0c-17.113922 0 -30.987492 -13.873596 -30.987492 -30.987518z" fill-rule="evenodd"/><path fill="#ffc600" d="m391.61942 198.35228l0 0c0 -15.710724 12.736053 -28.446762 28.446777 -28.446762l129.02774 0c7.5445557 0 14.78009 2.997055 20.114868 8.331863c5.334839 5.334793 8.331909 12.570343 8.331909 20.114899l0 113.783646c0 15.710693 -12.736084 28.446747 -28.446777 28.446747l-129.02774 0c-15.710724 0 -28.446777 -12.736053 -28.446777 -28.446747z" fill-rule="evenodd"/><path fill="#1c1f2a" d="m709.3333 224.893l0 0c0 -17.113922 13.873596 -30.987488 30.987488 -30.987488l123.94629 0l0 0c8.218384 0 16.10022 3.26474 21.911499 9.076019c5.8112793 5.8112793 9.075989 13.693069 9.075989 21.911469l0 171.91476c0 17.113922 -13.873535 30.987518 -30.987488 30.987518l-123.94629 0c-17.113892 0 -30.987488 -13.873596 -30.987488 -30.987518z" fill-rule="evenodd"/><path fill="#000000" fill-opacity="0.0" d="m418.81607 219.85826l131.52756 0l0 128.25197l-131.52756 0z" fill-rule="evenodd"/><path fill="#ffffff" d="m472.45044 259.7764l0 4.921875l-22.84375 0l0 -3.921875l14.328125 -17.281265l-14.03125 0l0 -4.921875l21.984375 0l0 3.921875l-14.296875 17.281265l14.859375 0zm12.770294 5.21875q-3.171875 0 -5.703125 -1.328125q-2.515625 -1.328125 -3.9375 -3.671875q-1.421875 -2.359375 -1.421875 -5.3437653q0 -2.984375 1.421875 -5.328125q1.421875 -2.359375 3.9375 -3.671875q2.53125 -1.328125 5.703125 -1.328125q3.171875 0 5.671875 1.328125q2.5 1.3125 3.90625 3.671875q1.421875 2.34375 1.421875 5.328125q0 2.9843903 -1.421875 5.3437653q-1.40625 2.34375 -3.90625 3.671875q-2.5 1.328125 -5.671875 1.328125zm0 -4.78125q2.234375 0 3.671875 -1.5q1.4375 -1.515625 1.4375 -4.0625153q0 -2.53125 -1.4375 -4.046875q-1.4375 -1.515625 -3.671875 -1.515625q-2.25 0 -3.703125 1.515625q-1.453125 1.515625 -1.453125 4.046875q0 2.5468903 1.453125 4.0625153q1.453125 1.5 3.703125 1.5zm34.559357 -5.4843903q0 0.109375 -0.109375 1.5625153l-15.1874695 0q0.40625 1.875 1.9375 2.953125q1.53125 1.078125 3.796875 1.078125q1.578125 0 2.7812195 -0.453125q1.21875 -0.46875 2.265625 -1.484375l3.09375 3.359375q-2.828125 3.25 -8.2812195 3.25q-3.40625 0 -6.015625 -1.328125q-2.609375 -1.328125 -4.03125 -3.671875q-1.421875 -2.359375 -1.421875 -5.3437653q0 -2.9375 1.40625 -5.3125q1.40625 -2.375 3.84375 -3.6875q2.453125 -1.328125 5.46875 -1.328125q2.9530945 0 5.3437195 1.265625q2.390625 1.265625 3.75 3.640625q1.359375 2.359375 1.359375 5.5zm-10.4218445 -6.0q-1.96875 0 -3.3125 1.125q-1.34375 1.109375 -1.640625 3.046875l9.8905945 0q-0.296875 -1.90625 -1.640625 -3.03125q-1.3437195 -1.140625 -3.2968445 -1.140625z" fill-rule="nonzero"/><path fill="#000000" fill-opacity="0.0" d="m695.63257 239.77953l213.32281 0l0 208.03151l-213.32281 0z" fill-rule="evenodd"/><path fill="#ffffff" d="m754.5362 285.07266q-3.109375 0 -6.0 -0.84375q-2.890625 -0.84375 -4.640625 -2.1875l2.046875 -4.546875q1.6875 1.234375 4.0 1.984375q2.3125 0.734375 4.625 0.734375q2.578125 0 3.8125 -0.765625q1.234375 -0.765625 1.234375 -2.03125q0 -0.9375 -0.734375 -1.546875q-0.734375 -0.625 -1.875 -0.984375q-1.125 -0.375 -3.0625 -0.828125q-3.0 -0.703125 -4.90625 -1.40625q-1.890625 -0.71875 -3.265625 -2.28125q-1.359375 -1.578125 -1.359375 -4.1875q0 -2.28125 1.234375 -4.125q1.234375 -1.84375 3.71875 -2.921875q2.484375 -1.09375 6.0625 -1.09375q2.5 0 4.890625 0.59375q2.390625 0.59375 4.1875 1.71875l-1.875 4.59375q-3.625 -2.046875 -7.234375 -2.046875q-2.546875 0 -3.765625 0.828125q-1.203125 0.8125 -1.203125 2.15625q0 1.34375 1.390625 2.0q1.40625 0.640625 4.28125 1.28125q2.984375 0.703125 4.890625 1.421875q1.90625 0.703125 3.265625 2.234375q1.359375 1.53125 1.359375 4.140625q0 2.25 -1.25 4.09375q-1.25 1.84375 -3.75 2.9375q-2.5 1.078125 -6.078125 1.078125zm40.53418 -20.828125q3.765625 0 5.984375 2.21875q2.234375 2.21875 2.234375 6.65625l0 11.5l-5.828125 0l0 -10.59375q0 -2.390625 -1.0 -3.5625q-0.984375 -1.1875 -2.8125 -1.1875q-2.046875 0 -3.25 1.328125q-1.1875 1.328125 -1.1875 3.9375l0 10.078125l-5.828125 0l0 -10.59375q0 -4.75 -3.796875 -4.75q-2.015625 0 -3.21875 1.328125q-1.1875 1.328125 -1.1875 3.9375l0 10.078125l-5.828125 0l0 -20.078125l5.5625 0l0 2.3125q1.125 -1.265625 2.734375 -1.9375q1.625 -0.671875 3.578125 -0.671875q2.125 0 3.84375 0.84375q1.71875 0.828125 2.765625 2.4375q1.21875 -1.578125 3.109375 -2.421875q1.890625 -0.859375 4.125 -0.859375zm21.532349 0q4.671875 0 7.171875 2.21875q2.5 2.21875 2.5 6.703125l0 11.453125l-5.453125 0l0 -2.5q-1.640625 2.796875 -6.109375 2.796875q-2.328125 0 -4.03125 -0.78125q-1.6875 -0.78125 -2.59375 -2.15625q-0.890625 -1.390625 -0.890625 -3.140625q0 -2.796875 2.109375 -4.40625q2.109375 -1.609375 6.515625 -1.609375l4.625 0q0 -1.90625 -1.15625 -2.921875q-1.15625 -1.03125 -3.46875 -1.03125q-1.59375 0 -3.15625 0.5q-1.546875 0.5 -2.625 1.359375l-2.09375 -4.0625q1.640625 -1.15625 3.9375 -1.78125q2.296875 -0.640625 4.71875 -0.640625zm-0.4375 16.75q1.484375 0 2.640625 -0.6875q1.15625 -0.6875 1.640625 -2.03125l0 -2.0625l-3.984375 0q-3.578125 0 -3.578125 2.359375q0 1.125 0.875 1.78125q0.875 0.640625 2.40625 0.640625zm20.937744 -13.8125q1.046875 -1.453125 2.8125 -2.1875q1.78125 -0.75 4.09375 -0.75l0 5.375q-0.96875 -0.078125 -1.3125 -0.078125q-2.5 0 -3.921875 1.40625q-1.40625 1.390625 -1.40625 4.1875l0 9.484375l-5.828125 0l0 -20.078125l5.5625 0l0 2.640625zm24.039124 16.46875q-0.859375 0.625 -2.109375 0.953125q-1.25 0.3125 -2.625 0.3125q-3.59375 0 -5.5625 -1.828125q-1.953125 -1.828125 -1.953125 -5.375l0 -8.25l-3.09375 0l0 -4.484375l3.09375 0l0 -4.890625l5.828125 0l0 4.890625l5.0 0l0 4.484375l-5.0 0l0 8.171875q0 1.265625 0.65625 1.96875q0.65625 0.6875 1.84375 0.6875q1.390625 0 2.359375 -0.75l1.5625 4.109375z" fill-rule="nonzero"/><path fill="#ffffff" d="m731.7039 329.9164q-3.203125 0 -5.765625 -1.328125q-2.5625 -1.328125 -4.0 -3.671875q-1.4375 -2.359375 -1.4375 -5.34375q0 -2.984375 1.4375 -5.328125q1.4375 -2.359375 4.0 -3.671875q2.5625 -1.328125 5.765625 -1.328125q3.171875 0 5.546875 1.328125q2.375 1.3125 3.453125 3.78125l-4.515625 2.421875q-1.578125 -2.765625 -4.515625 -2.765625q-2.28125 0 -3.78125 1.5q-1.484375 1.5 -1.484375 4.0625q0 2.578125 1.484375 4.078125q1.5 1.484375 3.78125 1.484375q2.984375 0 4.515625 -2.75l4.515625 2.453125q-1.078125 2.390625 -3.453125 3.734375q-2.375 1.34375 -5.546875 1.34375zm21.658997 0q-3.171875 0 -5.703125 -1.328125q-2.515625 -1.328125 -3.9375 -3.671875q-1.421875 -2.359375 -1.421875 -5.34375q0 -2.984375 1.421875 -5.328125q1.421875 -2.359375 3.9375 -3.671875q2.53125 -1.328125 5.703125 -1.328125q3.171875 0 5.671875 1.328125q2.5 1.3125 3.90625 3.671875q1.421875 2.34375 1.421875 5.328125q0 2.984375 -1.421875 5.34375q-1.40625 2.34375 -3.90625 3.671875q-2.5 1.328125 -5.671875 1.328125zm0 -4.78125q2.234375 0 3.671875 -1.5q1.4375 -1.515625 1.4375 -4.0625q0 -2.53125 -1.4375 -4.046875q-1.4375 -1.515625 -3.671875 -1.515625q-2.25 0 -3.703125 1.515625q-1.453125 1.515625 -1.453125 4.046875q0 2.546875 1.453125 4.0625q1.453125 1.5 3.703125 1.5zm27.090637 -15.890625q3.734375 0 6.03125 2.234375q2.296875 2.234375 2.296875 6.640625l0 11.5l-5.828125 0l0 -10.59375q0 -2.390625 -1.046875 -3.5625q-1.046875 -1.1875 -3.015625 -1.1875q-2.203125 0 -3.515625 1.375q-1.296875 1.359375 -1.296875 4.046875l0 9.921875l-5.828125 0l0 -20.078125l5.5625 0l0 2.34375q1.15625 -1.265625 2.875 -1.953125q1.71875 -0.6875 3.765625 -0.6875zm26.543823 19.40625q-0.859375 0.625 -2.109375 0.953125q-1.25 0.3125 -2.625 0.3125q-3.59375 0 -5.5625 -1.828125q-1.953125 -1.828125 -1.953125 -5.375l0 -8.25l-3.09375 0l0 -4.484375l3.09375 0l0 -4.890625l5.828125 0l0 4.890625l5.0 0l0 4.484375l-5.0 0l0 8.171875q0 1.265625 0.65625 1.96875q0.65625 0.6875 1.84375 0.6875q1.390625 0 2.359375 -0.75l1.5625 4.109375zm8.847168 -16.46875q1.046875 -1.453125 2.8125 -2.1875q1.78125 -0.75 4.09375 -0.75l0 5.375q-0.96875 -0.078125 -1.3125 -0.078125q-2.5 0 -3.921875 1.40625q-1.40625 1.390625 -1.40625 4.1875l0 9.484375l-5.828125 0l0 -20.078125l5.5625 0l0 2.640625zm18.358398 -2.9375q4.671875 0 7.171875 2.21875q2.5 2.21875 2.5 6.703125l0 11.453125l-5.453125 0l0 -2.5q-1.640625 2.796875 -6.109375 2.796875q-2.328125 0 -4.03125 -0.78125q-1.6875 -0.78125 -2.59375 -2.15625q-0.890625 -1.390625 -0.890625 -3.140625q0 -2.796875 2.109375 -4.40625q2.109375 -1.609375 6.515625 -1.609375l4.625 0q0 -1.90625 -1.15625 -2.921875q-1.15625 -1.03125 -3.46875 -1.03125q-1.59375 0 -3.15625 0.5q-1.546875 0.5 -2.625 1.359375l-2.09375 -4.0625q1.640625 -1.15625 3.9375 -1.78125q2.296875 -0.640625 4.71875 -0.640625zm-0.4375 16.75q1.484375 0 2.640625 -0.6875q1.15625 -0.6875 1.640625 -2.03125l0 -2.0625l-3.984375 0q-3.578125 0 -3.578125 2.359375q0 1.125 0.875 1.78125q0.875 0.640625 2.40625 0.640625zm25.302368 3.921875q-3.203125 0 -5.765625 -1.328125q-2.5625 -1.328125 -4.0 -3.671875q-1.4375 -2.359375 -1.4375 -5.34375q0 -2.984375 1.4375 -5.328125q1.4375 -2.359375 4.0 -3.671875q2.5625 -1.328125 5.765625 -1.328125q3.171875 0 5.546875 1.328125q2.375 1.3125 3.453125 3.78125l-4.515625 2.421875q-1.578125 -2.765625 -4.515625 -2.765625q-2.28125 0 -3.78125 1.5q-1.484375 1.5 -1.484375 4.0625q0 2.578125 1.484375 4.078125q1.5 1.484375 3.78125 1.484375q2.984375 0 4.515625 -2.75l4.515625 2.453125q-1.078125 2.390625 -3.453125 3.734375q-2.375 1.34375 -5.546875 1.34375zm25.60968 -1.265625q-0.859375 0.625 -2.109375 0.953125q-1.25 0.3125 -2.625 0.3125q-3.59375 0 -5.5625 -1.828125q-1.953125 -1.828125 -1.953125 -5.375l0 -8.25l-3.09375 0l0 -4.484375l3.09375 0l0 -4.890625l5.828125 0l0 4.890625l5.0 0l0 4.484375l-5.0 0l0 8.171875q0 1.265625 0.65625 1.96875q0.65625 0.6875 1.84375 0.6875q1.390625 0 2.359375 -0.75l1.5625 4.109375z" fill-rule="nonzero"/><path fill="#000000" fill-opacity="0.0" d="m275.0 239.77953l101.82678 0" fill-rule="evenodd"/><path stroke="#ab2328" stroke-width="1.0" stroke-linejoin="round" stroke-linecap="butt" d="m281.0 239.77953l89.82678 0" fill-rule="evenodd"/><path fill="#ab2328" stroke="#ab2328" stroke-width="1.0" stroke-linecap="butt" d="m281.0 238.12779l-4.538086 1.6517334l4.538086 1.6517334z" fill-rule="evenodd"/><path fill="#ab2328" stroke="#ab2328" stroke-width="1.0" stroke-linecap="butt" d="m370.82678 241.43126l4.538086 -1.6517334l-4.538086 -1.6517334z" fill-rule="evenodd"/><path fill="#000000" fill-opacity="0.0" d="m198.85826 129.52756l220.18898 0l0 33.543304l-220.18898 0z" fill-rule="evenodd"/><path fill="#ab2328" d="m233.44032 144.34631l0 19.78125l-3.96875 0l0 -1.65625q-1.546875 1.875 -4.484375 1.875q-2.03125 0 -3.671875 -0.90625q-1.640625 -0.90625 -2.578125 -2.578125q-0.921875 -1.6875 -0.921875 -3.90625q0 -2.21875 0.921875 -3.890625q0.9375 -1.671875 2.578125 -2.578125q1.640625 -0.90625 3.671875 -0.90625q2.75 0 4.296875 1.71875l0 -6.953125l4.15625 0zm-7.734375 16.578125q1.578125 0 2.609375 -1.078125q1.046875 -1.078125 1.046875 -2.890625q0 -1.8125 -1.046875 -2.890625q-1.03125 -1.078125 -2.609375 -1.078125q-1.59375 0 -2.640625 1.078125q-1.03125 1.078125 -1.03125 2.890625q0 1.8125 1.03125 2.890625q1.046875 1.078125 2.640625 1.078125zm11.57106 -11.140625l4.15625 0l0 14.34375l-4.15625 0l0 -14.34375zm2.078125 -2.0q-1.140625 0 -1.859375 -0.65625q-0.71875 -0.671875 -0.71875 -1.65625q0 -0.984375 0.71875 -1.65625q0.71875 -0.671875 1.859375 -0.671875q1.15625 0 1.875 0.640625q0.71875 0.640625 0.71875 1.609375q0 1.03125 -0.71875 1.71875q-0.71875 0.671875 -1.875 0.671875zm20.742249 2.0l0 11.9375q0 3.953125 -2.0625 5.875q-2.046875 1.921875 -6.0 1.921875q-2.078125 0 -3.9375 -0.515625q-1.859375 -0.5 -3.09375 -1.46875l1.65625 -2.984375q0.90625 0.75 2.28125 1.1875q1.390625 0.4375 2.78125 0.4375q2.15625 0 3.1875 -0.96875q1.03125 -0.96875 1.03125 -2.9375l0 -0.625q-1.640625 1.796875 -4.53125 1.796875q-1.984375 0 -3.625 -0.859375q-1.640625 -0.875 -2.59375 -2.453125q-0.953125 -1.578125 -0.953125 -3.625q0 -2.046875 0.953125 -3.625q0.953125 -1.578125 2.59375 -2.4375q1.640625 -0.859375 3.625 -0.859375q3.109375 0 4.734375 2.046875l0 -1.84375l3.953125 0zm-7.875 10.234375q1.65625 0 2.703125 -0.96875q1.0625 -0.96875 1.0625 -2.546875q0 -1.578125 -1.0625 -2.546875q-1.046875 -0.96875 -2.703125 -0.96875q-1.640625 0 -2.71875 0.96875q-1.0625 0.96875 -1.0625 2.546875q0 1.578125 1.0625 2.546875q1.078125 0.96875 2.71875 0.96875zm11.737427 -10.234375l4.15625 0l0 14.34375l-4.15625 0l0 -14.34375zm2.078125 -2.0q-1.140625 0 -1.859375 -0.65625q-0.71875 -0.671875 -0.71875 -1.65625q0 -0.984375 0.71875 -1.65625q0.71875 -0.671875 1.859375 -0.671875q1.15625 0 1.875 0.640625q0.71875 0.640625 0.71875 1.609375q0 1.03125 -0.71875 1.71875q-0.71875 0.671875 -1.875 0.671875zm15.195374 15.65625q-0.609375 0.453125 -1.515625 0.6875q-0.890625 0.21875 -1.875 0.21875q-2.5625 0 -3.96875 -1.3125q-1.390625 -1.3125 -1.390625 -3.84375l0 -5.890625l-2.203125 0l0 -3.1875l2.203125 0l0 -3.5l4.15625 0l0 3.5l3.578125 0l0 3.1875l-3.578125 0l0 5.84375q0 0.90625 0.46875 1.40625q0.46875 0.484375 1.328125 0.484375q0.984375 0 1.671875 -0.53125l1.125 2.9375zm8.126678 -13.859375q3.328125 0 5.109375 1.59375q1.796875 1.578125 1.796875 4.765625l0 8.1875l-3.890625 0l0 -1.78125q-1.171875 2.0 -4.375 2.0q-1.65625 0 -2.875 -0.5625q-1.203125 -0.5625 -1.84375 -1.546875q-0.640625 -0.984375 -0.640625 -2.234375q0 -2.0 1.5 -3.140625q1.515625 -1.15625 4.65625 -1.15625l3.3125 0q0 -1.359375 -0.828125 -2.09375q-0.828125 -0.734375 -2.484375 -0.734375q-1.140625 0 -2.25 0.359375q-1.109375 0.359375 -1.875 0.96875l-1.5 -2.90625q1.171875 -0.8125 2.8125 -1.265625q1.640625 -0.453125 3.375 -0.453125zm-0.3125 11.96875q1.0625 0 1.890625 -0.5q0.828125 -0.5 1.171875 -1.453125l0 -1.46875l-2.859375 0q-2.5625 0 -2.5625 1.6875q0 0.796875 0.625 1.265625q0.640625 0.46875 1.734375 0.46875zm10.978088 -17.203125l4.15625 0l0 19.78125l-4.15625 0l0 -19.78125zm21.34842 5.234375q3.328125 0 5.109375 1.59375q1.7969055 1.578125 1.7969055 4.765625l0 8.1875l-3.8906555 0l0 -1.78125q-1.171875 2.0 -4.375 2.0q-1.65625 0 -2.875 -0.5625q-1.203125 -0.5625 -1.84375 -1.546875q-0.640625 -0.984375 -0.640625 -2.234375q0 -2.0 1.5 -3.140625q1.515625 -1.15625 4.65625 -1.15625l3.3125 0q0 -1.359375 -0.828125 -2.09375q-0.828125 -0.734375 -2.484375 -0.734375q-1.140625 0 -2.25 0.359375q-1.109375 0.359375 -1.875 0.96875l-1.5 -2.90625q1.171875 -0.8125 2.8125 -1.265625q1.640625 -0.453125 3.375 -0.453125zm-0.3125 11.96875q1.0625 0 1.890625 -0.5q0.828125 -0.5 1.171875 -1.453125l0 -1.46875l-2.859375 0q-2.5625 0 -2.5625 1.6875q0 0.796875 0.625 1.265625q0.640625 0.46875 1.734375 0.46875zm15.806244 2.796875q-1.796875 0 -3.5 -0.4375q-1.703125 -0.453125 -2.71875 -1.109375l1.390625 -2.984375q0.953125 0.609375 2.3125 1.0q1.359375 0.375 2.671875 0.375q2.640625 0 2.640625 -1.296875q0 -0.609375 -0.71875 -0.875q-0.71875 -0.28125 -2.21875 -0.46875q-1.765625 -0.265625 -2.90625 -0.609375q-1.140625 -0.34375 -1.984375 -1.21875q-0.84375 -0.890625 -0.84375 -2.515625q0 -1.359375 0.78125 -2.40625q0.796875 -1.046875 2.296875 -1.625q1.515625 -0.59375 3.5625 -0.59375q1.515625 0 3.015625 0.328125q1.515625 0.328125 2.5 0.921875l-1.375 2.953125q-1.90625 -1.0625 -4.140625 -1.0625q-1.328125 0 -2.0 0.375q-0.671875 0.375 -0.671875 0.953125q0 0.671875 0.71875 0.9375q0.734375 0.265625 2.296875 0.5q1.765625 0.296875 2.875 0.640625q1.125 0.328125 1.953125 1.203125q0.828125 0.875 0.828125 2.453125q0 1.328125 -0.796875 2.375q-0.796875 1.03125 -2.34375 1.609375q-1.53125 0.578125 -3.625 0.578125zm14.154419 0q-1.796875 0 -3.5 -0.4375q-1.703125 -0.453125 -2.71875 -1.109375l1.390625 -2.984375q0.953125 0.609375 2.3125 1.0q1.359375 0.375 2.671875 0.375q2.640625 0 2.640625 -1.296875q0 -0.609375 -0.71875 -0.875q-0.71875 -0.28125 -2.21875 -0.46875q-1.765625 -0.265625 -2.90625 -0.609375q-1.140625 -0.34375 -1.984375 -1.21875q-0.84375 -0.890625 -0.84375 -2.515625q0 -1.359375 0.78125 -2.40625q0.796875 -1.046875 2.296875 -1.625q1.515625 -0.59375 3.5625 -0.59375q1.515625 0 3.015625 0.328125q1.515625 0.328125 2.5 0.921875l-1.375 2.953125q-1.90625 -1.0625 -4.140625 -1.0625q-1.328125 0 -2.0 0.375q-0.671875 0.375 -0.671875 0.953125q0 0.671875 0.71875 0.9375q0.734375 0.265625 2.296875 0.5q1.765625 0.296875 2.875 0.640625q1.125 0.328125 1.953125 1.203125q0.828125 0.875 0.828125 2.453125q0 1.328125 -0.796875 2.375q-0.796875 1.03125 -2.34375 1.609375q-1.53125 0.578125 -3.625 0.578125zm23.373169 -7.34375q0 0.09375 -0.078125 1.125l-10.859375 0q0.296875 1.328125 1.390625 2.109375q1.09375 0.765625 2.71875 0.765625q1.125 0 1.984375 -0.328125q0.875 -0.328125 1.609375 -1.046875l2.21875 2.390625q-2.03125 2.328125 -5.921875 2.328125q-2.421875 0 -4.296875 -0.9375q-1.859375 -0.953125 -2.875 -2.625q-1.0 -1.6875 -1.0 -3.828125q0 -2.109375 1.0 -3.796875q1.0 -1.6875 2.734375 -2.625q1.75 -0.953125 3.90625 -0.953125q2.109375 0 3.8125 0.90625q1.703125 0.90625 2.671875 2.59375q0.984375 1.6875 0.984375 3.921875zm-7.4375 -4.28125q-1.40625 0 -2.375 0.796875q-0.953125 0.796875 -1.171875 2.1875l7.0625 0q-0.21875 -1.359375 -1.171875 -2.171875q-0.953125 -0.8125 -2.34375 -0.8125zm19.460663 10.71875q-0.609375 0.453125 -1.515625 0.6875q-0.890625 0.21875 -1.875 0.21875q-2.5625 0 -3.96875 -1.3125q-1.390625 -1.3125 -1.390625 -3.84375l0 -5.890625l-2.203125 0l0 -3.1875l2.203125 0l0 -3.5l4.15625 0l0 3.5l3.578125 0l0 3.1875l-3.578125 0l0 5.84375q0 0.90625 0.46875 1.40625q0.46875 0.484375 1.328125 0.484375q0.984375 0 1.671875 -0.53125l1.125 2.9375zm7.1735535 0.90625q-1.796875 0 -3.5 -0.4375q-1.703125 -0.453125 -2.71875 -1.109375l1.390625 -2.984375q0.953125 0.609375 2.3125 1.0q1.359375 0.375 2.671875 0.375q2.640625 0 2.640625 -1.296875q0 -0.609375 -0.71875 -0.875q-0.71875 -0.28125 -2.21875 -0.46875q-1.765625 -0.265625 -2.90625 -0.609375q-1.140625 -0.34375 -1.984375 -1.21875q-0.84375 -0.890625 -0.84375 -2.515625q0 -1.359375 0.78125 -2.40625q0.796875 -1.046875 2.296875 -1.625q1.515625 -0.59375 3.5625 -0.59375q1.515625 0 3.015625 0.328125q1.515625 0.328125 2.5 0.921875l-1.375 2.953125q-1.90625 -1.0625 -4.140625 -1.0625q-1.328125 0 -2.0 0.375q-0.671875 0.375 -0.671875 0.953125q0 0.671875 0.71875 0.9375q0.734375 0.265625 2.296875 0.5q1.765625 0.296875 2.875 0.640625q1.125 0.328125 1.953125 1.203125q0.828125 0.875 0.828125 2.453125q0 1.328125 -0.796875 2.375q-0.796875 1.03125 -2.34375 1.609375q-1.53125 0.578125 -3.625 0.578125z" fill-rule="nonzero"/><path fill="#000000" fill-opacity="0.0" d="m560.8635 129.52756l209.51178 0l0 33.543304l-209.51178 0z" fill-rule="evenodd"/><path fill="#ab2328" d="m584.8806 149.78381l4.15625 0l0 14.34375l-4.15625 0l0 -14.34375zm2.078125 -2.0q-1.140625 0 -1.859375 -0.65625q-0.71875 -0.671875 -0.71875 -1.65625q0 -0.984375 0.71875 -1.65625q0.71875 -0.671875 1.859375 -0.671875q1.15625 0 1.875 0.640625q0.71875 0.640625 0.71875 1.609375q0 1.03125 -0.71875 1.71875q-0.71875 0.671875 -1.875 0.671875zm14.664124 1.796875q2.65625 0 4.296875 1.59375q1.640625 1.59375 1.640625 4.75l0 8.203125l-4.15625 0l0 -7.578125q0 -1.703125 -0.75 -2.53125q-0.75 -0.84375 -2.15625 -0.84375q-1.578125 0 -2.515625 0.96875q-0.921875 0.96875 -0.921875 2.890625l0 7.09375l-4.15625 0l0 -14.34375l3.96875 0l0 1.6875q0.828125 -0.90625 2.046875 -1.390625q1.234375 -0.5 2.703125 -0.5zm14.263184 0.53125l3.671875 0l0 3.1875l-3.578125 0l0 10.828125l-4.15625 0l0 -10.828125l-2.203125 0l0 -3.1875l2.203125 0l0 -0.640625q0 -2.453125 1.453125 -3.890625q1.453125 -1.4375 4.09375 -1.4375q0.9375 0 1.765625 0.203125q0.84375 0.1875 1.40625 0.5625l-1.09375 3.015625q-0.71875 -0.515625 -1.671875 -0.515625q-1.890625 0 -1.890625 2.078125l0 0.625zm12.394897 14.234375q-2.265625 0 -4.078125 -0.9375q-1.796875 -0.953125 -2.8125 -2.625q-1.0 -1.6875 -1.0 -3.828125q0 -2.125 1.0 -3.796875q1.015625 -1.6875 2.8125 -2.625q1.8125 -0.953125 4.078125 -0.953125q2.265625 0 4.046875 0.953125q1.78125 0.9375 2.796875 2.625q1.015625 1.671875 1.015625 3.796875q0 2.140625 -1.015625 3.828125q-1.015625 1.671875 -2.796875 2.625q-1.78125 0.9375 -4.046875 0.9375zm0 -3.421875q1.59375 0 2.609375 -1.078125q1.03125 -1.078125 1.03125 -2.890625q0 -1.8125 -1.03125 -2.890625q-1.015625 -1.078125 -2.609375 -1.078125q-1.609375 0 -2.65625 1.078125q-1.03125 1.078125 -1.03125 2.890625q0 1.8125 1.03125 2.890625q1.046875 1.078125 2.65625 1.078125zm14.600403 -9.25q0.75 -1.03125 2.015625 -1.5625q1.265625 -0.53125 2.921875 -0.53125l0 3.828125q-0.703125 -0.046875 -0.9375 -0.046875q-1.78125 0 -2.796875 1.0q-1.015625 1.0 -1.015625 3.0l0 6.765625l-4.15625 0l0 -14.34375l3.96875 0l0 1.890625zm25.772766 -2.09375q2.703125 0 4.28125 1.59375q1.59375 1.578125 1.59375 4.75l0 8.203125l-4.171875 0l0 -7.578125q0 -1.703125 -0.703125 -2.53125q-0.703125 -0.84375 -2.015625 -0.84375q-1.453125 0 -2.3125 0.953125q-0.859375 0.9375 -0.859375 2.796875l0 7.203125l-4.15625 0l0 -7.578125q0 -3.375 -2.71875 -3.375q-1.4375 0 -2.296875 0.953125q-0.84375 0.9375 -0.84375 2.796875l0 7.203125l-4.15625 0l0 -14.34375l3.96875 0l0 1.65625q0.796875 -0.90625 1.953125 -1.375q1.171875 -0.484375 2.546875 -0.484375q1.53125 0 2.75 0.59375q1.234375 0.59375 1.96875 1.75q0.890625 -1.125 2.234375 -1.734375q1.34375 -0.609375 2.9375 -0.609375zm15.384155 0q3.328125 0 5.109375 1.59375q1.796875 1.578125 1.796875 4.765625l0 8.1875l-3.890625 0l0 -1.78125q-1.171875 2.0 -4.375 2.0q-1.65625 0 -2.875 -0.5625q-1.203125 -0.5625 -1.84375 -1.546875q-0.640625 -0.984375 -0.640625 -2.234375q0 -2.0 1.5 -3.140625q1.515625 -1.15625 4.65625 -1.15625l3.3125 0q0 -1.359375 -0.828125 -2.09375q-0.828125 -0.734375 -2.484375 -0.734375q-1.140625 0 -2.25 0.359375q-1.109375 0.359375 -1.875 0.96875l-1.5 -2.90625q1.171875 -0.8125 2.8125 -1.265625q1.640625 -0.453125 3.375 -0.453125zm-0.3125 11.96875q1.0625 0 1.890625 -0.5q0.828125 -0.5 1.171875 -1.453125l0 -1.46875l-2.859375 0q-2.5625 0 -2.5625 1.6875q0 0.796875 0.625 1.265625q0.640625 0.46875 1.734375 0.46875zm20.228088 1.890625q-0.609375 0.453125 -1.515625 0.6875q-0.890625 0.21875 -1.875 0.21875q-2.5625 0 -3.96875 -1.3125q-1.390625 -1.3125 -1.390625 -3.84375l0 -5.890625l-2.203125 0l0 -3.1875l2.203125 0l0 -3.5l4.15625 0l0 3.5l3.578125 0l0 3.1875l-3.578125 0l0 5.84375q0 0.90625 0.46875 1.40625q0.46875 0.484375 1.328125 0.484375q0.984375 0 1.671875 -0.53125l1.125 2.9375zm2.345398 -13.65625l4.15625 0l0 14.34375l-4.15625 0l0 -14.34375zm2.078125 -2.0q-1.140625 0 -1.859375 -0.65625q-0.71875 -0.671875 -0.71875 -1.65625q0 -0.984375 0.71875 -1.65625q0.71875 -0.671875 1.859375 -0.671875q1.15625 0 1.875 0.640625q0.71875 0.640625 0.71875 1.609375q0 1.03125 -0.71875 1.71875q-0.71875 0.671875 -1.875 0.671875zm12.773499 16.5625q-2.265625 0 -4.078125 -0.9375q-1.796875 -0.953125 -2.8125 -2.625q-1.0 -1.6875 -1.0 -3.828125q0 -2.125 1.0 -3.796875q1.015625 -1.6875 2.8125 -2.625q1.8125 -0.953125 4.078125 -0.953125q2.265625 0 4.046875 0.953125q1.78125 0.9375 2.796875 2.625q1.015625 1.671875 1.015625 3.796875q0 2.140625 -1.015625 3.828125q-1.015625 1.671875 -2.796875 2.625q-1.78125 0.9375 -4.046875 0.9375zm0 -3.421875q1.59375 0 2.609375 -1.078125q1.03125 -1.078125 1.03125 -2.890625q0 -1.8125 -1.03125 -2.890625q-1.015625 -1.078125 -2.609375 -1.078125q-1.609375 0 -2.65625 1.078125q-1.03125 1.078125 -1.03125 2.890625q0 1.8125 1.03125 2.890625q1.046875 1.078125 2.65625 1.078125zm19.350403 -11.34375q2.65625 0 4.296875 1.59375q1.640625 1.59375 1.640625 4.75l0 8.203125l-4.15625 0l0 -7.578125q0 -1.703125 -0.75 -2.53125q-0.75 -0.84375 -2.15625 -0.84375q-1.578125 0 -2.515625 0.96875q-0.921875 0.96875 -0.921875 2.890625l0 7.09375l-4.15625 0l0 -14.34375l3.96875 0l0 1.6875q0.828125 -0.90625 2.046875 -1.390625q1.234375 -0.5 2.703125 -0.5z" fill-rule="nonzero"/><path fill="#000000" fill-opacity="0.0" d="m288.60104 411.7953l396.81888 0" fill-rule="evenodd"/><path stroke="#ab2328" stroke-width="1.0" stroke-linejoin="round" stroke-linecap="butt" d="m294.60104 411.7953l384.81888 0" fill-rule="evenodd"/><path fill="#ab2328" stroke="#ab2328" stroke-width="1.0" stroke-linecap="butt" d="m294.60104 410.14355l-4.538086 1.6517334l4.538086 1.6517334z" fill-rule="evenodd"/><path fill="#ab2328" stroke="#ab2328" stroke-width="1.0" stroke-linecap="butt" d="m679.4199 413.44702l4.538147 -1.6517334l-4.538147 -1.6517334z" fill-rule="evenodd"/><path fill="#000000" fill-opacity="0.0" d="m380.77036 364.90552l209.51181 0l0 33.543304l-209.51181 0z" fill-rule="evenodd"/><path fill="#ab2328" d="m404.78748 385.16177l4.15625 0l0 14.34375l-4.15625 0l0 -14.34375zm2.078125 -2.0q-1.140625 0 -1.859375 -0.65625q-0.71875 -0.671875 -0.71875 -1.65625q0 -0.984375 0.71875 -1.65625q0.71875 -0.671875 1.859375 -0.671875q1.15625 0 1.875 0.640625q0.71875 0.640625 0.71875 1.609375q0 1.03125 -0.71875 1.71875q-0.71875 0.671875 -1.875 0.671875zm14.664124 1.796875q2.65625 0 4.296875 1.59375q1.640625 1.59375 1.640625 4.75l0 8.203125l-4.15625 0l0 -7.578125q0 -1.703125 -0.75 -2.53125q-0.75 -0.84375 -2.15625 -0.84375q-1.578125 0 -2.515625 0.96875q-0.921875 0.96875 -0.921875 2.890625l0 7.09375l-4.15625 0l0 -14.34375l3.96875 0l0 1.6875q0.828125 -0.90625 2.046875 -1.390625q1.234375 -0.5 2.703125 -0.5zm14.263153 0.53125l3.671875 0l0 3.1875l-3.578125 0l0 10.828125l-4.15625 0l0 -10.828125l-2.203125 0l0 -3.1875l2.203125 0l0 -0.640625q0 -2.453125 1.453125 -3.890625q1.453125 -1.4375 4.09375 -1.4375q0.9375 0 1.765625 0.203125q0.84375 0.1875 1.40625 0.5625l-1.09375 3.015625q-0.71875 -0.515625 -1.671875 -0.515625q-1.890625 0 -1.890625 2.078125l0 0.625zm12.394897 14.234375q-2.265625 0 -4.078125 -0.9375q-1.796875 -0.953125 -2.8125 -2.625q-1.0 -1.6875 -1.0 -3.828125q0 -2.125 1.0 -3.796875q1.015625 -1.6875 2.8125 -2.625q1.8125 -0.953125 4.078125 -0.953125q2.265625 0 4.046875 0.953125q1.78125 0.9375 2.796875 2.625q1.015625 1.671875 1.015625 3.796875q0 2.140625 -1.015625 3.828125q-1.015625 1.671875 -2.796875 2.625q-1.78125 0.9375 -4.046875 0.9375zm0 -3.421875q1.59375 0 2.609375 -1.078125q1.03125 -1.078125 1.03125 -2.890625q0 -1.8125 -1.03125 -2.890625q-1.015625 -1.078125 -2.609375 -1.078125q-1.609375 0 -2.65625 1.078125q-1.03125 1.078125 -1.03125 2.890625q0 1.8125 1.03125 2.890625q1.046875 1.078125 2.65625 1.078125zm14.600403 -9.25q0.75 -1.03125 2.015625 -1.5625q1.265625 -0.53125 2.921875 -0.53125l0 3.828125q-0.703125 -0.046875 -0.9375 -0.046875q-1.78125 0 -2.796875 1.0q-1.015625 1.0 -1.015625 3.0l0 6.765625l-4.15625 0l0 -14.34375l3.96875 0l0 1.890625zm25.772736 -2.09375q2.703125 0 4.28125 1.59375q1.59375 1.578125 1.59375 4.75l0 8.203125l-4.171875 0l0 -7.578125q0 -1.703125 -0.703125 -2.53125q-0.703125 -0.84375 -2.015625 -0.84375q-1.453125 0 -2.3125 0.953125q-0.859375 0.9375 -0.859375 2.796875l0 7.203125l-4.15625 0l0 -7.578125q0 -3.375 -2.71875 -3.375q-1.4375 0 -2.296875 0.953125q-0.84375 0.9375 -0.84375 2.796875l0 7.203125l-4.15625 0l0 -14.34375l3.96875 0l0 1.65625q0.796875 -0.90625 1.953125 -1.375q1.171875 -0.484375 2.546875 -0.484375q1.53125 0 2.75 0.59375q1.234375 0.59375 1.96875 1.75q0.890625 -1.125 2.234375 -1.734375q1.34375 -0.609375 2.9375 -0.609375zm15.384186 0q3.328125 0 5.109375 1.59375q1.796875 1.578125 1.796875 4.765625l0 8.1875l-3.890625 0l0 -1.78125q-1.171875 2.0 -4.375 2.0q-1.65625 0 -2.875 -0.5625q-1.203125 -0.5625 -1.84375 -1.546875q-0.640625 -0.984375 -0.640625 -2.234375q0 -2.0 1.5 -3.140625q1.515625 -1.15625 4.65625 -1.15625l3.3125 0q0 -1.359375 -0.828125 -2.09375q-0.828125 -0.734375 -2.484375 -0.734375q-1.140625 0 -2.25 0.359375q-1.109375 0.359375 -1.875 0.96875l-1.5 -2.90625q1.171875 -0.8125 2.8125 -1.265625q1.640625 -0.453125 3.375 -0.453125zm-0.3125 11.96875q1.0625 0 1.890625 -0.5q0.828125 -0.5 1.171875 -1.453125l0 -1.46875l-2.859375 0q-2.5625 0 -2.5625 1.6875q0 0.796875 0.625 1.265625q0.640625 0.46875 1.734375 0.46875zm20.228058 1.890625q-0.609375 0.453125 -1.515625 0.6875q-0.890625 0.21875 -1.875 0.21875q-2.5625 0 -3.96875 -1.3125q-1.390625 -1.3125 -1.390625 -3.84375l0 -5.890625l-2.203125 0l0 -3.1875l2.203125 0l0 -3.5l4.15625 0l0 3.5l3.578125 0l0 3.1875l-3.578125 0l0 5.84375q0 0.90625 0.46875 1.40625q0.46875 0.484375 1.328125 0.484375q0.984375 0 1.671875 -0.53125l1.125 2.9375zm2.345459 -13.65625l4.15625 0l0 14.34375l-4.15625 0l0 -14.34375zm2.078125 -2.0q-1.140625 0 -1.859375 -0.65625q-0.71875 -0.671875 -0.71875 -1.65625q0 -0.984375 0.71875 -1.65625q0.71875 -0.671875 1.859375 -0.671875q1.15625 0 1.875 0.640625q0.71875 0.640625 0.71875 1.609375q0 1.03125 -0.71875 1.71875q-0.71875 0.671875 -1.875 0.671875zm12.773499 16.5625q-2.265625 0 -4.078125 -0.9375q-1.796875 -0.953125 -2.8125 -2.625q-1.0 -1.6875 -1.0 -3.828125q0 -2.125 1.0 -3.796875q1.015625 -1.6875 2.8125 -2.625q1.8125 -0.953125 4.078125 -0.953125q2.265625 0 4.046875 0.953125q1.78125 0.9375 2.796875 2.625q1.015625 1.671875 1.015625 3.796875q0 2.140625 -1.015625 3.828125q-1.015625 1.671875 -2.796875 2.625q-1.78125 0.9375 -4.046875 0.9375zm0 -3.421875q1.59375 0 2.609375 -1.078125q1.03125 -1.078125 1.03125 -2.890625q0 -1.8125 -1.03125 -2.890625q-1.015625 -1.078125 -2.609375 -1.078125q-1.609375 0 -2.65625 1.078125q-1.03125 1.078125 -1.03125 2.890625q0 1.8125 1.03125 2.890625q1.046875 1.078125 2.65625 1.078125zm19.350403 -11.34375q2.65625 0 4.296875 1.59375q1.640625 1.59375 1.640625 4.75l0 8.203125l-4.15625 0l0 -7.578125q0 -1.703125 -0.75 -2.53125q-0.75 -0.84375 -2.15625 -0.84375q-1.578125 0 -2.515625 0.96875q-0.921875 0.96875 -0.921875 2.890625l0 7.09375l-4.15625 0l0 -14.34375l3.96875 0l0 1.6875q0.828125 -0.90625 2.046875 -1.390625q1.234375 -0.5 2.703125 -0.5z" fill-rule="nonzero"/><path fill="#000000" fill-opacity="0.0" d="m592.5236 239.77953l101.82678 0" fill-rule="evenodd"/><path stroke="#ab2328" stroke-width="1.0" stroke-linejoin="round" stroke-linecap="butt" d="m598.5236 239.77953l89.82678 0" fill-rule="evenodd"/><path fill="#ab2328" stroke="#ab2328" stroke-width="1.0" stroke-linecap="butt" d="m598.5236 238.12779l-4.538086 1.6517334l4.538086 1.6517334z" fill-rule="evenodd"/><path fill="#ab2328" stroke="#ab2328" stroke-width="1.0" stroke-linecap="butt" d="m688.3504 241.43126l4.538086 -1.6517334l-4.538086 -1.6517334z" fill-rule="evenodd"/><path fill="#000000" fill-opacity="0.0" d="m67.049866 34.2021l727.6221 0l0 72.85039l-727.6221 0z" fill-rule="evenodd"/><path fill="#ab2328" d="m102.049866 76.32085l0 5.28125l-24.484375 0l0 -4.203125l15.359375 -18.515625l-15.03125 0l0 -5.28125l23.5625 0l0 4.203125l-15.328125 18.515625l15.921875 0zm13.684982 5.59375q-3.40625 0 -6.109375 -1.40625q-2.703125 -1.421875 -4.21875 -3.9375q-1.515625 -2.53125 -1.515625 -5.734375q0 -3.1875 1.515625 -5.703125q1.515625 -2.53125 4.21875 -3.953125q2.703125 -1.421875 6.109375 -1.421875q3.390625 0 6.0625 1.421875q2.6875 1.421875 4.203125 3.953125q1.53125 2.515625 1.53125 5.703125q0 3.203125 -1.53125 5.734375q-1.515625 2.515625 -4.203125 3.9375q-2.671875 1.40625 -6.0625 1.40625zm0 -5.109375q2.390625 0 3.921875 -1.625q1.546875 -1.625 1.546875 -4.34375q0 -2.71875 -1.546875 -4.328125q-1.53125 -1.625 -3.921875 -1.625q-2.40625 0 -3.96875 1.625q-1.5625 1.609375 -1.5625 4.328125q0 2.71875 1.5625 4.34375q1.5625 1.625 3.96875 1.625zm37.028107 -5.890625q0 0.125 -0.109375 1.6875l-16.28125 0q0.4375 2.0 2.078125 3.15625q1.640625 1.15625 4.078125 1.15625q1.6875 0 2.984375 -0.5q1.296875 -0.5 2.421875 -1.578125l3.3125 3.609375q-3.03125 3.46875 -8.875 3.46875q-3.640625 0 -6.453125 -1.40625q-2.796875 -1.421875 -4.3125 -3.9375q-1.515625 -2.53125 -1.515625 -5.734375q0 -3.15625 1.5 -5.6875q1.5 -2.546875 4.109375 -3.96875q2.625 -1.421875 5.875 -1.421875q3.15625 0 5.71875 1.359375q2.5625 1.359375 4.015625 3.90625q1.453125 2.53125 1.453125 5.890625zm-11.15625 -6.4375q-2.109375 0 -3.5625 1.203125q-1.4375 1.203125 -1.75 3.28125l10.59375 0q-0.3125 -2.046875 -1.765625 -3.265625q-1.4375 -1.21875 -3.515625 -1.21875zm39.356842 -4.71875q3.0 0 5.453125 1.390625q2.46875 1.375 3.859375 3.875q1.40625 2.5 1.40625 5.8125q0 3.328125 -1.40625 5.828125q-1.390625 2.5 -3.859375 3.875q-2.453125 1.375 -5.453125 1.375q-4.109375 0 -6.46875 -2.59375l0 10.046875l-6.25 0l0 -29.28125l5.96875 0l0 2.46875q2.3125 -2.796875 6.75 -2.796875zm-1.078125 17.046875q2.40625 0 3.9375 -1.625q1.546875 -1.625 1.546875 -4.34375q0 -2.71875 -1.546875 -4.328125q-1.53125 -1.625 -3.9375 -1.625q-2.390625 0 -3.9375 1.625q-1.53125 1.609375 -1.53125 4.328125q0 2.71875 1.53125 4.34375q1.546875 1.625 3.9375 1.625zm24.28685 -17.046875q5.0 0 7.671875 2.390625q2.6875 2.375 2.6875 7.171875l0 12.28125l-5.84375 0l0 -2.6875q-1.765625 3.0 -6.5625 3.0q-2.46875 0 -4.296875 -0.828125q-1.8125 -0.84375 -2.78125 -2.3125q-0.953125 -1.484375 -0.953125 -3.375q0 -3.0 2.25 -4.71875q2.265625 -1.71875 6.984375 -1.71875l4.96875 0q0 -2.046875 -1.25 -3.140625q-1.234375 -1.09375 -3.71875 -1.09375q-1.71875 0 -3.375 0.546875q-1.65625 0.53125 -2.828125 1.453125l-2.234375 -4.359375q1.765625 -1.25 4.21875 -1.921875q2.453125 -0.6875 5.0625 -0.6875zm-0.484375 17.96875q1.609375 0 2.84375 -0.734375q1.234375 -0.75 1.765625 -2.1875l0 -2.203125l-4.28125 0q-3.84375 0 -3.84375 2.515625q0 1.203125 0.9375 1.90625q0.9375 0.703125 2.578125 0.703125zm22.445602 -14.8125q1.109375 -1.546875 3.015625 -2.34375q1.90625 -0.8125 4.375 -0.8125l0 5.765625q-1.03125 -0.078125 -1.390625 -0.078125q-2.6875 0 -4.203125 1.5q-1.515625 1.5 -1.515625 4.5l0 10.15625l-6.25 0l0 -21.515625l5.96875 0l0 2.828125zm25.761871 17.640625q-0.921875 0.6875 -2.265625 1.03125q-1.34375 0.328125 -2.8125 0.328125q-3.84375 0 -5.953125 -1.953125q-2.09375 -1.953125 -2.09375 -5.765625l0 -8.828125l-3.328125 0l0 -4.8125l3.328125 0l0 -5.234375l6.234375 0l0 5.234375l5.359375 0l0 4.8125l-5.359375 0l0 8.75q0 1.359375 0.703125 2.109375q0.703125 0.734375 1.984375 0.734375q1.484375 0 2.515625 -0.796875l1.6875 4.390625zm3.5093536 -20.46875l6.25 0l0 21.515625l-6.25 0l0 -21.515625zm3.125 -3.0q-1.71875 0 -2.796875 -1.0q-1.078125 -1.0 -1.078125 -2.484375q0 -1.484375 1.078125 -2.484375q1.078125 -1.0 2.796875 -1.0q1.71875 0 2.796875 0.96875q1.078125 0.953125 1.078125 2.390625q0 1.5625 -1.078125 2.59375q-1.078125 1.015625 -2.796875 1.015625zm22.805634 23.46875q-0.921875 0.6875 -2.265625 1.03125q-1.34375 0.328125 -2.8125 0.328125q-3.84375 0 -5.953125 -1.953125q-2.09375 -1.953125 -2.09375 -5.765625l0 -8.828125l-3.328125 0l0 -4.8125l3.328125 0l0 -5.234375l6.234375 0l0 5.234375l5.359375 0l0 4.8125l-5.359375 0l0 8.75q0 1.359375 0.703125 2.109375q0.703125 0.734375 1.984375 0.734375q1.484375 0 2.515625 -0.796875l1.6875 4.390625zm3.5093384 -20.46875l6.25 0l0 21.515625l-6.25 0l0 -21.515625zm3.125 -3.0q-1.71875 0 -2.796875 -1.0q-1.078125 -1.0 -1.078125 -2.484375q0 -1.484375 1.078125 -2.484375q1.078125 -1.0 2.796875 -1.0q1.71875 0 2.796875 0.96875q1.078125 0.953125 1.078125 2.390625q0 1.5625 -1.078125 2.59375q-1.078125 1.015625 -2.796875 1.015625zm19.165009 24.828125q-3.40625 0 -6.109375 -1.40625q-2.703125 -1.421875 -4.21875 -3.9375q-1.515625 -2.53125 -1.515625 -5.734375q0 -3.1875 1.515625 -5.703125q1.515625 -2.53125 4.21875 -3.953125q2.703125 -1.421875 6.109375 -1.421875q3.390625 0 6.0625 1.421875q2.6875 1.421875 4.203125 3.953125q1.53125 2.515625 1.53125 5.703125q0 3.203125 -1.53125 5.734375q-1.515625 2.515625 -4.203125 3.9375q-2.671875 1.40625 -6.0625 1.40625zm0 -5.109375q2.390625 0 3.921875 -1.625q1.546875 -1.625 1.546875 -4.34375q0 -2.71875 -1.546875 -4.328125q-1.53125 -1.625 -3.921875 -1.625q-2.40625 0 -3.96875 1.625q-1.5625 1.609375 -1.5625 4.328125q0 2.71875 1.5625 4.34375q1.5625 1.625 3.96875 1.625zm29.028076 -17.046875q4.0 0 6.453125 2.40625q2.46875 2.390625 2.46875 7.125l0 12.3125l-6.234375 0l0 -11.359375q0 -2.5625 -1.125 -3.8125q-1.109375 -1.265625 -3.234375 -1.265625q-2.359375 0 -3.765625 1.46875q-1.390625 1.453125 -1.390625 4.328125l0 10.640625l-6.25 0l0 -21.515625l5.96875 0l0 2.515625q1.234375 -1.359375 3.078125 -2.09375q1.84375 -0.75 4.03125 -0.75zm21.81186 22.15625q-2.6875 0 -5.25 -0.65625q-2.5625 -0.65625 -4.078125 -1.65625l2.078125 -4.484375q1.4375 0.921875 3.484375 1.5q2.046875 0.578125 4.0 0.578125q3.953125 0 3.953125 -1.953125q0 -0.921875 -1.078125 -1.3125q-1.078125 -0.40625 -3.3125 -0.6875q-2.640625 -0.40625 -4.359375 -0.921875q-1.71875 -0.515625 -2.984375 -1.828125q-1.265625 -1.328125 -1.265625 -3.765625q0 -2.046875 1.1875 -3.625q1.1875 -1.578125 3.4375 -2.453125q2.265625 -0.890625 5.34375 -0.890625q2.28125 0 4.53125 0.5q2.265625 0.5 3.75 1.390625l-2.078125 4.4375q-2.84375 -1.609375 -6.203125 -1.609375q-2.0 0 -3.0 0.5625q-1.0 0.5625 -1.0 1.4375q0 1.0 1.078125 1.40625q1.078125 0.40625 3.4375 0.765625q2.640625 0.4375 4.3125 0.9375q1.6875 0.5 2.921875 1.828125q1.25 1.3125 1.25 3.671875q0 2.0 -1.203125 3.5625q-1.203125 1.546875 -3.5 2.40625q-2.296875 0.859375 -5.453125 0.859375zm39.200592 -1.359375q-0.921875 0.6875 -2.265625 1.03125q-1.34375 0.328125 -2.8125 0.328125q-3.84375 0 -5.953125 -1.953125q-2.09375 -1.953125 -2.09375 -5.765625l0 -8.828125l-3.328125 0l0 -4.8125l3.328125 0l0 -5.234375l6.234375 0l0 5.234375l5.359375 0l0 4.8125l-5.359375 0l0 8.75q0 1.359375 0.703125 2.109375q0.703125 0.734375 1.984375 0.734375q1.484375 0 2.515625 -0.796875l1.6875 4.390625zm16.587463 -20.796875q4.0 0 6.453125 2.40625q2.46875 2.390625 2.46875 7.125l0 12.3125l-6.234375 0l0 -11.359375q0 -2.5625 -1.125 -3.8125q-1.109375 -1.265625 -3.234375 -1.265625q-2.359375 0 -3.765625 1.46875q-1.390625 1.453125 -1.390625 4.328125l0 10.640625l-6.25 0l0 -29.6875l6.25 0l0 10.40625q1.234375 -1.234375 2.984375 -1.890625q1.765625 -0.671875 3.84375 -0.671875zm35.879974 11.15625q0 0.125 -0.109375 1.6875l-16.28125 0q0.4375 2.0 2.078125 3.15625q1.640625 1.15625 4.078125 1.15625q1.6875 0 2.984375 -0.5q1.296875 -0.5 2.421875 -1.578125l3.3125 3.609375q-3.03125 3.46875 -8.875 3.46875q-3.640625 0 -6.453125 -1.40625q-2.796875 -1.421875 -4.3125 -3.9375q-1.515625 -2.53125 -1.515625 -5.734375q0 -3.15625 1.5 -5.6875q1.5 -2.546875 4.109375 -3.96875q2.625 -1.421875 5.875 -1.421875q3.15625 0 5.71875 1.359375q2.5625 1.359375 4.015625 3.90625q1.453125 2.53125 1.453125 5.890625zm-11.15625 -6.4375q-2.109375 0 -3.5625 1.203125q-1.4375 1.203125 -1.75 3.28125l10.59375 0q-0.3125 -2.046875 -1.765625 -3.265625q-1.4375 -1.21875 -3.515625 -1.21875zm32.606842 -1.5625q1.109375 -1.546875 3.015625 -2.34375q1.90625 -0.8125 4.375 -0.8125l0 5.765625q-1.03125 -0.078125 -1.390625 -0.078125q-2.6875 0 -4.203125 1.5q-1.515625 1.5 -1.515625 4.5l0 10.15625l-6.25 0l0 -21.515625l5.96875 0l0 2.828125zm11.111237 -2.828125l6.25 0l0 21.515625l-6.25 0l0 -21.515625zm3.125 -3.0q-1.71875 0 -2.796875 -1.0q-1.078125 -1.0 -1.078125 -2.484375q0 -1.484375 1.078125 -2.484375q1.078125 -1.0 2.796875 -1.0q1.71875 0 2.796875 0.96875q1.078125 0.953125 1.078125 2.390625q0 1.5625 -1.078125 2.59375q-1.078125 1.015625 -2.796875 1.015625zm16.165009 24.828125q-2.6875 0 -5.25 -0.65625q-2.5625 -0.65625 -4.078125 -1.65625l2.078125 -4.484375q1.4375 0.921875 3.484375 1.5q2.046875 0.578125 4.0 0.578125q3.953125 0 3.953125 -1.953125q0 -0.921875 -1.078125 -1.3125q-1.078125 -0.40625 -3.3125 -0.6875q-2.640625 -0.40625 -4.359375 -0.921875q-1.71875 -0.515625 -2.984375 -1.828125q-1.265625 -1.328125 -1.265625 -3.765625q0 -2.046875 1.1875 -3.625q1.1875 -1.578125 3.4375 -2.453125q2.265625 -0.890625 5.34375 -0.890625q2.28125 0 4.53125 0.5q2.265625 0.5 3.75 1.390625l-2.078125 4.4375q-2.84375 -1.609375 -6.203125 -1.609375q-2.0 0 -3.0 0.5625q-1.0 0.5625 -1.0 1.4375q0 1.0 1.078125 1.40625q1.078125 0.40625 3.4375 0.765625q2.640625 0.4375 4.3125 0.9375q1.6875 0.5 2.921875 1.828125q1.25 1.3125 1.25 3.671875q0 2.0 -1.203125 3.5625q-1.203125 1.546875 -3.5 2.40625q-2.296875 0.859375 -5.453125 0.859375zm23.23999 -8.75l-3.0 2.953125l0 5.484375l-6.25 0l0 -29.6875l6.25 0l0 16.8125l9.109375 -8.640625l7.453125 0l-8.96875 9.109375l9.765625 12.40625l-7.5625 0l-6.796875 -8.4375z" fill-rule="nonzero"/><path fill="#000000" fill-opacity="0.0" d="m66.28609 235.85826l169.38583 0l0 128.25197l-169.38583 0z" fill-rule="evenodd"/><path fill="#ffffff" d="m96.73861 254.57326q3.46875 0 6.03125 1.15625q2.5625 1.1562653 3.9375 3.2812653q1.375 2.125 1.375 5.046875q0 2.859375 -1.375 5.015625q-1.375 2.140625 -3.9375 3.28125q-2.5625 1.140625 -6.03125 1.140625l-5.265625 0l0 7.203125l-6.046875 0l0 -26.125015l11.3125 0zm-0.328125 14.000015q2.71875 0 4.140625 -1.171875q1.421875 -1.1875 1.421875 -3.34375q0 -2.203125 -1.421875 -3.375q-1.421875 -1.1875 -4.140625 -1.1875l-4.9375 0l0 9.078125l4.9375 0zm23.467407 -8.25q4.671875 0 7.171875 2.21875q2.5000076 2.21875 2.5000076 6.703125l0 11.453125l-5.4531326 0l0 -2.5q-1.640625 2.796875 -6.109375 2.796875q-2.328125 0 -4.03125 -0.78125q-1.6875 -0.78125 -2.59375 -2.15625q-0.890625 -1.390625 -0.890625 -3.140625q0 -2.796875 2.109375 -4.40625q2.109375 -1.609375 6.515625 -1.609375l4.625 0q0 -1.90625 -1.15625 -2.921875q-1.15625 -1.03125 -3.46875 -1.03125q-1.59375 0 -3.15625 0.5q-1.546875 0.5 -2.625 1.359375l-2.09375 -4.0625q1.640625 -1.15625 3.9375 -1.78125q2.296875 -0.640625 4.71875 -0.640625zm-0.4375 16.75q1.484375 0 2.640625 -0.6875q1.15625 -0.6875 1.640625 -2.03125l0 -2.0625l-3.984375 0q-3.578125 0 -3.578125 2.359375q0 1.125 0.875 1.78125q0.875 0.640625 2.40625 0.640625zm20.937782 -13.8125q1.046875 -1.453125 2.8125 -2.1875q1.78125 -0.75 4.09375 -0.75l0 5.375q-0.96875 -0.078125 -1.3125 -0.078125q-2.5 0 -3.921875 1.40625q-1.40625 1.390625 -1.40625 4.1875l0 9.484375l-5.828125 0l0 -20.078125l5.5625 0l0 2.640625zm24.039093 16.46875q-0.859375 0.625 -2.109375 0.953125q-1.25 0.3125 -2.625 0.3125q-3.59375 0 -5.5625 -1.828125q-1.953125 -1.828125 -1.953125 -5.375l0 -8.25l-3.09375 0l0 -4.484375l3.09375 0l0 -4.890625l5.828125 0l0 4.890625l5.0 0l0 4.484375l-5.0 0l0 8.171875q0 1.265625 0.65625 1.96875q0.65625 0.6875 1.84375 0.6875q1.390625 0 2.359375 -0.75l1.5625 4.109375zm3.284668 -19.109375l5.828125 0l0 20.078125l-5.828125 0l0 -20.078125zm2.90625 -2.796875q-1.59375 0 -2.609375 -0.9375q-1.0 -0.93751526 -1.0 -2.3125153q0 -1.390625 1.0 -2.3125q1.015625 -0.9375 2.609375 -0.9375q1.609375 0 2.609375 0.90625q1.015625 0.890625 1.015625 2.234375q0 1.453125 -1.015625 2.4062653q-1.0 0.953125 -2.609375 0.953125zm28.00142 12.90625q0 0.109375 -0.109375 1.5625l-15.1875 0q0.40625 1.875 1.9375 2.953125q1.53125 1.078125 3.796875 1.078125q1.578125 0 2.78125 -0.453125q1.21875 -0.46875 2.265625 -1.484375l3.09375 3.359375q-2.828125 3.25 -8.28125 3.25q-3.40625 0 -6.015625 -1.328125q-2.609375 -1.328125 -4.03125 -3.671875q-1.421875 -2.359375 -1.421875 -5.34375q0 -2.9375 1.40625 -5.3125q1.40625 -2.375 3.84375 -3.6875q2.453125 -1.328125 5.46875 -1.328125q2.953125 0 5.34375 1.265625q2.390625 1.265625 3.75 3.640625q1.359375 2.359375 1.359375 5.5zm-10.421875 -6.0q-1.96875 0 -3.3125 1.125q-1.34375 1.109375 -1.640625 3.046875l9.890625 0q-0.296875 -1.90625 -1.640625 -3.03125q-1.34375 -1.140625 -3.296875 -1.140625zm21.054108 16.265625q-2.5 0 -4.890625 -0.609375q-2.375 -0.625 -3.796875 -1.546875l1.9375 -4.1875q1.34375 0.859375 3.25 1.40625q1.90625 0.53125 3.734375 0.53125q3.6875 0 3.6875 -1.828125q0 -0.859375 -1.015625 -1.234375q-1.0 -0.375 -3.09375 -0.625q-2.453125 -0.375 -4.0625 -0.859375q-1.609375 -0.484375 -2.78125 -1.71875q-1.171875 -1.234375 -1.171875 -3.515625q0 -1.90625 1.09375 -3.375q1.109375 -1.46875 3.21875 -2.28125q2.109375 -0.828125 4.984375 -0.828125q2.125 0 4.234375 0.46875q2.109375 0.453125 3.484375 1.28125l-1.9375 4.140625q-2.65625 -1.484375 -5.78125 -1.484375q-1.875 0 -2.8125 0.515625q-0.921875 0.515625 -0.921875 1.34375q0 0.9375 1.0 1.3125q1.015625 0.359375 3.21875 0.703125q2.453125 0.40625 4.015625 0.875q1.578125 0.46875 2.734375 1.703125q1.15625 1.234375 1.15625 3.4375q0 1.859375 -1.125 3.3125q-1.109375 1.453125 -3.265625 2.265625q-2.140625 0.796875 -5.09375 0.796875z" fill-rule="nonzero"/></g></svg>