<svg version="1.1" viewBox="0.0 0.0 788.2965879265092 657.4829396325459" fill="none" stroke="none" stroke-linecap="square" stroke-miterlimit="10" xmlns:xlink="http://www.w3.org/1999/xlink" xmlns="http://www.w3.org/2000/svg"><clipPath id="p.0"><path d="m0 0l788.2966 0l0 657.4829l-788.2966 0l0 -657.4829z" clip-rule="nonzero"/></clipPath><g clip-path="url(#p.0)"><path fill="#000000" fill-opacity="0.0" d="m0 0l788.2966 0l0 657.4829l-788.2966 0z" fill-rule="evenodd"/><path fill="#d5a6bd" d="m152.0 24.0l59.779526 0l0 61.07087l-59.779526 0z" fill-rule="evenodd"/><path fill="#d5a6bd" d="m343.54855 79.43569l59.77954 0l0 61.07087l-59.77954 0z" fill-rule="evenodd"/><path fill="#d5a6bd" d="m196.71916 195.92914l59.779526 0l0 61.07086l-59.779526 0z" fill-rule="evenodd"/><path fill="#d5a6bd" d="m553.6378 201.75328l59.77948 0l0 61.070877l-59.77948 0z" fill-rule="evenodd"/><path fill="#d5a6bd" d="m516.2126 24.0l59.77954 0l0 61.07087l-59.77954 0z" fill-rule="evenodd"/><path fill="#d5a6bd" d="m352.8504 327.88715l59.77951 0l0 61.07086l-59.77951 0z" fill-rule="evenodd"/><path fill="#d5a6bd" d="m166.5853 327.88715l59.779526 0l0 61.07086l-59.779526 0z" fill-rule="evenodd"/><path fill="#d5a6bd" d="m375.17847 203.66142l59.77954 0l0 61.070847l-59.77954 0z" fill-rule="evenodd"/><path fill="#d5a6bd" d="m238.021 103.661415l59.77954 0l0 61.07087l-59.77954 0z" fill-rule="evenodd"/><path fill="#d5a6bd" d="m474.09186 109.48294l59.77954 0l0 61.07086l-59.77954 0z" fill-rule="evenodd"/><path fill="#d5a6bd" d="m483.73227 308.30972l59.77957 0l0 61.07086l-59.77957 0z" fill-rule="evenodd"/><path fill="#d5a6bd" d="m274.78217 256.98425l59.77951 0l0 61.07086l-59.77951 0z" fill-rule="evenodd"/><path fill="#000000" fill-opacity="0.0" d="m181.88977 85.07087l56.125977 49.133858" fill-rule="evenodd"/><path stroke="#000000" stroke-width="1.0" stroke-linejoin="round" stroke-linecap="butt" d="m186.40428 89.022964l47.096954 41.22966" fill-rule="evenodd"/><path fill="#000000" stroke="#000000" stroke-width="1.0" stroke-linecap="butt" d="m187.49225 87.780174l-4.5025177 -1.746376l2.3265839 4.231964z" fill-rule="evenodd"/><path fill="#000000" stroke="#000000" stroke-width="1.0" stroke-linecap="butt" d="m232.41325 131.49542l4.502533 1.7463684l-2.3265839 -4.231964z" fill-rule="evenodd"/><path fill="#000000" fill-opacity="0.0" d="m267.91077 164.73228l-41.29135 31.2126" fill-rule="evenodd"/><path stroke="#000000" stroke-width="1.0" stroke-linejoin="round" stroke-linecap="butt" d="m263.1244 168.35036l-31.718597 23.97644" fill-rule="evenodd"/><path fill="#000000" stroke="#000000" stroke-width="1.0" stroke-linecap="butt" d="m264.1204 169.668l2.624176 -4.0541687l-4.616211 1.4188995z" fill-rule="evenodd"/><path fill="#000000" stroke="#000000" stroke-width="1.0" stroke-linecap="butt" d="m230.40979 191.00916l-2.6241608 4.054184l4.6161957 -1.4188995z" fill-rule="evenodd"/><path fill="#000000" fill-opacity="0.0" d="m516.2126 54.535435l-304.44092 0" fill-rule="evenodd"/><path stroke="#000000" stroke-width="1.0" stroke-linejoin="round" stroke-linecap="butt" d="m510.2126 54.535435l-292.44092 0" fill-rule="evenodd"/><path fill="#000000" stroke="#000000" stroke-width="1.0" stroke-linecap="butt" d="m510.2126 56.187164l4.538086 -1.6517296l-4.538086 -1.6517334z" fill-rule="evenodd"/><path fill="#000000" stroke="#000000" stroke-width="1.0" stroke-linecap="butt" d="m217.77165 52.8837l-4.538101 1.6517334l4.538101 1.6517296z" fill-rule="evenodd"/><path fill="#000000" fill-opacity="0.0" d="m343.54855 109.97113l-45.763763 24.220474" fill-rule="evenodd"/><path stroke="#000000" stroke-width="1.0" stroke-linejoin="round" stroke-linecap="butt" d="m338.24548 112.77779l-35.157623 18.607162" fill-rule="evenodd"/><path fill="#000000" stroke="#000000" stroke-width="1.0" stroke-linecap="butt" d="m339.01813 114.23766l3.2383423 -3.582695l-4.7836304 0.66293335z" fill-rule="evenodd"/><path fill="#000000" stroke="#000000" stroke-width="1.0" stroke-linecap="butt" d="m302.31522 129.92506l-3.2383423 3.5826874l4.7836304 -0.66293335z" fill-rule="evenodd"/><path fill="#000000" fill-opacity="0.0" d="m267.91077 164.73228l137.16534 38.92914" fill-rule="evenodd"/><path stroke="#000000" stroke-width="1.0" stroke-linejoin="round" stroke-linecap="butt" d="m273.6828 166.37045l125.62131 35.6528" fill-rule="evenodd"/><path fill="#000000" stroke="#000000" stroke-width="1.0" stroke-linecap="butt" d="m274.13376 164.78148l-4.8166504 0.34994507l3.9147034 2.828003z" fill-rule="evenodd"/><path fill="#000000" stroke="#000000" stroke-width="1.0" stroke-linecap="butt" d="m398.85312 203.61223l4.8166504 -0.34994507l-3.914734 -2.8280182z" fill-rule="evenodd"/><path fill="#000000" fill-opacity="0.0" d="m516.2126 54.535435l-112.88187 55.43307" fill-rule="evenodd"/><path stroke="#000000" stroke-width="1.0" stroke-linejoin="round" stroke-linecap="butt" d="m510.82693 57.180176l-102.110565 50.143585" fill-rule="evenodd"/><path fill="#000000" stroke="#000000" stroke-width="1.0" stroke-linecap="butt" d="m511.555 58.66279l3.345398 -3.4829636l-4.8015137 0.51774216z" fill-rule="evenodd"/><path fill="#000000" stroke="#000000" stroke-width="1.0" stroke-linecap="butt" d="m407.9883 105.84115l-3.345398 3.4829636l4.8015137 -0.51773834z" fill-rule="evenodd"/><path fill="#000000" fill-opacity="0.0" d="m546.10236 85.07087l-42.11023 24.409447" fill-rule="evenodd"/><path stroke="#000000" stroke-width="1.0" stroke-linejoin="round" stroke-linecap="butt" d="m540.91144 88.079834l-31.728363 18.39151" fill-rule="evenodd"/><path fill="#000000" stroke="#000000" stroke-width="1.0" stroke-linecap="butt" d="m541.73975 89.50885l3.0978394 -3.7048492l-4.7545166 0.84682465z" fill-rule="evenodd"/><path fill="#000000" stroke="#000000" stroke-width="1.0" stroke-linecap="butt" d="m508.35477 105.04233l-3.0978699 3.7048492l4.7545166 -0.846817z" fill-rule="evenodd"/><path fill="#000000" fill-opacity="0.0" d="m583.5276 201.75328l-37.41736 -116.69292" fill-rule="evenodd"/><path stroke="#000000" stroke-width="1.0" stroke-linejoin="round" stroke-linecap="butt" d="m581.69556 196.03983l-33.753296 -105.26599" fill-rule="evenodd"/><path fill="#000000" stroke="#000000" stroke-width="1.0" stroke-linecap="butt" d="m580.1227 196.54414l2.958496 3.817047l0.18719482 -4.825714z" fill-rule="evenodd"/><path fill="#000000" stroke="#000000" stroke-width="1.0" stroke-linecap="butt" d="m549.5151 90.26951l-2.958496 -3.8170547l-0.18719482 4.825714z" fill-rule="evenodd"/><path fill="#000000" fill-opacity="0.0" d="m503.98163 170.5538l-69.00787 63.65355" fill-rule="evenodd"/><path stroke="#000000" stroke-width="1.0" stroke-linejoin="round" stroke-linecap="butt" d="m499.57135 174.6219l-60.187317 55.51735" fill-rule="evenodd"/><path fill="#000000" stroke="#000000" stroke-width="1.0" stroke-linecap="butt" d="m500.69125 175.836l2.2158203 -4.2910004l-4.4556274 1.862793z" fill-rule="evenodd"/><path fill="#000000" stroke="#000000" stroke-width="1.0" stroke-linecap="butt" d="m438.26413 228.92516l-2.2158203 4.2910004l4.4556274 -1.862793z" fill-rule="evenodd"/><path fill="#000000" fill-opacity="0.0" d="m375.17847 234.19685l-118.677155 -7.7480316" fill-rule="evenodd"/><path stroke="#000000" stroke-width="1.0" stroke-linejoin="round" stroke-linecap="butt" d="m369.19122 233.80595l-106.70267 -6.9662476" fill-rule="evenodd"/><path fill="#000000" stroke="#000000" stroke-width="1.0" stroke-linecap="butt" d="m369.08362 235.4542l4.636078 -1.3525848l-4.420868 -1.9438629z" fill-rule="evenodd"/><path fill="#000000" stroke="#000000" stroke-width="1.0" stroke-linecap="butt" d="m262.59616 225.19148l-4.6360474 1.3525696l4.4208374 1.9438782z" fill-rule="evenodd"/><path fill="#000000" fill-opacity="0.0" d="m267.91077 164.73228l36.75589 92.25197" fill-rule="evenodd"/><path stroke="#000000" stroke-width="1.0" stroke-linejoin="round" stroke-linecap="butt" d="m270.13156 170.30615l32.3143 81.10422" fill-rule="evenodd"/><path fill="#000000" stroke="#000000" stroke-width="1.0" stroke-linecap="butt" d="m271.666 169.6948l-3.2141113 -3.6044312l0.14526367 4.8271484z" fill-rule="evenodd"/><path fill="#000000" stroke="#000000" stroke-width="1.0" stroke-linecap="butt" d="m300.91144 252.02174l3.2141418 3.6044312l-0.14529419 -4.8271637z" fill-rule="evenodd"/><path fill="#000000" fill-opacity="0.0" d="m226.60892 257.0l-30.141724 70.897644" fill-rule="evenodd"/><path stroke="#000000" stroke-width="1.0" stroke-linejoin="round" stroke-linecap="butt" d="m224.2614 262.5217l-25.446686 59.854248" fill-rule="evenodd"/><path fill="#000000" stroke="#000000" stroke-width="1.0" stroke-linecap="butt" d="m225.78146 263.16794l0.25549316 -4.822571l-3.2956085 3.5300903z" fill-rule="evenodd"/><path fill="#000000" stroke="#000000" stroke-width="1.0" stroke-linecap="butt" d="m197.29465 321.7297l-0.2554779 4.822571l3.2956085 -3.5300903z" fill-rule="evenodd"/><path fill="#000000" fill-opacity="0.0" d="m405.06824 264.73227l-22.330719 63.149628" fill-rule="evenodd"/><path stroke="#000000" stroke-width="1.0" stroke-linejoin="round" stroke-linecap="butt" d="m403.0679 270.38904l-18.330048 51.83612" fill-rule="evenodd"/><path fill="#000000" stroke="#000000" stroke-width="1.0" stroke-linecap="butt" d="m404.62515 270.9397l-0.044281006 -4.829132l-3.0701904 3.7277832z" fill-rule="evenodd"/><path fill="#000000" stroke="#000000" stroke-width="1.0" stroke-linecap="butt" d="m383.1806 321.67447l0.044311523 4.8291626l3.07016 -3.7278137z" fill-rule="evenodd"/><path fill="#000000" fill-opacity="0.0" d="m226.36482 358.42258l126.488205 0" fill-rule="evenodd"/><path stroke="#000000" stroke-width="1.0" stroke-linejoin="round" stroke-linecap="butt" d="m232.36482 358.42258l114.488205 0" fill-rule="evenodd"/><path fill="#000000" stroke="#000000" stroke-width="1.0" stroke-linecap="butt" d="m232.36482 356.77084l-4.538086 1.6517334l4.538086 1.6517334z" fill-rule="evenodd"/><path fill="#000000" stroke="#000000" stroke-width="1.0" stroke-linecap="butt" d="m346.85303 360.0743l4.538086 -1.6517334l-4.538086 -1.6517334z" fill-rule="evenodd"/><path fill="#000000" fill-opacity="0.0" d="m583.5276 262.82416l-69.88977 45.480316" fill-rule="evenodd"/><path stroke="#000000" stroke-width="1.0" stroke-linejoin="round" stroke-linecap="butt" d="m578.4986 266.0967l-59.83185 38.93521" fill-rule="evenodd"/><path fill="#000000" stroke="#000000" stroke-width="1.0" stroke-linecap="butt" d="m579.3995 267.4811l2.902771 -3.8595886l-4.704529 1.0907593z" fill-rule="evenodd"/><path fill="#000000" stroke="#000000" stroke-width="1.0" stroke-linecap="butt" d="m517.76587 303.6475l-2.902771 3.8596191l4.704529 -1.0907898z" fill-rule="evenodd"/><path fill="#000000" fill-opacity="0.0" d="m483.73227 338.84515l-71.08661 19.590546" fill-rule="evenodd"/><path stroke="#000000" stroke-width="1.0" stroke-linejoin="round" stroke-linecap="butt" d="m477.9479 340.43924l-59.517883 16.402374" fill-rule="evenodd"/><path fill="#000000" stroke="#000000" stroke-width="1.0" stroke-linecap="butt" d="m478.38675 342.03162l3.9361572 -2.7980652l-4.8138123 -0.38668823z" fill-rule="evenodd"/><path fill="#000000" stroke="#000000" stroke-width="1.0" stroke-linecap="butt" d="m417.9912 355.24924l-3.9361877 2.7980652l4.813843 0.3866577z" fill-rule="evenodd"/><path fill="#000000" fill-opacity="0.0" d="m373.43832 140.50656l180.189 91.779526" fill-rule="evenodd"/><path stroke="#000000" stroke-width="1.0" stroke-linejoin="round" stroke-linecap="butt" d="m378.78473 143.22977l169.49615 86.33313" fill-rule="evenodd"/><path fill="#000000" stroke="#000000" stroke-width="1.0" stroke-linecap="butt" d="m379.5344 141.75797l-4.7934265 -0.5878906l3.294098 3.5314941z" fill-rule="evenodd"/><path fill="#000000" stroke="#000000" stroke-width="1.0" stroke-linecap="butt" d="m547.5312 231.0347l4.793457 0.58787537l-3.2940674 -3.5314941z" fill-rule="evenodd"/><path fill="#000000" fill-opacity="0.0" d="m226.60892 195.92914l-44.724396 -110.86614" fill-rule="evenodd"/><path stroke="#000000" stroke-width="1.0" stroke-linejoin="round" stroke-linecap="butt" d="m224.36423 190.36482l-40.23503 -99.73753" fill-rule="evenodd"/><path fill="#000000" stroke="#000000" stroke-width="1.0" stroke-linecap="butt" d="m222.83244 190.98277l3.2295685 3.590622l-0.1659851 -4.8264923z" fill-rule="evenodd"/><path fill="#000000" stroke="#000000" stroke-width="1.0" stroke-linecap="butt" d="m185.661 90.00935l-3.2295685 -3.590622l0.1659851 4.8264923z" fill-rule="evenodd"/><path fill="#000000" fill-opacity="0.0" d="m304.6719 318.0551l-78.29921 40.37796" fill-rule="evenodd"/><path stroke="#000000" stroke-width="1.0" stroke-linejoin="round" stroke-linecap="butt" d="m299.33923 320.8051l-67.63385 34.87796" fill-rule="evenodd"/><path fill="#000000" stroke="#000000" stroke-width="1.0" stroke-linecap="butt" d="m300.09628 322.27313l3.2763367 -3.5479736l-4.790436 0.6119385z" fill-rule="evenodd"/><path fill="#000000" stroke="#000000" stroke-width="1.0" stroke-linecap="butt" d="m230.94835 354.21506l-3.2763367 3.5479736l4.7904205 -0.6119385z" fill-rule="evenodd"/><path fill="#000000" fill-opacity="0.0" d="m405.06824 264.73227l108.566956 43.590576" fill-rule="evenodd"/><path stroke="#000000" stroke-width="1.0" stroke-linejoin="round" stroke-linecap="butt" d="m410.6362 266.96786l97.43103 39.119385" fill-rule="evenodd"/><path fill="#000000" stroke="#000000" stroke-width="1.0" stroke-linecap="butt" d="m411.25162 265.43506l-4.8267517 -0.15808105l3.5959167 3.2236938z" fill-rule="evenodd"/><path fill="#000000" stroke="#000000" stroke-width="1.0" stroke-linecap="butt" d="m507.45178 307.62006l4.826782 0.15808105l-3.5959167 -3.2236938z" fill-rule="evenodd"/><path fill="#d5a6bd" d="m46.5853 437.1391l59.77953 0l0 61.07086l-59.77953 0z" fill-rule="evenodd"/><path fill="#000000" fill-opacity="0.0" d="m47.50656 420.24408l701.7323 3.7480469" fill-rule="evenodd"/><path stroke="#000000" stroke-width="1.0" stroke-linejoin="round" stroke-linecap="butt" d="m47.50656 420.24408l701.7323 3.7480469" fill-rule="evenodd"/><path fill="#cfe2f3" d="m68.67979 515.105l15.590553 0l0 38.92914l-15.590553 0z" fill-rule="evenodd"/><path stroke="#000000" stroke-width="1.0" stroke-linejoin="round" stroke-linecap="butt" d="m68.67979 515.105l15.590553 0l0 38.92914l-15.590553 0z" fill-rule="evenodd"/><path fill="#000000" fill-opacity="0.0" d="m71.72876 522.1056l8.755905 0.62994385" fill-rule="evenodd"/><path stroke="#000000" stroke-width="3.0" stroke-linejoin="round" stroke-linecap="butt" d="m71.72876 522.1056l8.755905 0.62994385" fill-rule="evenodd"/><path fill="#000000" fill-opacity="0.0" d="m71.72876 533.342l8.755905 0.6298828" fill-rule="evenodd"/><path stroke="#000000" stroke-width="3.0" stroke-linejoin="round" stroke-linecap="butt" d="m71.72876 533.342l8.755905 0.6298828" fill-rule="evenodd"/><path fill="#000000" fill-opacity="0.0" d="m71.72876 544.5783l8.755905 0.62994385" fill-rule="evenodd"/><path stroke="#000000" stroke-width="3.0" stroke-linejoin="round" stroke-linecap="butt" d="m71.72876 544.5783l8.755905 0.62994385" fill-rule="evenodd"/><path fill="#cfe2f3" d="m203.74278 62.787403l15.590546 0l0 38.929134l-15.590546 0z" fill-rule="evenodd"/><path stroke="#000000" stroke-width="1.0" stroke-linejoin="round" stroke-linecap="butt" d="m203.74278 62.787403l15.590546 0l0 38.929134l-15.590546 0z" fill-rule="evenodd"/><path fill="#000000" fill-opacity="0.0" d="m206.79175 69.78801l8.755905 0.62992096" fill-rule="evenodd"/><path stroke="#000000" stroke-width="3.0" stroke-linejoin="round" stroke-linecap="butt" d="m206.79175 69.78801l8.755905 0.62992096" fill-rule="evenodd"/><path fill="#000000" fill-opacity="0.0" d="m206.79175 81.024376l8.755905 0.62992096" fill-rule="evenodd"/><path stroke="#000000" stroke-width="3.0" stroke-linejoin="round" stroke-linecap="butt" d="m206.79175 81.024376l8.755905 0.62992096" fill-rule="evenodd"/><path fill="#000000" fill-opacity="0.0" d="m206.79175 92.260735l8.755905 0.62992096" fill-rule="evenodd"/><path stroke="#000000" stroke-width="3.0" stroke-linejoin="round" stroke-linecap="butt" d="m206.79175 92.260735l8.755905 0.62992096" fill-rule="evenodd"/><path fill="#cfe2f3" d="m567.937 54.535435l15.590576 0l0 38.929134l-15.590576 0z" fill-rule="evenodd"/><path stroke="#000000" stroke-width="1.0" stroke-linejoin="round" stroke-linecap="butt" d="m567.937 54.535435l15.590576 0l0 38.929134l-15.590576 0z" fill-rule="evenodd"/><path fill="#000000" fill-opacity="0.0" d="m570.98596 61.53604l8.75592 0.62992096" fill-rule="evenodd"/><path stroke="#000000" stroke-width="3.0" stroke-linejoin="round" stroke-linecap="butt" d="m570.98596 61.53604l8.75592 0.62992096" fill-rule="evenodd"/><path fill="#000000" fill-opacity="0.0" d="m570.98596 72.77241l8.75592 0.62992096" fill-rule="evenodd"/><path stroke="#000000" stroke-width="3.0" stroke-linejoin="round" stroke-linecap="butt" d="m570.98596 72.77241l8.75592 0.62992096" fill-rule="evenodd"/><path fill="#000000" fill-opacity="0.0" d="m570.98596 84.008766l8.75592 0.62992096" fill-rule="evenodd"/><path stroke="#000000" stroke-width="3.0" stroke-linejoin="round" stroke-linecap="butt" d="m570.98596 84.008766l8.75592 0.62992096" fill-rule="evenodd"/><path fill="#cfe2f3" d="m603.6168 238.91864l15.590515 0l0 38.92914l-15.590515 0z" fill-rule="evenodd"/><path stroke="#000000" stroke-width="1.0" stroke-linejoin="round" stroke-linecap="butt" d="m603.6168 238.91864l15.590515 0l0 38.92914l-15.590515 0z" fill-rule="evenodd"/><path fill="#000000" fill-opacity="0.0" d="m606.6658 245.91925l8.75592 0.62991333" fill-rule="evenodd"/><path stroke="#000000" stroke-width="3.0" stroke-linejoin="round" stroke-linecap="butt" d="m606.6658 245.91925l8.75592 0.62991333" fill-rule="evenodd"/><path fill="#000000" fill-opacity="0.0" d="m606.6658 257.1556l8.75592 0.62991333" fill-rule="evenodd"/><path stroke="#000000" stroke-width="3.0" stroke-linejoin="round" stroke-linecap="butt" d="m606.6658 257.1556l8.75592 0.62991333" fill-rule="evenodd"/><path fill="#000000" fill-opacity="0.0" d="m606.6658 268.39197l8.75592 0.62991333" fill-rule="evenodd"/><path stroke="#000000" stroke-width="3.0" stroke-linejoin="round" stroke-linecap="butt" d="m606.6658 268.39197l8.75592 0.62991333" fill-rule="evenodd"/><path fill="#cfe2f3" d="m522.81104 150.04724l15.590515 0l0 38.92914l-15.590515 0z" fill-rule="evenodd"/><path stroke="#000000" stroke-width="1.0" stroke-linejoin="round" stroke-linecap="butt" d="m522.81104 150.04724l15.590515 0l0 38.92914l-15.590515 0z" fill-rule="evenodd"/><path fill="#000000" fill-opacity="0.0" d="m525.86 157.04785l8.75592 0.6299286" fill-rule="evenodd"/><path stroke="#000000" stroke-width="3.0" stroke-linejoin="round" stroke-linecap="butt" d="m525.86 157.04785l8.75592 0.6299286" fill-rule="evenodd"/><path fill="#000000" fill-opacity="0.0" d="m525.86 168.28421l8.75592 0.6299286" fill-rule="evenodd"/><path stroke="#000000" stroke-width="3.0" stroke-linejoin="round" stroke-linecap="butt" d="m525.86 168.28421l8.75592 0.6299286" fill-rule="evenodd"/><path fill="#000000" fill-opacity="0.0" d="m525.86 179.52058l8.75592 0.62991333" fill-rule="evenodd"/><path stroke="#000000" stroke-width="3.0" stroke-linejoin="round" stroke-linecap="butt" d="m525.86 179.52058l8.75592 0.62991333" fill-rule="evenodd"/><path fill="#cfe2f3" d="m397.02362 117.885826l15.590546 0l0 38.92913l-15.590546 0z" fill-rule="evenodd"/><path stroke="#000000" stroke-width="1.0" stroke-linejoin="round" stroke-linecap="butt" d="m397.02362 117.885826l15.590546 0l0 38.92913l-15.590546 0z" fill-rule="evenodd"/><path fill="#000000" fill-opacity="0.0" d="m400.0726 124.88644l8.75589 0.62992096" fill-rule="evenodd"/><path stroke="#000000" stroke-width="3.0" stroke-linejoin="round" stroke-linecap="butt" d="m400.0726 124.88644l8.75589 0.62992096" fill-rule="evenodd"/><path fill="#000000" fill-opacity="0.0" d="m400.0726 136.1228l8.75589 0.62991333" fill-rule="evenodd"/><path stroke="#000000" stroke-width="3.0" stroke-linejoin="round" stroke-linecap="butt" d="m400.0726 136.1228l8.75589 0.62991333" fill-rule="evenodd"/><path fill="#000000" fill-opacity="0.0" d="m400.0726 147.35916l8.75589 0.6299286" fill-rule="evenodd"/><path stroke="#000000" stroke-width="3.0" stroke-linejoin="round" stroke-linecap="butt" d="m400.0726 147.35916l8.75589 0.6299286" fill-rule="evenodd"/><path fill="#cfe2f3" d="m289.0761 147.35957l15.590546 0l0 38.92914l-15.590546 0z" fill-rule="evenodd"/><path stroke="#000000" stroke-width="1.0" stroke-linejoin="round" stroke-linecap="butt" d="m289.0761 147.35957l15.590546 0l0 38.92914l-15.590546 0z" fill-rule="evenodd"/><path fill="#000000" fill-opacity="0.0" d="m292.1251 154.36018l8.75589 0.6299286" fill-rule="evenodd"/><path stroke="#000000" stroke-width="3.0" stroke-linejoin="round" stroke-linecap="butt" d="m292.1251 154.36018l8.75589 0.6299286" fill-rule="evenodd"/><path fill="#000000" fill-opacity="0.0" d="m292.1251 165.59656l8.75589 0.62991333" fill-rule="evenodd"/><path stroke="#000000" stroke-width="3.0" stroke-linejoin="round" stroke-linecap="butt" d="m292.1251 165.59656l8.75589 0.62991333" fill-rule="evenodd"/><path fill="#000000" fill-opacity="0.0" d="m292.1251 176.83292l8.75589 0.62991333" fill-rule="evenodd"/><path stroke="#000000" stroke-width="3.0" stroke-linejoin="round" stroke-linecap="butt" d="m292.1251 176.83292l8.75589 0.62991333" fill-rule="evenodd"/><path fill="#cfe2f3" d="m423.7874 237.64174l15.590546 0l0 38.929123l-15.590546 0z" fill-rule="evenodd"/><path stroke="#000000" stroke-width="1.0" stroke-linejoin="round" stroke-linecap="butt" d="m423.7874 237.64174l15.590546 0l0 38.929123l-15.590546 0z" fill-rule="evenodd"/><path fill="#000000" fill-opacity="0.0" d="m426.83636 244.64233l8.75592 0.6299286" fill-rule="evenodd"/><path stroke="#000000" stroke-width="3.0" stroke-linejoin="round" stroke-linecap="butt" d="m426.83636 244.64233l8.75592 0.6299286" fill-rule="evenodd"/><path fill="#000000" fill-opacity="0.0" d="m426.83636 255.87871l8.75592 0.6299286" fill-rule="evenodd"/><path stroke="#000000" stroke-width="3.0" stroke-linejoin="round" stroke-linecap="butt" d="m426.83636 255.87871l8.75592 0.6299286" fill-rule="evenodd"/><path fill="#000000" fill-opacity="0.0" d="m426.83636 267.11508l8.75592 0.62991333" fill-rule="evenodd"/><path stroke="#000000" stroke-width="3.0" stroke-linejoin="round" stroke-linecap="butt" d="m426.83636 267.11508l8.75592 0.62991333" fill-rule="evenodd"/><path fill="#cfe2f3" d="m248.04199 233.31496l15.590546 0l0 38.929123l-15.590546 0z" fill-rule="evenodd"/><path stroke="#000000" stroke-width="1.0" stroke-linejoin="round" stroke-linecap="butt" d="m248.04199 233.31496l15.590546 0l0 38.929123l-15.590546 0z" fill-rule="evenodd"/><path fill="#000000" fill-opacity="0.0" d="m251.09096 240.31557l8.755905 0.6299286" fill-rule="evenodd"/><path stroke="#000000" stroke-width="3.0" stroke-linejoin="round" stroke-linecap="butt" d="m251.09096 240.31557l8.755905 0.6299286" fill-rule="evenodd"/><path fill="#000000" fill-opacity="0.0" d="m251.09096 251.55193l8.755905 0.6299286" fill-rule="evenodd"/><path stroke="#000000" stroke-width="3.0" stroke-linejoin="round" stroke-linecap="butt" d="m251.09096 251.55193l8.755905 0.6299286" fill-rule="evenodd"/><path fill="#000000" fill-opacity="0.0" d="m251.09096 262.7883l8.755905 0.62991333" fill-rule="evenodd"/><path stroke="#000000" stroke-width="3.0" stroke-linejoin="round" stroke-linecap="butt" d="m251.09096 262.7883l8.755905 0.62991333" fill-rule="evenodd"/><path fill="#cfe2f3" d="m218.81364 370.31628l15.590561 0l0 38.929108l-15.590561 0z" fill-rule="evenodd"/><path stroke="#000000" stroke-width="1.0" stroke-linejoin="round" stroke-linecap="butt" d="m218.81364 370.31628l15.590561 0l0 38.929108l-15.590561 0z" fill-rule="evenodd"/><path fill="#000000" fill-opacity="0.0" d="m221.86261 377.3169l8.755905 0.62991333" fill-rule="evenodd"/><path stroke="#000000" stroke-width="3.0" stroke-linejoin="round" stroke-linecap="butt" d="m221.86261 377.3169l8.755905 0.62991333" fill-rule="evenodd"/><path fill="#000000" fill-opacity="0.0" d="m221.86261 388.55325l8.755905 0.62991333" fill-rule="evenodd"/><path stroke="#000000" stroke-width="3.0" stroke-linejoin="round" stroke-linecap="butt" d="m221.86261 388.55325l8.755905 0.62991333" fill-rule="evenodd"/><path fill="#000000" fill-opacity="0.0" d="m221.86261 399.7896l8.755905 0.62991333" fill-rule="evenodd"/><path stroke="#000000" stroke-width="3.0" stroke-linejoin="round" stroke-linecap="butt" d="m221.86261 399.7896l8.755905 0.62991333" fill-rule="evenodd"/><path fill="#cfe2f3" d="m323.82678 288.95276l15.590546 0l0 38.92914l-15.590546 0z" fill-rule="evenodd"/><path stroke="#000000" stroke-width="1.0" stroke-linejoin="round" stroke-linecap="butt" d="m323.82678 288.95276l15.590546 0l0 38.92914l-15.590546 0z" fill-rule="evenodd"/><path fill="#000000" fill-opacity="0.0" d="m326.87573 295.95337l8.75592 0.62991333" fill-rule="evenodd"/><path stroke="#000000" stroke-width="3.0" stroke-linejoin="round" stroke-linecap="butt" d="m326.87573 295.95337l8.75592 0.62991333" fill-rule="evenodd"/><path fill="#000000" fill-opacity="0.0" d="m326.87573 307.18973l8.75592 0.62991333" fill-rule="evenodd"/><path stroke="#000000" stroke-width="3.0" stroke-linejoin="round" stroke-linecap="butt" d="m326.87573 307.18973l8.75592 0.62991333" fill-rule="evenodd"/><path fill="#000000" fill-opacity="0.0" d="m326.87573 318.4261l8.75592 0.62991333" fill-rule="evenodd"/><path stroke="#000000" stroke-width="3.0" stroke-linejoin="round" stroke-linecap="butt" d="m326.87573 318.4261l8.75592 0.62991333" fill-rule="evenodd"/><path fill="#cfe2f3" d="m403.33072 360.3281l15.590546 0l0 38.92914l-15.590546 0z" fill-rule="evenodd"/><path stroke="#000000" stroke-width="1.0" stroke-linejoin="round" stroke-linecap="butt" d="m403.33072 360.3281l15.590546 0l0 38.92914l-15.590546 0z" fill-rule="evenodd"/><path fill="#000000" fill-opacity="0.0" d="m406.37967 367.3287l8.75592 0.62991333" fill-rule="evenodd"/><path stroke="#000000" stroke-width="3.0" stroke-linejoin="round" stroke-linecap="butt" d="m406.37967 367.3287l8.75592 0.62991333" fill-rule="evenodd"/><path fill="#000000" fill-opacity="0.0" d="m406.37967 378.56506l8.75592 0.62991333" fill-rule="evenodd"/><path stroke="#000000" stroke-width="3.0" stroke-linejoin="round" stroke-linecap="butt" d="m406.37967 378.56506l8.75592 0.62991333" fill-rule="evenodd"/><path fill="#000000" fill-opacity="0.0" d="m406.37967 389.80142l8.75592 0.62991333" fill-rule="evenodd"/><path stroke="#000000" stroke-width="3.0" stroke-linejoin="round" stroke-linecap="butt" d="m406.37967 389.80142l8.75592 0.62991333" fill-rule="evenodd"/><path fill="#cfe2f3" d="m534.8609 344.80972l15.590515 0l0 38.929108l-15.590515 0z" fill-rule="evenodd"/><path stroke="#000000" stroke-width="1.0" stroke-linejoin="round" stroke-linecap="butt" d="m534.8609 344.80972l15.590515 0l0 38.929108l-15.590515 0z" fill-rule="evenodd"/><path fill="#000000" fill-opacity="0.0" d="m537.90985 351.81033l8.75592 0.62991333" fill-rule="evenodd"/><path stroke="#000000" stroke-width="3.0" stroke-linejoin="round" stroke-linecap="butt" d="m537.90985 351.81033l8.75592 0.62991333" fill-rule="evenodd"/><path fill="#000000" fill-opacity="0.0" d="m537.90985 363.0467l8.75592 0.62991333" fill-rule="evenodd"/><path stroke="#000000" stroke-width="3.0" stroke-linejoin="round" stroke-linecap="butt" d="m537.90985 363.0467l8.75592 0.62991333" fill-rule="evenodd"/><path fill="#000000" fill-opacity="0.0" d="m537.90985 374.28305l8.75592 0.62991333" fill-rule="evenodd"/><path stroke="#000000" stroke-width="3.0" stroke-linejoin="round" stroke-linecap="butt" d="m537.90985 374.28305l8.75592 0.62991333" fill-rule="evenodd"/><path fill="#000000" fill-opacity="0.0" d="m132.65617 448.16534l180.18898 0l0 43.590576l-180.18898 0z" fill-rule="evenodd"/><path fill="#000000" d="m146.90617 475.08536l-5.171875 -13.359375l1.921875 0l3.46875 9.703125q0.421875 1.171875 0.703125 2.1875q0.3125 -1.09375 0.71875 -2.1875l3.609375 -9.703125l1.796875 0l-5.234375 13.359375l-1.8125 0zm13.355026 -1.1875q-0.921875 0.765625 -1.765625 1.09375q-0.828125 0.3125 -1.796875 0.3125q-1.59375 0 -2.453125 -0.78125q-0.859375 -0.78125 -0.859375 -1.984375q0 -0.71875 0.328125 -1.296875q0.328125 -0.59375 0.84375 -0.9375q0.53125 -0.359375 1.1875 -0.546875q0.46875 -0.125 1.453125 -0.25q1.984375 -0.234375 2.921875 -0.5625q0.015625 -0.34375 0.015625 -0.421875q0 -1.0 -0.46875 -1.421875q-0.625 -0.546875 -1.875 -0.546875q-1.15625 0 -1.703125 0.40625q-0.546875 0.40625 -0.8125 1.421875l-1.609375 -0.21875q0.21875 -1.015625 0.71875 -1.640625q0.5 -0.640625 1.453125 -0.984375q0.953125 -0.34375 2.1875 -0.34375q1.25 0 2.015625 0.296875q0.78125 0.28125 1.140625 0.734375q0.375 0.4375 0.515625 1.109375q0.078125 0.421875 0.078125 1.515625l0 2.1875q0 2.28125 0.109375 2.890625q0.109375 0.59375 0.40625 1.15625l-1.703125 0q-0.265625 -0.515625 -0.328125 -1.1875zm-0.140625 -3.671875q-0.890625 0.375 -2.671875 0.625q-1.015625 0.140625 -1.4375 0.328125q-0.421875 0.1875 -0.65625 0.53125q-0.21875 0.34375 -0.21875 0.78125q0 0.65625 0.5 1.09375q0.5 0.4375 1.453125 0.4375q0.9375 0 1.671875 -0.40625q0.75 -0.421875 1.09375 -1.140625q0.265625 -0.5625 0.265625 -1.640625l0 -0.609375zm4.156967 4.859375l0 -13.359375l1.640625 0l0 13.359375l-1.640625 0zm4.191696 -11.46875l0 -1.890625l1.640625 0l0 1.890625l-1.640625 0zm0 11.46875l0 -9.671875l1.640625 0l0 9.671875l-1.640625 0zm10.410446 0l0 -1.21875q-0.90625 1.4375 -2.703125 1.4375q-1.15625 0 -2.125 -0.640625q-0.96875 -0.640625 -1.5 -1.78125q-0.53125 -1.140625 -0.53125 -2.625q0 -1.453125 0.484375 -2.625q0.484375 -1.1875 1.4375 -1.8125q0.96875 -0.625 2.171875 -0.625q0.875 0 1.546875 0.375q0.6875 0.359375 1.109375 0.953125l0 -4.796875l1.640625 0l0 13.359375l-1.53125 0zm-5.171875 -4.828125q0 1.859375 0.78125 2.78125q0.78125 0.921875 1.84375 0.921875q1.078125 0 1.828125 -0.875q0.75 -0.890625 0.75 -2.6875q0 -1.984375 -0.765625 -2.90625q-0.765625 -0.9375 -1.890625 -0.9375q-1.078125 0 -1.8125 0.890625q-0.734375 0.890625 -0.734375 2.8125zm15.594467 3.640625q-0.921875 0.765625 -1.765625 1.09375q-0.828125 0.3125 -1.796875 0.3125q-1.59375 0 -2.453125 -0.78125q-0.859375 -0.78125 -0.859375 -1.984375q0 -0.71875 0.328125 -1.296875q0.328125 -0.59375 0.84375 -0.9375q0.53125 -0.359375 1.1875 -0.546875q0.46875 -0.125 1.453125 -0.25q1.984375 -0.234375 2.921875 -0.5625q0.015625 -0.34375 0.015625 -0.421875q0 -1.0 -0.46875 -1.421875q-0.625 -0.546875 -1.875 -0.546875q-1.15625 0 -1.703125 0.40625q-0.546875 0.40625 -0.8125 1.421875l-1.609375 -0.21875q0.21875 -1.015625 0.71875 -1.640625q0.5 -0.640625 1.453125 -0.984375q0.953125 -0.34375 2.1875 -0.34375q1.25 0 2.015625 0.296875q0.78125 0.28125 1.140625 0.734375q0.375 0.4375 0.515625 1.109375q0.078125 0.421875 0.078125 1.515625l0 2.1875q0 2.28125 0.109375 2.890625q0.109375 0.59375 0.40625 1.15625l-1.703125 0q-0.265625 -0.515625 -0.328125 -1.1875zm-0.140625 -3.671875q-0.890625 0.375 -2.671875 0.625q-1.015625 0.140625 -1.4375 0.328125q-0.421875 0.1875 -0.65625 0.53125q-0.21875 0.34375 -0.21875 0.78125q0 0.65625 0.5 1.09375q0.5 0.4375 1.453125 0.4375q0.9375 0 1.671875 -0.40625q0.75 -0.421875 1.09375 -1.140625q0.265625 -0.5625 0.265625 -1.640625l0 -0.609375zm7.781967 3.390625l0.234375 1.453125q-0.6875 0.140625 -1.234375 0.140625q-0.890625 0 -1.390625 -0.28125q-0.484375 -0.28125 -0.6875 -0.734375q-0.203125 -0.46875 -0.203125 -1.9375l0 -5.578125l-1.203125 0l0 -1.265625l1.203125 0l0 -2.390625l1.625 -0.984375l0 3.375l1.65625 0l0 1.265625l-1.65625 0l0 5.671875q0 0.6875 0.078125 0.890625q0.09375 0.203125 0.28125 0.328125q0.203125 0.109375 0.578125 0.109375q0.265625 0 0.71875 -0.0625zm0.99580383 -3.375q0 -2.6875 1.484375 -3.96875q1.25 -1.078125 3.046875 -1.078125q2.0 0 3.265625 1.3125q1.265625 1.296875 1.265625 3.609375q0 1.859375 -0.5625 2.9375q-0.5625 1.0625 -1.640625 1.65625q-1.0625 0.59375 -2.328125 0.59375q-2.03125 0 -3.28125 -1.296875q-1.25 -1.3125 -1.25 -3.765625zm1.6875 0q0 1.859375 0.796875 2.796875q0.8125 0.921875 2.046875 0.921875q1.21875 0 2.03125 -0.921875q0.8125 -0.9375 0.8125 -2.84375q0 -1.796875 -0.8125 -2.71875q-0.8125 -0.921875 -2.03125 -0.921875q-1.234375 0 -2.046875 0.921875q-0.796875 0.90625 -0.796875 2.765625zm9.281967 4.84375l0 -9.671875l1.46875 0l0 1.46875q0.5625 -1.03125 1.03125 -1.359375q0.484375 -0.328125 1.0625 -0.328125q0.828125 0 1.6875 0.53125l-0.5625 1.515625q-0.609375 -0.359375 -1.203125 -0.359375q-0.546875 0 -0.96875 0.328125q-0.421875 0.328125 -0.609375 0.890625q-0.28125 0.875 -0.28125 1.921875l0 5.0625l-1.625 0z" fill-rule="nonzero"/><path fill="#000000" fill-opacity="0.0" d="m132.65617 512.16534l180.18898 0l0 43.590576l-180.18898 0z" fill-rule="evenodd"/><path fill="#000000" d="m143.01555 539.0853l0 -13.359375l1.78125 0l0 11.78125l6.5625 0l0 1.578125l-8.34375 0zm16.875717 -3.109375l1.6875 0.203125q-0.40625 1.484375 -1.484375 2.3125q-1.078125 0.8125 -2.765625 0.8125q-2.125 0 -3.375 -1.296875q-1.234375 -1.3125 -1.234375 -3.671875q0 -2.453125 1.25 -3.796875q1.265625 -1.34375 3.265625 -1.34375q1.9375 0 3.15625 1.328125q1.234375 1.3125 1.234375 3.703125q0 0.15625 0 0.4375l-7.21875 0q0.09375 1.59375 0.90625 2.453125q0.8125 0.84375 2.015625 0.84375q0.90625 0 1.546875 -0.46875q0.640625 -0.484375 1.015625 -1.515625zm-5.390625 -2.65625l5.40625 0q-0.109375 -1.21875 -0.625 -1.828125q-0.78125 -0.953125 -2.03125 -0.953125q-1.125 0 -1.90625 0.765625q-0.765625 0.75 -0.84375 2.015625zm15.406967 5.765625l0 -1.21875q-0.90625 1.4375 -2.703125 1.4375q-1.15625 0 -2.125 -0.640625q-0.96875 -0.640625 -1.5 -1.78125q-0.53125 -1.140625 -0.53125 -2.625q0 -1.453125 0.484375 -2.625q0.484375 -1.1875 1.4375 -1.8125q0.96875 -0.625 2.171875 -0.625q0.875 0 1.546875 0.375q0.6875 0.359375 1.109375 0.953125l0 -4.796875l1.640625 0l0 13.359375l-1.53125 0zm-5.171875 -4.828125q0 1.859375 0.78125 2.78125q0.78125 0.921875 1.84375 0.921875q1.078125 0 1.828125 -0.875q0.75 -0.890625 0.75 -2.6875q0 -1.984375 -0.765625 -2.90625q-0.765625 -0.9375 -1.890625 -0.9375q-1.078125 0 -1.8125 0.890625q-0.734375 0.890625 -0.734375 2.8125zm8.969467 5.625l1.59375 0.234375q0.109375 0.75 0.5625 1.078125q0.609375 0.453125 1.671875 0.453125q1.140625 0 1.75 -0.453125q0.625 -0.453125 0.84375 -1.265625q0.125 -0.5 0.109375 -2.109375q-1.0625 1.265625 -2.671875 1.265625q-2.0 0 -3.09375 -1.4375q-1.09375 -1.4375 -1.09375 -3.453125q0 -1.390625 0.5 -2.5625q0.515625 -1.171875 1.453125 -1.796875q0.953125 -0.640625 2.25 -0.640625q1.703125 0 2.8125 1.375l0 -1.15625l1.515625 0l0 8.359375q0 2.265625 -0.46875 3.203125q-0.453125 0.9375 -1.453125 1.484375q-0.984375 0.546875 -2.453125 0.546875q-1.71875 0 -2.796875 -0.78125q-1.0625 -0.765625 -1.03125 -2.34375zm1.359375 -5.8125q0 1.90625 0.75 2.78125q0.765625 0.875 1.90625 0.875q1.125 0 1.890625 -0.859375q0.765625 -0.875 0.765625 -2.734375q0 -1.78125 -0.796875 -2.671875q-0.78125 -0.90625 -1.890625 -0.90625q-1.09375 0 -1.859375 0.890625q-0.765625 0.875 -0.765625 2.625zm15.953842 1.90625l1.6875 0.203125q-0.40625 1.484375 -1.484375 2.3125q-1.078125 0.8125 -2.765625 0.8125q-2.125 0 -3.375 -1.296875q-1.234375 -1.3125 -1.234375 -3.671875q0 -2.453125 1.25 -3.796875q1.265625 -1.34375 3.265625 -1.34375q1.9375 0 3.15625 1.328125q1.234375 1.3125 1.234375 3.703125q0 0.15625 0 0.4375l-7.21875 0q0.09375 1.59375 0.90625 2.453125q0.8125 0.84375 2.015625 0.84375q0.90625 0 1.546875 -0.46875q0.640625 -0.484375 1.015625 -1.515625zm-5.390625 -2.65625l5.40625 0q-0.109375 -1.21875 -0.625 -1.828125q-0.78125 -0.953125 -2.03125 -0.953125q-1.125 0 -1.90625 0.765625q-0.765625 0.75 -0.84375 2.015625zm9.125717 5.765625l0 -9.671875l1.46875 0l0 1.46875q0.5625 -1.03125 1.03125 -1.359375q0.484375 -0.328125 1.0625 -0.328125q0.828125 0 1.6875 0.53125l-0.5625 1.515625q-0.609375 -0.359375 -1.203125 -0.359375q-0.546875 0 -0.96875 0.328125q-0.421875 0.328125 -0.609375 0.890625q-0.28125 0.875 -0.28125 1.921875l0 5.0625l-1.625 0z" fill-rule="nonzero"/><path fill="#b6d7a8" d="m50.929134 73.40157l59.77953 0l0 61.07087l-59.77953 0z" fill-rule="evenodd"/><path fill="#b6d7a8" d="m50.929134 246.82283l59.77953 0l0 61.070877l-59.77953 0z" fill-rule="evenodd"/><path fill="#b6d7a8" d="m681.5276 73.40157l59.77948 0l0 61.07087l-59.77948 0z" fill-rule="evenodd"/><path fill="#b6d7a8" d="m677.0971 276.9685l59.77954 0l0 61.07086l-59.77954 0z" fill-rule="evenodd"/><path fill="#000000" fill-opacity="0.0" d="m152.0 54.535435l-41.291336 49.417324" fill-rule="evenodd"/><path stroke="#000000" stroke-width="1.0" stroke-linejoin="round" stroke-linecap="butt" d="m148.15283 59.139706l-33.597008 40.208782" fill-rule="evenodd"/><path fill="#000000" stroke="#000000" stroke-width="1.0" stroke-linecap="butt" d="m149.42033 60.198788l1.6423035 -4.541523l-4.177307 2.423359z" fill-rule="evenodd"/><path fill="#000000" stroke="#000000" stroke-width="1.0" stroke-linecap="butt" d="m113.28832 98.289406l-1.6422958 4.541519l4.177307 -2.4233627z" fill-rule="evenodd"/><path fill="#000000" fill-opacity="0.0" d="m196.71916 226.46457l-86.01575 -122.519684" fill-rule="evenodd"/><path stroke="#000000" stroke-width="1.0" stroke-linejoin="round" stroke-linecap="butt" d="m193.2716 221.55392l-79.12064 -112.6984" fill-rule="evenodd"/><path fill="#000000" stroke="#000000" stroke-width="1.0" stroke-linecap="butt" d="m191.91977 222.50299l3.9593964 2.765091l-1.2557068 -4.6632233z" fill-rule="evenodd"/><path fill="#000000" stroke="#000000" stroke-width="1.0" stroke-linecap="butt" d="m115.50281 107.906456l-3.9593964 -2.765091l1.2557068 4.663231z" fill-rule="evenodd"/><path fill="#000000" fill-opacity="0.0" d="m166.5853 358.42258l-55.87401 -81.07086" fill-rule="evenodd"/><path stroke="#000000" stroke-width="1.0" stroke-linejoin="round" stroke-linecap="butt" d="m163.18042 353.48224l-49.064255 -71.190216" fill-rule="evenodd"/><path fill="#000000" stroke="#000000" stroke-width="1.0" stroke-linecap="butt" d="m161.82042 354.41956l3.9352875 2.7993164l-1.2152557 -4.67395z" fill-rule="evenodd"/><path fill="#000000" stroke="#000000" stroke-width="1.0" stroke-linecap="butt" d="m115.47617 281.3547l-3.9352875 -2.799286l1.2152557 4.67395z" fill-rule="evenodd"/><path fill="#000000" fill-opacity="0.0" d="m196.71916 226.46457l-86.01575 50.897644" fill-rule="evenodd"/><path stroke="#000000" stroke-width="1.0" stroke-linejoin="round" stroke-linecap="butt" d="m191.55545 229.52005l-75.688324 44.786682" fill-rule="evenodd"/><path fill="#000000" stroke="#000000" stroke-width="1.0" stroke-linecap="butt" d="m192.39659 230.94157l3.0644226 -3.7325287l-4.746704 0.8895111z" fill-rule="evenodd"/><path fill="#000000" stroke="#000000" stroke-width="1.0" stroke-linecap="butt" d="m115.02598 272.8852l-3.0644226 3.732544l4.7467117 -0.88952637z" fill-rule="evenodd"/><path fill="#000000" fill-opacity="0.0" d="m575.7323 54.535435l105.79529 49.417324" fill-rule="evenodd"/><path stroke="#000000" stroke-width="1.0" stroke-linejoin="round" stroke-linecap="butt" d="m581.16846 57.074696l94.92291 44.338802" fill-rule="evenodd"/><path fill="#000000" stroke="#000000" stroke-width="1.0" stroke-linecap="butt" d="m581.8675 55.578175l-4.810669 -0.42404938l3.4125977 3.4170914z" fill-rule="evenodd"/><path fill="#000000" stroke="#000000" stroke-width="1.0" stroke-linecap="butt" d="m675.39233 102.91002l4.810669 0.42404175l-3.4125977 -3.4170914z" fill-rule="evenodd"/><path fill="#000000" fill-opacity="0.0" d="m575.7323 54.535435l101.35431 252.97638" fill-rule="evenodd"/><path stroke="#000000" stroke-width="1.0" stroke-linejoin="round" stroke-linecap="butt" d="m577.96375 60.10505l96.89142 241.83716" fill-rule="evenodd"/><path fill="#000000" stroke="#000000" stroke-width="1.0" stroke-linecap="butt" d="m579.497 59.490753l-3.2210083 -3.5982819l0.15447998 4.82687z" fill-rule="evenodd"/><path fill="#000000" stroke="#000000" stroke-width="1.0" stroke-linecap="butt" d="m673.3219 302.5565l3.2210083 3.598297l-0.15447998 -4.826874z" fill-rule="evenodd"/><path fill="#000000" fill-opacity="0.0" d="m542.6562 344.80972l134.45667 -37.29135" fill-rule="evenodd"/><path stroke="#000000" stroke-width="1.0" stroke-linejoin="round" stroke-linecap="butt" d="m548.4379 343.20615l122.89319 -34.08423" fill-rule="evenodd"/><path fill="#000000" stroke="#000000" stroke-width="1.0" stroke-linecap="butt" d="m547.99646 341.6145l-3.9315796 2.8045044l4.814453 0.37878418z" fill-rule="evenodd"/><path fill="#000000" stroke="#000000" stroke-width="1.0" stroke-linecap="butt" d="m671.7726 310.7136l3.9315796 -2.8045044l-4.814514 -0.3788147z" fill-rule="evenodd"/><path fill="#b6d7a8" d="m46.217846 570.9278l59.77953 0l0 61.07086l-59.77953 0z" fill-rule="evenodd"/><path fill="#000000" fill-opacity="0.0" d="m132.65617 576.16534l180.18898 0l0 43.590576l-180.18898 0z" fill-rule="evenodd"/><path fill="#000000" d="m142.49992 598.78845l1.65625 -0.140625q0.125 1.0 0.546875 1.640625q0.4375 0.640625 1.34375 1.046875q0.921875 0.390625 2.0625 0.390625q1.0 0 1.78125 -0.296875q0.78125 -0.296875 1.15625 -0.8125q0.375 -0.53125 0.375 -1.15625q0 -0.625 -0.375 -1.09375q-0.359375 -0.46875 -1.1875 -0.796875q-0.546875 -0.203125 -2.390625 -0.640625q-1.828125 -0.453125 -2.5625 -0.84375q-0.96875 -0.5 -1.4375 -1.234375q-0.46875 -0.75 -0.46875 -1.671875q0 -1.0 0.578125 -1.875q0.578125 -0.890625 1.671875 -1.34375q1.109375 -0.453125 2.453125 -0.453125q1.484375 0 2.609375 0.484375q1.140625 0.46875 1.75 1.40625q0.609375 0.921875 0.65625 2.09375l-1.6875 0.125q-0.140625 -1.265625 -0.9375 -1.90625q-0.78125 -0.65625 -2.3125 -0.65625q-1.609375 0 -2.34375 0.59375q-0.734375 0.59375 -0.734375 1.421875q0 0.71875 0.53125 1.171875q0.5 0.46875 2.65625 0.96875q2.15625 0.484375 2.953125 0.84375q1.171875 0.53125 1.71875 1.359375q0.5625 0.828125 0.5625 1.90625q0 1.0625 -0.609375 2.015625q-0.609375 0.9375 -1.75 1.46875q-1.140625 0.515625 -2.578125 0.515625q-1.8125 0 -3.046875 -0.53125q-1.21875 -0.53125 -1.921875 -1.59375q-0.6875 -1.0625 -0.71875 -2.40625zm12.224823 -0.546875q0 -2.6875 1.484375 -3.96875q1.25 -1.078125 3.046875 -1.078125q2.0 0 3.265625 1.3125q1.265625 1.296875 1.265625 3.609375q0 1.859375 -0.5625 2.9375q-0.5625 1.0625 -1.640625 1.65625q-1.0625 0.59375 -2.328125 0.59375q-2.03125 0 -3.28125 -1.296875q-1.25 -1.3125 -1.25 -3.765625zm1.6875 0q0 1.859375 0.796875 2.796875q0.8125 0.921875 2.046875 0.921875q1.21875 0 2.03125 -0.921875q0.8125 -0.9375 0.8125 -2.84375q0 -1.796875 -0.8125 -2.71875q-0.8125 -0.921875 -2.03125 -0.921875q-1.234375 0 -2.046875 0.921875q-0.796875 0.90625 -0.796875 2.765625zm9.250717 4.84375l0 -13.359375l1.640625 0l0 13.359375l-1.640625 0zm3.5823212 -4.84375q0 -2.6875 1.484375 -3.96875q1.25 -1.078125 3.046875 -1.078125q2.0 0 3.265625 1.3125q1.265625 1.296875 1.265625 3.609375q0 1.859375 -0.5625 2.9375q-0.5625 1.0625 -1.640625 1.65625q-1.0625 0.59375 -2.328125 0.59375q-2.03125 0 -3.28125 -1.296875q-1.25 -1.3125 -1.25 -3.765625zm1.6875 0q0 1.859375 0.796875 2.796875q0.8125 0.921875 2.046875 0.921875q1.21875 0 2.03125 -0.921875q0.8125 -0.9375 0.8125 -2.84375q0 -1.796875 -0.8125 -2.71875q-0.8125 -0.921875 -2.03125 -0.921875q-1.234375 0 -2.046875 0.921875q-0.796875 0.90625 -0.796875 2.765625zm14.668396 4.84375l0 -13.359375l1.8125 0l7.015625 10.484375l0 -10.484375l1.6875 0l0 13.359375l-1.8125 0l-7.015625 -10.5l0 10.5l-1.6875 0zm12.676071 -4.84375q0 -2.6875 1.484375 -3.96875q1.25 -1.078125 3.046875 -1.078125q2.0 0 3.265625 1.3125q1.265625 1.296875 1.265625 3.609375q0 1.859375 -0.5625 2.9375q-0.5625 1.0625 -1.640625 1.65625q-1.0625 0.59375 -2.328125 0.59375q-2.03125 0 -3.28125 -1.296875q-1.25 -1.3125 -1.25 -3.765625zm1.6875 0q0 1.859375 0.796875 2.796875q0.8125 0.921875 2.046875 0.921875q1.21875 0 2.03125 -0.921875q0.8125 -0.9375 0.8125 -2.84375q0 -1.796875 -0.8125 -2.71875q-0.8125 -0.921875 -2.03125 -0.921875q-1.234375 0 -2.046875 0.921875q-0.796875 0.90625 -0.796875 2.765625zm15.563217 4.84375l0 -1.21875q-0.90625 1.4375 -2.703125 1.4375q-1.15625 0 -2.125 -0.640625q-0.96875 -0.640625 -1.5 -1.78125q-0.53125 -1.140625 -0.53125 -2.625q0 -1.453125 0.484375 -2.625q0.484375 -1.1875 1.4375 -1.8125q0.96875 -0.625 2.171875 -0.625q0.875 0 1.546875 0.375q0.6875 0.359375 1.109375 0.953125l0 -4.796875l1.640625 0l0 13.359375l-1.53125 0zm-5.171875 -4.828125q0 1.859375 0.78125 2.78125q0.78125 0.921875 1.84375 0.921875q1.078125 0 1.828125 -0.875q0.75 -0.890625 0.75 -2.6875q0 -1.984375 -0.765625 -2.90625q-0.765625 -0.9375 -1.890625 -0.9375q-1.078125 0 -1.8125 0.890625q-0.734375 0.890625 -0.734375 2.8125zm15.906967 1.71875l1.6875 0.203125q-0.40625 1.484375 -1.484375 2.3125q-1.078125 0.8125 -2.765625 0.8125q-2.125 0 -3.375 -1.296875q-1.234375 -1.3125 -1.234375 -3.671875q0 -2.453125 1.25 -3.796875q1.265625 -1.34375 3.265625 -1.34375q1.9375 0 3.15625 1.328125q1.234375 1.3125 1.234375 3.703125q0 0.15625 0 0.4375l-7.21875 0q0.09375 1.59375 0.90625 2.453125q0.8125 0.84375 2.015625 0.84375q0.90625 0 1.546875 -0.46875q0.640625 -0.484375 1.015625 -1.515625zm-5.390625 -2.65625l5.40625 0q-0.109375 -1.21875 -0.625 -1.828125q-0.78125 -0.953125 -2.03125 -0.953125q-1.125 0 -1.90625 0.765625q-0.765625 0.75 -0.84375 2.015625z" fill-rule="nonzero"/></g></svg>