<svg version="1.1" viewBox="0.0 0.0 536.2309711286089 564.6876640419947" fill="none" stroke="none" stroke-linecap="square" stroke-miterlimit="10" xmlns:xlink="http://www.w3.org/1999/xlink" xmlns="http://www.w3.org/2000/svg"><clipPath id="p.0"><path d="m0 0l536.23096 0l0 564.6877l-536.23096 0l0 -564.6877z" clip-rule="nonzero"/></clipPath><g clip-path="url(#p.0)"><path fill="#000000" fill-opacity="0.0" d="m0 0l536.23096 0l0 564.6877l-536.23096 0z" fill-rule="evenodd"/><path fill="#d5a6bd" d="m32.0 24.0l59.779526 0l0 61.07087l-59.779526 0z" fill-rule="evenodd"/><path fill="#d5a6bd" d="m223.54855 79.43569l59.77954 0l0 61.07087l-59.77954 0z" fill-rule="evenodd"/><path fill="#d5a6bd" d="m76.71916 195.92914l59.779526 0l0 61.07086l-59.779526 0z" fill-rule="evenodd"/><path fill="#d5a6bd" d="m433.6378 201.75328l59.77954 0l0 61.070877l-59.77954 0z" fill-rule="evenodd"/><path fill="#d5a6bd" d="m396.2126 24.0l59.77954 0l0 61.07087l-59.77954 0z" fill-rule="evenodd"/><path fill="#d5a6bd" d="m232.85039 327.88715l59.779526 0l0 61.07086l-59.779526 0z" fill-rule="evenodd"/><path fill="#d5a6bd" d="m46.5853 327.88715l59.77953 0l0 61.07086l-59.77953 0z" fill-rule="evenodd"/><path fill="#d5a6bd" d="m255.17848 203.66142l59.779526 0l0 61.070847l-59.779526 0z" fill-rule="evenodd"/><path fill="#d5a6bd" d="m118.020996 103.661415l59.779526 0l0 61.07087l-59.779526 0z" fill-rule="evenodd"/><path fill="#d5a6bd" d="m354.09186 109.48294l59.77954 0l0 61.07086l-59.77954 0z" fill-rule="evenodd"/><path fill="#d5a6bd" d="m363.73227 308.30972l59.77954 0l0 61.07086l-59.77954 0z" fill-rule="evenodd"/><path fill="#d5a6bd" d="m154.78215 256.98425l59.779526 0l0 61.07086l-59.779526 0z" fill-rule="evenodd"/><path fill="#000000" fill-opacity="0.0" d="m61.889763 85.07087l56.125984 49.133858" fill-rule="evenodd"/><path stroke="#000000" stroke-width="1.0" stroke-linejoin="round" stroke-linecap="butt" d="m66.40428 89.022964l47.096947 41.22966" fill-rule="evenodd"/><path fill="#000000" stroke="#000000" stroke-width="1.0" stroke-linecap="butt" d="m67.49225 87.780174l-4.5025215 -1.746376l2.3265877 4.231964z" fill-rule="evenodd"/><path fill="#000000" stroke="#000000" stroke-width="1.0" stroke-linecap="butt" d="m112.41326 131.49542l4.5025253 1.7463684l-2.3265839 -4.231964z" fill-rule="evenodd"/><path fill="#000000" fill-opacity="0.0" d="m147.91077 164.73228l-41.291344 31.2126" fill-rule="evenodd"/><path stroke="#000000" stroke-width="1.0" stroke-linejoin="round" stroke-linecap="butt" d="m143.12437 168.35036l-31.718567 23.97644" fill-rule="evenodd"/><path fill="#000000" stroke="#000000" stroke-width="1.0" stroke-linecap="butt" d="m144.12039 169.668l2.6241608 -4.0541687l-4.6161957 1.4188995z" fill-rule="evenodd"/><path fill="#000000" stroke="#000000" stroke-width="1.0" stroke-linecap="butt" d="m110.40979 191.00916l-2.6241608 4.054184l4.6161957 -1.4188995z" fill-rule="evenodd"/><path fill="#000000" fill-opacity="0.0" d="m396.2126 54.535435l-304.44092 0" fill-rule="evenodd"/><path stroke="#000000" stroke-width="1.0" stroke-linejoin="round" stroke-linecap="butt" d="m390.2126 54.535435l-292.44092 0" fill-rule="evenodd"/><path fill="#000000" stroke="#000000" stroke-width="1.0" stroke-linecap="butt" d="m390.2126 56.187164l4.5381165 -1.6517296l-4.5381165 -1.6517334z" fill-rule="evenodd"/><path fill="#000000" stroke="#000000" stroke-width="1.0" stroke-linecap="butt" d="m97.77165 52.8837l-4.5380936 1.6517334l4.5380936 1.6517296z" fill-rule="evenodd"/><path fill="#000000" fill-opacity="0.0" d="m223.54855 109.97113l-45.76378 24.220474" fill-rule="evenodd"/><path stroke="#000000" stroke-width="1.0" stroke-linejoin="round" stroke-linecap="butt" d="m218.24547 112.77779l-35.157608 18.607162" fill-rule="evenodd"/><path fill="#000000" stroke="#000000" stroke-width="1.0" stroke-linecap="butt" d="m219.01811 114.23766l3.2383423 -3.582695l-4.783615 0.66293335z" fill-rule="evenodd"/><path fill="#000000" stroke="#000000" stroke-width="1.0" stroke-linecap="butt" d="m182.31522 129.92506l-3.2383423 3.5826874l4.7836304 -0.66293335z" fill-rule="evenodd"/><path fill="#000000" fill-opacity="0.0" d="m147.91077 164.73228l137.16534 38.92914" fill-rule="evenodd"/><path stroke="#000000" stroke-width="1.0" stroke-linejoin="round" stroke-linecap="butt" d="m153.6828 166.37045l125.62128 35.6528" fill-rule="evenodd"/><path fill="#000000" stroke="#000000" stroke-width="1.0" stroke-linecap="butt" d="m154.13377 164.78148l-4.8166504 0.34994507l3.9147034 2.828003z" fill-rule="evenodd"/><path fill="#000000" stroke="#000000" stroke-width="1.0" stroke-linecap="butt" d="m278.85312 203.61223l4.8166504 -0.34994507l-3.914734 -2.8280182z" fill-rule="evenodd"/><path fill="#000000" fill-opacity="0.0" d="m396.2126 54.535435l-112.88187 55.43307" fill-rule="evenodd"/><path stroke="#000000" stroke-width="1.0" stroke-linejoin="round" stroke-linecap="butt" d="m390.82693 57.180176l-102.110565 50.143585" fill-rule="evenodd"/><path fill="#000000" stroke="#000000" stroke-width="1.0" stroke-linecap="butt" d="m391.555 58.66279l3.345398 -3.4829636l-4.8015137 0.51774216z" fill-rule="evenodd"/><path fill="#000000" stroke="#000000" stroke-width="1.0" stroke-linecap="butt" d="m287.9883 105.84115l-3.345398 3.4829636l4.8015137 -0.51773834z" fill-rule="evenodd"/><path fill="#000000" fill-opacity="0.0" d="m426.10236 85.07087l-42.11023 24.409447" fill-rule="evenodd"/><path stroke="#000000" stroke-width="1.0" stroke-linejoin="round" stroke-linecap="butt" d="m420.9114 88.079834l-31.728333 18.39151" fill-rule="evenodd"/><path fill="#000000" stroke="#000000" stroke-width="1.0" stroke-linecap="butt" d="m421.73975 89.50885l3.0978394 -3.7048492l-4.7545166 0.84682465z" fill-rule="evenodd"/><path fill="#000000" stroke="#000000" stroke-width="1.0" stroke-linecap="butt" d="m388.35477 105.04233l-3.0978699 3.7048492l4.7545166 -0.846817z" fill-rule="evenodd"/><path fill="#000000" fill-opacity="0.0" d="m463.52756 201.75328l-37.417328 -116.69292" fill-rule="evenodd"/><path stroke="#000000" stroke-width="1.0" stroke-linejoin="round" stroke-linecap="butt" d="m461.69553 196.03983l-33.753265 -105.26599" fill-rule="evenodd"/><path fill="#000000" stroke="#000000" stroke-width="1.0" stroke-linecap="butt" d="m460.12268 196.54414l2.958496 3.817047l0.18722534 -4.825714z" fill-rule="evenodd"/><path fill="#000000" stroke="#000000" stroke-width="1.0" stroke-linecap="butt" d="m429.5151 90.26951l-2.958496 -3.8170547l-0.18722534 4.825714z" fill-rule="evenodd"/><path fill="#000000" fill-opacity="0.0" d="m383.98163 170.5538l-69.00787 63.65355" fill-rule="evenodd"/><path stroke="#000000" stroke-width="1.0" stroke-linejoin="round" stroke-linecap="butt" d="m379.57135 174.6219l-60.187317 55.51735" fill-rule="evenodd"/><path fill="#000000" stroke="#000000" stroke-width="1.0" stroke-linecap="butt" d="m380.69125 175.836l2.2158203 -4.2910004l-4.4556274 1.862793z" fill-rule="evenodd"/><path fill="#000000" stroke="#000000" stroke-width="1.0" stroke-linecap="butt" d="m318.26413 228.92516l-2.2158203 4.2910004l4.4556274 -1.862793z" fill-rule="evenodd"/><path fill="#000000" fill-opacity="0.0" d="m255.17848 234.19685l-118.67717 -7.7480316" fill-rule="evenodd"/><path stroke="#000000" stroke-width="1.0" stroke-linejoin="round" stroke-linecap="butt" d="m249.19124 233.80595l-106.70267 -6.9662476" fill-rule="evenodd"/><path fill="#000000" stroke="#000000" stroke-width="1.0" stroke-linecap="butt" d="m249.08362 235.4542l4.6360626 -1.3525848l-4.4208527 -1.9438629z" fill-rule="evenodd"/><path fill="#000000" stroke="#000000" stroke-width="1.0" stroke-linecap="butt" d="m142.59618 225.19148l-4.6360626 1.3525696l4.4208527 1.9438782z" fill-rule="evenodd"/><path fill="#000000" fill-opacity="0.0" d="m147.91077 164.73228l36.755905 92.25197" fill-rule="evenodd"/><path stroke="#000000" stroke-width="1.0" stroke-linejoin="round" stroke-linecap="butt" d="m150.13156 170.30615l32.3143 81.10422" fill-rule="evenodd"/><path fill="#000000" stroke="#000000" stroke-width="1.0" stroke-linecap="butt" d="m151.66599 169.6948l-3.2141266 -3.6044312l0.14527893 4.8271484z" fill-rule="evenodd"/><path fill="#000000" stroke="#000000" stroke-width="1.0" stroke-linecap="butt" d="m180.91145 252.02174l3.2141113 3.6044312l-0.14526367 -4.8271637z" fill-rule="evenodd"/><path fill="#000000" fill-opacity="0.0" d="m106.608925 257.0l-30.141731 70.897644" fill-rule="evenodd"/><path stroke="#000000" stroke-width="1.0" stroke-linejoin="round" stroke-linecap="butt" d="m104.2614 262.5217l-25.446686 59.854248" fill-rule="evenodd"/><path fill="#000000" stroke="#000000" stroke-width="1.0" stroke-linecap="butt" d="m105.78146 263.16794l0.25548553 -4.822571l-3.2956085 3.5300903z" fill-rule="evenodd"/><path fill="#000000" stroke="#000000" stroke-width="1.0" stroke-linecap="butt" d="m77.29465 321.7297l-0.2554779 4.822571l3.295601 -3.5300903z" fill-rule="evenodd"/><path fill="#000000" fill-opacity="0.0" d="m285.06824 264.73227l-22.330719 63.149628" fill-rule="evenodd"/><path stroke="#000000" stroke-width="1.0" stroke-linejoin="round" stroke-linecap="butt" d="m283.06793 270.38904l-18.330078 51.83612" fill-rule="evenodd"/><path fill="#000000" stroke="#000000" stroke-width="1.0" stroke-linecap="butt" d="m284.62515 270.9397l-0.044281006 -4.829132l-3.0701904 3.7277832z" fill-rule="evenodd"/><path fill="#000000" stroke="#000000" stroke-width="1.0" stroke-linecap="butt" d="m263.1806 321.67447l0.044311523 4.8291626l3.07016 -3.7278137z" fill-rule="evenodd"/><path fill="#000000" fill-opacity="0.0" d="m106.36483 358.42258l126.48818 0" fill-rule="evenodd"/><path stroke="#000000" stroke-width="1.0" stroke-linejoin="round" stroke-linecap="butt" d="m112.36483 358.42258l114.48818 0" fill-rule="evenodd"/><path fill="#000000" stroke="#000000" stroke-width="1.0" stroke-linecap="butt" d="m112.36483 356.77084l-4.538101 1.6517334l4.538101 1.6517334z" fill-rule="evenodd"/><path fill="#000000" stroke="#000000" stroke-width="1.0" stroke-linecap="butt" d="m226.85301 360.0743l4.538101 -1.6517334l-4.538101 -1.6517334z" fill-rule="evenodd"/><path fill="#000000" fill-opacity="0.0" d="m463.52756 262.82416l-69.88977 45.480316" fill-rule="evenodd"/><path stroke="#000000" stroke-width="1.0" stroke-linejoin="round" stroke-linecap="butt" d="m458.4986 266.0967l-59.83185 38.93521" fill-rule="evenodd"/><path fill="#000000" stroke="#000000" stroke-width="1.0" stroke-linecap="butt" d="m459.3995 267.4811l2.9027405 -3.8595886l-4.704529 1.0907593z" fill-rule="evenodd"/><path fill="#000000" stroke="#000000" stroke-width="1.0" stroke-linecap="butt" d="m397.76584 303.6475l-2.9027405 3.8596191l4.7045593 -1.0907898z" fill-rule="evenodd"/><path fill="#000000" fill-opacity="0.0" d="m363.73227 338.84515l-71.08661 19.590546" fill-rule="evenodd"/><path stroke="#000000" stroke-width="1.0" stroke-linejoin="round" stroke-linecap="butt" d="m357.9479 340.43924l-59.517883 16.402374" fill-rule="evenodd"/><path fill="#000000" stroke="#000000" stroke-width="1.0" stroke-linecap="butt" d="m358.38675 342.03162l3.9361572 -2.7980652l-4.8138123 -0.38668823z" fill-rule="evenodd"/><path fill="#000000" stroke="#000000" stroke-width="1.0" stroke-linecap="butt" d="m297.9912 355.24924l-3.9361877 2.7980652l4.813843 0.3866577z" fill-rule="evenodd"/><path fill="#000000" fill-opacity="0.0" d="m253.43832 140.50656l180.18896 91.779526" fill-rule="evenodd"/><path stroke="#000000" stroke-width="1.0" stroke-linejoin="round" stroke-linecap="butt" d="m258.78473 143.22977l169.49615 86.33313" fill-rule="evenodd"/><path fill="#000000" stroke="#000000" stroke-width="1.0" stroke-linecap="butt" d="m259.5344 141.75797l-4.7934113 -0.5878906l3.2940826 3.5314941z" fill-rule="evenodd"/><path fill="#000000" stroke="#000000" stroke-width="1.0" stroke-linecap="butt" d="m427.53122 231.0347l4.7934265 0.58787537l-3.294098 -3.5314941z" fill-rule="evenodd"/><path fill="#000000" fill-opacity="0.0" d="m106.608925 195.92914l-44.72441 -110.86614" fill-rule="evenodd"/><path stroke="#000000" stroke-width="1.0" stroke-linejoin="round" stroke-linecap="butt" d="m104.364235 190.36482l-40.23503 -99.73753" fill-rule="evenodd"/><path fill="#000000" stroke="#000000" stroke-width="1.0" stroke-linecap="butt" d="m102.83245 190.98277l3.2295532 3.590622l-0.16597748 -4.8264923z" fill-rule="evenodd"/><path fill="#000000" stroke="#000000" stroke-width="1.0" stroke-linecap="butt" d="m65.66099 90.00935l-3.2295532 -3.590622l0.16597748 4.8264923z" fill-rule="evenodd"/><path fill="#000000" fill-opacity="0.0" d="m184.67192 318.0551l-78.29922 40.37796" fill-rule="evenodd"/><path stroke="#000000" stroke-width="1.0" stroke-linejoin="round" stroke-linecap="butt" d="m179.33923 320.8051l-67.63385 34.87796" fill-rule="evenodd"/><path fill="#000000" stroke="#000000" stroke-width="1.0" stroke-linecap="butt" d="m180.09628 322.27313l3.2763214 -3.5479736l-4.7904205 0.6119385z" fill-rule="evenodd"/><path fill="#000000" stroke="#000000" stroke-width="1.0" stroke-linecap="butt" d="m110.94834 354.21506l-3.276329 3.5479736l4.7904205 -0.6119385z" fill-rule="evenodd"/><path fill="#000000" fill-opacity="0.0" d="m285.06824 264.73227l108.566925 43.590576" fill-rule="evenodd"/><path stroke="#000000" stroke-width="1.0" stroke-linejoin="round" stroke-linecap="butt" d="m290.6362 266.96786l97.43103 39.119385" fill-rule="evenodd"/><path fill="#000000" stroke="#000000" stroke-width="1.0" stroke-linecap="butt" d="m291.25162 265.43506l-4.8267517 -0.15808105l3.5959167 3.2236938z" fill-rule="evenodd"/><path fill="#000000" stroke="#000000" stroke-width="1.0" stroke-linecap="butt" d="m387.45178 307.62006l4.8267517 0.15808105l-3.5958862 -3.2236938z" fill-rule="evenodd"/><path fill="#d5a6bd" d="m46.5853 437.1391l59.77953 0l0 61.07086l-59.77953 0z" fill-rule="evenodd"/><path fill="#000000" fill-opacity="0.0" d="m47.50656 420.24408l441.00787 0" fill-rule="evenodd"/><path stroke="#000000" stroke-width="1.0" stroke-linejoin="round" stroke-linecap="butt" d="m47.50656 420.24408l441.00787 0" fill-rule="evenodd"/><path fill="#cfe2f3" d="m68.67979 515.105l15.590553 0l0 38.92914l-15.590553 0z" fill-rule="evenodd"/><path stroke="#000000" stroke-width="1.0" stroke-linejoin="round" stroke-linecap="butt" d="m68.67979 515.105l15.590553 0l0 38.92914l-15.590553 0z" fill-rule="evenodd"/><path fill="#000000" fill-opacity="0.0" d="m71.72876 522.1056l8.755905 0.62994385" fill-rule="evenodd"/><path stroke="#000000" stroke-width="3.0" stroke-linejoin="round" stroke-linecap="butt" d="m71.72876 522.1056l8.755905 0.62994385" fill-rule="evenodd"/><path fill="#000000" fill-opacity="0.0" d="m71.72876 533.342l8.755905 0.6298828" fill-rule="evenodd"/><path stroke="#000000" stroke-width="3.0" stroke-linejoin="round" stroke-linecap="butt" d="m71.72876 533.342l8.755905 0.6298828" fill-rule="evenodd"/><path fill="#000000" fill-opacity="0.0" d="m71.72876 544.5783l8.755905 0.62994385" fill-rule="evenodd"/><path stroke="#000000" stroke-width="3.0" stroke-linejoin="round" stroke-linecap="butt" d="m71.72876 544.5783l8.755905 0.62994385" fill-rule="evenodd"/><path fill="#cfe2f3" d="m83.74278 62.787403l15.590553 0l0 38.929134l-15.590553 0z" fill-rule="evenodd"/><path stroke="#000000" stroke-width="1.0" stroke-linejoin="round" stroke-linecap="butt" d="m83.74278 62.787403l15.590553 0l0 38.929134l-15.590553 0z" fill-rule="evenodd"/><path fill="#000000" fill-opacity="0.0" d="m86.79175 69.78801l8.755905 0.62992096" fill-rule="evenodd"/><path stroke="#000000" stroke-width="3.0" stroke-linejoin="round" stroke-linecap="butt" d="m86.79175 69.78801l8.755905 0.62992096" fill-rule="evenodd"/><path fill="#000000" fill-opacity="0.0" d="m86.79175 81.024376l8.755905 0.62992096" fill-rule="evenodd"/><path stroke="#000000" stroke-width="3.0" stroke-linejoin="round" stroke-linecap="butt" d="m86.79175 81.024376l8.755905 0.62992096" fill-rule="evenodd"/><path fill="#000000" fill-opacity="0.0" d="m86.79175 92.260735l8.755905 0.62992096" fill-rule="evenodd"/><path stroke="#000000" stroke-width="3.0" stroke-linejoin="round" stroke-linecap="butt" d="m86.79175 92.260735l8.755905 0.62992096" fill-rule="evenodd"/><path fill="#cfe2f3" d="m447.937 54.535435l15.590546 0l0 38.929134l-15.590546 0z" fill-rule="evenodd"/><path stroke="#000000" stroke-width="1.0" stroke-linejoin="round" stroke-linecap="butt" d="m447.937 54.535435l15.590546 0l0 38.929134l-15.590546 0z" fill-rule="evenodd"/><path fill="#000000" fill-opacity="0.0" d="m450.98596 61.53604l8.75592 0.62992096" fill-rule="evenodd"/><path stroke="#000000" stroke-width="3.0" stroke-linejoin="round" stroke-linecap="butt" d="m450.98596 61.53604l8.75592 0.62992096" fill-rule="evenodd"/><path fill="#000000" fill-opacity="0.0" d="m450.98596 72.77241l8.75592 0.62992096" fill-rule="evenodd"/><path stroke="#000000" stroke-width="3.0" stroke-linejoin="round" stroke-linecap="butt" d="m450.98596 72.77241l8.75592 0.62992096" fill-rule="evenodd"/><path fill="#000000" fill-opacity="0.0" d="m450.98596 84.008766l8.75592 0.62992096" fill-rule="evenodd"/><path stroke="#000000" stroke-width="3.0" stroke-linejoin="round" stroke-linecap="butt" d="m450.98596 84.008766l8.75592 0.62992096" fill-rule="evenodd"/><path fill="#cfe2f3" d="m483.6168 238.91864l15.590546 0l0 38.92914l-15.590546 0z" fill-rule="evenodd"/><path stroke="#000000" stroke-width="1.0" stroke-linejoin="round" stroke-linecap="butt" d="m483.6168 238.91864l15.590546 0l0 38.92914l-15.590546 0z" fill-rule="evenodd"/><path fill="#000000" fill-opacity="0.0" d="m486.66577 245.91925l8.75589 0.62991333" fill-rule="evenodd"/><path stroke="#000000" stroke-width="3.0" stroke-linejoin="round" stroke-linecap="butt" d="m486.66577 245.91925l8.75589 0.62991333" fill-rule="evenodd"/><path fill="#000000" fill-opacity="0.0" d="m486.66577 257.1556l8.75589 0.62991333" fill-rule="evenodd"/><path stroke="#000000" stroke-width="3.0" stroke-linejoin="round" stroke-linecap="butt" d="m486.66577 257.1556l8.75589 0.62991333" fill-rule="evenodd"/><path fill="#000000" fill-opacity="0.0" d="m486.66577 268.39197l8.75589 0.62991333" fill-rule="evenodd"/><path stroke="#000000" stroke-width="3.0" stroke-linejoin="round" stroke-linecap="butt" d="m486.66577 268.39197l8.75589 0.62991333" fill-rule="evenodd"/><path fill="#cfe2f3" d="m402.81104 150.04724l15.590546 0l0 38.92914l-15.590546 0z" fill-rule="evenodd"/><path stroke="#000000" stroke-width="1.0" stroke-linejoin="round" stroke-linecap="butt" d="m402.81104 150.04724l15.590546 0l0 38.92914l-15.590546 0z" fill-rule="evenodd"/><path fill="#000000" fill-opacity="0.0" d="m405.86 157.04785l8.75592 0.6299286" fill-rule="evenodd"/><path stroke="#000000" stroke-width="3.0" stroke-linejoin="round" stroke-linecap="butt" d="m405.86 157.04785l8.75592 0.6299286" fill-rule="evenodd"/><path fill="#000000" fill-opacity="0.0" d="m405.86 168.28421l8.75592 0.6299286" fill-rule="evenodd"/><path stroke="#000000" stroke-width="3.0" stroke-linejoin="round" stroke-linecap="butt" d="m405.86 168.28421l8.75592 0.6299286" fill-rule="evenodd"/><path fill="#000000" fill-opacity="0.0" d="m405.86 179.52058l8.75592 0.62991333" fill-rule="evenodd"/><path stroke="#000000" stroke-width="3.0" stroke-linejoin="round" stroke-linecap="butt" d="m405.86 179.52058l8.75592 0.62991333" fill-rule="evenodd"/><path fill="#cfe2f3" d="m277.02362 117.885826l15.590546 0l0 38.92913l-15.590546 0z" fill-rule="evenodd"/><path stroke="#000000" stroke-width="1.0" stroke-linejoin="round" stroke-linecap="butt" d="m277.02362 117.885826l15.590546 0l0 38.92913l-15.590546 0z" fill-rule="evenodd"/><path fill="#000000" fill-opacity="0.0" d="m280.0726 124.88644l8.75589 0.62992096" fill-rule="evenodd"/><path stroke="#000000" stroke-width="3.0" stroke-linejoin="round" stroke-linecap="butt" d="m280.0726 124.88644l8.75589 0.62992096" fill-rule="evenodd"/><path fill="#000000" fill-opacity="0.0" d="m280.0726 136.1228l8.75589 0.62991333" fill-rule="evenodd"/><path stroke="#000000" stroke-width="3.0" stroke-linejoin="round" stroke-linecap="butt" d="m280.0726 136.1228l8.75589 0.62991333" fill-rule="evenodd"/><path fill="#000000" fill-opacity="0.0" d="m280.0726 147.35916l8.75589 0.6299286" fill-rule="evenodd"/><path stroke="#000000" stroke-width="3.0" stroke-linejoin="round" stroke-linecap="butt" d="m280.0726 147.35916l8.75589 0.6299286" fill-rule="evenodd"/><path fill="#cfe2f3" d="m169.07611 147.35957l15.590561 0l0 38.92914l-15.590561 0z" fill-rule="evenodd"/><path stroke="#000000" stroke-width="1.0" stroke-linejoin="round" stroke-linecap="butt" d="m169.07611 147.35957l15.590561 0l0 38.92914l-15.590561 0z" fill-rule="evenodd"/><path fill="#000000" fill-opacity="0.0" d="m172.12508 154.36018l8.755905 0.6299286" fill-rule="evenodd"/><path stroke="#000000" stroke-width="3.0" stroke-linejoin="round" stroke-linecap="butt" d="m172.12508 154.36018l8.755905 0.6299286" fill-rule="evenodd"/><path fill="#000000" fill-opacity="0.0" d="m172.12508 165.59656l8.755905 0.62991333" fill-rule="evenodd"/><path stroke="#000000" stroke-width="3.0" stroke-linejoin="round" stroke-linecap="butt" d="m172.12508 165.59656l8.755905 0.62991333" fill-rule="evenodd"/><path fill="#000000" fill-opacity="0.0" d="m172.12508 176.83292l8.755905 0.62991333" fill-rule="evenodd"/><path stroke="#000000" stroke-width="3.0" stroke-linejoin="round" stroke-linecap="butt" d="m172.12508 176.83292l8.755905 0.62991333" fill-rule="evenodd"/><path fill="#cfe2f3" d="m303.7874 237.64174l15.590546 0l0 38.929123l-15.590546 0z" fill-rule="evenodd"/><path stroke="#000000" stroke-width="1.0" stroke-linejoin="round" stroke-linecap="butt" d="m303.7874 237.64174l15.590546 0l0 38.929123l-15.590546 0z" fill-rule="evenodd"/><path fill="#000000" fill-opacity="0.0" d="m306.83636 244.64233l8.75592 0.6299286" fill-rule="evenodd"/><path stroke="#000000" stroke-width="3.0" stroke-linejoin="round" stroke-linecap="butt" d="m306.83636 244.64233l8.75592 0.6299286" fill-rule="evenodd"/><path fill="#000000" fill-opacity="0.0" d="m306.83636 255.87871l8.75592 0.6299286" fill-rule="evenodd"/><path stroke="#000000" stroke-width="3.0" stroke-linejoin="round" stroke-linecap="butt" d="m306.83636 255.87871l8.75592 0.6299286" fill-rule="evenodd"/><path fill="#000000" fill-opacity="0.0" d="m306.83636 267.11508l8.75592 0.62991333" fill-rule="evenodd"/><path stroke="#000000" stroke-width="3.0" stroke-linejoin="round" stroke-linecap="butt" d="m306.83636 267.11508l8.75592 0.62991333" fill-rule="evenodd"/><path fill="#cfe2f3" d="m128.04199 233.31496l15.590561 0l0 38.929123l-15.590561 0z" fill-rule="evenodd"/><path stroke="#000000" stroke-width="1.0" stroke-linejoin="round" stroke-linecap="butt" d="m128.04199 233.31496l15.590561 0l0 38.929123l-15.590561 0z" fill-rule="evenodd"/><path fill="#000000" fill-opacity="0.0" d="m131.09096 240.31557l8.755905 0.6299286" fill-rule="evenodd"/><path stroke="#000000" stroke-width="3.0" stroke-linejoin="round" stroke-linecap="butt" d="m131.09096 240.31557l8.755905 0.6299286" fill-rule="evenodd"/><path fill="#000000" fill-opacity="0.0" d="m131.09096 251.55193l8.755905 0.6299286" fill-rule="evenodd"/><path stroke="#000000" stroke-width="3.0" stroke-linejoin="round" stroke-linecap="butt" d="m131.09096 251.55193l8.755905 0.6299286" fill-rule="evenodd"/><path fill="#000000" fill-opacity="0.0" d="m131.09096 262.7883l8.755905 0.62991333" fill-rule="evenodd"/><path stroke="#000000" stroke-width="3.0" stroke-linejoin="round" stroke-linecap="butt" d="m131.09096 262.7883l8.755905 0.62991333" fill-rule="evenodd"/><path fill="#cfe2f3" d="m98.81365 370.31628l15.590546 0l0 38.929108l-15.590546 0z" fill-rule="evenodd"/><path stroke="#000000" stroke-width="1.0" stroke-linejoin="round" stroke-linecap="butt" d="m98.81365 370.31628l15.590546 0l0 38.929108l-15.590546 0z" fill-rule="evenodd"/><path fill="#000000" fill-opacity="0.0" d="m101.86262 377.3169l8.755905 0.62991333" fill-rule="evenodd"/><path stroke="#000000" stroke-width="3.0" stroke-linejoin="round" stroke-linecap="butt" d="m101.86262 377.3169l8.755905 0.62991333" fill-rule="evenodd"/><path fill="#000000" fill-opacity="0.0" d="m101.86262 388.55325l8.755905 0.62991333" fill-rule="evenodd"/><path stroke="#000000" stroke-width="3.0" stroke-linejoin="round" stroke-linecap="butt" d="m101.86262 388.55325l8.755905 0.62991333" fill-rule="evenodd"/><path fill="#000000" fill-opacity="0.0" d="m101.86262 399.7896l8.755905 0.62991333" fill-rule="evenodd"/><path stroke="#000000" stroke-width="3.0" stroke-linejoin="round" stroke-linecap="butt" d="m101.86262 399.7896l8.755905 0.62991333" fill-rule="evenodd"/><path fill="#cfe2f3" d="m203.82677 288.95276l15.590561 0l0 38.92914l-15.590561 0z" fill-rule="evenodd"/><path stroke="#000000" stroke-width="1.0" stroke-linejoin="round" stroke-linecap="butt" d="m203.82677 288.95276l15.590561 0l0 38.92914l-15.590561 0z" fill-rule="evenodd"/><path fill="#000000" fill-opacity="0.0" d="m206.87573 295.95337l8.755905 0.62991333" fill-rule="evenodd"/><path stroke="#000000" stroke-width="3.0" stroke-linejoin="round" stroke-linecap="butt" d="m206.87573 295.95337l8.755905 0.62991333" fill-rule="evenodd"/><path fill="#000000" fill-opacity="0.0" d="m206.87573 307.18973l8.755905 0.62991333" fill-rule="evenodd"/><path stroke="#000000" stroke-width="3.0" stroke-linejoin="round" stroke-linecap="butt" d="m206.87573 307.18973l8.755905 0.62991333" fill-rule="evenodd"/><path fill="#000000" fill-opacity="0.0" d="m206.87573 318.4261l8.755905 0.62991333" fill-rule="evenodd"/><path stroke="#000000" stroke-width="3.0" stroke-linejoin="round" stroke-linecap="butt" d="m206.87573 318.4261l8.755905 0.62991333" fill-rule="evenodd"/><path fill="#cfe2f3" d="m283.33072 360.3281l15.590546 0l0 38.92914l-15.590546 0z" fill-rule="evenodd"/><path stroke="#000000" stroke-width="1.0" stroke-linejoin="round" stroke-linecap="butt" d="m283.33072 360.3281l15.590546 0l0 38.92914l-15.590546 0z" fill-rule="evenodd"/><path fill="#000000" fill-opacity="0.0" d="m286.37967 367.3287l8.75592 0.62991333" fill-rule="evenodd"/><path stroke="#000000" stroke-width="3.0" stroke-linejoin="round" stroke-linecap="butt" d="m286.37967 367.3287l8.75592 0.62991333" fill-rule="evenodd"/><path fill="#000000" fill-opacity="0.0" d="m286.37967 378.56506l8.75592 0.62991333" fill-rule="evenodd"/><path stroke="#000000" stroke-width="3.0" stroke-linejoin="round" stroke-linecap="butt" d="m286.37967 378.56506l8.75592 0.62991333" fill-rule="evenodd"/><path fill="#000000" fill-opacity="0.0" d="m286.37967 389.80142l8.75592 0.62991333" fill-rule="evenodd"/><path stroke="#000000" stroke-width="3.0" stroke-linejoin="round" stroke-linecap="butt" d="m286.37967 389.80142l8.75592 0.62991333" fill-rule="evenodd"/><path fill="#cfe2f3" d="m414.8609 344.80972l15.590546 0l0 38.929108l-15.590546 0z" fill-rule="evenodd"/><path stroke="#000000" stroke-width="1.0" stroke-linejoin="round" stroke-linecap="butt" d="m414.8609 344.80972l15.590546 0l0 38.929108l-15.590546 0z" fill-rule="evenodd"/><path fill="#000000" fill-opacity="0.0" d="m417.90985 351.81033l8.75592 0.62991333" fill-rule="evenodd"/><path stroke="#000000" stroke-width="3.0" stroke-linejoin="round" stroke-linecap="butt" d="m417.90985 351.81033l8.75592 0.62991333" fill-rule="evenodd"/><path fill="#000000" fill-opacity="0.0" d="m417.90985 363.0467l8.75592 0.62991333" fill-rule="evenodd"/><path stroke="#000000" stroke-width="3.0" stroke-linejoin="round" stroke-linecap="butt" d="m417.90985 363.0467l8.75592 0.62991333" fill-rule="evenodd"/><path fill="#000000" fill-opacity="0.0" d="m417.90985 374.28305l8.75592 0.62991333" fill-rule="evenodd"/><path stroke="#000000" stroke-width="3.0" stroke-linejoin="round" stroke-linecap="butt" d="m417.90985 374.28305l8.75592 0.62991333" fill-rule="evenodd"/><path fill="#000000" fill-opacity="0.0" d="m132.65617 448.16534l180.18898 0l0 43.590576l-180.18898 0z" fill-rule="evenodd"/><path fill="#000000" d="m146.90617 475.08536l-5.171875 -13.359375l1.921875 0l3.46875 9.703125q0.421875 1.171875 0.703125 2.1875q0.3125 -1.09375 0.71875 -2.1875l3.609375 -9.703125l1.796875 0l-5.234375 13.359375l-1.8125 0zm13.355026 -1.1875q-0.921875 0.765625 -1.765625 1.09375q-0.828125 0.3125 -1.796875 0.3125q-1.59375 0 -2.453125 -0.78125q-0.859375 -0.78125 -0.859375 -1.984375q0 -0.71875 0.328125 -1.296875q0.328125 -0.59375 0.84375 -0.9375q0.53125 -0.359375 1.1875 -0.546875q0.46875 -0.125 1.453125 -0.25q1.984375 -0.234375 2.921875 -0.5625q0.015625 -0.34375 0.015625 -0.421875q0 -1.0 -0.46875 -1.421875q-0.625 -0.546875 -1.875 -0.546875q-1.15625 0 -1.703125 0.40625q-0.546875 0.40625 -0.8125 1.421875l-1.609375 -0.21875q0.21875 -1.015625 0.71875 -1.640625q0.5 -0.640625 1.453125 -0.984375q0.953125 -0.34375 2.1875 -0.34375q1.25 0 2.015625 0.296875q0.78125 0.28125 1.140625 0.734375q0.375 0.4375 0.515625 1.109375q0.078125 0.421875 0.078125 1.515625l0 2.1875q0 2.28125 0.109375 2.890625q0.109375 0.59375 0.40625 1.15625l-1.703125 0q-0.265625 -0.515625 -0.328125 -1.1875zm-0.140625 -3.671875q-0.890625 0.375 -2.671875 0.625q-1.015625 0.140625 -1.4375 0.328125q-0.421875 0.1875 -0.65625 0.53125q-0.21875 0.34375 -0.21875 0.78125q0 0.65625 0.5 1.09375q0.5 0.4375 1.453125 0.4375q0.9375 0 1.671875 -0.40625q0.75 -0.421875 1.09375 -1.140625q0.265625 -0.5625 0.265625 -1.640625l0 -0.609375zm4.156967 4.859375l0 -13.359375l1.640625 0l0 13.359375l-1.640625 0zm4.191696 -11.46875l0 -1.890625l1.640625 0l0 1.890625l-1.640625 0zm0 11.46875l0 -9.671875l1.640625 0l0 9.671875l-1.640625 0zm10.410446 0l0 -1.21875q-0.90625 1.4375 -2.703125 1.4375q-1.15625 0 -2.125 -0.640625q-0.96875 -0.640625 -1.5 -1.78125q-0.53125 -1.140625 -0.53125 -2.625q0 -1.453125 0.484375 -2.625q0.484375 -1.1875 1.4375 -1.8125q0.96875 -0.625 2.171875 -0.625q0.875 0 1.546875 0.375q0.6875 0.359375 1.109375 0.953125l0 -4.796875l1.640625 0l0 13.359375l-1.53125 0zm-5.171875 -4.828125q0 1.859375 0.78125 2.78125q0.78125 0.921875 1.84375 0.921875q1.078125 0 1.828125 -0.875q0.75 -0.890625 0.75 -2.6875q0 -1.984375 -0.765625 -2.90625q-0.765625 -0.9375 -1.890625 -0.9375q-1.078125 0 -1.8125 0.890625q-0.734375 0.890625 -0.734375 2.8125zm15.594467 3.640625q-0.921875 0.765625 -1.765625 1.09375q-0.828125 0.3125 -1.796875 0.3125q-1.59375 0 -2.453125 -0.78125q-0.859375 -0.78125 -0.859375 -1.984375q0 -0.71875 0.328125 -1.296875q0.328125 -0.59375 0.84375 -0.9375q0.53125 -0.359375 1.1875 -0.546875q0.46875 -0.125 1.453125 -0.25q1.984375 -0.234375 2.921875 -0.5625q0.015625 -0.34375 0.015625 -0.421875q0 -1.0 -0.46875 -1.421875q-0.625 -0.546875 -1.875 -0.546875q-1.15625 0 -1.703125 0.40625q-0.546875 0.40625 -0.8125 1.421875l-1.609375 -0.21875q0.21875 -1.015625 0.71875 -1.640625q0.5 -0.640625 1.453125 -0.984375q0.953125 -0.34375 2.1875 -0.34375q1.25 0 2.015625 0.296875q0.78125 0.28125 1.140625 0.734375q0.375 0.4375 0.515625 1.109375q0.078125 0.421875 0.078125 1.515625l0 2.1875q0 2.28125 0.109375 2.890625q0.109375 0.59375 0.40625 1.15625l-1.703125 0q-0.265625 -0.515625 -0.328125 -1.1875zm-0.140625 -3.671875q-0.890625 0.375 -2.671875 0.625q-1.015625 0.140625 -1.4375 0.328125q-0.421875 0.1875 -0.65625 0.53125q-0.21875 0.34375 -0.21875 0.78125q0 0.65625 0.5 1.09375q0.5 0.4375 1.453125 0.4375q0.9375 0 1.671875 -0.40625q0.75 -0.421875 1.09375 -1.140625q0.265625 -0.5625 0.265625 -1.640625l0 -0.609375zm7.781967 3.390625l0.234375 1.453125q-0.6875 0.140625 -1.234375 0.140625q-0.890625 0 -1.390625 -0.28125q-0.484375 -0.28125 -0.6875 -0.734375q-0.203125 -0.46875 -0.203125 -1.9375l0 -5.578125l-1.203125 0l0 -1.265625l1.203125 0l0 -2.390625l1.625 -0.984375l0 3.375l1.65625 0l0 1.265625l-1.65625 0l0 5.671875q0 0.6875 0.078125 0.890625q0.09375 0.203125 0.28125 0.328125q0.203125 0.109375 0.578125 0.109375q0.265625 0 0.71875 -0.0625zm0.99580383 -3.375q0 -2.6875 1.484375 -3.96875q1.25 -1.078125 3.046875 -1.078125q2.0 0 3.265625 1.3125q1.265625 1.296875 1.265625 3.609375q0 1.859375 -0.5625 2.9375q-0.5625 1.0625 -1.640625 1.65625q-1.0625 0.59375 -2.328125 0.59375q-2.03125 0 -3.28125 -1.296875q-1.25 -1.3125 -1.25 -3.765625zm1.6875 0q0 1.859375 0.796875 2.796875q0.8125 0.921875 2.046875 0.921875q1.21875 0 2.03125 -0.921875q0.8125 -0.9375 0.8125 -2.84375q0 -1.796875 -0.8125 -2.71875q-0.8125 -0.921875 -2.03125 -0.921875q-1.234375 0 -2.046875 0.921875q-0.796875 0.90625 -0.796875 2.765625zm9.281967 4.84375l0 -9.671875l1.46875 0l0 1.46875q0.5625 -1.03125 1.03125 -1.359375q0.484375 -0.328125 1.0625 -0.328125q0.828125 0 1.6875 0.53125l-0.5625 1.515625q-0.609375 -0.359375 -1.203125 -0.359375q-0.546875 0 -0.96875 0.328125q-0.421875 0.328125 -0.609375 0.890625q-0.28125 0.875 -0.28125 1.921875l0 5.0625l-1.625 0z" fill-rule="nonzero"/><path fill="#000000" fill-opacity="0.0" d="m132.65617 512.16534l180.18898 0l0 43.590576l-180.18898 0z" fill-rule="evenodd"/><path fill="#000000" d="m143.01555 539.0853l0 -13.359375l1.78125 0l0 11.78125l6.5625 0l0 1.578125l-8.34375 0zm16.875717 -3.109375l1.6875 0.203125q-0.40625 1.484375 -1.484375 2.3125q-1.078125 0.8125 -2.765625 0.8125q-2.125 0 -3.375 -1.296875q-1.234375 -1.3125 -1.234375 -3.671875q0 -2.453125 1.25 -3.796875q1.265625 -1.34375 3.265625 -1.34375q1.9375 0 3.15625 1.328125q1.234375 1.3125 1.234375 3.703125q0 0.15625 0 0.4375l-7.21875 0q0.09375 1.59375 0.90625 2.453125q0.8125 0.84375 2.015625 0.84375q0.90625 0 1.546875 -0.46875q0.640625 -0.484375 1.015625 -1.515625zm-5.390625 -2.65625l5.40625 0q-0.109375 -1.21875 -0.625 -1.828125q-0.78125 -0.953125 -2.03125 -0.953125q-1.125 0 -1.90625 0.765625q-0.765625 0.75 -0.84375 2.015625zm15.406967 5.765625l0 -1.21875q-0.90625 1.4375 -2.703125 1.4375q-1.15625 0 -2.125 -0.640625q-0.96875 -0.640625 -1.5 -1.78125q-0.53125 -1.140625 -0.53125 -2.625q0 -1.453125 0.484375 -2.625q0.484375 -1.1875 1.4375 -1.8125q0.96875 -0.625 2.171875 -0.625q0.875 0 1.546875 0.375q0.6875 0.359375 1.109375 0.953125l0 -4.796875l1.640625 0l0 13.359375l-1.53125 0zm-5.171875 -4.828125q0 1.859375 0.78125 2.78125q0.78125 0.921875 1.84375 0.921875q1.078125 0 1.828125 -0.875q0.75 -0.890625 0.75 -2.6875q0 -1.984375 -0.765625 -2.90625q-0.765625 -0.9375 -1.890625 -0.9375q-1.078125 0 -1.8125 0.890625q-0.734375 0.890625 -0.734375 2.8125zm8.969467 5.625l1.59375 0.234375q0.109375 0.75 0.5625 1.078125q0.609375 0.453125 1.671875 0.453125q1.140625 0 1.75 -0.453125q0.625 -0.453125 0.84375 -1.265625q0.125 -0.5 0.109375 -2.109375q-1.0625 1.265625 -2.671875 1.265625q-2.0 0 -3.09375 -1.4375q-1.09375 -1.4375 -1.09375 -3.453125q0 -1.390625 0.5 -2.5625q0.515625 -1.171875 1.453125 -1.796875q0.953125 -0.640625 2.25 -0.640625q1.703125 0 2.8125 1.375l0 -1.15625l1.515625 0l0 8.359375q0 2.265625 -0.46875 3.203125q-0.453125 0.9375 -1.453125 1.484375q-0.984375 0.546875 -2.453125 0.546875q-1.71875 0 -2.796875 -0.78125q-1.0625 -0.765625 -1.03125 -2.34375zm1.359375 -5.8125q0 1.90625 0.75 2.78125q0.765625 0.875 1.90625 0.875q1.125 0 1.890625 -0.859375q0.765625 -0.875 0.765625 -2.734375q0 -1.78125 -0.796875 -2.671875q-0.78125 -0.90625 -1.890625 -0.90625q-1.09375 0 -1.859375 0.890625q-0.765625 0.875 -0.765625 2.625zm15.953842 1.90625l1.6875 0.203125q-0.40625 1.484375 -1.484375 2.3125q-1.078125 0.8125 -2.765625 0.8125q-2.125 0 -3.375 -1.296875q-1.234375 -1.3125 -1.234375 -3.671875q0 -2.453125 1.25 -3.796875q1.265625 -1.34375 3.265625 -1.34375q1.9375 0 3.15625 1.328125q1.234375 1.3125 1.234375 3.703125q0 0.15625 0 0.4375l-7.21875 0q0.09375 1.59375 0.90625 2.453125q0.8125 0.84375 2.015625 0.84375q0.90625 0 1.546875 -0.46875q0.640625 -0.484375 1.015625 -1.515625zm-5.390625 -2.65625l5.40625 0q-0.109375 -1.21875 -0.625 -1.828125q-0.78125 -0.953125 -2.03125 -0.953125q-1.125 0 -1.90625 0.765625q-0.765625 0.75 -0.84375 2.015625zm9.125717 5.765625l0 -9.671875l1.46875 0l0 1.46875q0.5625 -1.03125 1.03125 -1.359375q0.484375 -0.328125 1.0625 -0.328125q0.828125 0 1.6875 0.53125l-0.5625 1.515625q-0.609375 -0.359375 -1.203125 -0.359375q-0.546875 0 -0.96875 0.328125q-0.421875 0.328125 -0.609375 0.890625q-0.28125 0.875 -0.28125 1.921875l0 5.0625l-1.625 0z" fill-rule="nonzero"/></g></svg>