<?xml version="1.0" encoding="UTF-8"?>
<svg width="405px" height="95px" viewBox="0 0 405 95" version="1.1" xmlns="http://www.w3.org/2000/svg" xmlns:xlink="http://www.w3.org/1999/xlink">
    <!-- Generator: Sketch 51.1 (57501) - http://www.bohemiancoding.com/sketch -->
    <title>logo</title>
    <desc>Created with Sketch.</desc>
    <defs></defs>
    <g id="Page-1" stroke="none" stroke-width="1" fill="none" fill-rule="evenodd">
        <g id="logo" fill-rule="nonzero">
            <path d="M76.6,19.2 L0.9,19.2 L0.9,94.9 L76.6,94.9 L76.6,19.2 Z M73.2,22.6 L73.2,91.5 L4.3,91.5 L4.3,22.6 L73.2,22.6 Z" id="Shape" fill="#B12029"></path>
            <polygon id="Shape" fill="#B12029" points="51.4 44.8 26.2 44.8 26.2 70 51.4 70"></polygon>
            <polygon id="Shape" fill="#B12029" points="51.4 44.4 26.2 44.4 26.2 69.7 51.4 69.7"></polygon>
            <polygon id="Shape" fill="#B12029" points="113.9 72.4 113.9 0.5 80.1 17.8 80.1 21.6 111.4 5.5 111.4 73.7"></polygon>
            <polygon id="Shape" fill="#B12029" points="102.1 57.1 102.1 31.4 88.9 38.3 88.9 64"></polygon>
            <g id="Group" transform="translate(139.000000, 29.000000)" fill="#373A36">
                <path d="M23,0.7 L0.2,50.6 L5.7,50.6 L11.7,37.3 L39.5,37.3 L45.5,50.6 L51.1,50.6 L28.3,0.7 L23,0.7 Z M13.6,33 L25.6,6.2 L37.6,33 L13.6,33 Z" id="Shape"></path>
                <path d="M66.4,7.6 C69.7,5.8 73.3,4.9 77.3,4.9 C83.4,4.9 88.4,6.9 92.4,10.7 L95.7,7.3 C93.5,4.9 90.8,3.1 87.6,1.9 C84.4,0.7 80.9,0.1 77.1,0.1 C72.1,0.1 67.5,1.2 63.5,3.4 C59.5,5.6 56.4,8.6 54.1,12.5 C51.8,16.4 50.7,20.7 50.7,25.5 C50.7,30.3 51.8,34.6 54.1,38.5 C56.4,42.4 59.5,45.4 63.5,47.6 C67.5,49.8 72,50.9 77,50.9 C80.5,50.9 83.9,50.4 87.1,49.3 C90.3,48.2 93,46.6 95.4,44.6 L95.4,25.6 L90.3,25.6 L90.3,42.4 C86.7,45 82.4,46.3 77.2,46.3 C73.2,46.3 69.5,45.4 66.3,43.6 C63.1,41.8 60.5,39.3 58.7,36.2 C56.8,33.1 55.9,29.5 55.9,25.6 C55.9,21.7 56.8,18.2 58.7,15 C60.6,11.9 63.1,9.4 66.4,7.6 Z" id="Shape"></path>
                <path d="M141.2,3.5 C137.2,1.3 132.8,0.2 127.8,0.2 C122.9,0.2 118.4,1.3 114.4,3.5 C110.4,5.7 107.2,8.7 105,12.6 C102.7,16.5 101.6,20.8 101.6,25.6 C101.6,30.4 102.7,34.7 105,38.6 C107.3,42.5 110.4,45.5 114.4,47.7 C118.4,49.9 122.9,51 127.8,51 C132.7,51 137.2,49.9 141.2,47.7 C145.2,45.5 148.3,42.5 150.6,38.6 C152.9,34.7 154,30.4 154,25.6 C154,20.8 152.9,16.5 150.6,12.6 C148.3,8.8 145.2,5.7 141.2,3.5 Z M146.1,36.2 C144.3,39.4 141.8,41.8 138.6,43.6 C135.4,45.4 131.8,46.3 127.9,46.3 C124,46.3 120.4,45.4 117.2,43.6 C114,41.8 111.5,39.3 109.6,36.2 C107.8,33 106.9,29.5 106.9,25.6 C106.9,21.7 107.8,18.2 109.6,15 C111.4,11.8 114,9.4 117.2,7.6 C120.4,5.8 124,4.9 127.9,4.9 C131.8,4.9 135.4,5.8 138.6,7.6 C141.8,9.4 144.3,11.9 146.1,15 C147.9,18.2 148.8,21.7 148.8,25.6 C148.8,29.6 147.9,33.1 146.1,36.2 Z" id="Shape"></path>
                <rect id="Rectangle-path" x="208.3" y="0.7" width="5.3" height="49.9"></rect>
                <path d="M247.3,46.3 C243.4,46.3 239.8,45.4 236.5,43.6 C233.3,41.8 230.7,39.3 228.9,36.2 C227.1,33.1 226.2,29.5 226.2,25.6 C226.2,21.7 227.1,18.2 228.9,15 C230.7,11.9 233.3,9.4 236.5,7.6 C239.7,5.8 243.3,4.9 247.3,4.9 C253.2,4.9 258.2,6.9 262.1,10.8 L265.5,7.4 C263.3,5 260.6,3.2 257.5,2 C254.4,0.8 250.9,0.1 247.2,0.1 C242.3,0.1 237.8,1.2 233.8,3.4 C229.8,5.6 226.7,8.6 224.4,12.5 C222.1,16.4 221,20.7 221,25.5 C221,30.3 222.1,34.6 224.4,38.5 C226.7,42.4 229.8,45.4 233.7,47.6 C237.7,49.8 242.1,50.9 247.1,50.9 C250.8,50.9 254.2,50.3 257.4,49 C260.6,47.7 263.2,45.9 265.4,43.5 L262,40.1 C258.2,44.3 253.3,46.3 247.3,46.3 Z" id="Shape"></path>
                <path d="M188.4,33.3 L188.2,33.3 C191.6,32.1 194.3,30.2 196.2,27.6 C198.2,24.9 199.2,21.6 199.2,17.7 C199.2,12.4 197.4,8.2 193.8,5.1 C190.2,2.1 185.2,0.5 178.8,0.5 L160.1,0.5 L160.1,50.4 L165.4,50.4 L165.4,48.2 L165.4,34.6 L165.4,30.1 L165.4,19.2 L165.4,5.1 L178.7,5.1 C183.6,5.1 187.4,6.2 190,8.3 C192.6,10.5 193.9,13.6 193.9,17.6 C193.9,21.5 192.6,24.6 190,26.8 C188.2,28.3 185.8,29.3 182.8,29.8 L182.8,34.4 L194.2,50.4 L197.7,50.4 L200.7,50.4 L188.4,33.3 Z" id="Shape"></path>
            </g>
        </g>
    </g>
</svg>