<svg version="1.1" viewBox="0.0 0.0 960.0 540.0" fill="none" stroke="none" stroke-linecap="square" stroke-miterlimit="10" xmlns:xlink="http://www.w3.org/1999/xlink" xmlns="http://www.w3.org/2000/svg"><clipPath id="g8e1c54678e_0_80.0"><path d="m0 0l960.0 0l0 540.0l-960.0 0l0 -540.0z" clip-rule="nonzero"/></clipPath><g clip-path="url(#g8e1c54678e_0_80.0)"><path fill="#ffffff" d="m0 0l960.0 0l0 540.0l-960.0 0z" fill-rule="evenodd"/><path fill="#f4cccc" d="m87.279526 243.55672l0 0c0 -7.7176514 6.256386 -13.974045 13.974037 -13.974045l192.11493 0c3.7061462 0 7.2604675 1.4722595 9.881134 4.092911c2.620636 2.620636 4.0928955 6.174988 4.0928955 9.881134l0 55.894455c0 7.7176514 -6.2564087 13.97403 -13.97403 13.97403l-192.11493 0l0 0c-7.7176514 0 -13.974037 -6.256378 -13.974037 -13.97403z" fill-rule="evenodd"/><path stroke="#000000" stroke-width="4.0" stroke-linejoin="round" stroke-linecap="butt" d="m87.279526 243.55672l0 0c0 -7.7176514 6.256386 -13.974045 13.974037 -13.974045l192.11493 0c3.7061462 0 7.2604675 1.4722595 9.881134 4.092911c2.620636 2.620636 4.0928955 6.174988 4.0928955 9.881134l0 55.894455c0 7.7176514 -6.2564087 13.97403 -13.97403 13.97403l-192.11493 0l0 0c-7.7176514 0 -13.974037 -6.256378 -13.974037 -13.97403z" fill-rule="evenodd"/><path fill="#000000" d="m164.97066 268.8502l0 0.875q0.75 -0.734375 1.359375 -1.015625q0.609375 -0.28125 1.40625 -0.28125q0.671875 0 1.328125 0.328125q0.65625 0.328125 1.28125 1.0q0.796875 -0.671875 1.609375 -0.984375q0.828125 -0.328125 1.671875 -0.328125q1.703125 0 2.765625 0.921875q1.40625 1.1875 1.40625 3.140625l0 6.875q0.96875 0 1.421875 0.4375q0.46875 0.421875 0.46875 1.09375q0 0.671875 -0.46875 1.109375q-0.453125 0.421875 -1.5625 0.421875l-2.921875 0l0 -9.6875q0 -0.703125 -0.25 -0.96875q-0.25 -0.265625 -0.78125 -0.265625q-0.515625 0 -0.9375 0.265625q-0.5625 0.375 -1.359375 1.40625l0 6.1875q0.96875 0 1.421875 0.4375q0.46875 0.421875 0.46875 1.09375q0 0.671875 -0.46875 1.109375q-0.453125 0.421875 -1.5625 0.421875l-2.921875 0l0 -9.6875q0 -0.6875 -0.265625 -0.953125q-0.25 -0.28125 -0.78125 -0.28125q-0.546875 0 -1.078125 0.34375q-0.515625 0.328125 -1.25 1.328125l0 6.1875q0.96875 0 1.4375 0.4375q0.46875 0.421875 0.46875 1.09375q0 0.671875 -0.46875 1.109375q-0.46875 0.421875 -1.578125 0.421875l-2.765625 0q-1.109375 0 -1.578125 -0.421875q-0.484375 -0.4375 -0.484375 -1.125q0 -0.671875 0.46875 -1.09375q0.46875 -0.421875 1.4375 -0.421875l0 -7.453125q-0.96875 0 -1.4375 -0.4375q-0.46875 -0.4375 -0.46875 -1.109375q0 -0.671875 0.484375 -1.09375q0.46875 -0.4375 1.578125 -0.4375l2.90625 0zm24.240494 -5.828125l0 3.25l-3.65625 0l0 -3.25l3.65625 0zm0.421875 5.828125l0 10.53125l3.6875 0q1.09375 0 1.5625 0.421875q0.484375 0.421875 0.484375 1.109375q0 0.671875 -0.484375 1.109375q-0.46875 0.421875 -1.5625 0.421875l-10.4375 0q-1.109375 0 -1.578125 -0.421875q-0.46875 -0.4375 -0.46875 -1.125q0 -0.671875 0.46875 -1.09375q0.46875 -0.421875 1.578125 -0.421875l3.6875 0l0 -7.453125l-2.484375 0q-1.078125 0 -1.5625 -0.421875q-0.484375 -0.4375 -0.484375 -1.125q0 -0.671875 0.46875 -1.09375q0.484375 -0.4375 1.578125 -0.4375l5.546875 0zm13.771744 0l0 1.03125q0.84375 -0.71875 1.84375 -1.078125q1.015625 -0.359375 2.203125 -0.359375q2.71875 0 4.296875 1.703125q1.265625 1.34375 1.265625 3.53125l0 5.703125q0.96875 0 1.4375 0.421875q0.46875 0.421875 0.46875 1.109375q0 0.671875 -0.484375 1.109375q-0.46875 0.421875 -1.578125 0.421875l-2.765625 0q-1.109375 0 -1.578125 -0.421875q-0.46875 -0.4375 -0.46875 -1.125q0 -0.671875 0.453125 -1.09375q0.46875 -0.421875 1.453125 -0.421875l0 -5.796875q0 -1.0 -0.546875 -1.46875q-0.703125 -0.59375 -2.109375 -0.59375q-1.0625 0 -1.875 0.40625q-0.796875 0.40625 -2.015625 1.75l0 5.703125q1.1875 0 1.53125 0.21875q0.734375 0.453125 0.734375 1.3125q0 0.671875 -0.484375 1.109375q-0.46875 0.421875 -1.578125 0.421875l-3.484375 0q-1.109375 0 -1.578125 -0.421875q-0.46875 -0.4375 -0.46875 -1.125q0 -0.828125 0.71875 -1.296875q0.359375 -0.21875 1.546875 -0.21875l0 -7.453125q-0.984375 0 -1.453125 -0.4375q-0.453125 -0.4375 -0.453125 -1.109375q0 -0.671875 0.46875 -1.09375q0.46875 -0.4375 1.578125 -0.4375l2.921875 0zm20.740494 3.078125l0 6.140625q0 0.984375 0.40625 1.3125q0.625 0.484375 2.25 0.484375q2.34375 0 4.34375 -1.0q0.765625 -0.390625 1.1875 -0.390625q0.609375 0 1.046875 0.453125q0.4375 0.453125 0.4375 1.09375q0 0.59375 -0.46875 1.03125q-0.734375 0.703125 -2.90625 1.296875q-2.15625 0.59375 -3.640625 0.59375q-2.859375 0 -4.296875 -1.234375q-1.421875 -1.234375 -1.421875 -3.03125l0 -6.75l-1.109375 0q-1.109375 0 -1.578125 -0.421875q-0.46875 -0.4375 -0.46875 -1.125q0 -0.671875 0.46875 -1.09375q0.46875 -0.4375 1.578125 -0.4375l1.109375 0l0 -2.765625q0 -1.109375 0.421875 -1.578125q0.4375 -0.46875 1.125 -0.46875q0.671875 0 1.09375 0.46875q0.421875 0.46875 0.421875 1.578125l0 2.765625l5.671875 0q1.109375 0 1.578125 0.4375q0.484375 0.421875 0.484375 1.109375q0 0.671875 -0.484375 1.109375q-0.46875 0.421875 -1.578125 0.421875l-5.671875 0z" fill-rule="nonzero"/><path fill="#000000" fill-opacity="0.0" d="m153.67455 229.58267l87.27559 0l0 35.93701l-87.27559 0z" fill-rule="evenodd"/><path fill="#fff2cc" d="m664.76117 256.55313l0 0c0 -14.8953705 12.075073 -26.970459 26.970459 -26.970459l94.72046 0l0 0c7.153015 0 14.013062 2.8415222 19.071045 7.899475c5.0579224 5.0579376 7.899414 11.917984 7.899414 19.070984l0 29.901611c0 14.895355 -12.075073 26.970459 -26.970459 26.970459l-94.72046 0c-14.895386 0 -26.970459 -12.075104 -26.970459 -26.970459z" fill-rule="evenodd"/><path stroke="#000000" stroke-width="4.0" stroke-linejoin="round" stroke-linecap="butt" d="m664.76117 256.55313l0 0c0 -14.8953705 12.075073 -26.970459 26.970459 -26.970459l94.72046 0l0 0c7.153015 0 14.013062 2.8415222 19.071045 7.899475c5.0579224 5.0579376 7.899414 11.917984 7.899414 19.070984l0 29.901611c0 14.895355 -12.075073 26.970459 -26.970459 26.970459l-94.72046 0c-14.895386 0 -26.970459 -12.075104 -26.970459 -26.970459z" fill-rule="evenodd"/><path fill="#000000" d="m694.1985 263.02206l0 3.25l-3.65625 0l0 -3.25l3.65625 0zm0.421875 5.828125l0 10.53125l3.6875 0q1.09375 0 1.5625 0.421875q0.484375 0.421875 0.484375 1.109375q0 0.671875 -0.484375 1.109375q-0.46875 0.421875 -1.5625 0.421875l-10.4375 0q-1.109375 0 -1.578125 -0.421875q-0.46875 -0.4375 -0.46875 -1.125q0 -0.671875 0.46875 -1.09375q0.46875 -0.421875 1.578125 -0.421875l3.6875 0l0 -7.453125l-2.484375 0q-1.078125 0 -1.5625 -0.421875q-0.484375 -0.4375 -0.484375 -1.125q0 -0.671875 0.46875 -1.09375q0.484375 -0.4375 1.578125 -0.4375l5.546875 0zm20.193665 3.59375q-0.75 -0.46875 -1.578125 -0.6875q-0.8125 -0.234375 -1.71875 -0.234375q-1.78125 0 -2.828125 0.578125q-0.46875 0.25 -0.46875 0.546875q0 0.34375 0.640625 0.6875q0.46875 0.234375 2.140625 0.453125q3.046875 0.421875 4.25 0.84375q1.5625 0.546875 2.40625 1.640625q0.859375 1.09375 0.859375 2.3125q0 1.640625 -1.4375 2.75q-2.09375 1.609375 -5.40625 1.609375q-1.34375 0 -2.46875 -0.234375q-1.125 -0.234375 -2.078125 -0.6875q-0.21875 0.203125 -0.484375 0.3125q-0.25 0.09375 -0.515625 0.09375q-0.71875 0 -1.140625 -0.46875q-0.421875 -0.46875 -0.421875 -1.578125l0 -1.03125q0 -1.109375 0.421875 -1.578125q0.421875 -0.484375 1.109375 -0.484375q0.5625 0 0.9375 0.3125q0.375 0.3125 0.578125 1.0625q0.703125 0.59375 1.6875 0.90625q1.0 0.296875 2.28125 0.296875q2.109375 0 3.28125 -0.65625q0.546875 -0.328125 0.546875 -0.6875q0 -0.59375 -0.796875 -0.984375q-0.78125 -0.390625 -3.265625 -0.65625q-3.703125 -0.390625 -4.953125 -1.5q-1.234375 -1.09375 -1.234375 -2.703125q0 -1.640625 1.390625 -2.734375q1.890625 -1.5 4.9375 -1.5q1.0625 0 2.046875 0.203125q0.984375 0.203125 1.875 0.625q0.28125 -0.203125 0.53125 -0.3125q0.25 -0.109375 0.453125 -0.109375q0.640625 0 1.046875 0.46875q0.421875 0.46875 0.421875 1.578125l0 0.75q0 1.0 -0.234375 1.359375q-0.484375 0.703125 -1.296875 0.703125q-0.5625 0 -0.984375 -0.34375q-0.40625 -0.359375 -0.53125 -0.921875zm18.396729 0q-0.75 -0.46875 -1.578125 -0.6875q-0.8125 -0.234375 -1.71875 -0.234375q-1.78125 0 -2.828125 0.578125q-0.46875 0.25 -0.46875 0.546875q0 0.34375 0.640625 0.6875q0.46875 0.234375 2.140625 0.453125q3.046875 0.421875 4.25 0.84375q1.5625 0.546875 2.40625 1.640625q0.859375 1.09375 0.859375 2.3125q0 1.640625 -1.4375 2.75q-2.09375 1.609375 -5.40625 1.609375q-1.34375 0 -2.46875 -0.234375q-1.125 -0.234375 -2.078125 -0.6875q-0.21875 0.203125 -0.484375 0.3125q-0.25 0.09375 -0.515625 0.09375q-0.71875 0 -1.140625 -0.46875q-0.421875 -0.46875 -0.421875 -1.578125l0 -1.03125q0 -1.109375 0.421875 -1.578125q0.421875 -0.484375 1.109375 -0.484375q0.5625 0 0.9375 0.3125q0.375 0.3125 0.578125 1.0625q0.703125 0.59375 1.6875 0.90625q1.0 0.296875 2.28125 0.296875q2.109375 0 3.28125 -0.65625q0.546875 -0.328125 0.546875 -0.6875q0 -0.59375 -0.796875 -0.984375q-0.78125 -0.390625 -3.265625 -0.65625q-3.703125 -0.390625 -4.953125 -1.5q-1.234375 -1.09375 -1.234375 -2.703125q0 -1.640625 1.390625 -2.734375q1.890625 -1.5 4.9375 -1.5q1.0625 0 2.046875 0.203125q0.984375 0.203125 1.875 0.625q0.28125 -0.203125 0.53125 -0.3125q0.25 -0.109375 0.453125 -0.109375q0.640625 0 1.046875 0.46875q0.421875 0.46875 0.421875 1.578125l0 0.75q0 1.0 -0.234375 1.359375q-0.484375 0.703125 -1.296875 0.703125q-0.5625 0 -0.984375 -0.34375q-0.40625 -0.359375 -0.53125 -0.921875zm21.599854 -3.59375l0 10.53125q0.96875 0 1.4375 0.4375q0.46875 0.421875 0.46875 1.09375q0 0.671875 -0.484375 1.109375q-0.46875 0.421875 -1.578125 0.421875l-2.90625 0l0 -0.703125q-1.328125 0.59375 -2.53125 0.890625q-1.1875 0.3125 -2.265625 0.3125q-1.515625 0 -2.625 -0.640625q-1.109375 -0.640625 -1.75 -1.765625q-0.453125 -0.796875 -0.453125 -2.015625l0 -6.59375l-0.53125 0q-1.109375 0 -1.578125 -0.421875q-0.46875 -0.4375 -0.46875 -1.125q0 -0.671875 0.46875 -1.09375q0.46875 -0.4375 1.578125 -0.4375l3.59375 0l0 9.140625q0 0.96875 0.46875 1.421875q0.46875 0.453125 1.453125 0.453125q0.921875 0 1.984375 -0.359375q1.078125 -0.375 2.65625 -1.328125l0 -6.25l-1.109375 0q-1.109375 0 -1.59375 -0.421875q-0.46875 -0.4375 -0.46875 -1.125q0 -0.671875 0.46875 -1.09375q0.484375 -0.4375 1.59375 -0.4375l4.171875 0zm19.584229 8.359375l-12.59375 0q0.484375 1.1875 1.703125 1.921875q1.21875 0.734375 3.296875 0.734375q1.703125 0 4.53125 -0.734375q1.171875 -0.296875 1.625 -0.296875q0.609375 0 1.03125 0.4375q0.421875 0.4375 0.421875 1.09375q0 0.59375 -0.453125 1.015625q-0.609375 0.546875 -2.921875 1.0625q-2.3125 0.5 -4.453125 0.5q-3.6875 0 -5.90625 -2.078125q-2.203125 -2.09375 -2.203125 -5.125q0 -3.234375 2.390625 -5.265625q2.390625 -2.03125 5.5 -2.03125q1.875 0 3.4375 0.671875q1.5625 0.65625 2.328125 1.40625q1.078125 1.109375 1.78125 2.75q0.484375 1.140625 0.484375 2.625l0 1.3125zm-3.40625 -3.078125q-0.703125 -1.3125 -1.84375 -1.953125q-1.140625 -0.65625 -2.703125 -0.65625q-1.5625 0 -2.703125 0.65625q-1.125 0.640625 -1.84375 1.953125l9.09375 0zm13.45929 -5.28125l0 1.921875q1.9375 -1.390625 3.046875 -1.859375q1.109375 -0.46875 2.09375 -0.46875q1.484375 0 2.890625 1.109375q0.96875 0.75 0.96875 1.53125q0 0.65625 -0.46875 1.109375q-0.453125 0.453125 -1.09375 0.453125q-0.5625 0 -1.203125 -0.5625q-0.625 -0.5625 -1.109375 -0.5625q-0.65625 0 -1.9375 0.8125q-1.265625 0.796875 -3.1875 2.421875l0 4.625l4.375 0q1.109375 0 1.578125 0.421875q0.46875 0.421875 0.46875 1.109375q0 0.671875 -0.46875 1.109375q-0.46875 0.421875 -1.578125 0.421875l-9.265625 0q-1.109375 0 -1.59375 -0.421875q-0.46875 -0.4375 -0.46875 -1.125q0 -0.671875 0.46875 -1.09375q0.484375 -0.421875 1.59375 -0.421875l1.828125 0l0 -7.453125l-1.109375 0q-1.109375 0 -1.59375 -0.421875q-0.46875 -0.4375 -0.46875 -1.125q0 -0.671875 0.46875 -1.09375q0.484375 -0.4375 1.59375 -0.4375l4.171875 0z" fill-rule="nonzero"/><path fill="#b6d7a8" d="m405.66928 53.55671l0 0c0 -7.7176437 6.2564087 -13.974033 13.97403 -13.974033l120.71338 0c3.7061157 0 7.260498 1.4722595 9.8811035 4.0928993c2.6206665 2.6206398 4.0928955 6.1749916 4.0928955 9.881134l0 55.894455c0 7.7176437 -6.2563477 13.97403 -13.973999 13.97403l-120.71338 0c-7.717621 0 -13.97403 -6.256386 -13.97403 -13.97403z" fill-rule="evenodd"/><path stroke="#000000" stroke-width="4.0" stroke-linejoin="round" stroke-linecap="butt" d="m405.66928 53.55671l0 0c0 -7.7176437 6.2564087 -13.974033 13.97403 -13.974033l120.71338 0c3.7061157 0 7.260498 1.4722595 9.8811035 4.0928993c2.6206665 2.6206398 4.0928955 6.1749916 4.0928955 9.881134l0 55.894455c0 7.7176437 -6.2563477 13.97403 -13.973999 13.97403l-120.71338 0c-7.717621 0 -13.97403 -6.256386 -13.97403 -13.97403z" fill-rule="evenodd"/><path fill="#000000" d="m439.33627 73.02206l0 6.890625q1.125 -0.734375 2.28125 -1.09375q1.15625 -0.375 2.34375 -0.375q3.1875 0 5.40625 2.203125q2.21875 2.203125 2.21875 5.3125q0 2.984375 -2.109375 4.984375q-2.109375 2.0 -5.578125 2.0q-1.21875 0 -2.359375 -0.328125q-1.140625 -0.3125 -2.203125 -0.921875l0 0.75l-3.59375 0q-1.109375 0 -1.578125 -0.421875q-0.46875 -0.4375 -0.46875 -1.125q0 -0.671875 0.46875 -1.09375q0.484375 -0.421875 1.578125 -0.421875l0.53125 0l0 -13.28125l-0.53125 0q-1.109375 0 -1.578125 -0.421875q-0.46875 -0.4375 -0.46875 -1.125q0 -0.671875 0.46875 -1.09375q0.46875 -0.4375 1.578125 -0.4375l3.59375 0zm9.171875 13.03125q0 -1.90625 -1.328125 -3.21875q-1.328125 -1.3125 -3.265625 -1.3125q-1.90625 0 -3.25 1.3125q-1.328125 1.3125 -1.328125 3.171875q0 1.6875 1.1875 2.78125q1.203125 1.078125 3.390625 1.078125q2.1875 0 3.390625 -1.078125q1.203125 -1.09375 1.203125 -2.734375zm12.4592285 -7.203125l0 1.921875q1.9375 -1.390625 3.046875 -1.859375q1.109375 -0.46875 2.09375 -0.46875q1.484375 0 2.890625 1.109375q0.96875 0.75 0.96875 1.53125q0 0.65625 -0.46875 1.109375q-0.453125 0.453125 -1.09375 0.453125q-0.5625 0 -1.203125 -0.5625q-0.625 -0.5625 -1.109375 -0.5625q-0.65625 0 -1.9375 0.8125q-1.265625 0.796875 -3.1875 2.421875l0 4.625l4.375 0q1.109375 0 1.578125 0.421875q0.46875 0.421875 0.46875 1.109375q0 0.671875 -0.46875 1.109375q-0.46875 0.421875 -1.578125 0.421875l-9.265625 0q-1.109375 0 -1.59375 -0.421875q-0.46875 -0.4375 -0.46875 -1.125q0 -0.671875 0.46875 -1.09375q0.484375 -0.421875 1.59375 -0.421875l1.828125 0l0 -7.453125l-1.109375 0q-1.109375 0 -1.59375 -0.421875q-0.46875 -0.4375 -0.46875 -1.125q0 -0.671875 0.46875 -1.09375q0.484375 -0.4375 1.59375 -0.4375l4.171875 0zm21.787384 13.59375l0 -0.71875q-1.140625 0.609375 -2.546875 0.921875q-1.390625 0.3125 -2.515625 0.3125q-2.46875 0 -4.015625 -1.3125q-1.546875 -1.3125 -1.546875 -2.90625q0 -1.921875 1.96875 -3.578125q1.96875 -1.65625 5.4375 -1.65625q1.40625 0 3.21875 0.296875l0 -0.734375q0 -0.6875 -0.59375 -1.109375q-0.578125 -0.4375 -2.25 -0.4375q-1.359375 0 -3.53125 0.53125q-0.796875 0.203125 -1.25 0.203125q-0.609375 0 -1.046875 -0.4375q-0.421875 -0.453125 -0.421875 -1.140625q0 -0.390625 0.140625 -0.671875q0.15625 -0.28125 0.421875 -0.453125q0.28125 -0.171875 1.125 -0.421875q1.140625 -0.3125 2.3125 -0.5q1.1875 -0.1875 2.15625 -0.1875q2.859375 0 4.4375 1.234375q1.578125 1.234375 1.578125 3.375l0 6.328125l0.515625 0q1.109375 0 1.578125 0.421875q0.484375 0.421875 0.484375 1.109375q0 0.671875 -0.484375 1.109375q-0.46875 0.421875 -1.578125 0.421875l-3.59375 0zm0 -5.5q-1.828125 -0.359375 -3.390625 -0.359375q-1.875 0 -3.21875 0.921875q-0.84375 0.578125 -0.84375 1.1875q0 0.421875 0.40625 0.703125q0.75 0.484375 2.046875 0.484375q1.109375 0 2.515625 -0.421875q1.40625 -0.4375 2.484375 -1.1875l0 -1.328125zm12.5373535 -8.09375l0 1.03125q0.84375 -0.71875 1.84375 -1.078125q1.015625 -0.359375 2.203125 -0.359375q2.71875 0 4.296875 1.703125q1.265625 1.34375 1.265625 3.53125l0 5.703125q0.96875 0 1.4375 0.421875q0.46875 0.421875 0.46875 1.109375q0 0.671875 -0.484375 1.109375q-0.46875 0.421875 -1.578125 0.421875l-2.765625 0q-1.109375 0 -1.578125 -0.421875q-0.46875 -0.4375 -0.46875 -1.125q0 -0.671875 0.453125 -1.09375q0.46875 -0.421875 1.453125 -0.421875l0 -5.796875q0 -1.0 -0.546875 -1.46875q-0.703125 -0.59375 -2.109375 -0.59375q-1.0625 0 -1.875 0.40625q-0.796875 0.40625 -2.015625 1.75l0 5.703125q1.1875 0 1.53125 0.21875q0.734375 0.453125 0.734375 1.3125q0 0.671875 -0.484375 1.109375q-0.46875 0.421875 -1.578125 0.421875l-3.484375 0q-1.109375 0 -1.578125 -0.421875q-0.46875 -0.4375 -0.46875 -1.125q0 -0.828125 0.71875 -1.296875q0.359375 -0.21875 1.546875 -0.21875l0 -7.453125q-0.984375 0 -1.453125 -0.4375q-0.453125 -0.4375 -0.453125 -1.109375q0 -0.671875 0.46875 -1.09375q0.46875 -0.4375 1.578125 -0.4375l2.921875 0zm28.537354 -5.828125l0 16.359375l0.53125 0q1.09375 0 1.5625 0.421875q0.484375 0.421875 0.484375 1.109375q0 0.671875 -0.46875 1.109375q-0.46875 0.421875 -1.578125 0.421875l-3.59375 0l0 -0.75q-1.046875 0.609375 -2.203125 0.921875q-1.140625 0.328125 -2.359375 0.328125q-3.453125 0 -5.5780945 -2.0q-2.109375 -2.0 -2.109375 -4.984375q0 -3.109375 2.21875 -5.3125q2.2187195 -2.203125 5.4062195 -2.203125q1.203125 0 2.34375 0.375q1.15625 0.359375 2.28125 1.09375l0 -3.8125l-0.515625 0q-1.109375 0 -1.59375 -0.421875q-0.46875 -0.4375 -0.46875 -1.109375q0 -0.6875 0.46875 -1.109375q0.484375 -0.4375 1.59375 -0.4375l3.578125 0zm-3.0625 13.03125q0 -1.90625 -1.328125 -3.21875q-1.328125 -1.3125 -3.265625 -1.3125q-1.921875 0 -3.25 1.3125q-1.3280945 1.3125 -1.3280945 3.171875q0 1.6875 1.1874695 2.78125q1.203125 1.078125 3.390625 1.078125q2.171875 0 3.375 -1.078125q1.21875 -1.09375 1.21875 -2.734375z" fill-rule="nonzero"/><path fill="#000000" fill-opacity="0.0" d="m405.66928 81.50394l-208.34645 148.09448" fill-rule="evenodd"/><path stroke="#000000" stroke-width="3.0" stroke-linejoin="round" stroke-linecap="butt" d="m405.66928 81.50394l-208.34645 148.09448" fill-rule="evenodd"/><path fill="#000000" fill-opacity="0.0" d="m554.3307 81.50394l184.75592 148.09448" fill-rule="evenodd"/><path stroke="#000000" stroke-width="3.0" stroke-linejoin="round" stroke-linecap="butt" d="m554.3307 81.50394l184.75592 148.09448" fill-rule="evenodd"/><path fill="#000000" fill-opacity="0.0" d="m197.32283 85.39895l137.19685 0l0 55.527565l-137.19685 0z" fill-rule="evenodd"/><path fill="#000000" d="m214.71346 114.87895l-2.921875 0l0 -11.03125q-1.609375 1.5 -3.78125 2.21875l0 -2.65625q1.140625 -0.375 2.484375 -1.421875q1.34375 -1.046875 1.84375 -2.4375l2.375 0l0 15.328125zm4.6585693 -4.078125l0 -2.921875l5.75 0l0 2.921875l-5.75 0zm12.524307 -6.984375l0 2.328125l-2.0 0l0 4.46875q0 1.34375 0.046875 1.578125q0.0625 0.21875 0.265625 0.375q0.203125 0.140625 0.5 0.140625q0.40625 0 1.171875 -0.28125l0.25 2.265625q-1.015625 0.4375 -2.3125 0.4375q-0.796875 0 -1.4375 -0.265625q-0.625 -0.265625 -0.921875 -0.6875q-0.296875 -0.421875 -0.40625 -1.140625q-0.09375 -0.515625 -0.09375 -2.0625l0 -4.828125l-1.34375 0l0 -2.328125l1.34375 0l0 -2.1875l2.9375 -1.71875l0 3.90625l2.0 0zm1.3524323 5.375q0 -1.453125 0.71875 -2.8125q0.71875 -1.375 2.03125 -2.09375q1.3125 -0.71875 2.9375 -0.71875q2.515625 0 4.109375 1.640625q1.609375 1.625 1.609375 4.109375q0 2.515625 -1.625 4.171875q-1.609375 1.640625 -4.0625 1.640625q-1.53125 0 -2.90625 -0.6875q-1.375 -0.6875 -2.09375 -2.015625q-0.71875 -1.328125 -0.71875 -3.234375zm3.0 0.15625q0 1.640625 0.78125 2.515625q0.78125 0.875 1.921875 0.875q1.140625 0 1.921875 -0.875q0.78125 -0.875 0.78125 -2.53125q0 -1.625 -0.78125 -2.5q-0.78125 -0.875 -1.921875 -0.875q-1.140625 0 -1.921875 0.875q-0.78125 0.875 -0.78125 2.515625zm10.356201 1.453125l0 -2.921875l5.75 0l0 2.921875l-5.75 0zm14.305557 4.078125l-2.921875 0l0 -11.03125q-1.609375 1.5 -3.78125 2.21875l0 -2.65625q1.140625 -0.375 2.484375 -1.421875q1.34375 -1.046875 1.84375 -2.4375l2.375 0l0 15.328125z" fill-rule="nonzero"/><path fill="#000000" fill-opacity="0.0" d="m307.34253 278.00262l357.4173 -5.952759" fill-rule="evenodd"/><path stroke="#000000" stroke-width="3.0" stroke-linejoin="round" stroke-linecap="butt" d="m307.34253 278.00262l357.4173 -5.952759" fill-rule="evenodd"/><path fill="#000000" fill-opacity="0.0" d="m450.3622 224.88977l87.275604 0l0 45.322815l-87.275604 0z" fill-rule="evenodd"/><path fill="#000000" d="m467.75284 254.36977l-2.921875 0l0 -11.03125q-1.609375 1.5 -3.78125 2.21875l0 -2.65625q1.140625 -0.375 2.484375 -1.421875q1.34375 -1.046875 1.84375 -2.4375l2.375 0l0 15.328125zm4.6585693 -4.078125l0 -2.921875l5.75 0l0 2.921875l-5.75 0zm12.524292 -6.984375l0 2.328125l-2.0 0l0 4.46875q0 1.34375 0.046875 1.578125q0.0625 0.21875 0.265625 0.375q0.203125 0.140625 0.5 0.140625q0.40625 0 1.171875 -0.28125l0.25 2.265625q-1.015625 0.4375 -2.3125 0.4375q-0.796875 0 -1.4375 -0.265625q-0.625 -0.265625 -0.921875 -0.6875q-0.296875 -0.421875 -0.40625 -1.140625q-0.09375 -0.515625 -0.09375 -2.0625l0 -4.828125l-1.34375 0l0 -2.328125l1.34375 0l0 -2.1875l2.9375 -1.71875l0 3.90625l2.0 0zm1.3524475 5.375q0 -1.453125 0.71875 -2.8125q0.71875 -1.375 2.03125 -2.09375q1.3125 -0.71875 2.9375 -0.71875q2.515625 0 4.109375 1.640625q1.609375 1.625 1.609375 4.109375q0 2.515625 -1.625 4.171875q-1.609375 1.640625 -4.0625 1.640625q-1.53125 0 -2.90625 -0.6875q-1.375 -0.6875 -2.09375 -2.015625q-0.71875 -1.328125 -0.71875 -3.234375zm3.0 0.15625q0 1.640625 0.78125 2.515625q0.78125 0.875 1.921875 0.875q1.140625 0 1.921875 -0.875q0.78125 -0.875 0.78125 -2.53125q0 -1.625 -0.78125 -2.5q-0.78125 -0.875 -1.921875 -0.875q-1.140625 0 -1.921875 0.875q-0.78125 0.875 -0.78125 2.515625zm10.356201 1.453125l0 -2.921875l5.75 0l0 2.921875l-5.75 0zm14.305542 4.078125l-2.921875 0l0 -11.03125q-1.609375 1.5 -3.78125 2.21875l0 -2.65625q1.140625 -0.375 2.484375 -1.421875q1.34375 -1.046875 1.84375 -2.4375l2.375 0l0 15.328125z" fill-rule="nonzero"/><path fill="#000000" fill-opacity="0.0" d="m664.76117 85.39895l137.19684 0l0 55.527565l-137.19684 0z" fill-rule="evenodd"/><path fill="#000000" d="m682.1518 114.87895l-2.921875 0l0 -11.03125q-1.609375 1.5 -3.78125 2.21875l0 -2.65625q1.140625 -0.375 2.484375 -1.421875q1.34375 -1.046875 1.84375 -2.4375l2.375 0l0 15.328125zm4.6585693 -4.078125l0 -2.921875l5.75 0l0 2.921875l-5.75 0zm12.524292 -6.984375l0 2.328125l-2.0 0l0 4.46875q0 1.34375 0.046875 1.578125q0.0625 0.21875 0.265625 0.375q0.203125 0.140625 0.5 0.140625q0.40625 0 1.171875 -0.28125l0.25 2.265625q-1.015625 0.4375 -2.3125 0.4375q-0.796875 0 -1.4375 -0.265625q-0.625 -0.265625 -0.921875 -0.6875q-0.296875 -0.421875 -0.40625 -1.140625q-0.09375 -0.515625 -0.09375 -2.0625l0 -4.828125l-1.34375 0l0 -2.328125l1.34375 0l0 -2.1875l2.9375 -1.71875l0 3.90625l2.0 0zm1.352417 5.375q0 -1.453125 0.71875 -2.8125q0.71875 -1.375 2.03125 -2.09375q1.3125 -0.71875 2.9375 -0.71875q2.515625 0 4.109375 1.640625q1.609375 1.625 1.609375 4.109375q0 2.515625 -1.625 4.171875q-1.609375 1.640625 -4.0625 1.640625q-1.53125 0 -2.90625 -0.6875q-1.375 -0.6875 -2.09375 -2.015625q-0.71875 -1.328125 -0.71875 -3.234375zm3.0 0.15625q0 1.640625 0.78125 2.515625q0.78125 0.875 1.921875 0.875q1.140625 0 1.921875 -0.875q0.78125 -0.875 0.78125 -2.53125q0 -1.625 -0.78125 -2.5q-0.78125 -0.875 -1.921875 -0.875q-1.140625 0 -1.921875 0.875q-0.78125 0.875 -0.78125 2.515625zm10.356201 1.453125l0 -2.921875l5.75 0l0 2.921875l-5.75 0zm14.305603 4.078125l-2.921875 0l0 -11.03125q-1.609375 1.5 -3.78125 2.21875l0 -2.65625q1.140625 -0.375 2.484375 -1.421875q1.34375 -1.046875 1.84375 -2.4375l2.375 0l0 15.328125z" fill-rule="nonzero"/></g></svg>