<svg version="1.1" viewBox="0.0 0.0 960.0 540.0" fill="none" stroke="none" stroke-linecap="square" stroke-miterlimit="10" xmlns:xlink="http://www.w3.org/1999/xlink" xmlns="http://www.w3.org/2000/svg"><clipPath id="g6c5c475e79_0_613.0"><path d="m0 0l960.0 0l0 540.0l-960.0 0l0 -540.0z" clip-rule="nonzero"/></clipPath><g clip-path="url(#g6c5c475e79_0_613.0)"><path fill="#ffffff" d="m0 0l960.0 0l0 540.0l-960.0 0z" fill-rule="evenodd"/><path fill="#ffc600" d="m391.61942 198.35228l0 0c0 -15.710724 12.736053 -28.446762 28.446777 -28.446762l129.02774 0c7.5445557 0 14.78009 2.997055 20.114868 8.331863c5.334839 5.334793 8.331909 12.570343 8.331909 20.114899l0 113.783646c0 15.710693 -12.736084 28.446747 -28.446777 28.446747l-129.02774 0c-15.710724 0 -28.446777 -12.736053 -28.446777 -28.446747z" fill-rule="evenodd"/><path fill="#1c1f2a" d="m709.3333 224.893l0 0c0 -17.113922 13.873596 -30.987488 30.987488 -30.987488l123.94629 0l0 0c8.218384 0 16.10022 3.26474 21.911499 9.076019c5.8112793 5.8112793 9.075989 13.693069 9.075989 21.911469l0 171.91476c0 17.113922 -13.873535 30.987518 -30.987488 30.987518l-123.94629 0c-17.113892 0 -30.987488 -13.873596 -30.987488 -30.987518z" fill-rule="evenodd"/><path fill="#000000" fill-opacity="0.0" d="m418.81607 219.85826l131.52756 0l0 128.25197l-131.52756 0z" fill-rule="evenodd"/><path fill="#ffffff" d="m449.6067 264.69827l0 -3.921875l16.15625 -19.48439l0.75 2.203125l-16.609375 0l0 -4.921875l21.984375 0l0 3.921875l-16.125 19.48439l-0.75 -2.203125l17.4375 0l0 4.921875l-22.84375 0zm35.614044 0.296875q-3.21875 0 -5.703125 -1.34375q-2.484375 -1.34375 -3.921875 -3.671875q-1.4375 -2.34375 -1.4375 -5.3281403q0 -3.015625 1.4375 -5.34375q1.4375 -2.34375 3.921875 -3.65625q2.484375 -1.328125 5.703125 -1.328125q3.171875 0 5.671875 1.328125q2.5 1.3125 3.90625 3.625q1.421875 2.3125 1.421875 5.375q0 2.9843903 -1.421875 5.3281403q-1.40625 2.328125 -3.90625 3.671875q-2.5 1.34375 -5.671875 1.34375zm0 -4.78125q1.453125 0 2.609375 -0.671875q1.15625 -0.671875 1.828125 -1.921875q0.671875 -1.25 0.671875 -2.9687653q0 -1.75 -0.671875 -2.984375q-0.671875 -1.234375 -1.828125 -1.90625q-1.15625 -0.671875 -2.609375 -0.671875q-1.46875 0 -2.625 0.671875q-1.15625 0.671875 -1.84375 1.90625q-0.6875 1.234375 -0.6875 2.984375q0 1.7187653 0.6875 2.9687653q0.6875 1.25 1.84375 1.921875q1.15625 0.671875 2.625 0.671875zm24.856262 4.78125q-3.4375 0 -6.03125 -1.34375q-2.59375 -1.34375 -4.015625 -3.671875q-1.421875 -2.34375 -1.421875 -5.3281403q0 -3.015625 1.40625 -5.34375q1.40625 -2.34375 3.828125 -3.65625q2.421875 -1.328125 5.484375 -1.328125q2.9530945 0 5.3124695 1.25q2.375 1.25 3.75 3.578125q1.390625 2.328125 1.390625 5.578125q0 0.34375 -0.046875 0.78125q-0.03125 0.421875 -0.0625 0.78126526l-16.31247 0l0 -3.3906403l13.2499695 0l-2.234375 1.015625q0 -1.578125 -0.640625 -2.734375q-0.640625 -1.15625 -1.7655945 -1.796875q-1.109375 -0.65625 -2.609375 -0.65625q-1.484375 0 -2.625 0.65625q-1.140625 0.640625 -1.78125 1.828125q-0.625 1.171875 -0.625 2.765625l0 0.90625q0 1.6406403 0.71875 2.8906403q0.734375 1.25 2.0625 1.90625q1.328125 0.640625 3.109375 0.640625q1.609375 0 2.8124695 -0.484375q1.21875 -0.484375 2.234375 -1.453125l3.09375 3.359375q-1.375 1.578125 -3.46875 2.421875q-2.09375 0.828125 -4.8124695 0.828125z" fill-rule="nonzero"/><path fill="#000000" fill-opacity="0.0" d="m695.63257 239.77953l213.32281 0l0 208.03151l-213.32281 0z" fill-rule="evenodd"/><path fill="#ffffff" d="m754.5362 285.07266q-3.140625 0 -6.015625 -0.84375q-2.875 -0.84375 -4.625 -2.1875l2.046875 -4.546875q1.6875 1.1875 3.984375 1.953125q2.296875 0.765625 4.640625 0.765625q1.796875 0 2.890625 -0.34375q1.109375 -0.359375 1.625 -1.0q0.53125 -0.640625 0.53125 -1.453125q0 -1.046875 -0.828125 -1.65625q-0.8125 -0.625 -2.15625 -1.015625q-1.34375 -0.390625 -2.96875 -0.734375q-1.625 -0.359375 -3.25 -0.875q-1.625 -0.53125 -2.96875 -1.34375q-1.34375 -0.828125 -2.1875 -2.171875q-0.84375 -1.34375 -0.84375 -3.4375q0 -2.25 1.21875 -4.09375q1.21875 -1.84375 3.65625 -2.9375q2.453125 -1.109375 6.140625 -1.109375q2.46875 0 4.859375 0.578125q2.390625 0.578125 4.21875 1.734375l-1.875 4.59375q-1.828125 -1.046875 -3.65625 -1.546875q-1.828125 -0.5 -3.578125 -0.5q-1.765625 0 -2.890625 0.40625q-1.109375 0.40625 -1.59375 1.0625q-0.484375 0.65625 -0.484375 1.515625q0 1.0 0.8125 1.625q0.828125 0.609375 2.171875 0.984375q1.34375 0.375 2.96875 0.75q1.625 0.375 3.25 0.859375q1.625 0.484375 2.96875 1.3125q1.34375 0.8125 2.171875 2.15625q0.84375 1.34375 0.84375 3.390625q0 2.203125 -1.234375 4.03125q-1.21875 1.828125 -3.671875 2.953125q-2.4375 1.125 -6.171875 1.125zm40.53418 -20.828125q2.390625 0 4.234375 0.953125q1.84375 0.9375 2.90625 2.90625q1.078125 1.953125 1.078125 5.015625l0 11.5l-5.828125 0l0 -10.59375q0 -2.4375 -1.015625 -3.59375q-1.0 -1.15625 -2.828125 -1.15625q-1.265625 0 -2.28125 0.578125q-1.0 0.578125 -1.5625 1.734375q-0.5625 1.15625 -0.5625 2.953125l0 10.078125l-5.828125 0l0 -10.59375q0 -2.4375 -0.984375 -3.59375q-0.984375 -1.15625 -2.8125 -1.15625q-1.28125 0 -2.296875 0.578125q-1.0 0.578125 -1.5625 1.734375q-0.546875 1.15625 -0.546875 2.953125l0 10.078125l-5.828125 0l0 -20.078125l5.5625 0l0 5.484375l-1.046875 -1.609375q1.046875 -2.046875 2.96875 -3.109375q1.921875 -1.0625 4.390625 -1.0625q2.75 0 4.828125 1.40625q2.078125 1.390625 2.75 4.265625l-2.0625 -0.5625q1.015625 -2.359375 3.234375 -3.734375q2.21875 -1.375 5.09375 -1.375zm25.751099 20.375l0 -3.921875l-0.375 -0.859375l0 -7.015625q0 -1.859375 -1.140625 -2.90625q-1.125 -1.046875 -3.484375 -1.046875q-1.59375 0 -3.15625 0.5q-1.546875 0.5 -2.625 1.359375l-2.09375 -4.0625q1.640625 -1.15625 3.953125 -1.78125q2.328125 -0.640625 4.703125 -0.640625q4.59375 0 7.125 2.171875q2.546875 2.15625 2.546875 6.75l0 11.453125l-5.453125 0zm-6.109375 0.296875q-2.359375 0 -4.046875 -0.796875q-1.671875 -0.8125 -2.578125 -2.1875q-0.890625 -1.375 -0.890625 -3.09375q0 -1.796875 0.875 -3.140625q0.890625 -1.34375 2.78125 -2.109375q1.90625 -0.765625 4.96875 -0.765625l5.34375 0l0 3.390625l-4.703125 0q-2.0625 0 -2.828125 0.671875q-0.75 0.671875 -0.75 1.6875q0 1.125 0.875 1.78125q0.875 0.640625 2.40625 0.640625q1.453125 0 2.609375 -0.6875q1.15625 -0.6875 1.671875 -2.03125l0.90625 2.6875q-0.640625 1.9375 -2.328125 2.953125q-1.671875 1.0 -4.3125 1.0zm16.82837 -0.296875l0 -20.078125l5.5625 0l0 5.671875l-0.78125 -1.640625q0.890625 -2.125 2.859375 -3.21875q1.984375 -1.109375 4.828125 -1.109375l0 5.375q-0.375 -0.046875 -0.671875 -0.0625q-0.296875 -0.015625 -0.640625 -0.015625q-2.390625 0 -3.859375 1.359375q-1.46875 1.359375 -1.46875 4.234375l0 9.484375l-5.828125 0zm24.867249 0.296875q-3.546875 0 -5.53125 -1.8125q-1.984375 -1.8125 -1.984375 -5.390625l0 -17.625l5.828125 0l0 17.546875q0 1.265625 0.671875 1.96875q0.671875 0.6875 1.828125 0.6875q1.390625 0 2.359375 -0.75l1.5625 4.109375q-0.890625 0.625 -2.140625 0.953125q-1.25 0.3125 -2.59375 0.3125zm-10.609375 -15.453125l0 -4.484375l13.921875 0l0 4.484375l-13.921875 0z" fill-rule="nonzero"/><path fill="#ffffff" d="m732.33856 329.9164q-3.25 0 -5.796875 -1.328125q-2.53125 -1.328125 -3.96875 -3.671875q-1.4375 -2.359375 -1.4375 -5.34375q0 -3.015625 1.4375 -5.34375q1.4375 -2.34375 3.96875 -3.65625q2.546875 -1.328125 5.796875 -1.328125q3.171875 0 5.515625 1.328125q2.359375 1.3125 3.484375 3.78125l-4.515625 2.421875q-0.78125 -1.421875 -1.96875 -2.09375q-1.171875 -0.671875 -2.546875 -0.671875q-1.5 0 -2.703125 0.671875q-1.1875 0.671875 -1.875 1.90625q-0.6875 1.234375 -0.6875 2.984375q0 1.765625 0.6875 3.0q0.6875 1.21875 1.875 1.890625q1.203125 0.671875 2.703125 0.671875q1.375 0 2.546875 -0.640625q1.1875 -0.65625 1.96875 -2.109375l4.515625 2.453125q-1.125 2.421875 -3.484375 3.75q-2.34375 1.328125 -5.515625 1.328125zm21.659058 0q-3.21875 0 -5.703125 -1.34375q-2.484375 -1.34375 -3.921875 -3.671875q-1.4375 -2.34375 -1.4375 -5.328125q0 -3.015625 1.4375 -5.34375q1.4375 -2.34375 3.921875 -3.65625q2.484375 -1.328125 5.703125 -1.328125q3.171875 0 5.671875 1.328125q2.5 1.3125 3.90625 3.625q1.421875 2.3125 1.421875 5.375q0 2.984375 -1.421875 5.328125q-1.40625 2.328125 -3.90625 3.671875q-2.5 1.34375 -5.671875 1.34375zm0 -4.78125q1.453125 0 2.609375 -0.671875q1.15625 -0.671875 1.828125 -1.921875q0.671875 -1.25 0.671875 -2.96875q0 -1.75 -0.671875 -2.984375q-0.671875 -1.234375 -1.828125 -1.90625q-1.15625 -0.671875 -2.609375 -0.671875q-1.46875 0 -2.625 0.671875q-1.15625 0.671875 -1.84375 1.90625q-0.6875 1.234375 -0.6875 2.984375q0 1.71875 0.6875 2.96875q0.6875 1.25 1.84375 1.921875q1.15625 0.671875 2.625 0.671875zm27.090576 -15.890625q2.390625 0 4.265625 0.953125q1.890625 0.9375 2.96875 2.90625q1.09375 1.953125 1.09375 5.015625l0 11.5l-5.828125 0l0 -10.59375q0 -2.4375 -1.0625 -3.59375q-1.0625 -1.15625 -3.0 -1.15625q-1.390625 0 -2.484375 0.578125q-1.09375 0.578125 -1.71875 1.78125q-0.609375 1.1875 -0.609375 3.0625l0 9.921875l-5.828125 0l0 -20.078125l5.5625 0l0 5.5625l-1.046875 -1.6875q1.078125 -2.015625 3.09375 -3.09375q2.015625 -1.078125 4.59375 -1.078125zm21.809448 20.671875q-3.546875 0 -5.53125 -1.8125q-1.984375 -1.8125 -1.984375 -5.390625l0 -17.625l5.828125 0l0 17.546875q0 1.265625 0.671875 1.96875q0.671875 0.6875 1.828125 0.6875q1.390625 0 2.359375 -0.75l1.5625 4.109375q-0.890625 0.625 -2.140625 0.953125q-1.25 0.3125 -2.59375 0.3125zm-10.609375 -15.453125l0 -4.484375l13.921875 0l0 4.484375l-13.921875 0zm18.628418 15.15625l0 -20.078125l5.5625 0l0 5.671875l-0.78125 -1.640625q0.890625 -2.125 2.859375 -3.21875q1.984375 -1.109375 4.828125 -1.109375l0 5.375q-0.375 -0.046875 -0.671875 -0.0625q-0.296875 -0.015625 -0.640625 -0.015625q-2.390625 0 -3.859375 1.359375q-1.46875 1.359375 -1.46875 4.234375l0 9.484375l-5.828125 0zm26.945007 0l0 -3.921875l-0.375 -0.859375l0 -7.015625q0 -1.859375 -1.140625 -2.90625q-1.125 -1.046875 -3.484375 -1.046875q-1.59375 0 -3.15625 0.5q-1.546875 0.5 -2.625 1.359375l-2.09375 -4.0625q1.640625 -1.15625 3.953125 -1.78125q2.328125 -0.640625 4.703125 -0.640625q4.59375 0 7.125 2.171875q2.546875 2.15625 2.546875 6.75l0 11.453125l-5.453125 0zm-6.109375 0.296875q-2.359375 0 -4.046875 -0.796875q-1.671875 -0.8125 -2.578125 -2.1875q-0.890625 -1.375 -0.890625 -3.09375q0 -1.796875 0.875 -3.140625q0.890625 -1.34375 2.78125 -2.109375q1.90625 -0.765625 4.96875 -0.765625l5.34375 0l0 3.390625l-4.703125 0q-2.0625 0 -2.828125 0.671875q-0.75 0.671875 -0.75 1.6875q0 1.125 0.875 1.78125q0.875 0.640625 2.40625 0.640625q1.453125 0 2.609375 -0.6875q1.15625 -0.6875 1.671875 -2.03125l0.90625 2.6875q-0.640625 1.9375 -2.328125 2.953125q-1.671875 1.0 -4.3125 1.0zm26.680847 0q-3.25 0 -5.796875 -1.328125q-2.53125 -1.328125 -3.96875 -3.671875q-1.4375 -2.359375 -1.4375 -5.34375q0 -3.015625 1.4375 -5.34375q1.4375 -2.34375 3.96875 -3.65625q2.546875 -1.328125 5.796875 -1.328125q3.171875 0 5.515625 1.328125q2.359375 1.3125 3.484375 3.78125l-4.515625 2.421875q-0.78125 -1.421875 -1.96875 -2.09375q-1.171875 -0.671875 -2.546875 -0.671875q-1.5 0 -2.703125 0.671875q-1.1875 0.671875 -1.875 1.90625q-0.6875 1.234375 -0.6875 2.984375q0 1.765625 0.6875 3.0q0.6875 1.21875 1.875 1.890625q1.203125 0.671875 2.703125 0.671875q1.375 0 2.546875 -0.640625q1.1875 -0.65625 1.96875 -2.109375l4.515625 2.453125q-1.125 2.421875 -3.484375 3.75q-2.34375 1.328125 -5.515625 1.328125zm20.875305 0q-3.546875 0 -5.53125 -1.8125q-1.984375 -1.8125 -1.984375 -5.390625l0 -17.625l5.828125 0l0 17.546875q0 1.265625 0.671875 1.96875q0.671875 0.6875 1.828125 0.6875q1.390625 0 2.359375 -0.75l1.5625 4.109375q-0.890625 0.625 -2.140625 0.953125q-1.25 0.3125 -2.59375 0.3125zm-10.609375 -15.453125l0 -4.484375l13.921875 0l0 4.484375l-13.921875 0z" fill-rule="nonzero"/><path fill="#000000" fill-opacity="0.0" d="m265.14172 218.71391l112.0 1.5118103" fill-rule="evenodd"/><path stroke="#666666" stroke-width="1.0" stroke-linejoin="round" stroke-linecap="butt" d="m265.14172 218.71391l106.00055 1.4308319" fill-rule="evenodd"/><path fill="#666666" stroke="#666666" stroke-width="1.0" stroke-linecap="butt" d="m371.12 221.79633l4.559967 -1.590332l-4.515381 -1.7128296z" fill-rule="evenodd"/><path fill="#000000" fill-opacity="0.0" d="m377.14172 316.61942l-115.055115 0" fill-rule="evenodd"/><path stroke="#666666" stroke-width="1.0" stroke-linejoin="round" stroke-linecap="butt" d="m377.14172 316.61942l-109.055115 0" fill-rule="evenodd"/><path fill="#666666" stroke="#666666" stroke-width="1.0" stroke-linecap="butt" d="m268.0866 314.96768l-4.538086 1.6517334l4.538086 1.6517334z" fill-rule="evenodd"/><path fill="#000000" fill-opacity="0.0" d="m263.61942 397.76117l428.94492 0" fill-rule="evenodd"/><path stroke="#666666" stroke-width="1.0" stroke-linejoin="round" stroke-linecap="butt" d="m263.61942 397.76117l422.94492 0" fill-rule="evenodd"/><path fill="#666666" stroke="#666666" stroke-width="1.0" stroke-linecap="butt" d="m686.56433 399.41287l4.538086 -1.6517029l-4.538086 -1.6517334z" fill-rule="evenodd"/><path fill="#000000" fill-opacity="0.0" d="m694.8583 219.09448l-105.88977 -0.75590515" fill-rule="evenodd"/><path stroke="#666666" stroke-width="1.0" stroke-linejoin="round" stroke-linecap="butt" d="m694.8583 219.09448l-99.88995 -0.7130585" fill-rule="evenodd"/><path fill="#666666" stroke="#666666" stroke-width="1.0" stroke-linecap="butt" d="m594.98016 216.72972l-4.5498047 1.6192932l4.526184 1.684082z" fill-rule="evenodd"/><path fill="#000000" fill-opacity="0.0" d="m691.8084 309.76117l-100.566956 0" fill-rule="evenodd"/><path stroke="#666666" stroke-width="1.0" stroke-linejoin="round" stroke-linecap="butt" d="m691.8084 309.76117l-94.566956 0" fill-rule="evenodd"/><path fill="#666666" stroke="#666666" stroke-width="1.0" stroke-linecap="butt" d="m597.24146 308.10944l-4.538086 1.6517334l4.538086 1.6517029z" fill-rule="evenodd"/><path fill="#000000" fill-opacity="0.0" d="m375.24408 421.76117l209.51184 0l0 33.543304l-209.51184 0z" fill-rule="evenodd"/><path fill="#000000" d="m418.93524 451.24115l0 -11.203125l1.515625 0l0 11.203125l-1.515625 0zm0.78125 -13.671875q-0.484375 0 -0.796875 -0.3125q-0.3125 -0.328125 -0.3125 -0.78125q0 -0.4375 0.3125 -0.75q0.3125 -0.3125 0.796875 -0.3125q0.46875 0 0.78125 0.296875q0.3125 0.296875 0.3125 0.75q0 0.46875 -0.3125 0.796875q-0.296875 0.3125 -0.78125 0.3125zm10.674805 2.375q1.359375 0 2.390625 0.515625q1.046875 0.515625 1.625 1.59375q0.59375 1.0625 0.59375 2.6875l0 6.5l-1.515625 0l0 -6.359375q0 -1.765625 -0.890625 -2.671875q-0.875 -0.90625 -2.484375 -0.90625q-1.1875 0 -2.078125 0.484375q-0.890625 0.46875 -1.375 1.375q-0.46875 0.90625 -0.46875 2.1875l0 5.890625l-1.515625 0l0 -11.203125l1.453125 0l0 3.078125l-0.234375 -0.578125q0.53125 -1.21875 1.703125 -1.90625q1.171875 -0.6875 2.796875 -0.6875zm8.964752 11.296875l0 -12.609375q0 -1.484375 0.859375 -2.40625q0.875 -0.921875 2.53125 -0.921875q0.640625 0 1.234375 0.171875q0.59375 0.171875 1.0 0.53125l-0.515625 1.140625q-0.3125 -0.28125 -0.75 -0.421875q-0.421875 -0.140625 -0.90625 -0.140625q-0.96875 0 -1.484375 0.53125q-0.5 0.53125 -0.5 1.578125l0 1.71875l0.03125 0.703125l0 10.125l-1.5 0zm-2.015625 -9.9375l0 -1.265625l6.9375 0l0 1.265625l-6.9375 0zm13.350769 10.046875q-1.609375 0 -2.90625 -0.734375q-1.296875 -0.734375 -2.046875 -2.03125q-0.734375 -1.296875 -0.734375 -2.953125q0 -1.6875 0.734375 -2.96875q0.75 -1.28125 2.03125 -2.0q1.28125 -0.71875 2.921875 -0.71875q1.671875 0 2.953125 0.71875q1.296875 0.71875 2.03125 2.0q0.734375 1.28125 0.734375 2.96875q0 1.65625 -0.734375 2.953125q-0.734375 1.296875 -2.046875 2.03125q-1.296875 0.734375 -2.9375 0.734375zm0 -1.34375q1.21875 0 2.15625 -0.546875q0.9375 -0.546875 1.484375 -1.53125q0.546875 -1.0 0.546875 -2.296875q0 -1.328125 -0.546875 -2.296875q-0.546875 -0.984375 -1.484375 -1.53125q-0.9375 -0.546875 -2.125 -0.546875q-1.203125 0 -2.140625 0.546875q-0.9375 0.546875 -1.5 1.53125q-0.546875 0.96875 -0.546875 2.296875q0 1.296875 0.546875 2.296875q0.5625 0.984375 1.5 1.53125q0.9375 0.546875 2.109375 0.546875zm8.810272 1.234375l0 -11.203125l1.453125 0l0 3.0625l-0.15625 -0.546875q0.46875 -1.265625 1.578125 -1.9375q1.109375 -0.671875 2.75 -0.671875l0 1.46875q-0.078125 0 -0.171875 -0.015625q-0.078125 -0.015625 -0.15625 -0.015625q-1.78125 0 -2.78125 1.078125q-1.0 1.078125 -1.0 3.0625l0 5.71875l-1.515625 0zm22.381958 -11.296875q1.359375 0 2.375 0.515625q1.015625 0.515625 1.578125 1.59375q0.5625 1.0625 0.5625 2.6875l0 6.5l-1.515625 0l0 -6.359375q0 -1.765625 -0.84375 -2.671875q-0.84375 -0.90625 -2.375 -0.90625q-1.15625 0 -2.0 0.484375q-0.84375 0.46875 -1.296875 1.375q-0.453125 0.90625 -0.453125 2.1875l0 5.890625l-1.515625 0l0 -6.359375q0 -1.765625 -0.859375 -2.671875q-0.84375 -0.90625 -2.390625 -0.90625q-1.125 0 -1.984375 0.484375q-0.84375 0.46875 -1.3125 1.375q-0.453125 0.90625 -0.453125 2.1875l0 5.890625l-1.515625 0l0 -11.203125l1.453125 0l0 3.03125l-0.234375 -0.53125q0.515625 -1.21875 1.65625 -1.90625q1.140625 -0.6875 2.6875 -0.6875q1.65625 0 2.796875 0.828125q1.15625 0.8125 1.5 2.453125l-0.59375 -0.234375q0.484375 -1.375 1.734375 -2.203125q1.25 -0.84375 3.0 -0.84375zm15.644836 11.296875l0 -2.46875l-0.0625 -0.40625l0 -4.140625q0 -1.4375 -0.796875 -2.203125q-0.796875 -0.765625 -2.375 -0.765625q-1.09375 0 -2.078125 0.375q-0.96875 0.359375 -1.65625 0.953125l-0.6875 -1.140625q0.859375 -0.71875 2.046875 -1.109375q1.203125 -0.390625 2.515625 -0.390625q2.1875 0 3.359375 1.078125q1.1875 1.0625 1.1875 3.265625l0 6.953125l-1.453125 0zm-3.859375 0.109375q-1.25 0 -2.1875 -0.40625q-0.921875 -0.421875 -1.421875 -1.15625q-0.484375 -0.75 -0.484375 -1.703125q0 -0.875 0.40625 -1.578125q0.421875 -0.71875 1.375 -1.15625q0.953125 -0.4375 2.546875 -0.4375l3.859375 0l0 1.125l-3.8125 0q-1.625 0 -2.25 0.578125q-0.625 0.578125 -0.625 1.421875q0 0.96875 0.734375 1.546875q0.75 0.5625 2.09375 0.5625q1.28125 0 2.203125 -0.578125q0.9375 -0.59375 1.359375 -1.703125l0.34375 1.046875q-0.421875 1.109375 -1.484375 1.78125q-1.046875 0.65625 -2.65625 0.65625zm12.974274 0q-1.578125 0 -2.4375 -0.84375q-0.84375 -0.859375 -0.84375 -2.421875l0 -10.515625l1.5 0l0 10.4375q0 0.96875 0.5 1.515625q0.515625 0.53125 1.453125 0.53125q1.0 0 1.65625 -0.578125l0.53125 1.078125q-0.4375 0.40625 -1.078125 0.609375q-0.625 0.1875 -1.28125 0.1875zm-5.296875 -10.046875l0 -1.265625l6.9375 0l0 1.265625l-6.9375 0zm10.409241 9.9375l0 -11.203125l1.5156555 0l0 11.203125l-1.5156555 0zm0.7812805 -13.671875q-0.484375 0 -0.7969055 -0.3125q-0.3125 -0.328125 -0.3125 -0.78125q0 -0.4375 0.3125 -0.75q0.31253052 -0.3125 0.7969055 -0.3125q0.46875 0 0.78125 0.296875q0.3125 0.296875 0.3125 0.75q0 0.46875 -0.3125 0.796875q-0.296875 0.3125 -0.78125 0.3125zm9.518555 13.78125q-1.609375 0 -2.90625 -0.734375q-1.296875 -0.734375 -2.046875 -2.03125q-0.734375 -1.296875 -0.734375 -2.953125q0 -1.6875 0.734375 -2.96875q0.75 -1.28125 2.03125 -2.0q1.28125 -0.71875 2.921875 -0.71875q1.671875 0 2.953125 0.71875q1.296875 0.71875 2.03125 2.0q0.734375 1.28125 0.734375 2.96875q0 1.65625 -0.734375 2.953125q-0.734375 1.296875 -2.046875 2.03125q-1.296875 0.734375 -2.9375 0.734375zm0 -1.34375q1.21875 0 2.15625 -0.546875q0.9375 -0.546875 1.484375 -1.53125q0.546875 -1.0 0.546875 -2.296875q0 -1.328125 -0.546875 -2.296875q-0.546875 -0.984375 -1.484375 -1.53125q-0.9375 -0.546875 -2.125 -0.546875q-1.203125 0 -2.140625 0.546875q-0.9375 0.546875 -1.5 1.53125q-0.546875 0.96875 -0.546875 2.296875q0 1.296875 0.546875 2.296875q0.5625 0.984375 1.5 1.53125q0.9375 0.546875 2.109375 0.546875zm14.528992 -10.0625q1.359375 0 2.390625 0.515625q1.046875 0.515625 1.625 1.59375q0.59375 1.0625 0.59375 2.6875l0 6.5l-1.515625 0l0 -6.359375q0 -1.765625 -0.890625 -2.671875q-0.875 -0.90625 -2.484375 -0.90625q-1.1875 0 -2.078125 0.484375q-0.890625 0.46875 -1.375 1.375q-0.46875 0.90625 -0.46875 2.1875l0 5.890625l-1.515625 0l0 -11.203125l1.453125 0l0 3.078125l-0.234375 -0.578125q0.53125 -1.21875 1.703125 -1.90625q1.171875 -0.6875 2.796875 -0.6875z" fill-rule="nonzero"/><path fill="#000000" fill-opacity="0.0" d="m209.53018 218.71391l209.51181 0l0 33.543304l-209.51181 0z" fill-rule="evenodd"/><path fill="#000000" d="m283.4742 248.30328q-1.75 0 -3.078125 -0.734375q-1.328125 -0.734375 -2.078125 -2.03125q-0.734375 -1.296875 -0.734375 -2.953125q0 -1.65625 0.703125 -2.9375q0.71875 -1.28125 1.96875 -2.015625q1.25 -0.734375 2.8125 -0.734375q1.578125 0 2.796875 0.71875q1.234375 0.703125 1.9375 2.0q0.703125 1.28125 0.703125 2.96875q0 0.109375 -0.015625 0.234375q-0.015625 0.109375 -0.015625 0.234375l-9.734375 0l0 -1.125l8.921875 0l-0.59375 0.4375q0 -1.203125 -0.53125 -2.15625q-0.515625 -0.953125 -1.40625 -1.484375q-0.890625 -0.53125 -2.0625 -0.53125q-1.15625 0 -2.078125 0.53125q-0.921875 0.53125 -1.4375 1.5q-0.5 0.953125 -0.5 2.1875l0 0.234375q0 1.28125 0.5625 2.25q0.5625 0.96875 1.578125 1.515625q1.015625 0.546875 2.3125 0.546875q1.03125 0 1.90625 -0.359375q0.890625 -0.375 1.53125 -1.109375l0.859375 0.96875q-0.75 0.90625 -1.875 1.375q-1.109375 0.46875 -2.453125 0.46875zm11.132233 0q-1.390625 0 -2.625 -0.390625q-1.234375 -0.40625 -1.953125 -1.0l0.6875 -1.1875q0.6875 0.5 1.75 0.875q1.0625 0.375 2.234375 0.375q1.609375 0 2.3125 -0.5q0.703125 -0.5 0.703125 -1.328125q0 -0.625 -0.40625 -0.96875q-0.390625 -0.359375 -1.03125 -0.53125q-0.640625 -0.1875 -1.4375 -0.3125q-0.78125 -0.125 -1.5625 -0.296875q-0.765625 -0.171875 -1.40625 -0.5q-0.640625 -0.34375 -1.046875 -0.90625q-0.390625 -0.578125 -0.390625 -1.546875q0 -0.90625 0.515625 -1.625q0.515625 -0.734375 1.5 -1.140625q1.0 -0.421875 2.421875 -0.421875q1.09375 0 2.171875 0.28125q1.09375 0.28125 1.796875 0.75l-0.65625 1.21875q-0.75 -0.515625 -1.609375 -0.734375q-0.84375 -0.21875 -1.703125 -0.21875q-1.515625 0 -2.234375 0.53125q-0.703125 0.515625 -0.703125 1.328125q0 0.640625 0.390625 1.0q0.390625 0.359375 1.046875 0.5625q0.65625 0.203125 1.421875 0.328125q0.78125 0.125 1.5625 0.3125q0.78125 0.171875 1.421875 0.484375q0.65625 0.3125 1.046875 0.875q0.40625 0.5625 0.40625 1.484375q0 0.984375 -0.546875 1.703125q-0.546875 0.703125 -1.578125 1.109375q-1.03125 0.390625 -2.5 0.390625zm12.048798 0q-1.671875 0 -2.984375 -0.734375q-1.3125 -0.734375 -2.0625 -2.03125q-0.734375 -1.296875 -0.734375 -2.953125q0 -1.6875 0.734375 -2.96875q0.75 -1.28125 2.0625 -2.0q1.3125 -0.71875 2.984375 -0.71875q1.421875 0 2.578125 0.5625q1.15625 0.546875 1.8125 1.65625l-1.125 0.765625q-0.578125 -0.859375 -1.4375 -1.265625q-0.859375 -0.40625 -1.859375 -0.40625q-1.1875 0 -2.15625 0.546875q-0.953125 0.546875 -1.515625 1.53125q-0.546875 0.96875 -0.546875 2.296875q0 1.328125 0.546875 2.3125q0.5625 0.96875 1.515625 1.515625q0.96875 0.546875 2.15625 0.546875q1.0 0 1.859375 -0.40625q0.859375 -0.40625 1.4375 -1.234375l1.125 0.765625q-0.65625 1.078125 -1.8125 1.65625q-1.15625 0.5625 -2.578125 0.5625zm7.351532 -0.109375l0 -11.203125l1.453125 0l0 3.0625l-0.15625 -0.546875q0.46875 -1.265625 1.578125 -1.9375q1.109375 -0.671875 2.75 -0.671875l0 1.46875q-0.078125 0 -0.171875 -0.015625q-0.078125 -0.015625 -0.15625 -0.015625q-1.78125 0 -2.78125 1.078125q-1.0 1.078125 -1.0 3.0625l0 5.71875l-1.515625 0zm12.837799 0.109375q-1.609375 0 -2.90625 -0.734375q-1.296875 -0.734375 -2.046875 -2.03125q-0.734375 -1.296875 -0.734375 -2.953125q0 -1.6875 0.734375 -2.96875q0.75 -1.28125 2.03125 -2.0q1.28125 -0.71875 2.921875 -0.71875q1.671875 0 2.953125 0.71875q1.296875 0.71875 2.03125 2.0q0.734375 1.28125 0.734375 2.96875q0 1.65625 -0.734375 2.953125q-0.734375 1.296875 -2.046875 2.03125q-1.296875 0.734375 -2.9375 0.734375zm0 -1.34375q1.21875 0 2.15625 -0.546875q0.9375 -0.546875 1.484375 -1.53125q0.546875 -1.0 0.546875 -2.296875q0 -1.328125 -0.546875 -2.296875q-0.546875 -0.984375 -1.484375 -1.53125q-0.9375 -0.546875 -2.125 -0.546875q-1.203125 0 -2.140625 0.546875q-0.9375 0.546875 -1.5 1.53125q-0.546875 0.96875 -0.546875 2.296875q0 1.296875 0.546875 2.296875q0.5625 0.984375 1.5 1.53125q0.9375 0.546875 2.109375 0.546875zm10.771515 1.234375l-4.21875 -11.203125l1.453125 0l3.828125 10.390625l-0.65625 0l3.953125 -10.390625l1.296875 0l3.90625 10.390625l-0.671875 0l3.90625 -10.390625l1.390625 0l-4.25 11.203125l-1.421875 0l-3.75 -9.765625l0.4375 0l-3.765625 9.765625l-1.4375 0z" fill-rule="nonzero"/><path fill="#000000" fill-opacity="0.0" d="m216.38583 320.2362l209.51181 0l0 33.543335l-209.51181 0z" fill-rule="evenodd"/><path fill="#000000" d="m286.6426 349.8256q-1.453125 0 -2.625 -0.671875q-1.171875 -0.671875 -1.875 -1.9375q-0.6875 -1.28125 -0.6875 -3.109375q0 -1.828125 0.6875 -3.09375q0.6875 -1.28125 1.859375 -1.9375q1.171875 -0.65625 2.640625 -0.65625q1.59375 0 2.859375 0.71875q1.28125 0.703125 2.0 2.0q0.734375 1.28125 0.734375 2.96875q0 1.703125 -0.734375 2.984375q-0.71875 1.28125 -2.0 2.015625q-1.265625 0.71875 -2.859375 0.71875zm-5.78125 4.03125l0 -15.34375l1.453125 0l0 3.375l-0.15625 2.234375l0.21875 2.265625l0 7.46875l-1.515625 0zm5.671875 -5.375q1.203125 0 2.140625 -0.546875q0.9375 -0.546875 1.484375 -1.53125q0.5625 -1.0 0.5625 -2.296875q0 -1.296875 -0.5625 -2.28125q-0.546875 -0.984375 -1.484375 -1.53125q-0.9375 -0.5625 -2.140625 -0.5625q-1.1875 0 -2.140625 0.5625q-0.953125 0.546875 -1.5 1.53125q-0.53125 0.984375 -0.53125 2.28125q0 1.296875 0.53125 2.296875q0.546875 0.984375 1.5 1.53125q0.953125 0.546875 2.140625 0.546875zm15.740265 1.234375l0 -2.46875l-0.0625 -0.40625l0 -4.140625q0 -1.4375 -0.796875 -2.203125q-0.796875 -0.765625 -2.375 -0.765625q-1.09375 0 -2.078125 0.375q-0.96875 0.359375 -1.65625 0.953125l-0.6875 -1.140625q0.859375 -0.71875 2.046875 -1.109375q1.203125 -0.390625 2.515625 -0.390625q2.1875 0 3.359375 1.078125q1.1875 1.0625 1.1875 3.265625l0 6.953125l-1.453125 0zm-3.859375 0.109375q-1.25 0 -2.1875 -0.40625q-0.921875 -0.421875 -1.421875 -1.15625q-0.484375 -0.75 -0.484375 -1.703125q0 -0.875 0.40625 -1.578125q0.421875 -0.71875 1.375 -1.15625q0.953125 -0.4375 2.546875 -0.4375l3.859375 0l0 1.125l-3.8125 0q-1.625 0 -2.25 0.578125q-0.625 0.578125 -0.625 1.421875q0 0.96875 0.734375 1.546875q0.75 0.5625 2.09375 0.5625q1.28125 0 2.203125 -0.578125q0.9375 -0.59375 1.359375 -1.703125l0.34375 1.046875q-0.421875 1.109375 -1.484375 1.78125q-1.046875 0.65625 -2.65625 0.65625zm9.307831 4.140625q-0.796875 0 -1.515625 -0.265625q-0.703125 -0.25 -1.21875 -0.765625l0.703125 -1.125q0.421875 0.40625 0.921875 0.625q0.5 0.21875 1.125 0.21875q0.75 0 1.28125 -0.421875q0.546875 -0.40625 1.046875 -1.453125l0.71875 -1.640625l0.171875 -0.234375l4.609375 -10.390625l1.484375 0l-5.609375 12.546875q-0.46875 1.09375 -1.03125 1.734375q-0.5625 0.640625 -1.234375 0.90625q-0.65625 0.265625 -1.453125 0.265625zm2.984375 -3.9375l-5.171875 -11.515625l1.578125 0l4.5625 10.28125l-0.96875 1.234375zm12.724243 -0.203125q-1.609375 0 -2.90625 -0.734375q-1.296875 -0.734375 -2.046875 -2.03125q-0.734375 -1.296875 -0.734375 -2.953125q0 -1.6875 0.734375 -2.96875q0.75 -1.28125 2.03125 -2.0q1.28125 -0.71875 2.921875 -0.71875q1.671875 0 2.953125 0.71875q1.296875 0.71875 2.03125 2.0q0.734375 1.28125 0.734375 2.96875q0 1.65625 -0.734375 2.953125q-0.734375 1.296875 -2.046875 2.03125q-1.296875 0.734375 -2.9375 0.734375zm0 -1.34375q1.21875 0 2.15625 -0.546875q0.9375 -0.546875 1.484375 -1.53125q0.546875 -1.0 0.546875 -2.296875q0 -1.328125 -0.546875 -2.296875q-0.546875 -0.984375 -1.484375 -1.53125q-0.9375 -0.546875 -2.125 -0.546875q-1.203125 0 -2.140625 0.546875q-0.9375 0.546875 -1.5 1.53125q-0.546875 0.96875 -0.546875 2.296875q0 1.296875 0.546875 2.296875q0.5625 0.984375 1.5 1.53125q0.9375 0.546875 2.109375 0.546875zm13.435303 1.34375q-1.421875 0 -2.5 -0.53125q-1.0625 -0.53125 -1.65625 -1.59375q-0.578125 -1.078125 -0.578125 -2.671875l0 -6.515625l1.515625 0l0 6.34375q0 1.78125 0.890625 2.6875q0.890625 0.90625 2.484375 0.90625q1.171875 0 2.03125 -0.46875q0.875 -0.484375 1.328125 -1.390625q0.453125 -0.921875 0.453125 -2.203125l0 -5.875l1.515625 0l0 11.203125l-1.453125 0l0 -3.078125l0.234375 0.5625q-0.53125 1.234375 -1.65625 1.9375q-1.109375 0.6875 -2.609375 0.6875zm13.254425 0q-1.578125 0 -2.4375 -0.84375q-0.84375 -0.859375 -0.84375 -2.421875l0 -10.515625l1.5 0l0 10.4375q0 0.96875 0.5 1.515625q0.515625 0.53125 1.453125 0.53125q1.0 0 1.65625 -0.578125l0.53125 1.078125q-0.4375 0.40625 -1.078125 0.609375q-0.625 0.1875 -1.28125 0.1875zm-5.296875 -10.046875l0 -1.265625l6.9375 0l0 1.265625l-6.9375 0zm13.424896 10.046875q-1.390625 0 -2.625 -0.390625q-1.234375 -0.40625 -1.953125 -1.0l0.6875 -1.1875q0.6875 0.5 1.75 0.875q1.0625 0.375 2.234375 0.375q1.609375 0 2.3125 -0.5q0.703125 -0.5 0.703125 -1.328125q0 -0.625 -0.40625 -0.96875q-0.390625 -0.359375 -1.03125 -0.53125q-0.640625 -0.1875 -1.4375 -0.3125q-0.78125 -0.125 -1.5625 -0.296875q-0.765625 -0.171875 -1.40625 -0.5q-0.640625 -0.34375 -1.046875 -0.90625q-0.390625 -0.578125 -0.390625 -1.546875q0 -0.90625 0.515625 -1.625q0.515625 -0.734375 1.5 -1.140625q1.0 -0.421875 2.421875 -0.421875q1.09375 0 2.171875 0.28125q1.09375 0.28125 1.796875 0.75l-0.65625 1.21875q-0.75 -0.515625 -1.609375 -0.734375q-0.84375 -0.21875 -1.703125 -0.21875q-1.515625 0 -2.234375 0.53125q-0.703125 0.515625 -0.703125 1.328125q0 0.640625 0.390625 1.0q0.390625 0.359375 1.046875 0.5625q0.65625 0.203125 1.421875 0.328125q0.78125 0.125 1.5625 0.3125q0.78125 0.171875 1.421875 0.484375q0.65625 0.3125 1.046875 0.875q0.40625 0.5625 0.40625 1.484375q0 0.984375 -0.546875 1.703125q-0.546875 0.703125 -1.578125 1.109375q-1.03125 0.390625 -2.5 0.390625z" fill-rule="nonzero"/><path fill="#000000" fill-opacity="0.0" d="m536.76904 220.22572l209.51178 0l0 33.543304l-209.51178 0z" fill-rule="evenodd"/><path fill="#000000" d="m591.6362 249.70572l0 -11.203125l1.453125 0l0 3.0625l-0.15625 -0.546875q0.46875 -1.265625 1.578125 -1.9375q1.109375 -0.671875 2.75 -0.671875l0 1.46875q-0.078125 0 -0.171875 -0.015625q-0.078125 -0.015625 -0.15625 -0.015625q-1.78125 0 -2.78125 1.078125q-1.0 1.078125 -1.0 3.0625l0 5.71875l-1.515625 0zm13.040955 0.109375q-1.75 0 -3.078125 -0.734375q-1.328125 -0.734375 -2.078125 -2.03125q-0.734375 -1.296875 -0.734375 -2.953125q0 -1.65625 0.703125 -2.9375q0.71875 -1.28125 1.96875 -2.015625q1.25 -0.734375 2.8125 -0.734375q1.578125 0 2.796875 0.71875q1.234375 0.703125 1.9375 2.0q0.703125 1.28125 0.703125 2.96875q0 0.109375 -0.015625 0.234375q-0.015625 0.109375 -0.015625 0.234375l-9.734375 0l0 -1.125l8.921875 0l-0.59375 0.4375q0 -1.203125 -0.53125 -2.15625q-0.515625 -0.953125 -1.40625 -1.484375q-0.890625 -0.53125 -2.0625 -0.53125q-1.15625 0 -2.078125 0.53125q-0.921875 0.53125 -1.4375 1.5q-0.5 0.953125 -0.5 2.1875l0 0.234375q0 1.28125 0.5625 2.25q0.5625 0.96875 1.578125 1.515625q1.015625 0.546875 2.3125 0.546875q1.03125 0 1.90625 -0.359375q0.890625 -0.375 1.53125 -1.109375l0.859375 0.96875q-0.75 0.90625 -1.875 1.375q-1.109375 0.46875 -2.453125 0.46875zm14.812195 -0.109375l0 -2.46875l-0.0625 -0.40625l0 -4.140625q0 -1.4375 -0.796875 -2.203125q-0.796875 -0.765625 -2.375 -0.765625q-1.09375 0 -2.078125 0.375q-0.96875 0.359375 -1.65625 0.953125l-0.6875 -1.140625q0.859375 -0.71875 2.046875 -1.109375q1.203125 -0.390625 2.515625 -0.390625q2.1875 0 3.359375 1.078125q1.1875 1.0625 1.1875 3.265625l0 6.953125l-1.453125 0zm-3.859375 0.109375q-1.25 0 -2.1875 -0.40625q-0.921875 -0.421875 -1.421875 -1.15625q-0.484375 -0.75 -0.484375 -1.703125q0 -0.875 0.40625 -1.578125q0.421875 -0.71875 1.375 -1.15625q0.953125 -0.4375 2.546875 -0.4375l3.859375 0l0 1.125l-3.8125 0q-1.625 0 -2.25 0.578125q-0.625 0.578125 -0.625 1.421875q0 0.96875 0.734375 1.546875q0.75 0.5625 2.09375 0.5625q1.28125 0 2.203125 -0.578125q0.9375 -0.59375 1.359375 -1.703125l0.34375 1.046875q-0.421875 1.109375 -1.484375 1.78125q-1.046875 0.65625 -2.65625 0.65625zm9.427429 -0.109375l0 -15.828125l1.515625 0l0 15.828125l-1.515625 0zm5.7372437 0l0 -15.828125l1.515625 0l0 15.828125l-1.515625 0zm10.299805 0.109375q-1.609375 0 -2.90625 -0.734375q-1.296875 -0.734375 -2.046875 -2.03125q-0.734375 -1.296875 -0.734375 -2.953125q0 -1.6875 0.734375 -2.96875q0.75 -1.28125 2.03125 -2.0q1.28125 -0.71875 2.921875 -0.71875q1.671875 0 2.953125 0.71875q1.296875 0.71875 2.03125 2.0q0.734375 1.28125 0.734375 2.96875q0 1.65625 -0.734375 2.953125q-0.734375 1.296875 -2.046875 2.03125q-1.296875 0.734375 -2.9375 0.734375zm0 -1.34375q1.21875 0 2.15625 -0.546875q0.9375 -0.546875 1.484375 -1.53125q0.546875 -1.0 0.546875 -2.296875q0 -1.328125 -0.546875 -2.296875q-0.546875 -0.984375 -1.484375 -1.53125q-0.9375 -0.546875 -2.125 -0.546875q-1.203125 0 -2.140625 0.546875q-0.9375 0.546875 -1.5 1.53125q-0.546875 0.96875 -0.546875 2.296875q0 1.296875 0.546875 2.296875q0.5625 0.984375 1.5 1.53125q0.9375 0.546875 2.109375 0.546875zm13.466553 1.34375q-1.671875 0 -2.984375 -0.734375q-1.3125 -0.734375 -2.0625 -2.03125q-0.734375 -1.296875 -0.734375 -2.953125q0 -1.6875 0.734375 -2.96875q0.75 -1.28125 2.0625 -2.0q1.3125 -0.71875 2.984375 -0.71875q1.421875 0 2.578125 0.5625q1.15625 0.546875 1.8125 1.65625l-1.125 0.765625q-0.578125 -0.859375 -1.4375 -1.265625q-0.859375 -0.40625 -1.859375 -0.40625q-1.1875 0 -2.15625 0.546875q-0.953125 0.546875 -1.515625 1.53125q-0.546875 0.96875 -0.546875 2.296875q0 1.328125 0.546875 2.3125q0.5625 0.96875 1.515625 1.515625q0.96875 0.546875 2.15625 0.546875q1.0 0 1.859375 -0.40625q0.859375 -0.40625 1.4375 -1.234375l1.125 0.765625q-0.65625 1.078125 -1.8125 1.65625q-1.15625 0.5625 -2.578125 0.5625zm14.367126 -0.109375l0 -2.46875l-0.0625 -0.40625l0 -4.140625q0 -1.4375 -0.796875 -2.203125q-0.796875 -0.765625 -2.375 -0.765625q-1.09375 0 -2.078125 0.375q-0.96875 0.359375 -1.65625 0.953125l-0.6875 -1.140625q0.859375 -0.71875 2.046875 -1.109375q1.203125 -0.390625 2.515625 -0.390625q2.1875 0 3.359375 1.078125q1.1875 1.0625 1.1875 3.265625l0 6.953125l-1.453125 0zm-3.859375 0.109375q-1.25 0 -2.1875 -0.40625q-0.921875 -0.421875 -1.421875 -1.15625q-0.484375 -0.75 -0.484375 -1.703125q0 -0.875 0.40625 -1.578125q0.421875 -0.71875 1.375 -1.15625q0.953125 -0.4375 2.546875 -0.4375l3.859375 0l0 1.125l-3.8125 0q-1.625 0 -2.25 0.578125q-0.625 0.578125 -0.625 1.421875q0 0.96875 0.734375 1.546875q0.75 0.5625 2.09375 0.5625q1.28125 0 2.203125 -0.578125q0.9375 -0.59375 1.359375 -1.703125l0.34375 1.046875q-0.421875 1.109375 -1.484375 1.78125q-1.046875 0.65625 -2.65625 0.65625zm12.974304 0q-1.578125 0 -2.4375 -0.84375q-0.84375 -0.859375 -0.84375 -2.421875l0 -10.515625l1.5 0l0 10.4375q0 0.96875 0.5 1.515625q0.515625 0.53125 1.453125 0.53125q1.0 0 1.65625 -0.578125l0.53125 1.078125q-0.4375 0.40625 -1.078125 0.609375q-0.625 0.1875 -1.28125 0.1875zm-5.296875 -10.046875l0 -1.265625l6.9375 0l0 1.265625l-6.9375 0zm14.769531 10.046875q-1.75 0 -3.078125 -0.734375q-1.328125 -0.734375 -2.078125 -2.03125q-0.734375 -1.296875 -0.734375 -2.953125q0 -1.65625 0.703125 -2.9375q0.71875 -1.28125 1.96875 -2.015625q1.25 -0.734375 2.8125 -0.734375q1.578125 0 2.796875 0.71875q1.234375 0.703125 1.9375 2.0q0.703125 1.28125 0.703125 2.96875q0 0.109375 -0.015625 0.234375q-0.015625 0.109375 -0.015625 0.234375l-9.734375 0l0 -1.125l8.921875 0l-0.59375 0.4375q0 -1.203125 -0.53125 -2.15625q-0.515625 -0.953125 -1.40625 -1.484375q-0.890625 -0.53125 -2.0625 -0.53125q-1.15625 0 -2.078125 0.53125q-0.921875 0.53125 -1.4375 1.5q-0.5 0.953125 -0.5 2.1875l0 0.234375q0 1.28125 0.5625 2.25q0.5625 0.96875 1.578125 1.515625q1.015625 0.546875 2.3125 0.546875q1.03125 0 1.90625 -0.359375q0.890625 -0.375 1.53125 -1.109375l0.859375 0.96875q-0.75 0.90625 -1.875 1.375q-1.109375 0.46875 -2.453125 0.46875z" fill-rule="nonzero"/><path fill="#000000" fill-opacity="0.0" d="m540.57745 309.76117l209.51178 0l0 33.543304l-209.51178 0z" fill-rule="evenodd"/><path fill="#000000" d="m601.082 339.35052q-1.671875 0 -2.984375 -0.734375q-1.3125 -0.734375 -2.0625 -2.03125q-0.734375 -1.296875 -0.734375 -2.953125q0 -1.6875 0.734375 -2.96875q0.75 -1.28125 2.0625 -2.0q1.3125 -0.71875 2.984375 -0.71875q1.421875 0 2.578125 0.5625q1.15625 0.546875 1.8125 1.65625l-1.125 0.765625q-0.578125 -0.859375 -1.4375 -1.265625q-0.859375 -0.40625 -1.859375 -0.40625q-1.1875 0 -2.15625 0.546875q-0.953125 0.546875 -1.515625 1.53125q-0.546875 0.96875 -0.546875 2.296875q0 1.328125 0.546875 2.3125q0.5625 0.96875 1.515625 1.515625q0.96875 0.546875 2.15625 0.546875q1.0 0 1.859375 -0.40625q0.859375 -0.40625 1.4375 -1.234375l1.125 0.765625q-0.65625 1.078125 -1.8125 1.65625q-1.15625 0.5625 -2.578125 0.5625zm11.722046 0q-1.609375 0 -2.90625 -0.734375q-1.296875 -0.734375 -2.046875 -2.03125q-0.734375 -1.296875 -0.734375 -2.953125q0 -1.6875 0.734375 -2.96875q0.75 -1.28125 2.03125 -2.0q1.28125 -0.71875 2.921875 -0.71875q1.671875 0 2.953125 0.71875q1.296875 0.71875 2.03125 2.0q0.734375 1.28125 0.734375 2.96875q0 1.65625 -0.734375 2.953125q-0.734375 1.296875 -2.046875 2.03125q-1.296875 0.734375 -2.9375 0.734375zm0 -1.34375q1.21875 0 2.15625 -0.546875q0.9375 -0.546875 1.484375 -1.53125q0.546875 -1.0 0.546875 -2.296875q0 -1.328125 -0.546875 -2.296875q-0.546875 -0.984375 -1.484375 -1.53125q-0.9375 -0.546875 -2.125 -0.546875q-1.203125 0 -2.140625 0.546875q-0.9375 0.546875 -1.5 1.53125q-0.546875 0.96875 -0.546875 2.296875q0 1.296875 0.546875 2.296875q0.5625 0.984375 1.5 1.53125q0.9375 0.546875 2.109375 0.546875zm22.810242 -10.0625q1.359375 0 2.375 0.515625q1.015625 0.515625 1.578125 1.59375q0.5625 1.0625 0.5625 2.6875l0 6.5l-1.515625 0l0 -6.359375q0 -1.765625 -0.84375 -2.671875q-0.84375 -0.90625 -2.375 -0.90625q-1.15625 0 -2.0 0.484375q-0.84375 0.46875 -1.296875 1.375q-0.453125 0.90625 -0.453125 2.1875l0 5.890625l-1.515625 0l0 -6.359375q0 -1.765625 -0.859375 -2.671875q-0.84375 -0.90625 -2.390625 -0.90625q-1.125 0 -1.984375 0.484375q-0.84375 0.46875 -1.3125 1.375q-0.453125 0.90625 -0.453125 2.1875l0 5.890625l-1.515625 0l0 -11.203125l1.453125 0l0 3.03125l-0.234375 -0.53125q0.515625 -1.21875 1.65625 -1.90625q1.140625 -0.6875 2.6875 -0.6875q1.65625 0 2.796875 0.828125q1.15625 0.8125 1.5 2.453125l-0.59375 -0.234375q0.484375 -1.375 1.734375 -2.203125q1.25 -0.84375 3.0 -0.84375zm14.410522 11.40625q-1.453125 0 -2.625 -0.671875q-1.171875 -0.671875 -1.875 -1.9375q-0.6875 -1.28125 -0.6875 -3.109375q0 -1.828125 0.6875 -3.09375q0.6875 -1.28125 1.859375 -1.9375q1.171875 -0.65625 2.640625 -0.65625q1.59375 0 2.859375 0.71875q1.28125 0.703125 2.0 2.0q0.734375 1.28125 0.734375 2.96875q0 1.703125 -0.734375 2.984375q-0.71875 1.28125 -2.0 2.015625q-1.265625 0.71875 -2.859375 0.71875zm-5.78125 4.03125l0 -15.34375l1.453125 0l0 3.375l-0.15625 2.234375l0.21875 2.265625l0 7.46875l-1.515625 0zm5.671875 -5.375q1.203125 0 2.140625 -0.546875q0.9375 -0.546875 1.484375 -1.53125q0.5625 -1.0 0.5625 -2.296875q0 -1.296875 -0.5625 -2.28125q-0.546875 -0.984375 -1.484375 -1.53125q-0.9375 -0.5625 -2.140625 -0.5625q-1.1875 0 -2.140625 0.5625q-0.953125 0.546875 -1.5 1.53125q-0.53125 0.984375 -0.53125 2.28125q0 1.296875 0.53125 2.296875q0.546875 0.984375 1.5 1.53125q0.953125 0.546875 2.140625 0.546875zm8.788635 1.234375l0 -15.828125l1.515625 0l0 15.828125l-1.515625 0zm10.50293 0.109375q-1.75 0 -3.078125 -0.734375q-1.328125 -0.734375 -2.078125 -2.03125q-0.734375 -1.296875 -0.734375 -2.953125q0 -1.65625 0.703125 -2.9375q0.71875 -1.28125 1.96875 -2.015625q1.25 -0.734375 2.8125 -0.734375q1.578125 0 2.796875 0.71875q1.234375 0.703125 1.9375 2.0q0.703125 1.28125 0.703125 2.96875q0 0.109375 -0.015625 0.234375q-0.015625 0.109375 -0.015625 0.234375l-9.734375 0l0 -1.125l8.921875 0l-0.59375 0.4375q0 -1.203125 -0.53125 -2.15625q-0.515625 -0.953125 -1.40625 -1.484375q-0.890625 -0.53125 -2.0625 -0.53125q-1.15625 0 -2.078125 0.53125q-0.921875 0.53125 -1.4375 1.5q-0.5 0.953125 -0.5 2.1875l0 0.234375q0 1.28125 0.5625 2.25q0.5625 0.96875 1.578125 1.515625q1.015625 0.546875 2.3125 0.546875q1.03125 0 1.90625 -0.359375q0.890625 -0.375 1.53125 -1.109375l0.859375 0.96875q-0.75 0.90625 -1.875 1.375q-1.109375 0.46875 -2.453125 0.46875zm11.663452 0q-1.578125 0 -2.4375 -0.84375q-0.84375 -0.859375 -0.84375 -2.421875l0 -10.515625l1.5 0l0 10.4375q0 0.96875 0.5 1.515625q0.515625 0.53125 1.453125 0.53125q1.0 0 1.65625 -0.578125l0.53125 1.078125q-0.4375 0.40625 -1.078125 0.609375q-0.625 0.1875 -1.28125 0.1875zm-5.296875 -10.046875l0 -1.265625l6.9375 0l0 1.265625l-6.9375 0zm14.769531 10.046875q-1.75 0 -3.078125 -0.734375q-1.328125 -0.734375 -2.078125 -2.03125q-0.734375 -1.296875 -0.734375 -2.953125q0 -1.65625 0.703125 -2.9375q0.71875 -1.28125 1.96875 -2.015625q1.25 -0.734375 2.8125 -0.734375q1.578125 0 2.796875 0.71875q1.234375 0.703125 1.9375 2.0q0.703125 1.28125 0.703125 2.96875q0 0.109375 -0.015625 0.234375q-0.015625 0.109375 -0.015625 0.234375l-9.734375 0l0 -1.125l8.921875 0l-0.59375 0.4375q0 -1.203125 -0.53125 -2.15625q-0.515625 -0.953125 -1.40625 -1.484375q-0.890625 -0.53125 -2.0625 -0.53125q-1.15625 0 -2.078125 0.53125q-0.921875 0.53125 -1.4375 1.5q-0.5 0.953125 -0.5 2.1875l0 0.234375q0 1.28125 0.5625 2.25q0.5625 0.96875 1.578125 1.515625q1.015625 0.546875 2.3125 0.546875q1.03125 0 1.90625 -0.359375q0.890625 -0.375 1.53125 -1.109375l0.859375 0.96875q-0.75 0.90625 -1.875 1.375q-1.109375 0.46875 -2.453125 0.46875z" fill-rule="nonzero"/><path fill="#000000" d="m622.26306 365.35052q-1.609375 0 -2.90625 -0.734375q-1.296875 -0.734375 -2.046875 -2.03125q-0.734375 -1.296875 -0.734375 -2.953125q0 -1.6875 0.734375 -2.96875q0.75 -1.28125 2.03125 -2.0q1.28125 -0.71875 2.921875 -0.71875q1.671875 0 2.953125 0.71875q1.296875 0.71875 2.03125 2.0q0.734375 1.28125 0.734375 2.96875q0 1.65625 -0.734375 2.953125q-0.734375 1.296875 -2.046875 2.03125q-1.296875 0.734375 -2.9375 0.734375zm0 -1.34375q1.21875 0 2.15625 -0.546875q0.9375 -0.546875 1.484375 -1.53125q0.546875 -1.0 0.546875 -2.296875q0 -1.328125 -0.546875 -2.296875q-0.546875 -0.984375 -1.484375 -1.53125q-0.9375 -0.546875 -2.125 -0.546875q-1.203125 0 -2.140625 0.546875q-0.9375 0.546875 -1.5 1.53125q-0.546875 0.96875 -0.546875 2.296875q0 1.296875 0.546875 2.296875q0.5625 0.984375 1.5 1.53125q0.9375 0.546875 2.109375 0.546875zm9.075867 1.234375l0 -12.609375q0 -1.484375 0.859375 -2.40625q0.875 -0.921875 2.53125 -0.921875q0.640625 0 1.234375 0.171875q0.59375 0.171875 1.0 0.53125l-0.515625 1.140625q-0.3125 -0.28125 -0.75 -0.421875q-0.421875 -0.140625 -0.90625 -0.140625q-0.96875 0 -1.484375 0.53125q-0.5 0.53125 -0.5 1.578125l0 1.71875l0.03125 0.703125l0 10.125l-1.5 0zm-2.015625 -9.9375l0 -1.265625l6.9375 0l0 1.265625l-6.9375 0zm9.288574 9.9375l0 -12.609375q0 -1.484375 0.859375 -2.40625q0.875 -0.921875 2.53125 -0.921875q0.640625 0 1.234375 0.171875q0.59375 0.171875 1.0 0.53125l-0.515625 1.140625q-0.3125 -0.28125 -0.75 -0.421875q-0.421875 -0.140625 -0.90625 -0.140625q-0.96875 0 -1.484375 0.53125q-0.5 0.53125 -0.5 1.578125l0 1.71875l0.03125 0.703125l0 10.125l-1.5 0zm-2.015625 -9.9375l0 -1.265625l6.9375 0l0 1.265625l-6.9375 0zm13.553894 10.046875q-1.75 0 -3.078125 -0.734375q-1.328125 -0.734375 -2.078125 -2.03125q-0.734375 -1.296875 -0.734375 -2.953125q0 -1.65625 0.703125 -2.9375q0.71875 -1.28125 1.96875 -2.015625q1.25 -0.734375 2.8125 -0.734375q1.578125 0 2.796875 0.71875q1.234375 0.703125 1.9375 2.0q0.703125 1.28125 0.703125 2.96875q0 0.109375 -0.015625 0.234375q-0.015625 0.109375 -0.015625 0.234375l-9.734375 0l0 -1.125l8.921875 0l-0.59375 0.4375q0 -1.203125 -0.53125 -2.15625q-0.515625 -0.953125 -1.40625 -1.484375q-0.890625 -0.53125 -2.0625 -0.53125q-1.15625 0 -2.078125 0.53125q-0.921875 0.53125 -1.4375 1.5q-0.5 0.953125 -0.5 2.1875l0 0.234375q0 1.28125 0.5625 2.25q0.5625 0.96875 1.578125 1.515625q1.015625 0.546875 2.3125 0.546875q1.03125 0 1.90625 -0.359375q0.890625 -0.375 1.53125 -1.109375l0.859375 0.96875q-0.75 0.90625 -1.875 1.375q-1.109375 0.46875 -2.453125 0.46875zm8.116638 -0.109375l0 -11.203125l1.453125 0l0 3.0625l-0.15625 -0.546875q0.46875 -1.265625 1.578125 -1.9375q1.109375 -0.671875 2.75 -0.671875l0 1.46875q-0.078125 0 -0.171875 -0.015625q-0.078125 -0.015625 -0.15625 -0.015625q-1.78125 0 -2.78125 1.078125q-1.0 1.078125 -1.0 3.0625l0 5.71875l-1.515625 0zm11.525574 0.109375q-1.390625 0 -2.625 -0.390625q-1.234375 -0.40625 -1.953125 -1.0l0.6875 -1.1875q0.6875 0.5 1.75 0.875q1.0625 0.375 2.234375 0.375q1.609375 0 2.3125 -0.5q0.703125 -0.5 0.703125 -1.328125q0 -0.625 -0.40625 -0.96875q-0.390625 -0.359375 -1.03125 -0.53125q-0.640625 -0.1875 -1.4375 -0.3125q-0.78125 -0.125 -1.5625 -0.296875q-0.765625 -0.171875 -1.40625 -0.5q-0.640625 -0.34375 -1.046875 -0.90625q-0.390625 -0.578125 -0.390625 -1.546875q0 -0.90625 0.515625 -1.625q0.515625 -0.734375 1.5 -1.140625q1.0 -0.421875 2.421875 -0.421875q1.09375 0 2.171875 0.28125q1.09375 0.28125 1.796875 0.75l-0.65625 1.21875q-0.75 -0.515625 -1.609375 -0.734375q-0.84375 -0.21875 -1.703125 -0.21875q-1.515625 0 -2.234375 0.53125q-0.703125 0.515625 -0.703125 1.328125q0 0.640625 0.390625 1.0q0.390625 0.359375 1.046875 0.5625q0.65625 0.203125 1.421875 0.328125q0.78125 0.125 1.5625 0.3125q0.78125 0.171875 1.421875 0.484375q0.65625 0.3125 1.046875 0.875q0.40625 0.5625 0.40625 1.484375q0 0.984375 -0.546875 1.703125q-0.546875 0.703125 -1.578125 1.109375q-1.03125 0.390625 -2.5 0.390625z" fill-rule="nonzero"/><path fill="#ab2328" d="m296.7126 206.72441l0 0c0 -13.367905 10.8368225 -24.204727 24.204742 -24.204727l0 0c6.4194946 0 12.57605 2.5501404 17.115326 7.0894012c4.5392456 4.539261 7.089386 10.695831 7.089386 17.115326l0 0c0 13.367905 -10.8368225 24.204727 -24.204712 24.204727l0 0c-13.36792 0 -24.204742 -10.8368225 -24.204742 -24.204727z" fill-rule="evenodd"/><path fill="#000000" fill-opacity="0.0" d="m346.57874 185.93439l-48.409454 0l0 33.543304l48.409454 0z" fill-rule="evenodd"/><path fill="#ffffff" d="m322.25656 212.85439l0 -12.5l0.59375 0.640625l-3.671875 0l0 -1.203125l4.421875 0l0 13.0625l-1.34375 0z" fill-rule="nonzero"/><path fill="#ab2328" d="m453.6273 384.73752l0 0c0 -13.367889 10.8368225 -24.204712 24.204742 -24.204712l0 0c6.4194946 0 12.57605 2.5501404 17.115326 7.0894165c4.5392456 4.5392456 7.089386 10.695831 7.089386 17.115295l0 0c0 13.36792 -10.8368225 24.204742 -24.204712 24.204742l0 0c-13.36792 0 -24.204742 -10.8368225 -24.204742 -24.204742z" fill-rule="evenodd"/><path fill="#000000" fill-opacity="0.0" d="m503.49344 363.9475l-48.409454 0l0 33.543304l48.409454 0z" fill-rule="evenodd"/><path fill="#ffffff" d="m474.7247 390.8675l0 -0.953125l5.421875 -5.3125q0.75 -0.734375 1.125 -1.28125q0.375 -0.546875 0.5 -1.03125q0.125 -0.484375 0.125 -0.921875q0 -1.140625 -0.78125 -1.78125q-0.765625 -0.65625 -2.28125 -0.65625q-1.15625 0 -2.046875 0.359375q-0.875 0.34375 -1.515625 1.09375l-0.953125 -0.828125q0.765625 -0.890625 1.953125 -1.375q1.203125 -0.484375 2.6875 -0.484375q1.3125 0 2.28125 0.421875q0.984375 0.421875 1.515625 1.21875q0.53125 0.796875 0.53125 1.890625q0 0.625 -0.1875 1.25q-0.171875 0.609375 -0.640625 1.296875q-0.453125 0.671875 -1.328125 1.53125l-4.96875 4.890625l-0.375 -0.515625l8.09375 0l0 1.1875l-9.15625 0z" fill-rule="nonzero"/><path fill="#000000" fill-opacity="0.0" d="m198.09055 95.28609l227.05511 0" fill-rule="evenodd"/><path stroke="#ab2328" stroke-width="1.0" stroke-linejoin="round" stroke-linecap="butt" d="m204.09055 95.28609l215.05511 0" fill-rule="evenodd"/><path fill="#ab2328" stroke="#ab2328" stroke-width="1.0" stroke-linecap="butt" d="m204.09055 93.63435l-4.538086 1.6517334l4.538086 1.6517334z" fill-rule="evenodd"/><path fill="#ab2328" stroke="#ab2328" stroke-width="1.0" stroke-linecap="butt" d="m419.14566 96.93782l4.5381165 -1.6517334l-4.5381165 -1.6517334z" fill-rule="evenodd"/><path fill="#000000" fill-opacity="0.0" d="m534.8543 95.28609l227.05511 0" fill-rule="evenodd"/><path stroke="#ab2328" stroke-width="1.0" stroke-linejoin="round" stroke-linecap="butt" d="m540.8543 95.28609l215.05511 0" fill-rule="evenodd"/><path fill="#ab2328" stroke="#ab2328" stroke-width="1.0" stroke-linecap="butt" d="m540.8543 93.63435l-4.538086 1.6517334l4.538086 1.6517334z" fill-rule="evenodd"/><path fill="#ab2328" stroke="#ab2328" stroke-width="1.0" stroke-linecap="butt" d="m755.9094 96.93782l4.538147 -1.6517334l-4.538147 -1.6517334z" fill-rule="evenodd"/><path fill="#000000" fill-opacity="0.0" d="m206.85826 49.527557l220.18898 0l0 33.543312l-220.18898 0z" fill-rule="evenodd"/><path fill="#ab2328" d="m232.9872 84.346306q-2.03125 0 -3.65625 -0.921875q-1.625 -0.921875 -2.578125 -2.578125q-0.9375 -1.65625 -0.9375 -3.890625q0 -2.265625 0.9375 -3.90625q0.953125 -1.65625 2.578125 -2.5625q1.625 -0.90625 3.65625 -0.90625q1.8125 0 3.171875 0.796875q1.359375 0.796875 2.09375 2.421875q0.75 1.625 0.75 4.15625q0 2.5 -0.71875 4.140625q-0.71875 1.640625 -2.0625 2.453125q-1.34375 0.796875 -3.234375 0.796875zm0.71875 -3.421875q1.015625 0 1.84375 -0.46875q0.828125 -0.484375 1.3125 -1.375q0.5 -0.890625 0.5 -2.125q0 -1.25 -0.5 -2.125q-0.484375 -0.890625 -1.3125 -1.359375q-0.828125 -0.484375 -1.84375 -0.484375q-1.046875 0 -1.875 0.484375q-0.8125 0.46875 -1.3125 1.359375q-0.484375 0.875 -0.484375 2.125q0 1.234375 0.484375 2.125q0.5 0.890625 1.3125 1.375q0.828125 0.46875 1.875 0.46875zm3.765625 3.203125l0 -2.9375l0.078125 -4.265625l-0.265625 -4.234375l0 -8.34375l4.15625 0l0 19.78125l-3.96875 0zm7.805435 0l0 -14.34375l4.15625 0l0 14.34375l-4.15625 0zm2.078125 -16.34375q-1.15625 0 -1.875 -0.65625q-0.71875 -0.671875 -0.71875 -1.65625q0 -0.984375 0.71875 -1.65625q0.71875 -0.671875 1.875 -0.671875q1.140625 0 1.859375 0.640625q0.71875 0.625 0.71875 1.609375q0 1.03125 -0.703125 1.71875q-0.703125 0.671875 -1.875 0.671875zm12.679749 21.734375q-2.015625 0 -3.90625 -0.5q-1.875 -0.5 -3.125 -1.484375l1.65625 -2.984375q0.90625 0.75 2.296875 1.1875q1.40625 0.4375 2.765625 0.4375q2.21875 0 3.21875 -0.984375q1.0 -0.984375 1.0 -2.921875l0 -2.171875l0.265625 -3.59375l-0.0625 -3.625l0 -3.09375l3.953125 0l0 11.9375q0 4.0 -2.078125 5.890625q-2.078125 1.90625 -5.984375 1.90625zm-0.625 -6.078125q-2.0 0 -3.625 -0.859375q-1.609375 -0.875 -2.578125 -2.4375q-0.96875 -1.5625 -0.96875 -3.640625q0 -2.109375 0.96875 -3.65625q0.96875 -1.5625 2.578125 -2.40625q1.625 -0.859375 3.625 -0.859375q1.8125 0 3.1875 0.734375q1.390625 0.71875 2.15625 2.265625q0.78125 1.53125 0.78125 3.921875q0 2.375 -0.78125 3.90625q-0.765625 1.53125 -2.15625 2.28125q-1.375 0.75 -3.1875 0.75zm0.8125 -3.421875q1.09375 0 1.953125 -0.4375q0.859375 -0.4375 1.328125 -1.234375q0.484375 -0.796875 0.484375 -1.84375q0 -1.0625 -0.484375 -1.84375q-0.46875 -0.796875 -1.328125 -1.234375q-0.859375 -0.4375 -1.953125 -0.4375q-1.09375 0 -1.953125 0.4375q-0.84375 0.4375 -1.34375 1.234375q-0.484375 0.78125 -0.484375 1.84375q0 1.046875 0.484375 1.84375q0.5 0.796875 1.34375 1.234375q0.859375 0.4375 1.953125 0.4375zm11.737427 4.109375l0 -14.34375l4.15625 0l0 14.34375l-4.15625 0zm2.078125 -16.34375q-1.15625 0 -1.875 -0.65625q-0.71875 -0.671875 -0.71875 -1.65625q0 -0.984375 0.71875 -1.65625q0.71875 -0.671875 1.875 -0.671875q1.140625 0 1.859375 0.640625q0.71875 0.625 0.71875 1.609375q0 1.03125 -0.703125 1.71875q-0.703125 0.671875 -1.875 0.671875zm11.804749 16.5625q-2.53125 0 -3.953125 -1.296875q-1.40625 -1.296875 -1.40625 -3.859375l0 -12.578125l4.15625 0l0 12.53125q0 0.90625 0.484375 1.40625q0.484375 0.484375 1.3125 0.484375q0.984375 0 1.671875 -0.53125l1.125 2.9375q-0.640625 0.453125 -1.53125 0.6875q-0.890625 0.21875 -1.859375 0.21875zm-7.5625 -11.046875l0 -3.1875l9.9375 0l0 3.1875l-9.9375 0zm22.095428 10.828125l0 -2.796875l-0.265625 -0.609375l0 -5.015625q0 -1.328125 -0.8125 -2.078125q-0.8125 -0.75 -2.5 -0.75q-1.140625 0 -2.25 0.359375q-1.109375 0.359375 -1.875 0.96875l-1.5 -2.90625q1.171875 -0.8125 2.828125 -1.265625q1.65625 -0.453125 3.359375 -0.453125q3.28125 0 5.09375 1.546875q1.8125 1.53125 1.8125 4.8125l0 8.1875l-3.890625 0zm-4.375 0.21875q-1.671875 0 -2.875 -0.578125q-1.203125 -0.578125 -1.84375 -1.5625q-0.640625 -0.984375 -0.640625 -2.203125q0 -1.28125 0.625 -2.234375q0.625 -0.96875 1.984375 -1.515625q1.359375 -0.546875 3.546875 -0.546875l3.8125 0l0 2.421875l-3.359375 0q-1.46875 0 -2.015625 0.484375q-0.546875 0.484375 -0.546875 1.203125q0 0.796875 0.625 1.265625q0.640625 0.46875 1.734375 0.46875q1.03125 0 1.859375 -0.5q0.828125 -0.5 1.203125 -1.453125l0.640625 1.921875q-0.453125 1.390625 -1.65625 2.109375q-1.203125 0.71875 -3.09375 0.71875zm12.024963 -0.21875l0 -19.78125l4.15625 0l0 19.78125l-4.15625 0zm24.364044 0l0 -2.796875l-0.265625 -0.609375l0 -5.015625q0 -1.328125 -0.8125 -2.078125q-0.8125 -0.75 -2.5 -0.75q-1.140625 0 -2.25 0.359375q-1.109375 0.359375 -1.875 0.96875l-1.5 -2.90625q1.171875 -0.8125 2.828125 -1.265625q1.65625 -0.453125 3.359375 -0.453125q3.28125 0 5.09375 1.546875q1.8125305 1.53125 1.8125305 4.8125l0 8.1875l-3.8906555 0zm-4.375 0.21875q-1.671875 0 -2.875 -0.578125q-1.203125 -0.578125 -1.84375 -1.5625q-0.640625 -0.984375 -0.640625 -2.203125q0 -1.28125 0.625 -2.234375q0.625 -0.96875 1.984375 -1.515625q1.359375 -0.546875 3.546875 -0.546875l3.8125 0l0 2.421875l-3.359375 0q-1.46875 0 -2.015625 0.484375q-0.546875 0.484375 -0.546875 1.203125q0 0.796875 0.625 1.265625q0.640625 0.46875 1.734375 0.46875q1.03125 0 1.859375 -0.5q0.828125 -0.5 1.203125 -1.453125l0.640625 1.921875q-0.453125 1.390625 -1.65625 2.109375q-1.203125 0.71875 -3.09375 0.71875zm16.853119 0q-1.84375 0 -3.546875 -0.4375q-1.6875 -0.453125 -2.671875 -1.109375l1.390625 -2.984375q0.984375 0.609375 2.328125 1.0q1.34375 0.375 2.65625 0.375q1.4375 0 2.03125 -0.34375q0.609375 -0.34375 0.609375 -0.953125q0 -0.515625 -0.46875 -0.765625q-0.46875 -0.25 -1.25 -0.375q-0.765625 -0.140625 -1.6875 -0.265625q-0.921875 -0.140625 -1.859375 -0.359375q-0.921875 -0.234375 -1.703125 -0.6875q-0.765625 -0.453125 -1.234375 -1.21875q-0.46875 -0.78125 -0.46875 -2.015625q0 -1.359375 0.78125 -2.390625q0.796875 -1.046875 2.28125 -1.640625q1.5 -0.59375 3.578125 -0.59375q1.46875 0 2.984375 0.3125q1.515625 0.3125 2.53125 0.9375l-1.375 2.953125q-1.046875 -0.609375 -2.109375 -0.828125q-1.046875 -0.234375 -2.03125 -0.234375q-1.390625 0 -2.03125 0.375q-0.640625 0.375 -0.640625 0.953125q0 0.53125 0.46875 0.796875q0.46875 0.265625 1.234375 0.4375q0.78125 0.15625 1.703125 0.28125q0.921875 0.109375 1.84375 0.359375q0.9375 0.234375 1.703125 0.671875q0.765625 0.4375 1.234375 1.203125q0.484375 0.75 0.484375 1.984375q0 1.328125 -0.796875 2.359375q-0.796875 1.03125 -2.3125 1.625q-1.5 0.578125 -3.65625 0.578125zm14.154419 0q-1.84375 0 -3.546875 -0.4375q-1.6875 -0.453125 -2.671875 -1.109375l1.390625 -2.984375q0.984375 0.609375 2.328125 1.0q1.34375 0.375 2.65625 0.375q1.4375 0 2.03125 -0.34375q0.609375 -0.34375 0.609375 -0.953125q0 -0.515625 -0.46875 -0.765625q-0.46875 -0.25 -1.25 -0.375q-0.765625 -0.140625 -1.6875 -0.265625q-0.921875 -0.140625 -1.859375 -0.359375q-0.921875 -0.234375 -1.703125 -0.6875q-0.765625 -0.453125 -1.234375 -1.21875q-0.46875 -0.78125 -0.46875 -2.015625q0 -1.359375 0.78125 -2.390625q0.796875 -1.046875 2.28125 -1.640625q1.5 -0.59375 3.578125 -0.59375q1.46875 0 2.984375 0.3125q1.515625 0.3125 2.53125 0.9375l-1.375 2.953125q-1.046875 -0.609375 -2.109375 -0.828125q-1.046875 -0.234375 -2.03125 -0.234375q-1.390625 0 -2.03125 0.375q-0.640625 0.375 -0.640625 0.953125q0 0.53125 0.46875 0.796875q0.46875 0.265625 1.234375 0.4375q0.78125 0.15625 1.703125 0.28125q0.921875 0.109375 1.84375 0.359375q0.9375 0.234375 1.703125 0.671875q0.765625 0.4375 1.234375 1.203125q0.484375 0.75 0.484375 1.984375q0 1.328125 -0.796875 2.359375q-0.796875 1.03125 -2.3125 1.625q-1.5 0.578125 -3.65625 0.578125zm16.435669 0q-2.453125 0 -4.3125 -0.953125q-1.84375 -0.96875 -2.859375 -2.625q-1.0 -1.671875 -1.0 -3.8125q0 -2.15625 1.0 -3.8125q1.0 -1.671875 2.71875 -2.609375q1.734375 -0.953125 3.921875 -0.953125q2.109375 0 3.796875 0.890625q1.703125 0.890625 2.6875 2.5625q0.984375 1.65625 0.984375 3.96875q0 0.25 -0.03125 0.5625q-0.03125 0.296875 -0.046875 0.5625l-11.65625 0l0 -2.421875l9.46875 0l-1.59375 0.71875q0 -1.125 -0.453125 -1.9375q-0.453125 -0.828125 -1.265625 -1.296875q-0.796875 -0.46875 -1.859375 -0.46875q-1.0625 0 -1.875 0.46875q-0.8125 0.46875 -1.265625 1.3125q-0.453125 0.828125 -0.453125 1.96875l0 0.640625q0 1.171875 0.515625 2.078125q0.515625 0.890625 1.453125 1.359375q0.953125 0.453125 2.234375 0.453125q1.15625 0 2.015625 -0.34375q0.859375 -0.34375 1.578125 -1.03125l2.21875 2.390625q-0.984375 1.125 -2.484375 1.734375q-1.484375 0.59375 -3.4375 0.59375zm15.570038 0q-2.53125 0 -3.953125 -1.296875q-1.40625 -1.296875 -1.40625 -3.859375l0 -12.578125l4.15625 0l0 12.53125q0 0.90625 0.484375 1.40625q0.484375 0.484375 1.3125 0.484375q0.984375 0 1.671875 -0.53125l1.125 2.9375q-0.640625 0.453125 -1.53125 0.6875q-0.890625 0.21875 -1.859375 0.21875zm-7.5625 -11.046875l0 -3.1875l9.9375 0l0 3.1875l-9.9375 0zm18.126678 11.046875q-1.84375 0 -3.546875 -0.4375q-1.6875 -0.453125 -2.671875 -1.109375l1.390625 -2.984375q0.984375 0.609375 2.328125 1.0q1.34375 0.375 2.65625 0.375q1.4375 0 2.03125 -0.34375q0.609375 -0.34375 0.609375 -0.953125q0 -0.515625 -0.46875 -0.765625q-0.46875 -0.25 -1.25 -0.375q-0.765625 -0.140625 -1.6875 -0.265625q-0.921875 -0.140625 -1.859375 -0.359375q-0.921875 -0.234375 -1.703125 -0.6875q-0.765625 -0.453125 -1.234375 -1.21875q-0.46875 -0.78125 -0.46875 -2.015625q0 -1.359375 0.78125 -2.390625q0.796875 -1.046875 2.28125 -1.640625q1.5 -0.59375 3.578125 -0.59375q1.46875 0 2.984375 0.3125q1.515625 0.3125 2.53125 0.9375l-1.375 2.953125q-1.046875 -0.609375 -2.109375 -0.828125q-1.046875 -0.234375 -2.03125 -0.234375q-1.390625 0 -2.03125 0.375q-0.640625 0.375 -0.640625 0.953125q0 0.53125 0.46875 0.796875q0.46875 0.265625 1.234375 0.4375q0.78125 0.15625 1.703125 0.28125q0.921875 0.109375 1.84375 0.359375q0.9375 0.234375 1.703125 0.671875q0.765625 0.4375 1.234375 1.203125q0.484375 0.75 0.484375 1.984375q0 1.328125 -0.796875 2.359375q-0.796875 1.03125 -2.3125 1.625q-1.5 0.578125 -3.65625 0.578125z" fill-rule="nonzero"/><path fill="#000000" fill-opacity="0.0" d="m544.3832 48.396324l209.51184 0l0 33.543312l-209.51184 0z" fill-rule="evenodd"/><path fill="#ab2328" d="m568.4003 82.99632l0 -14.34375l4.15625 0l0 14.34375l-4.15625 0zm2.078125 -16.34375q-1.15625 0 -1.875 -0.65625q-0.71875 -0.671875 -0.71875 -1.65625q0 -0.984375 0.71875 -1.65625q0.71875 -0.671875 1.875 -0.671875q1.140625 0 1.859375 0.640625q0.71875 0.625 0.71875 1.609375q0 1.03125 -0.703125 1.71875q-0.703125 0.671875 -1.875 0.671875zm14.664124 1.796875q1.703125 0 3.046875 0.6875q1.34375 0.671875 2.109375 2.078125q0.78125 1.390625 0.78125 3.578125l0 8.203125l-4.15625 0l0 -7.578125q0 -1.71875 -0.765625 -2.546875q-0.75 -0.828125 -2.140625 -0.828125q-0.984375 0 -1.78125 0.421875q-0.78125 0.40625 -1.21875 1.265625q-0.4375 0.84375 -0.4375 2.171875l0 7.09375l-4.15625 0l0 -14.34375l3.96875 0l0 3.96875l-0.75 -1.1875q0.78125 -1.453125 2.21875 -2.21875q1.4375 -0.765625 3.28125 -0.765625zm10.200623 14.546875l0 -14.65625q0 -2.4375 1.4375 -3.875q1.4375 -1.453125 4.109375 -1.453125q0.90625 0 1.75 0.1875q0.84375 0.171875 1.421875 0.578125l-1.09375 3.015625q-0.34375 -0.25 -0.78125 -0.375q-0.421875 -0.140625 -0.890625 -0.140625q-0.90625 0 -1.40625 0.53125q-0.484375 0.515625 -0.484375 1.546875l0 1.34375l0.09375 1.78125l0 11.515625l-4.15625 0zm-2.203125 -10.828125l0 -3.1875l9.9375 0l0 3.1875l-9.9375 0zm18.660522 11.046875q-2.296875 0 -4.078125 -0.953125q-1.765625 -0.96875 -2.796875 -2.625q-1.015625 -1.671875 -1.015625 -3.8125q0 -2.15625 1.015625 -3.8125q1.03125 -1.671875 2.796875 -2.609375q1.78125 -0.953125 4.078125 -0.953125q2.265625 0 4.046875 0.953125q1.78125 0.9375 2.796875 2.59375q1.015625 1.640625 1.015625 3.828125q0 2.140625 -1.015625 3.8125q-1.015625 1.65625 -2.796875 2.625q-1.78125 0.953125 -4.046875 0.953125zm0 -3.421875q1.03125 0 1.859375 -0.46875q0.828125 -0.484375 1.296875 -1.375q0.484375 -0.890625 0.484375 -2.125q0 -1.25 -0.484375 -2.125q-0.46875 -0.890625 -1.296875 -1.359375q-0.828125 -0.484375 -1.859375 -0.484375q-1.046875 0 -1.875 0.484375q-0.828125 0.46875 -1.328125 1.359375q-0.484375 0.875 -0.484375 2.125q0 1.234375 0.484375 2.125q0.5 0.890625 1.328125 1.375q0.828125 0.46875 1.875 0.46875zm10.631653 3.203125l0 -14.34375l3.96875 0l0 4.046875l-0.5625 -1.171875q0.640625 -1.515625 2.046875 -2.296875q1.421875 -0.78125 3.453125 -0.78125l0 3.828125q-0.265625 -0.03125 -0.484375 -0.03125q-0.21875 -0.015625 -0.453125 -0.015625q-1.703125 0 -2.765625 0.96875q-1.046875 0.96875 -1.046875 3.03125l0 6.765625l-4.15625 0zm29.741516 -14.546875q1.703125 0 3.015625 0.6875q1.328125 0.671875 2.09375 2.078125q0.765625 1.390625 0.765625 3.578125l0 8.203125l-4.171875 0l0 -7.578125q0 -1.71875 -0.71875 -2.546875q-0.71875 -0.828125 -2.015625 -0.828125q-0.90625 0 -1.625 0.421875q-0.71875 0.40625 -1.125 1.234375q-0.40625 0.8125 -0.40625 2.09375l0 7.203125l-4.15625 0l0 -7.578125q0 -1.71875 -0.703125 -2.546875q-0.703125 -0.828125 -2.015625 -0.828125q-0.90625 0 -1.625 0.421875q-0.71875 0.40625 -1.125 1.234375q-0.390625 0.8125 -0.390625 2.09375l0 7.203125l-4.15625 0l0 -14.34375l3.96875 0l0 3.921875l-0.75 -1.140625q0.75 -1.46875 2.125 -2.21875q1.375 -0.765625 3.125 -0.765625q1.984375 0 3.453125 1.0q1.484375 0.984375 1.96875 3.046875l-1.46875 -0.40625q0.71875 -1.671875 2.296875 -2.65625q1.59375 -0.984375 3.640625 -0.984375zm18.39978 14.546875l0 -2.796875l-0.265625 -0.609375l0 -5.015625q0 -1.328125 -0.8125 -2.078125q-0.8125 -0.75 -2.5 -0.75q-1.140625 0 -2.25 0.359375q-1.109375 0.359375 -1.875 0.96875l-1.5 -2.90625q1.171875 -0.8125 2.828125 -1.265625q1.65625 -0.453125 3.359375 -0.453125q3.28125 0 5.09375 1.546875q1.8125 1.53125 1.8125 4.8125l0 8.1875l-3.890625 0zm-4.375 0.21875q-1.671875 0 -2.875 -0.578125q-1.203125 -0.578125 -1.84375 -1.5625q-0.640625 -0.984375 -0.640625 -2.203125q0 -1.28125 0.625 -2.234375q0.625 -0.96875 1.984375 -1.515625q1.359375 -0.546875 3.546875 -0.546875l3.8125 0l0 2.421875l-3.359375 0q-1.46875 0 -2.015625 0.484375q-0.546875 0.484375 -0.546875 1.203125q0 0.796875 0.625 1.265625q0.640625 0.46875 1.734375 0.46875q1.03125 0 1.859375 -0.5q0.828125 -0.5 1.203125 -1.453125l0.640625 1.921875q-0.453125 1.390625 -1.65625 2.109375q-1.203125 0.71875 -3.09375 0.71875zm17.884338 0q-2.53125 0 -3.953125 -1.296875q-1.40625 -1.296875 -1.40625 -3.859375l0 -12.578125l4.15625 0l0 12.53125q0 0.90625 0.484375 1.40625q0.484375 0.484375 1.3125 0.484375q0.984375 0 1.671875 -0.53125l1.125 2.9375q-0.640625 0.453125 -1.53125 0.6875q-0.890625 0.21875 -1.859375 0.21875zm-7.5625 -11.046875l0 -3.1875l9.9375 0l0 3.1875l-9.9375 0zm13.298584 10.828125l0 -14.34375l4.15625 0l0 14.34375l-4.15625 0zm2.078125 -16.34375q-1.15625 0 -1.875 -0.65625q-0.71875 -0.671875 -0.71875 -1.65625q0 -0.984375 0.71875 -1.65625q0.71875 -0.671875 1.875 -0.671875q1.140625 0 1.859375 0.640625q0.71875 0.625 0.71875 1.609375q0 1.03125 -0.703125 1.71875q-0.703125 0.671875 -1.875 0.671875zm12.773499 16.5625q-2.296875 0 -4.078125 -0.953125q-1.765625 -0.96875 -2.796875 -2.625q-1.015625 -1.671875 -1.015625 -3.8125q0 -2.15625 1.015625 -3.8125q1.03125 -1.671875 2.796875 -2.609375q1.78125 -0.953125 4.078125 -0.953125q2.265625 0 4.046875 0.953125q1.78125 0.9375 2.796875 2.59375q1.015625 1.640625 1.015625 3.828125q0 2.140625 -1.015625 3.8125q-1.015625 1.65625 -2.796875 2.625q-1.78125 0.953125 -4.046875 0.953125zm0 -3.421875q1.03125 0 1.859375 -0.46875q0.828125 -0.484375 1.296875 -1.375q0.484375 -0.890625 0.484375 -2.125q0 -1.25 -0.484375 -2.125q-0.46875 -0.890625 -1.296875 -1.359375q-0.828125 -0.484375 -1.859375 -0.484375q-1.046875 0 -1.875 0.484375q-0.828125 0.46875 -1.328125 1.359375q-0.484375 0.875 -0.484375 2.125q0 1.234375 0.484375 2.125q0.5 0.890625 1.328125 1.375q0.828125 0.46875 1.875 0.46875zm19.350403 -11.34375q1.703125 0 3.046875 0.6875q1.34375 0.671875 2.109375 2.078125q0.78125 1.390625 0.78125 3.578125l0 8.203125l-4.15625 0l0 -7.578125q0 -1.71875 -0.765625 -2.546875q-0.75 -0.828125 -2.140625 -0.828125q-0.984375 0 -1.78125 0.421875q-0.78125 0.40625 -1.21875 1.265625q-0.4375 0.84375 -0.4375 2.171875l0 7.09375l-4.15625 0l0 -14.34375l3.96875 0l0 3.96875l-0.75 -1.1875q0.78125 -1.453125 2.21875 -2.21875q1.4375 -0.765625 3.28125 -0.765625z" fill-rule="nonzero"/><path fill="#000000" fill-opacity="0.0" d="m671.28345 148.03937l209.51184 0l0 33.543304l-209.51184 0z" fill-rule="evenodd"/><path fill="#000000" d="m692.83203 177.62874q-1.671875 0 -2.984375 -0.734375q-1.3125 -0.734375 -2.0625 -2.03125q-0.734375 -1.296875 -0.734375 -2.953125q0 -1.6875 0.734375 -2.96875q0.75 -1.28125 2.0625 -2.0q1.3125 -0.71875 2.984375 -0.71875q1.421875 0 2.578125 0.5625q1.15625 0.546875 1.8125 1.65625l-1.125 0.765625q-0.578125 -0.859375 -1.4375 -1.265625q-0.859375 -0.40625 -1.859375 -0.40625q-1.1875 0 -2.15625 0.546875q-0.953125 0.546875 -1.515625 1.53125q-0.546875 0.96875 -0.546875 2.296875q0 1.328125 0.546875 2.3125q0.5625 0.96875 1.515625 1.515625q0.96875 0.546875 2.15625 0.546875q1.0 0 1.859375 -0.40625q0.859375 -0.40625 1.4375 -1.234375l1.125 0.765625q-0.65625 1.078125 -1.8125 1.65625q-1.15625 0.5625 -2.578125 0.5625zm11.976501 0q-1.421875 0 -2.5 -0.53125q-1.0625 -0.53125 -1.65625 -1.59375q-0.578125 -1.078125 -0.578125 -2.671875l0 -6.515625l1.515625 0l0 6.34375q0 1.78125 0.890625 2.6875q0.890625 0.90625 2.484375 0.90625q1.171875 0 2.03125 -0.46875q0.875 -0.484375 1.328125 -1.390625q0.453125 -0.921875 0.453125 -2.203125l0 -5.875l1.515625 0l0 11.203125l-1.453125 0l0 -3.078125l0.234375 0.5625q-0.53125 1.234375 -1.65625 1.9375q-1.109375 0.6875 -2.609375 0.6875zm12.723206 0q-1.390625 0 -2.625 -0.390625q-1.234375 -0.40625 -1.953125 -1.0l0.6875 -1.1875q0.6875 0.5 1.75 0.875q1.0625 0.375 2.234375 0.375q1.609375 0 2.3125 -0.5q0.703125 -0.5 0.703125 -1.328125q0 -0.625 -0.40625 -0.96875q-0.390625 -0.359375 -1.03125 -0.53125q-0.640625 -0.1875 -1.4375 -0.3125q-0.78125 -0.125 -1.5625 -0.296875q-0.765625 -0.171875 -1.40625 -0.5q-0.640625 -0.34375 -1.046875 -0.90625q-0.390625 -0.578125 -0.390625 -1.546875q0 -0.90625 0.515625 -1.625q0.515625 -0.734375 1.5 -1.140625q1.0 -0.421875 2.421875 -0.421875q1.09375 0 2.171875 0.28125q1.09375 0.28125 1.796875 0.75l-0.65625 1.21875q-0.75 -0.515625 -1.609375 -0.734375q-0.84375 -0.21875 -1.703125 -0.21875q-1.515625 0 -2.234375 0.53125q-0.703125 0.515625 -0.703125 1.328125q0 0.640625 0.390625 1.0q0.390625 0.359375 1.046875 0.5625q0.65625 0.203125 1.421875 0.328125q0.78125 0.125 1.5625 0.3125q0.78125 0.171875 1.421875 0.484375q0.65625 0.3125 1.046875 0.875q0.40625 0.5625 0.40625 1.484375q0 0.984375 -0.546875 1.703125q-0.546875 0.703125 -1.578125 1.109375q-1.03125 0.390625 -2.5 0.390625zm10.939392 0q-1.578125 0 -2.4375 -0.84375q-0.84375 -0.859375 -0.84375 -2.421875l0 -10.515625l1.5 0l0 10.4375q0 0.96875 0.5 1.515625q0.515625 0.53125 1.453125 0.53125q1.0 0 1.65625 -0.578125l0.53125 1.078125q-0.4375 0.40625 -1.078125 0.609375q-0.625 0.1875 -1.28125 0.1875zm-5.296875 -10.046875l0 -1.265625l6.9375 0l0 1.265625l-6.9375 0zm14.566467 10.046875q-1.609375 0 -2.90625 -0.734375q-1.296875 -0.734375 -2.046875 -2.03125q-0.734375 -1.296875 -0.734375 -2.953125q0 -1.6875 0.734375 -2.96875q0.75 -1.28125 2.03125 -2.0q1.28125 -0.71875 2.921875 -0.71875q1.671875 0 2.953125 0.71875q1.296875 0.71875 2.03125 2.0q0.734375 1.28125 0.734375 2.96875q0 1.65625 -0.734375 2.953125q-0.734375 1.296875 -2.046875 2.03125q-1.296875 0.734375 -2.9375 0.734375zm0 -1.34375q1.21875 0 2.15625 -0.546875q0.9375 -0.546875 1.484375 -1.53125q0.546875 -1.0 0.546875 -2.296875q0 -1.328125 -0.546875 -2.296875q-0.546875 -0.984375 -1.484375 -1.53125q-0.9375 -0.546875 -2.125 -0.546875q-1.203125 0 -2.140625 0.546875q-0.9375 0.546875 -1.5 1.53125q-0.546875 0.96875 -0.546875 2.296875q0 1.296875 0.546875 2.296875q0.5625 0.984375 1.5 1.53125q0.9375 0.546875 2.109375 0.546875zm22.810242 -10.0625q1.359375 0 2.375 0.515625q1.015625 0.515625 1.578125 1.59375q0.5625 1.0625 0.5625 2.6875l0 6.5l-1.515625 0l0 -6.359375q0 -1.765625 -0.84375 -2.671875q-0.84375 -0.90625 -2.375 -0.90625q-1.15625 0 -2.0 0.484375q-0.84375 0.46875 -1.296875 1.375q-0.453125 0.90625 -0.453125 2.1875l0 5.890625l-1.515625 0l0 -6.359375q0 -1.765625 -0.859375 -2.671875q-0.84375 -0.90625 -2.390625 -0.90625q-1.125 0 -1.984375 0.484375q-0.84375 0.46875 -1.3125 1.375q-0.453125 0.90625 -0.453125 2.1875l0 5.890625l-1.515625 0l0 -11.203125l1.453125 0l0 3.03125l-0.234375 -0.53125q0.515625 -1.21875 1.65625 -1.90625q1.140625 -0.6875 2.6875 -0.6875q1.65625 0 2.796875 0.828125q1.15625 0.8125 1.5 2.453125l-0.59375 -0.234375q0.484375 -1.375 1.734375 -2.203125q1.25 -0.84375 3.0 -0.84375zm19.998474 11.40625q-1.46875 0 -2.640625 -0.671875q-1.171875 -0.671875 -1.859375 -1.953125q-0.6875 -1.28125 -0.6875 -3.09375q0 -1.828125 0.6875 -3.09375q0.703125 -1.28125 1.875 -1.9375q1.171875 -0.65625 2.625 -0.65625q1.59375 0 2.859375 0.71875q1.28125 0.703125 2.0 1.984375q0.734375 1.28125 0.734375 2.984375q0 1.6875 -0.734375 2.984375q-0.71875 1.28125 -2.0 2.015625q-1.265625 0.71875 -2.859375 0.71875zm-5.78125 -0.109375l0 -15.828125l1.515625 0l0 7.9375l-0.21875 2.265625l0.15625 2.25l0 3.375l-1.453125 0zm5.671875 -1.234375q1.203125 0 2.140625 -0.546875q0.9375 -0.546875 1.484375 -1.53125q0.5625 -1.0 0.5625 -2.296875q0 -1.328125 -0.5625 -2.296875q-0.546875 -0.984375 -1.484375 -1.53125q-0.9375 -0.546875 -2.140625 -0.546875q-1.1875 0 -2.140625 0.546875q-0.953125 0.546875 -1.5 1.53125q-0.53125 0.96875 -0.53125 2.296875q0 1.296875 0.53125 2.296875q0.546875 0.984375 1.5 1.53125q0.953125 0.546875 2.140625 0.546875zm13.554321 1.34375q-1.75 0 -3.078125 -0.734375q-1.328125 -0.734375 -2.078125 -2.03125q-0.734375 -1.296875 -0.734375 -2.953125q0 -1.65625 0.703125 -2.9375q0.71875 -1.28125 1.96875 -2.015625q1.25 -0.734375 2.8125 -0.734375q1.578125 0 2.796875 0.71875q1.234375 0.703125 1.9375 2.0q0.703125 1.28125 0.703125 2.96875q0 0.109375 -0.015625 0.234375q-0.015625 0.109375 -0.015625 0.234375l-9.734375 0l0 -1.125l8.921875 0l-0.59375 0.4375q0 -1.203125 -0.53125 -2.15625q-0.515625 -0.953125 -1.40625 -1.484375q-0.890625 -0.53125 -2.0625 -0.53125q-1.15625 0 -2.078125 0.53125q-0.921875 0.53125 -1.4375 1.5q-0.5 0.953125 -0.5 2.1875l0 0.234375q0 1.28125 0.5625 2.25q0.5625 0.96875 1.578125 1.515625q1.015625 0.546875 2.3125 0.546875q1.03125 0 1.90625 -0.359375q0.890625 -0.375 1.53125 -1.109375l0.859375 0.96875q-0.75 0.90625 -1.875 1.375q-1.109375 0.46875 -2.453125 0.46875zm13.835327 -11.40625q1.359375 0 2.390625 0.515625q1.046875 0.515625 1.625 1.59375q0.59375 1.0625 0.59375 2.6875l0 6.5l-1.515625 0l0 -6.359375q0 -1.765625 -0.890625 -2.671875q-0.875 -0.90625 -2.484375 -0.90625q-1.1875 0 -2.078125 0.484375q-0.890625 0.46875 -1.375 1.375q-0.46875 0.90625 -0.46875 2.1875l0 5.890625l-1.515625 0l0 -15.828125l1.515625 0l0 7.703125l-0.296875 -0.578125q0.53125 -1.21875 1.703125 -1.90625q1.171875 -0.6875 2.796875 -0.6875zm15.714783 11.296875l0 -2.46875l-0.0625 -0.40625l0 -4.140625q0 -1.4375 -0.796875 -2.203125q-0.796875 -0.765625 -2.375 -0.765625q-1.09375 0 -2.078125 0.375q-0.96875 0.359375 -1.65625 0.953125l-0.6875 -1.140625q0.859375 -0.71875 2.046875 -1.109375q1.203125 -0.390625 2.515625 -0.390625q2.1875 0 3.359375 1.078125q1.1875 1.0625 1.1875 3.265625l0 6.953125l-1.453125 0zm-3.859375 0.109375q-1.25 0 -2.1875 -0.40625q-0.921875 -0.421875 -1.421875 -1.15625q-0.484375 -0.75 -0.484375 -1.703125q0 -0.875 0.40625 -1.578125q0.421875 -0.71875 1.375 -1.15625q0.953125 -0.4375 2.546875 -0.4375l3.859375 0l0 1.125l-3.8125 0q-1.625 0 -2.25 0.578125q-0.625 0.578125 -0.625 1.421875q0 0.96875 0.734375 1.546875q0.75 0.5625 2.09375 0.5625q1.28125 0 2.203125 -0.578125q0.9375 -0.59375 1.359375 -1.703125l0.34375 1.046875q-0.421875 1.109375 -1.484375 1.78125q-1.046875 0.65625 -2.65625 0.65625zm12.08905 -0.109375l-4.96875 -11.203125l1.578125 0l4.5625 10.390625l-0.734375 0l4.625 -10.390625l1.484375 0l-4.984375 11.203125l-1.5625 0zm8.6848755 0l0 -11.203125l1.515625 0l0 11.203125l-1.515625 0zm0.78125 -13.671875q-0.484375 0 -0.796875 -0.3125q-0.3125 -0.328125 -0.3125 -0.78125q0 -0.4375 0.3125 -0.75q0.3125 -0.3125 0.796875 -0.3125q0.46875 0 0.78125 0.296875q0.3125 0.296875 0.3125 0.75q0 0.46875 -0.3125 0.796875q-0.296875 0.3125 -0.78125 0.3125zm9.518555 13.78125q-1.609375 0 -2.90625 -0.734375q-1.296875 -0.734375 -2.046875 -2.03125q-0.734375 -1.296875 -0.734375 -2.953125q0 -1.6875 0.734375 -2.96875q0.75 -1.28125 2.03125 -2.0q1.28125 -0.71875 2.921875 -0.71875q1.671875 0 2.953125 0.71875q1.296875 0.71875 2.03125 2.0q0.734375 1.28125 0.734375 2.96875q0 1.65625 -0.734375 2.953125q-0.734375 1.296875 -2.046875 2.03125q-1.296875 0.734375 -2.9375 0.734375zm0 -1.34375q1.21875 0 2.15625 -0.546875q0.9375 -0.546875 1.484375 -1.53125q0.546875 -1.0 0.546875 -2.296875q0 -1.328125 -0.546875 -2.296875q-0.546875 -0.984375 -1.484375 -1.53125q-0.9375 -0.546875 -2.125 -0.546875q-1.203125 0 -2.140625 0.546875q-0.9375 0.546875 -1.5 1.53125q-0.546875 0.96875 -0.546875 2.296875q0 1.296875 0.546875 2.296875q0.5625 0.984375 1.5 1.53125q0.9375 0.546875 2.109375 0.546875zm8.810303 1.234375l0 -11.203125l1.453125 0l0 3.0625l-0.15625 -0.546875q0.46875 -1.265625 1.578125 -1.9375q1.109375 -0.671875 2.75 -0.671875l0 1.46875q-0.078125 0 -0.171875 -0.015625q-0.078125 -0.015625 -0.15625 -0.015625q-1.78125 0 -2.78125 1.078125q-1.0 1.078125 -1.0 3.0625l0 5.71875l-1.515625 0z" fill-rule="nonzero"/><path fill="#000000" fill-opacity="0.0" d="m880.45917 188.26837c11.821411 -7.0939484 21.015259 -28.692154 12.401611 -39.456696c-9.117554 -11.394272 -31.163757 -17.774689 -42.839905 -9.020996c-3.7196655 2.7886658 -3.3831787 8.881271 -3.3831787 13.530182" fill-rule="evenodd"/><path stroke="#666666" stroke-width="1.0" stroke-linejoin="round" stroke-linecap="butt" d="m880.45917 188.26837c11.821411 -7.0939484 21.015259 -28.692154 12.40155 -39.456696c-9.117554 -11.394287 -31.163696 -17.774689 -42.839905 -9.020996c-1.8598022 1.3943329 -2.7056274 3.6146545 -3.0864258 6.0674896c-0.047668457 0.3066101 -0.08795166 0.6168518 -0.12213135 0.9295654c-0.017089844 0.15635681 -0.032592773 0.31333923 -0.046691895 0.47077942l-0.005126953 0.06361389" fill-rule="evenodd"/><path fill="#666666" stroke="#666666" stroke-width="1.0" stroke-linecap="butt" d="m845.109 147.28831l1.5585327 4.5709534l1.7442627 -4.5033417z" fill-rule="evenodd"/><path fill="#ab2328" d="m851.8753 119.490814l0 0c0 -13.367897 10.836853 -24.204727 24.204773 -24.204727l0 0c6.4194946 0 12.57605 2.5501328 17.115295 7.0894012c4.5392456 4.5392685 7.0894165 10.695831 7.0894165 17.115326l0 0c0 13.367905 -10.836853 24.204727 -24.204712 24.204727l0 0c-13.36792 0 -24.204773 -10.8368225 -24.204773 -24.204727z" fill-rule="evenodd"/><path fill="#000000" fill-opacity="0.0" d="m901.74146 98.70079l-48.409424 0l0 33.543304l48.409424 0z" fill-rule="evenodd"/><path fill="#ffffff" d="m877.1507 125.73016q-1.421875 0 -2.6875 -0.453125q-1.25 -0.453125 -2.015625 -1.21875l0.65625 -1.0625q0.625 0.640625 1.6875 1.078125q1.078125 0.421875 2.359375 0.421875q1.625 0 2.484375 -0.703125q0.875 -0.703125 0.875 -1.90625q0 -1.1875 -0.859375 -1.890625q-0.84375 -0.71875 -2.671875 -0.71875l-0.9375 0l0 -0.984375l4.03125 -5.0625l0.1875 0.53125l-7.28125 0l0 -1.203125l8.40625 0l0 0.953125l-4.03125 5.0625l-0.65625 -0.4375l0.5 0q2.359375 0 3.515625 1.046875q1.171875 1.046875 1.171875 2.6875q0 1.09375 -0.53125 1.984375q-0.515625 0.875 -1.578125 1.375q-1.046875 0.5 -2.625 0.5z" fill-rule="nonzero"/><path fill="#ab2328" d="m621.4304 202.52362l0 0c0 -13.367905 10.836853 -24.204727 24.204773 -24.204727l0 0c6.4194946 0 12.57605 2.5501404 17.115295 7.0894012c4.5392456 4.539276 7.0894165 10.695831 7.0894165 17.115326l0 0c0 13.367905 -10.836853 24.204727 -24.204712 24.204727l0 0c-13.36792 0 -24.204773 -10.8368225 -24.204773 -24.204727z" fill-rule="evenodd"/><path fill="#000000" fill-opacity="0.0" d="m671.2966 181.7336l-48.409424 0l0 33.543304l48.409424 0z" fill-rule="evenodd"/><path fill="#ffffff" d="m641.67596 205.2161l0 -0.96875l6.921875 -8.65625l1.484375 0l-6.859375 8.65625l-0.734375 -0.21875l10.515625 0l0 1.1875l-11.328125 0zm7.359375 3.4375l0 -3.4375l0.046875 -1.1875l0 -3.03125l1.296875 0l0 7.65625l-1.34375 0z" fill-rule="nonzero"/><path fill="#ab2328" d="m621.4304 294.2034l0 0c0 -13.367889 10.836853 -24.204712 24.204773 -24.204712l0 0c6.4194946 0 12.57605 2.5501404 17.115295 7.089386c4.5392456 4.539276 7.0894165 10.695831 7.0894165 17.115326l0 0c0 13.36792 -10.836853 24.204742 -24.204712 24.204742l0 0c-13.36792 0 -24.204773 -10.8368225 -24.204773 -24.204742z" fill-rule="evenodd"/><path fill="#000000" fill-opacity="0.0" d="m671.2966 273.4134l-48.409424 0l0 33.543304l48.409424 0z" fill-rule="evenodd"/><path fill="#ffffff" d="m646.9059 300.44275q-1.40625 0 -2.671875 -0.453125q-1.265625 -0.453125 -2.015625 -1.21875l0.65625 -1.0625q0.609375 0.640625 1.6875 1.078125q1.078125 0.421875 2.328125 0.421875q1.65625 0 2.515625 -0.734375q0.875 -0.734375 0.875 -1.921875q0 -0.84375 -0.40625 -1.453125q-0.390625 -0.609375 -1.34375 -0.9375q-0.953125 -0.34375 -2.609375 -0.34375l-2.78125 0l0.671875 -6.546875l7.140625 0l0 1.203125l-6.609375 0l0.703125 -0.65625l-0.578125 5.484375l-0.703125 -0.671875l2.453125 0q1.96875 0 3.15625 0.484375q1.203125 0.484375 1.734375 1.359375q0.53125 0.859375 0.53125 2.015625q0 1.09375 -0.53125 2.0q-0.515625 0.90625 -1.5625 1.4375q-1.03125 0.515625 -2.640625 0.515625z" fill-rule="nonzero"/><path fill="#ab2328" d="m296.7126 303.43964l0 0c0 -13.367889 10.8368225 -24.204742 24.204742 -24.204742l0 0c6.4194946 0 12.57605 2.5501404 17.115326 7.0894165c4.5392456 4.539276 7.089386 10.695831 7.089386 17.115326l0 0c0 13.367889 -10.8368225 24.204712 -24.204712 24.204712l0 0c-13.36792 0 -24.204742 -10.8368225 -24.204742 -24.204712z" fill-rule="evenodd"/><path fill="#000000" fill-opacity="0.0" d="m346.57874 282.6496l-48.409454 0l0 33.543304l48.409454 0z" fill-rule="evenodd"/><path fill="#ffffff" d="m323.0213 309.679q-1.734375 0 -2.9375 -0.765625q-1.1875 -0.78125 -1.8125 -2.234375q-0.609375 -1.46875 -0.609375 -3.53125q0 -2.21875 0.75 -3.71875q0.765625 -1.5 2.109375 -2.265625q1.34375 -0.765625 3.109375 -0.765625q0.875 0 1.671875 0.171875q0.8125 0.171875 1.421875 0.53125l-0.53125 1.09375q-0.5 -0.34375 -1.15625 -0.484375q-0.65625 -0.140625 -1.390625 -0.140625q-2.109375 0 -3.375 1.34375q-1.25 1.34375 -1.25 4.015625q0 0.40625 0.046875 1.015625q0.046875 0.609375 0.21875 1.203125l-0.46875 -0.359375q0.203125 -0.96875 0.796875 -1.640625q0.609375 -0.6875 1.5 -1.03125q0.890625 -0.359375 1.953125 -0.359375q1.3125 0 2.296875 0.484375q0.984375 0.484375 1.546875 1.359375q0.5625 0.875 0.5625 2.0625q0 1.21875 -0.578125 2.125q-0.578125 0.90625 -1.59375 1.40625q-1.015625 0.484375 -2.28125 0.484375zm-0.0625 -1.140625q0.9375 0 1.65625 -0.34375q0.71875 -0.34375 1.125 -0.984375q0.40625 -0.640625 0.40625 -1.5q0 -1.296875 -0.890625 -2.046875q-0.875 -0.765625 -2.390625 -0.765625q-1.0 0 -1.75 0.375q-0.75 0.359375 -1.1875 1.015625q-0.421875 0.640625 -0.421875 1.453125q0 0.71875 0.390625 1.359375q0.390625 0.640625 1.171875 1.046875q0.78125 0.390625 1.890625 0.390625z" fill-rule="nonzero"/><path fill="#000000" fill-opacity="0.0" d="m263.61942 413.76117l428.94492 0" fill-rule="evenodd"/><path stroke="#666666" stroke-width="1.0" stroke-linejoin="round" stroke-linecap="butt" d="m269.61942 413.76117l422.94492 0" fill-rule="evenodd"/><path fill="#666666" stroke="#666666" stroke-width="1.0" stroke-linecap="butt" d="m269.61942 412.10944l-4.538086 1.6517334l4.538086 1.6517029z" fill-rule="evenodd"/><path fill="#1c1f2a" d="m74.28609 232.893l0 0c0 -17.113922 13.873573 -30.987488 30.987495 -30.987488l123.946266 0l0 0c8.218399 0 16.10019 3.26474 21.911469 9.076019c5.8112793 5.8112793 9.076019 13.693069 9.076019 21.911469l0 171.91476c0 17.113922 -13.873566 30.987518 -30.987488 30.987518l-123.946266 0c-17.113922 0 -30.987495 -13.873596 -30.987495 -30.987518z" fill-rule="evenodd"/><path fill="#1c1f2a" d="m58.28609 216.893l0 0c0 -17.113922 13.8735695 -30.987488 30.987492 -30.987488l123.946266 0l0 0c8.218399 0 16.10019 3.26474 21.911469 9.076019c5.8112946 5.8112793 9.076035 13.693069 9.076035 21.911469l0 171.91476c0 17.113922 -13.873581 30.987518 -30.987503 30.987518l-123.946266 0c-17.113922 0 -30.987492 -13.873596 -30.987492 -30.987518z" fill-rule="evenodd"/><path stroke="#ffffff" stroke-width="1.0" stroke-linejoin="round" stroke-linecap="butt" d="m58.28609 216.893l0 0c0 -17.113922 13.8735695 -30.987488 30.987492 -30.987488l123.946266 0l0 0c8.218399 0 16.10019 3.26474 21.911469 9.076019c5.8112946 5.8112793 9.076035 13.693069 9.076035 21.911469l0 171.91476c0 17.113922 -13.873581 30.987518 -30.987503 30.987518l-123.946266 0c-17.113922 0 -30.987492 -13.873596 -30.987492 -30.987518z" fill-rule="evenodd"/><path fill="#000000" fill-opacity="0.0" d="m66.28609 235.85826l169.38583 0l0 128.25197l-169.38583 0z" fill-rule="evenodd"/><path fill="#ffffff" d="m85.42611 280.69827l0 -26.125015l11.3125 0q3.515625 0 6.046875 1.140625q2.546875 1.1250153 3.921875 3.2656403q1.375 2.125 1.375 5.078125q0 2.90625 -1.375 5.03125q-1.375 2.125 -3.921875 3.265625q-2.53125 1.140625 -6.046875 1.140625l-7.953125 0l2.6875 -2.71875l0 9.921875l-6.046875 0zm6.046875 -9.25l-2.6875 -2.875l7.625 0q2.796875 0 4.171875 -1.1875q1.390625 -1.203125 1.390625 -3.328125q0 -2.171875 -1.390625 -3.359375q-1.375 -1.203125 -4.171875 -1.203125l-7.625 0l2.6875 -2.875l0 14.828125zm32.623657 9.25l0 -3.921875l-0.375 -0.859375l0 -7.015625q0 -1.859375 -1.140625 -2.90625q-1.125 -1.046875 -3.484375 -1.046875q-1.59375 0 -3.15625 0.5q-1.546875 0.5 -2.625 1.359375l-2.09375 -4.0625q1.640625 -1.15625 3.953125 -1.78125q2.328125 -0.640625 4.703125 -0.640625q4.59375 0 7.125 2.171875q2.5468826 2.15625 2.5468826 6.75l0 11.453125l-5.4531326 0zm-6.109375 0.296875q-2.359375 0 -4.046875 -0.796875q-1.671875 -0.8125 -2.578125 -2.1875q-0.890625 -1.375 -0.890625 -3.09375q0 -1.796875 0.875 -3.140625q0.890625 -1.34375 2.78125 -2.109375q1.90625 -0.765625 4.96875 -0.765625l5.34375 0l0 3.390625l-4.703125 0q-2.0625 0 -2.828125 0.671875q-0.75 0.671875 -0.75 1.6875q0 1.125 0.875 1.78125q0.875 0.640625 2.40625 0.640625q1.453125 0 2.609375 -0.6875q1.15625 -0.6875 1.671875 -2.03125l0.90625 2.6875q-0.640625 1.9375 -2.328125 2.953125q-1.671875 1.0 -4.3125 1.0zm16.828407 -0.296875l0 -20.078125l5.5625 0l0 5.671875l-0.78125 -1.640625q0.890625 -2.125 2.859375 -3.21875q1.984375 -1.109375 4.828125 -1.109375l0 5.375q-0.375 -0.046875 -0.671875 -0.0625q-0.296875 -0.015625 -0.640625 -0.015625q-2.390625 0 -3.859375 1.359375q-1.46875 1.359375 -1.46875 4.234375l0 9.484375l-5.828125 0zm24.867218 0.296875q-3.546875 0 -5.53125 -1.8125q-1.984375 -1.8125 -1.984375 -5.390625l0 -17.625l5.828125 0l0 17.546875q0 1.265625 0.671875 1.96875q0.671875 0.6875 1.828125 0.6875q1.390625 0 2.359375 -0.75l1.5625 4.109375q-0.890625 0.625 -2.140625 0.953125q-1.25 0.3125 -2.59375 0.3125zm-10.609375 -15.453125l0 -4.484375l13.921875 0l0 4.484375l-13.921875 0zm18.628418 15.15625l0 -20.078125l5.828125 0l0 20.078125l-5.828125 0zm2.921875 -22.875q-1.609375 0 -2.625 -0.9375q-1.0 -0.93751526 -1.0 -2.3125153q0 -1.390625 1.0 -2.3125q1.015625 -0.9375 2.625 -0.9375q1.59375 0 2.59375 0.875q1.015625 0.875 1.015625 2.265625q0 1.453125 -0.984375 2.4062653q-0.984375 0.953125 -2.625 0.953125zm18.28267 23.171875q-3.4375 0 -6.03125 -1.34375q-2.59375 -1.34375 -4.015625 -3.671875q-1.421875 -2.34375 -1.421875 -5.328125q0 -3.015625 1.40625 -5.34375q1.40625 -2.34375 3.828125 -3.65625q2.421875 -1.328125 5.484375 -1.328125q2.953125 0 5.3125 1.25q2.375 1.25 3.75 3.578125q1.390625 2.328125 1.390625 5.578125q0 0.34375 -0.046875 0.78125q-0.03125 0.421875 -0.0625 0.78125l-16.3125 0l0 -3.390625l13.25 0l-2.234375 1.015625q0 -1.578125 -0.640625 -2.734375q-0.640625 -1.15625 -1.765625 -1.796875q-1.109375 -0.65625 -2.609375 -0.65625q-1.484375 0 -2.625 0.65625q-1.140625 0.640625 -1.78125 1.828125q-0.625 1.171875 -0.625 2.765625l0 0.90625q0 1.640625 0.71875 2.890625q0.734375 1.25 2.0625 1.90625q1.328125 0.640625 3.109375 0.640625q1.609375 0 2.8125 -0.484375q1.21875 -0.484375 2.234375 -1.453125l3.09375 3.359375q-1.375 1.578125 -3.46875 2.421875q-2.09375 0.828125 -4.8125 0.828125zm20.335358 0q-2.5625 0 -4.9375 -0.609375q-2.375 -0.625 -3.75 -1.546875l1.9375 -4.1875q1.375 0.859375 3.265625 1.40625q1.890625 0.53125 3.71875 0.53125q2.015625 0 2.84375 -0.484375q0.84375 -0.484375 0.84375 -1.34375q0 -0.703125 -0.65625 -1.0625q-0.640625 -0.359375 -1.734375 -0.546875q-1.078125 -0.1875 -2.375 -0.359375q-1.28125 -0.1875 -2.59375 -0.5q-1.296875 -0.328125 -2.390625 -0.953125q-1.078125 -0.640625 -1.734375 -1.71875q-0.640625 -1.09375 -0.640625 -2.8125q0 -1.90625 1.09375 -3.359375q1.109375 -1.453125 3.1875 -2.28125q2.09375 -0.84375 5.015625 -0.84375q2.046875 0 4.171875 0.453125q2.125 0.4375 3.546875 1.296875l-1.9375 4.140625q-1.453125 -0.859375 -2.9375 -1.171875q-1.46875 -0.3125 -2.84375 -0.3125q-1.953125 0 -2.84375 0.515625q-0.890625 0.515625 -0.890625 1.34375q0 0.75 0.640625 1.125q0.65625 0.375 1.734375 0.59375q1.09375 0.21875 2.375 0.390625q1.296875 0.171875 2.59375 0.515625q1.3125 0.328125 2.375 0.953125q1.0625 0.609375 1.734375 1.671875q0.671875 1.0625 0.671875 2.78125q0 1.859375 -1.125 3.296875q-1.109375 1.4375 -3.21875 2.265625q-2.109375 0.8125 -5.140625 0.8125z" fill-rule="nonzero"/></g></svg>